<svg id="Layer_1" data-name="Layer 1" xmlns="http://www.w3.org/2000/svg" xmlns:xlink="http://www.w3.org/1999/xlink" width="0.4722in" height="0.4583in" viewBox="0 0 34 33"><defs><clipPath id="clip-path"><path d="M5.5333,1.9167a3.1724,3.1724,0,0,0-2.95,2.95A2.0278,2.0278,0,0,0,3.69,6.71l9.5875,9.9563L3.69,26.2542a3.1873,3.1873,0,0,0-1.1063,2.2125,3.1724,3.1724,0,0,0,2.95,2.95A3.1873,3.1873,0,0,0,7.7458,30.31l9.5875-9.5875L26.9208,30.31a2.6284,2.6284,0,0,0,2.2125,1.1063,3.1724,3.1724,0,0,0,2.95-2.95,5.24,5.24,0,0,0-.7375-2.2125L21.39,16.6667,30.9771,6.71a2.0277,2.0277,0,0,0,1.1062-1.8437,3.1724,3.1724,0,0,0-2.95-2.95,5.24,5.24,0,0,0-2.2125.7375l-9.5875,9.5875L7.7458,2.6542A5.24,5.24,0,0,0,5.5333,1.9167Z" fill="#6d6277"/></clipPath></defs><title>supArtboard 11</title><path d="M5.5333,1.9167a3.1724,3.1724,0,0,0-2.95,2.95A2.0278,2.0278,0,0,0,3.69,6.71l9.5875,9.9563L3.69,26.2542a3.1873,3.1873,0,0,0-1.1063,2.2125,3.1724,3.1724,0,0,0,2.95,2.95A3.1873,3.1873,0,0,0,7.7458,30.31l9.5875-9.5875L26.9208,30.31a2.6284,2.6284,0,0,0,2.2125,1.1063,3.1724,3.1724,0,0,0,2.95-2.95,5.24,5.24,0,0,0-.7375-2.2125L21.39,16.6667,30.9771,6.71a2.0277,2.0277,0,0,0,1.1062-1.8437,3.1724,3.1724,0,0,0-2.95-2.95,5.24,5.24,0,0,0-2.2125.7375l-9.5875,9.5875L7.7458,2.6542A5.24,5.24,0,0,0,5.5333,1.9167Z" fill="#6d6277"/><g clip-path="url(#clip-path)"><rect x="-15.8542" y="-16.5208" width="66.375" height="66.375" fill="#6d6277"/></g></svg>