<svg id="Layer_1" data-name="Layer 1" xmlns="http://www.w3.org/2000/svg" width="0.3382in" height="0.3889in" viewBox="0 0 24.3529 28"><title>cactusArtboard 8</title><path d="M18.9912,14.9118c-.2259.2259-.7045-.2527-.93-.0267s.2319.6836.006.91-.1663.2855-.3922.5114-.4761-.0242-.7021.2017-.41.0422-.6356.2682-.2494.2024-.4753.4284.2194.6713-.0065.8973-.218.2339-.4439.46-.6026-.1506-.8286.0754-.1244.7519-.4174.6241c-.2975-.13.1135-.42.1135-.7449s-.0333-.3246-.0333-.6492.233-.3246.233-.6492-.159-.3245-.159-.6491.2288-.3245.2288-.6491-.532-.3246-.532-.6491.4543-.3246.4543-.6492-.2832-.3246-.2832-.6492-.1732-.3246-.1732-.6492-.2167-.3246-.2167-.6492.53-.3246.53-.6491.2591-.3246.2591-.6492-.0647-.3246-.0647-.6492-.5572-.3247-.5572-.6493.5887-.3246.5887-.6492-.2627-.3246-.2627-.6492-.1353-.3246-.1353-.6491.4032-.3247.4032-.6493-.4258-.3246-.4258-.6492-.3452-.3247-.3452-.6493.1449-.3247.1449-.6493.4216-.3247.4216-.6493.173-.3247.173-.6494a2.5212,2.5212,0,0,0-.041-.7452c-.0714-.1864-.7133-.1021-.8384-.2651-.1232-.16.0662-.6642-.0943-.7873a2.8043,2.8043,0,0,0-.601-.355c-.1924-.0737-.5093.4746-.71.4746s-.4392-.3433-.6316-.2695c-.1864.0714-.1857.456-.3487.5811-.1605.1231-.5637-.0052-.6869.1553-.1251.163.2232.5586.1518.745a1.0324,1.0324,0,0,0-.0943.4661c0,.3246-.4029.3246-.4029.6491s.4569.3246.4569.6492,0,.3246,0,.6491-.8127.3246-.8127.6492.2656.3245.2656.6491-.0838.3245-.0838.6491.0549.3246.0549.6492-.2365.3246-.2365.6492.3659.3246.3659.6492-.1122.3246-.1122.6492.2563.3245.2563.6491.3089.3246.3089.6492-.5746.3246-.5746.6492.3431.3246.3431.6493.0662.3246.0662.6492.0264.3246.0264.6492-.4618.3245-.4618.6491.3112.3246.3112.6493-.2091.3246-.2091.6492.0492.3247.0492.6493.4376.3246.4376.6493-.5035.3247-.5035.6493.2466.192-.0483.3279c-.29.1337-.1071.1266-.3428-.0895s-.4041-.0324-.64-.2484.1194-.6035-.1163-.82-.1387-.322-.3744-.5381-.8083.4085-1.0441.1923.137-.6227-.0988-.8388.01-.4844-.2256-.7-.2663-.1829-.502-.399-.4014-.0356-.6372-.2518-.161-.2933-.3944-.512a2.5654,2.5654,0,0,0-.56-.3909,2.763,2.763,0,0,0-.6375-.347c-.2027-.0341-.4971.1975-.7.2315-.1985.0334-.3446.2922-.53.3908-.1743.093-.5931-.0943-.744.0567-.1668.1251.1869.6836.0909.8663-.0937.1785-.4686.2363-.4948.445-.0252.2.1451.397.1821.603.0359.2.3376.242.4322.4273.0923.1807.0315.36.18.5081.2387.234.168.3056.4075.5389s.44.0269.68.26-.1093.5911.13.8244.3814.0876.6208.3209-.036.516.2034.7493.7067-.2463.9462-.013.0066.4723.246.7056.5033-.0376.7427.1957-.3319.82-.0925,1.0529.5946-.1312.8341.102.4113.057.6507.29.24.2323.48.4656.2782.1937.5176.427-.1095.5915.13.8249.1479.3274.3874.5607.4935-.0391.7434.1831c.1832.1221.0444.7116.2276.8219.1941.1169.647-.2646.841-.1882.2121.0835.3615.3746.5736.3746.21,0,.2951-.408.4964-.4991.1878-.0849.7635.3707.9284.2216a2.9481,2.9481,0,0,0,.417-.5359c.227-.2454-.3313-.7917-.0919-1.025s.2624-.21.5019-.4429.67.2082.909-.0251.3359-.1343.5753-.3676.2542-.2182.4936-.4515-.1843-.6682.0551-.9015.6057.1426.8451-.0907.0668-.41.3062-.6437.32-.15.56-.3836.27-.2024.509-.4357-.082-.5632.1575-.7965.2893-.1821.5288-.4154.6464.1843.8859-.049.2092-.2644.4487-.4977-.0165-.4961.223-.7294-.0452-.5237.1935-.7579c.151-.1509.7621.0865.8551-.0879a2.2857,2.2857,0,0,0,.1169-.6644c.0341-.2027-.2262-.4042-.26-.6069-.0333-.1985.3631-.5876.2645-.7727a2.9308,2.9308,0,0,0-.5006-.5048,2.9805,2.9805,0,0,0-.4989-.5114,2.6311,2.6311,0,0,0-.7167-.0928,2.4,2.4,0,0,0-.6952-.05,2.6634,2.6634,0,0,0-.7169.1264C18.858,14.028,19.1422,14.7609,18.9912,14.9118Z" fill="#513e4f"/></svg>