<svg id="Layer_1" data-name="Layer 1" xmlns="http://www.w3.org/2000/svg" width="51" height="44" viewBox="0 0 51 44"><title>treesArtboard 39</title><g id="OZQwkO.tif"><path d="M48.7514,17.0145a2.47,2.47,0,0,0-.3457.4392,1.2156,1.2156,0,0,1-.6276.5438.854.854,0,0,1-.283.0408c-.0735.0076-.1744-.02-.2167.0193-.2037.1869-.4376.1279-.6745.1315a1.759,1.759,0,0,0-.6568.1189,3.1335,3.1335,0,0,1-.9644.2678,3.8211,3.8211,0,0,0-.6994.2046.6935.6935,0,0,1-.2535.0572,1.7049,1.7049,0,0,0-1.0422.3472c-.0847.0478-.18.1294-.2624.12-.4747-.0529-.8452.3094-1.3025.31-.1677.2983-.446.1725-.6905.1822a1.2106,1.2106,0,0,1-.761-.3417.1926.1926,0,0,1-.0464-.13c-.0035-.0482.0316-.103.0191-.1459-.03-.1044-.1966-.153-.094-.3165.1157-.1843.2032-.381.4305-.461.2192-.0771.3883-.28.6535-.25a.25.25,0,0,0,.1639-.0815.7482.7482,0,0,1,.6489-.2074,1.6918,1.6918,0,0,0,1.0061-.3611,1.7692,1.7692,0,0,1,.92-.3367,4.0337,4.0337,0,0,0,.9431-.2578,1.6641,1.6641,0,0,1,.4719-.05,1.5845,1.5845,0,0,0,.7118-.2034,1.7912,1.7912,0,0,1,.4992-.1048c.1826-.0226.3694-.0124.5517-.0369.2316-.0312.4615-.0781.69-.1269a1.029,1.029,0,0,1,.9749.382.6958.6958,0,0,0,.236.0966Z" fill="#5b4c6b" stroke="#5b4c6b" stroke-miterlimit="10" stroke-width="0.5"/><path d="M39.9885,22.8329a.5512.5512,0,0,1-.0547-.7053c-.1174-.2127-.2407-.45-.378-.68-.0878-.1465-.1984-.279-.2951-.4206-.1888-.2764-.3595-.5672-.567-.8286-.1992-.2513-.44-.4688-.652-.7107-.0522-.06-.0522-.221-.0918-.2266-.2-.0283-.209-.1982-.2771-.3228-.1256-.23-.2412-.4653-.3716-.6923a.3363.3363,0,0,0-.1628-.138.9385.9385,0,0,1-.5825-.4914,1.0111,1.0111,0,0,0-.25-.2781c-.2271-.2124-.4481-.4336-.6934-.6233-.2129-.1646-.4895-.2507-.6066-.5266-.0057-.0134-.05-.0059-.0689-.0191a1.6346,1.6346,0,0,1-.4322-.3193,2.655,2.655,0,0,0-.9292-.8181,5.1431,5.1431,0,0,1-.4118-.3191,3.1,3.1,0,0,0-.3465-.1919c-.0406-.021-.1176-.022-.1257-.0478-.0576-.1871-.176-.146-.3247-.1343a.7188.7188,0,0,1-.3813-.1231,5.0556,5.0556,0,0,0-1.1219-.6281c-.1014-.0293-.1783-.1351-.2763-.1868a1.4066,1.4066,0,0,0-.2957-.1035c-.0574-.0152-.1238.0029-.18-.0139-.2968-.0894-.59-.1927-.8884-.2762a4.2635,4.2635,0,0,0-.6938-.15c-.2586-.0269-.522-.0066-.783-.0137-.209-.0056-.4651.05-.6156-.05-.2289-.1516-.3845.1008-.602.0081a1.6176,1.6176,0,0,0-.7728-.1123,7.68,7.68,0,0,1-1.3615.0561,3.1026,3.1026,0,0,0-.4857.0283,2.6323,2.6323,0,0,1-.5538.0508,4.5076,4.5076,0,0,0-1.4735.127,3.2763,3.2763,0,0,0-.792.3147c-.1834.09-.3335.2937-.5191.3252-.4007.0683-.6648.4963-1.1164.3984-.03-.0066-.07.0232-.1033.04-.2722.1413-.5433.2851-.8164.4248-.043.022-.1055.0522-.14.0366-.1977-.0889-.3635.0395-.5441.0615a.6682.6682,0,0,0-.59.4485.2737.2737,0,0,1-.14.1526c-.5926.18-.86.74-1.2947,1.1023a7.662,7.662,0,0,0-.5947.6194c-.224.2341-.45.4663-.6748.7-.1978.2058-.3937.4138-.5921.6189-.1723.1785-.3492.3526-.52.5323-.1619.17-.3192.3442-.4777.517a.6635.6635,0,0,0-.0808.1009c.1714.1723-.05.23-.0989.3322-.0483.1-.1235.1871-.1753.2862a2.6441,2.6441,0,0,1-.5813.9043,1.6425,1.6425,0,0,0-.37.5566c-.203.4224-.3781.8584-.5708,1.2859a2.4,2.4,0,0,0,.2125,1.3909,1.6374,1.6374,0,0,1,.3986.7051.73.73,0,0,0,.16.2822,4.4584,4.4584,0,0,0,.78.7461c.2538.1638.44.43.6894.603.3494.2424.5653.6245.94.8384a2.7062,2.7062,0,0,1,.5327.4084,6.3707,6.3707,0,0,0,1.1485.8152c.2193.1348.4364.2744.6644.3931.5252.2734.991.6411,1.5176.9189a2.98,2.98,0,0,0,1.0773.3733c.4432.0437.83.242,1.2543.3235.0483.0093.0831.08.1279.1184a.8237.8237,0,0,0,.17.1287c.18.0844.3645.1606.5491.2353a.8845.8845,0,0,0,.248.075c.3316.0266.6644.0383.9961.0632.3174.0239.635.0491.9505.0894a8.3443,8.3443,0,0,1,1.0327.1692,1.7424,1.7424,0,0,0,.5474.06c.2753-.0152.5784-.1341.8162.1306.0244.0271.0932.0254.14.02.559-.06,1.1215-.1013,1.6754-.1938.39-.0654.768-.2022,1.1516-.3057.0469-.0124.1258-.039.1393-.0212.119.1589.1623.0183.2491-.04a1.4429,1.4429,0,0,1,.607-.3291,2.0788,2.0788,0,0,0,1.1394-.407,1.4706,1.4706,0,0,1,.581-.23,1.8479,1.8479,0,0,0,.7926-.3023,4.9635,4.9635,0,0,1,.8891-.5383,15.7149,15.7149,0,0,0,1.4626-.83c.2761-.1812.7013-.1917.7894-.62.0045-.0219.0646-.0288.0941-.05q.36-.2534.7178-.51a3.51,3.51,0,0,0,.408-.3091c.1229-.12.2055-.2808.3287-.4a5.1319,5.1319,0,0,1,.8847-.7136c.2321-.1424.5219-.2671.6212-.5735a.0829.0829,0,0,1,.057-.0422c.396-.0694.3755-.5787.73-.69.1759-.4119.3493-.8247.5293-1.2346C39.9514,23.1217,39.8143,22.942,39.9885,22.8329ZM23.3412,19.4708a2.2563,2.2563,0,0,1,3.4147-.68c1.258.9809,1.4567,2.5939.0425,3.5207a2.7668,2.7668,0,0,1-2.0044.48,2.81,2.81,0,0,1-1.5188-1.2749.3876.3876,0,0,1-.0588-.41A1.8391,1.8391,0,0,1,23.3412,19.4708Zm2.049,5.4141c-.0028.1177-.1427.2051-.391.1929-.1748-.0562-.4184-.1421-.6665-.2115-.14-.04-.2924-.0385-.4317-.0805a1.4851,1.4851,0,0,1-.281-.1543c.1021-.0391.2031-.0816.3069-.1153a.1315.1315,0,0,1,.1076.0069c.2412.2209.5145.1074.78.0844.0852-.0073.172.0052.2581.0052A.31.31,0,0,1,25.39,24.8849ZM38.1,23.2758a2.413,2.413,0,0,1-.6893.7863c-.051.0357-.1327.05-.1581.0967-.1962.3631-.584.5235-.85.8142a5.7811,5.7811,0,0,1-.6864.5662c-.2912.2324-.5821.4658-.878.6924a2.16,2.16,0,0,1-.2844.1628,1.5948,1.5948,0,0,0-.579.3843,1.07,1.07,0,0,1-.5552.2717,1.0651,1.0651,0,0,0-.5563.2735.869.869,0,0,1-.7722.341.1653.1653,0,0,0-.1243.0679,1.9876,1.9876,0,0,1-.9242.529c-.3618.16-.7266.3135-1.0913.4668a.626.626,0,0,1-.2459.0782,2.4732,2.4732,0,0,0-1.5843.54c-.1.0728-.1755.124-.3.0647a.2017.2017,0,0,0-.1761.0115c-.1515.12-.3335.0823-.4978.1247a1.8822,1.8822,0,0,1-1.1748-.2094.7454.7454,0,0,0-.5438-.0706c-.1668.06-.3014-.0039-.5781-.1091a1.0393,1.0393,0,0,0-.3958-.0408c-.4311.0156-.8616.05-1.2927.063a5.7318,5.7318,0,0,1-1.11-.0139,2.914,2.914,0,0,1-.98-.3259,1.6459,1.6459,0,0,0-.6052-.2271,3.2491,3.2491,0,0,1-1.5752-.47,6.4188,6.4188,0,0,0-.7954-.3762c-.2344-.1258-.4447-.2959-.6766-.427-.3122-.1763-.6152-.3682-.932-.5372a4.226,4.226,0,0,1-.46-.3171c-.04-.029-.0681-.0852-.1112-.0991-.39-.1257-.61-.4619-.9006-.7112a1.1215,1.1215,0,0,0-.2433-.1736,3.8682,3.8682,0,0,1-1.5163-1.415.9567.9567,0,0,0-.1642-.2.6431.6431,0,0,1-.2421-.8481,3.0544,3.0544,0,0,1,.6135-1.1424.8415.8415,0,0,0,.12-.2287c.0348-.0654.0647-.1782.1112-.1861.42-.073.45-.5036.6844-.7439a3.318,3.318,0,0,1,.54-.4445,1.265,1.265,0,0,0,.4724-.4087c.1273-.2769.2051-.543.5191-.6934a1.2383,1.2383,0,0,0,.3843-.44,1.6372,1.6372,0,0,1,.5894-.4314,1.1613,1.1613,0,0,0,.2862-.3261c.2464-.33.481-.6692.7324-.9956a.714.714,0,0,1,.587-.2923.511.511,0,0,0,.4347-.2307c.0573-.061.1188-.1755.1733-.1726A1.0336,1.0336,0,0,0,19.73,16.05a2.0415,2.0415,0,0,1,.4977-.1219c.2923-.0888.58-.1938.87-.29.0661-.0217.1354-.0335.2032-.05-.0264.0747-.0318.17-.0826.22-.4542.448-.9179.8863-1.3758,1.3306a1.8583,1.8583,0,0,0-.6532.8631,6.1561,6.1561,0,0,1-.4411.9824.4313.4313,0,0,0-.0494.1794,2.7685,2.7685,0,0,1-.2914,1.21.6709.6709,0,0,0,.0213.3794c.0653.2847-.1681.5532-.0167.853.056.1111-.0117.2915-.04.4371a1.1086,1.1086,0,0,0,.1973.9492.8115.8115,0,0,1,.1338.3086,4.813,4.813,0,0,0,.6148,1.0674c.0556.1079.2511.14.3172.2465a1.7708,1.7708,0,0,0,.7585.545c.0947.0532.1616.154.253.2155a3.5972,3.5972,0,0,0,.3812.2161c.0546.0278.1334.02.1764.0569a2.0158,2.0158,0,0,0,.89.44,6.4079,6.4079,0,0,1,.9309.367c.2141.0874.4241.1865.6432.2583a1.62,1.62,0,0,0,.4034.0554,1.58,1.58,0,0,1,.6073.082,2.0161,2.0161,0,0,0,.692.06c.25.0124.5.0259.75.0261.1361,0,.2721-.0283.4084-.04a2.493,2.493,0,0,0,.9929-.2029c.4193-.1836.8306-.3867,1.241-.59a2.7426,2.7426,0,0,0,.6173-.3508c.2162-.1917.4974-.3018.6575-.575a.525.525,0,0,1,.419-.2715c.118-.0073.2376-.1289.34-.218.354-.3064.7009-.6208,1.05-.9324.0187-.0168.0355-.0358.0554-.0507.1941-.147.4485-.1985.57-.46a5.4743,5.4743,0,0,0,.67-1.8889,1.5632,1.5632,0,0,0-.0143-.2248,3.1052,3.1052,0,0,0-.345-1.2732,4.4928,4.4928,0,0,0-.6113-1.0025,2.8143,2.8143,0,0,1-.72-1.1293,2.9917,2.9917,0,0,0-.6892-.9053c-.1986-.2378-.37-.4981-.5488-.7525-.024-.0337-.0162-.09-.0231-.1355.058-.0066.1427-.0412.17-.0153.493.47,1.2163.4943,1.7458.9062.1518.1182.3861.146.5346.3071a.128.128,0,0,0,.1034.0371c.25-.062.3912.1763.6085.2181.1018.02.18.16.27.2453a8.4883,8.4883,0,0,0,.6239.5835,3.4212,3.4212,0,0,1,.928.9444,1.7978,1.7978,0,0,0,.4575.4365,3.56,3.56,0,0,1,.6862.678c.2914.3957.6649.73.9935,1.0993a1.5813,1.5813,0,0,1,.5475,1.0672.4494.4494,0,0,0,.1354.2859A.3876.3876,0,0,1,38.1,23.2758Z" fill="#5b4c6b" stroke="#5b4c6b" stroke-miterlimit="10" stroke-width="0.5"/><path d="M34.2738,12.361c-.1652-.0477-.33-.0987-.4957-.1423-.1429-.0374-.2578-.0717-.2154-.2738.0135-.0647-.0914-.1614-.1536-.2336-.2288-.2653-.226-.3768.0128-.6334.0566-.0608.1457-.1582.129-.2089-.0718-.2181.0859-.2664.2161-.3279a2.3466,2.3466,0,0,0,.7833-.6062c.3131-.36.7694-.5907.9635-1.0638a.1549.1549,0,0,1,.08-.0752c.4671-.1845.6775-.6476,1.0322-.9541.046-.04.0376-.1383.0637-.206.02-.0523.0489-.1362.0842-.1419.1582-.0256.19-.1465.2323-.2641a.5263.5263,0,0,1,.3122-.296,1.9039,1.9039,0,0,0,1.0087-.84c.0561-.1164.2354-.1694.3486-.263a1.3746,1.3746,0,0,1,.7059-.3478c.2933-.0437.4876.1168.7238.1827.076.0212.2558.1344.0659.2763.0512.0621.1488.1273.1449.1857a1.1105,1.1105,0,0,1-.1069.501,4.482,4.482,0,0,1-1.0917,1.2036,11.5769,11.5769,0,0,0-1.0193.9314,3.6209,3.6209,0,0,0-.2259.3389c-.217.2673-.4329.537-.67.7856-.1448.1517-.34.2538-.4921.4-.3058.2939-.591.6093-.8964.9035a6.8316,6.8316,0,0,1-1.1668.9657C34.5274,12.23,34.4757,12.41,34.2738,12.361Z" fill="#5b4c6b" stroke="#5b4c6b" stroke-miterlimit="10" stroke-width="0.5"/><path d="M11.7328,39.1049a1.5764,1.5764,0,0,1-.4382-.06c-.0861-.037-.36-.069-.14-.2917a.1046.1046,0,0,0-.019-.0944c-.2377-.0909-.15-.2882-.0928-.4105a2.4431,2.4431,0,0,1,.5524-.9624c.2663-.2225.4776-.5093.7293-.751.2069-.1985.4377-.372.6573-.5574a1.0177,1.0177,0,0,0,.1944-.1748c.2407-.3478.4687-.7044.711-1.0511a1.7359,1.7359,0,0,1,.26-.2632,5.637,5.637,0,0,0,.6805-.6293,10.715,10.715,0,0,1,1.5244-1.53.7963.7963,0,0,1,1.0106-.0273,2.272,2.272,0,0,1,.4573.6087c.0807.1337-.0043.2618-.1124.3652a.3986.3986,0,0,0-.1774.3841c.012.0733-.128.213-.2274.2556a1.9381,1.9381,0,0,0-.9083.7942c-.0351.057-.1264.0764-.1827.1239-.0944.08-.223.1515-.2645.2556a3.1321,3.1321,0,0,1-.79.9272c-.1719.1823-.3495.36-.5111.5509a1.8307,1.8307,0,0,0-.1842.3162,1.9121,1.9121,0,0,1-.603.7157,2.8535,2.8535,0,0,0-.8113.6477,2.11,2.11,0,0,1-.7215.6653A1.5673,1.5673,0,0,1,11.7328,39.1049Z" fill="#5b4c6b" stroke="#5b4c6b" stroke-miterlimit="10" stroke-width="0.5"/><path d="M16.5923,12.6681a.612.612,0,0,1-.6651-.305c-.1283-.2137-.2722-.4181-.3991-.6325a8.8114,8.8114,0,0,1-.472-.8467,3.66,3.66,0,0,1-.253-.7993.8853.8853,0,0,0-.2911-.5357c-.1962-.1779-.3016-.4525-.4855-.6483-.2234-.238-.3759-.525-.6068-.7614a5.7622,5.7622,0,0,1-.838-1.0906,1.2528,1.2528,0,0,1,.0391-1.1908c.0257-.0556.1111-.09.1757-.12a2.31,2.31,0,0,0,.2782-.1053c.158-.1.2687-.033.4094.0471.0991.0565.1342.3074.3422.148a1.2331,1.2331,0,0,1,.233.2256c.16.187.3207.3748.4671.5727.1238.1674.2077.3675.3458.52a2.4281,2.4281,0,0,1,.4861.5832,3.2172,3.2172,0,0,0,.4129.5243q.3948.5165.7782,1.0417a.5336.5336,0,0,1,.0594.1737c.0468.17.0149.3742.2165.4744a.0777.0777,0,0,1,.0263.0607,1.1378,1.1378,0,0,0,.3392,1.0567,1.4343,1.4343,0,0,1,.3468.7329.56.56,0,0,1-.2348.63A1.0417,1.0417,0,0,1,16.5923,12.6681Z" fill="#5b4c6b" stroke="#5b4c6b" stroke-miterlimit="10" stroke-width="0.5"/><path d="M3.3963,26.901c.0739-.0061.179.0169.2163-.0232.185-.1989.4161-.1506.6346-.1319a1.0428,1.0428,0,0,0,.6381-.1789,1.6608,1.6608,0,0,1,.8786-.2729.39.39,0,0,0,.1833-.0283A4.4608,4.4608,0,0,1,7.11,25.9317a2.0894,2.0894,0,0,0,.3349-.1452c.1351-.06.2763-.18.4044-.1676.3293.0325.5575-.175.8285-.2779.1612-.0613.32-.1321.4743-.2084.143-.07.2942-.0592.4469-.1886.287-.243,1.0909.0421,1.229.3974.0832.214.1739.4249-.0684.6678a1.3158,1.3158,0,0,1-.8.4811.27.27,0,0,0-.17.073c-.2159.2662-.5437.2212-.8215.2653a.7772.7772,0,0,0-.286.0879c-.3558.2039-.715.402-1.0737.6008a.2181.2181,0,0,1-.1056.0368,3.1033,3.1033,0,0,0-1.2447.3427,1.0437,1.0437,0,0,1-.4885.063.9374.9374,0,0,0-.6331.1858,1.1519,1.1519,0,0,1-.6066.1495,4.28,4.28,0,0,0-.7.11c-.1824.0333-.3618.0894-.5453.1082a1.3826,1.3826,0,0,1-1.0177-.4355c-.0275-.0224-.0225-.12.0014-.1645a2.958,2.958,0,0,1,.7784-.9469,1.056,1.056,0,0,1,.3373-.11Z" fill="#5b4c6b" stroke="#5b4c6b" stroke-miterlimit="10" stroke-width="0.5"/><path d="M24.981,2.6a.45.45,0,0,1,.0057.0879,1.318,1.318,0,0,0-.1085.3553c-.0015.1052.0826.2087.1078.3178a2.338,2.338,0,0,1,.0455.3722c.0147.2227.02.446.0348.6687.0048.0726.0023.1732.0462.2111.1832.158-.0545.3323.0367.4923a2.7352,2.7352,0,0,1,.22.4669c.0254.0746-.0229.1712-.02.2572.0034.1093-.0153.2707.0459.3173.1875.1427.157.3409.1547.5111a3.3346,3.3346,0,0,0,.1051,1.0292,1.8644,1.8644,0,0,1-.0819.7335c-.0216.1429-.11.2758.0028.4278.0767.1033-.0182.1727-.0985.2438a4.8437,4.8437,0,0,0-.3619.3727c-.032.0352-.0758.0983-.0638.1291.1815.468-.1869.1449-.2315.1358a1.3014,1.3014,0,0,1-.8636-.5312,1.4242,1.4242,0,0,1-.2228-.9664,2.38,2.38,0,0,0,.0207-1.064c-.0594-.1643.0033-.3689-.0354-.5452a13.4765,13.4765,0,0,1-.28-2.2115c-.0042-.0833-.0718-.1634-.0762-.2467a8.9207,8.9207,0,0,1-.0264-1.1561,1.387,1.387,0,0,0,.0392-.3823.8406.8406,0,0,1,.3456-.8869.5662.5662,0,0,0,.1308-.1318c.0679-.0959.134-.14.2468-.0564a.3914.3914,0,0,0,.1728.0419c.13.0181.2918-.01.38.0587s.1043.23.1445.3531C24.8656,2.2177,24.9294,2.4328,24.981,2.6Z" fill="#5b4c6b" stroke="#5b4c6b" stroke-miterlimit="10" stroke-width="0.5"/><path d="M38.7525,37.2455a1.1973,1.1973,0,0,1-.0058.3689.6716.6716,0,0,1-1.0686.24.58.58,0,0,0-.1726-.1154,1.1681,1.1681,0,0,1-.7529-.711.7142.7142,0,0,0-.2329-.2808,2.7878,2.7878,0,0,1-.6967-.7775,3.69,3.69,0,0,0-.4259-.5089c-.0875-.1054-.1688-.2161-.25-.3267a2.0169,2.0169,0,0,0-.2867-.39,1.22,1.22,0,0,1-.4052-.77c-.0554-.2865-.13-.57-.21-.8506a.51.51,0,0,0-.1362-.1727c-.1194-.1282-.2478-.2484-.3615-.3814a.45.45,0,0,1-.1182-.4832.26.26,0,0,0,.0165-.182c-.1111-.2222.0353-.3612.1568-.4976a.9151.9151,0,0,1,1.0016-.2017,1.2886,1.2886,0,0,1,.4171.4047c.2888.4225.5715.8515.8188,1.2988a5.8476,5.8476,0,0,1,.2456.7388,1.9878,1.9878,0,0,0,.2588.49c.1731.2272.3749.4328.5681.6443.0651.0712.14.1336.2122.1983.0457.0409.1222.07.1376.119a2.881,2.881,0,0,0,.8424,1.1372C38.7181,36.6483,38.7633,36.75,38.7525,37.2455Z" fill="#5b4c6b" stroke="#5b4c6b" stroke-miterlimit="10" stroke-width="0.5"/><path d="M10.5374,17.78a.95.95,0,0,0-.2811.0232.5832.5832,0,0,1-.664-.208c-.0347-.0343-.0651-.101-.1-.1026-.5061-.024-.8764-.5052-1.42-.4174-.08.013-.18-.0843-.2685-.1341-.22-.1241-.4341-.261-.6608-.3719a2.137,2.137,0,0,0-.5163-.1831,3.9752,3.9752,0,0,1-1.2735-.3974,4.155,4.155,0,0,0-.9143-.3081c-.3689-.1084-.7461-.19-1.11-.3116a.8132.8132,0,0,1-.3017-.2578,1.62,1.62,0,0,1-.1115-.2361c-.0415-.0688-.1513-.1346-.1428-.1874a.5259.5259,0,0,1,.152-.2923,5.4355,5.4355,0,0,1,.5481-.405.2112.2112,0,0,1,.1343-.0035c.183.0308.366.0625.5476.1.3678.0767.7328.1686,1.1025.2339a6.545,6.545,0,0,1,1.2395.432,7.1656,7.1656,0,0,0,.7523.23,5.8131,5.8131,0,0,1,.699.25c.4707.1961.9371.4027,1.405.6055.0228.01.0431.0364.0647.0365.5045.0038.817.41,1.2371.59.0687.0295.1318.0721.2.1036a.6723.6723,0,0,1,.431.7781.8578.8578,0,0,1-.5447.4609A1.5957,1.5957,0,0,1,10.5374,17.78Z" fill="#5b4c6b" stroke="#5b4c6b" stroke-miterlimit="10" stroke-width="0.5"/><path d="M26.4593,41.3468a.7549.7549,0,0,0-.0512-.6214,1.2913,1.2913,0,0,1-.0975-.6494c.0541-.3218-.1072-.6-.1056-.9049a.488.488,0,0,0-.102-.2264.82.82,0,0,1-.1557-.6358.4369.4369,0,0,0-.0578-.3156,1.0422,1.0422,0,0,1-.135-.6064,1.75,1.75,0,0,0-.0715-.6238,1.67,1.67,0,0,1-.0043-1.1331c.0095-.0484.0621-.115.0457-.1379-.2241-.3118.0849-.4559.2005-.66.0246-.0435.0508-.0864.0784-.128.2418-.3639.4566-.4059.8254-.16a1.6914,1.6914,0,0,1,.6562,1.1668c.0207.1-.0475.2159-.0627.3262a1.295,1.295,0,0,0-.0348.4354,7.8415,7.8415,0,0,0,.2467,1.441,2.6873,2.6873,0,0,1,.0885.681q.07.5365.1487,1.0719a.6061.6061,0,0,0,.0681.2125.4167.4167,0,0,1,.0355.3515.9915.9915,0,0,0-.0031.5132c.0474.1594.1272.2889-.005.4432-.0252.0294.0046.1126.019.1684a1.0166,1.0166,0,0,1-.4737,1.1192c-.0821.0428-.2129.0021-.3192-.0139-.4161-.0627-.4192-.0634-.5658-.4478-.062-.1626-.109-.3311-.1573-.4985A.8371.8371,0,0,1,26.4593,41.3468Z" fill="#5b4c6b" stroke="#5b4c6b" stroke-miterlimit="10" stroke-width="0.5"/><path d="M46.9759,29.3282c-.4808-.1147-.9631-.2235-1.4419-.3461a6.1683,6.1683,0,0,1-1.0253-.3052,2.8461,2.8461,0,0,0-.836-.1946,3.4262,3.4262,0,0,1-.7455-.2414A10.6761,10.6761,0,0,0,41.64,27.74c-.3648-.088-.66-.3019-1.0061-.414a4.1708,4.1708,0,0,1-.7646-.37.9034.9034,0,0,1-.2156-.7572.5446.5446,0,0,1,.56-.3437.8628.8628,0,0,0,.3674-.0474.4841.4841,0,0,1,.6554.172.3653.3653,0,0,0,.2868.123.8836.8836,0,0,1,.3738.1322.9974.9974,0,0,0,.8716.2156c.1015-.0272.1231.0085.19.087.0811.0946.2572.1085.3928.1554.047.0162.1129.0112.1415.0423.3089.3355.7454.3176,1.1385.4094a5.1176,5.1176,0,0,1,.9143.301,7.7027,7.7027,0,0,0,1.3628.3466c.1454.0338.2929.06.4406.0815.4229.0621.5953.4036.7971.7114a.1178.1178,0,0,1,.0057.1036c-.14.2273-.2345.5034-.5669.5285-.1994.0151-.3979.0424-.5968.0642Z" fill="#5b4c6b" stroke="#5b4c6b" stroke-miterlimit="10" stroke-width="0.5"/><path d="M40.842,12.9791c.1218.17-.007.3143-.1231.429-.1075.1062-.1.2778-.2976.3494a1.5808,1.5808,0,0,0-.4972.4388c-.1231.1277-.2225.2786-.4378.2038a.1524.1524,0,0,0-.1073.0188c-.26.1414-.5718.1949-.8076.3359a4.3352,4.3352,0,0,1-1.0238.3887.7808.7808,0,0,1-.94-.501c-.1728-.4578.1442-.69.3734-.9184.1919-.1915.4123-.4632.7691-.3815.3686-.3.9165-.2455,1.2438-.6277.4071-.0724.718-.413,1.1511-.4124C40.6526,12.3031,40.7947,12.4367,40.842,12.9791Z" fill="#5b4c6b" stroke="#5b4c6b" stroke-miterlimit="10" stroke-width="0.5"/><path d="M10.2406,31.8827c.0986-.3289.0415-.7091.3952-.95a2.9576,2.9576,0,0,0,.4765-.5238c.1-.1133.1939-.2342.3777-.178a.2206.2206,0,0,0,.1434-.0153c.3254-.15.6452-.3128.9733-.4568a5.7162,5.7162,0,0,1,.87-.3375c.4159-.1058.7.1427.8552.5474.1659.4327-.139.6249-.36.839a1.1041,1.1041,0,0,1-.7707.4161A17.6326,17.6326,0,0,0,11.2,32.2726c-.0585.044-.1405.0955-.1415-.05a.9143.9143,0,0,0-.1457.0432A.4544.4544,0,0,1,10.2406,31.8827Z" fill="#5b4c6b" stroke="#5b4c6b" stroke-miterlimit="10" stroke-width="0.5"/><path d="M13.4152,13.7209a.6775.6775,0,0,1-.879.6337,3.2939,3.2939,0,0,1-1.4218-1.135c-.2759-.3371-.43-.7688-.8079-1.0272a.77.77,0,0,1-.0265-.6164,2.2264,2.2264,0,0,1,.1665-.2025c.2471-.2819.2629-.28.59-.1077a3.3737,3.3737,0,0,1,.4974.234,8.4738,8.4738,0,0,1,.7647.6811,5.9811,5.9811,0,0,1,.7261.7891A1.6782,1.6782,0,0,1,13.4152,13.7209Z" fill="#5b4c6b" stroke="#5b4c6b" stroke-miterlimit="10" stroke-width="0.5"/><path d="M38.5115,29.3748a1.01,1.01,0,0,1,.2953.0935c.2348.1606.4575.34.68.5172a3.6225,3.6225,0,0,1,.7865.981.9846.9846,0,0,0,.36.3686c.2611.1287.1746.3878.1693.535-.0065.1764-.2028.3593-.3453.513-.1017.11-.2407.0885-.3775.0046-.1754-.1076-.3838-.1659-.5474-.287a9.1551,9.1551,0,0,1-.7831-.6636c-.2426-.2258-.4761-.463-.6956-.7111a3.22,3.22,0,0,1-.3878-.5444c-.1088-.1925.1424-.6589.3783-.7225C38.1885,29.42,38.3388,29.405,38.5115,29.3748Z" fill="#5b4c6b" stroke="#5b4c6b" stroke-miterlimit="10" stroke-width="0.5"/><path d="M30.2454,9.3955a.3917.3917,0,0,1-.5146-.2407,1.0262,1.0262,0,0,1,.04-.6755,11.5367,11.5367,0,0,1,.6938-1.2652,3.9765,3.9765,0,0,1,.4744-.6227.72.72,0,0,1,.9455.0708,1.8664,1.8664,0,0,1,.2631.5766.5222.5222,0,0,1-.1425.5536,1.268,1.268,0,0,0-.3591.6021A1.7721,1.7721,0,0,1,30.51,9.4121C30.44,9.4423,30.34,9.4032,30.2454,9.3955Z" fill="#5b4c6b" stroke="#5b4c6b" stroke-miterlimit="10" stroke-width="0.5"/><path d="M20.907,34.9437a.3982.3982,0,0,1,.5308.2746,1.0117,1.0117,0,0,1-.07.5993,3.79,3.79,0,0,1-.3018.634c-.1706.3127-.3529.619-.5317.9271a1.4068,1.4068,0,0,1-.1769.2778c-.0595.0618-.1253.2278-.2543.0566-.0111-.0147-.0986.0038-.1276.0312a.3713.3713,0,0,1-.4468.05.5225.5225,0,0,1-.2741-.3785c-.0334-.0978-.0049-.1932-.1142-.287-.12-.1025-.0685-.3685.0668-.5089a.9452.9452,0,0,0,.3437-.682.2086.2086,0,0,1,.0775-.1635c.234-.1142.2921-.3761.4721-.5357A.8645.8645,0,0,1,20.907,34.9437Z" fill="#5b4c6b" stroke="#5b4c6b" stroke-miterlimit="10" stroke-width="0.5"/><path d="M19.5028,7.0656a.594.594,0,0,1,.6415.1928A1.58,1.58,0,0,1,20.7,8.18a.2608.2608,0,0,0,.0489.1394c.2451.2826.1244.5946.0628.8934-.02.0947-.1206.1784-.1974.2538-.07.0686-.1719.107-.2341.18-.12.142-.2216.306-.256-.0422-.0024-.0249-.0475-.0585-.0781-.0659A.8158.8158,0,0,1,19.3,8.7845c-.02-.0986-.0372-.1306-.1369-.1075a.4791.4791,0,0,1-.0653-.1411,6.3149,6.3149,0,0,0-.2712-.7666c-.121-.2409.01-.4366.044-.6507.0034-.0214.0518-.05.08-.0507C19.1343,7.0634,19.3186,7.0656,19.5028,7.0656Z" fill="#5b4c6b" stroke="#5b4c6b" stroke-miterlimit="10" stroke-width="0.5"/><path d="M31.6827,36.89a.9541.9541,0,0,1-.819-.4644,4.2293,4.2293,0,0,1-.5066-1.0731,1.7534,1.7534,0,0,1,.0366-.7043c.0076-.0581.0917-.11.1472-.157a2.0281,2.0281,0,0,0,.207-.1568c.0929-.1023.1719-.3254.2457.0105.007.0318.0745.0672.117.0716a.91.91,0,0,1,.6965.4989,1.6333,1.6333,0,0,0,.2352.52,4.7238,4.7238,0,0,1,.2583.5806.93.93,0,0,1,.0827.619c-.0194.112.003.2084-.1907.1723A1.5255,1.5255,0,0,0,31.6827,36.89Z" fill="#5b4c6b" stroke="#5b4c6b" stroke-miterlimit="10" stroke-width="0.5"/></g></svg>