<svg id="Layer_1" data-name="Layer 1" xmlns="http://www.w3.org/2000/svg" xmlns:xlink="http://www.w3.org/1999/xlink" width="3.6759in" height="2.8056in" viewBox="0 0 264.6667 202"><defs><linearGradient id="linear-gradient" x1="111.0074" y1="68.0184" x2="111.0074" y2="134.2141" gradientUnits="userSpaceOnUse"><stop offset="0" stop-color="#b8ccbc"/><stop offset="0.9962" stop-color="#a1c2b6"/></linearGradient></defs><title>cactusArtboard 3 copy 4</title><path d="M88.2659,100.9866c-.1015-.1555-.1566.1252,0,0Z" fill="#e1efe9"/><path d="M168.5216,95.9636c.0314.0146.0476-.0177.0786-.0173.0685-.8347.1315-1.5557.19-2.1038Z" fill="#e1efe9"/><path d="M181.346,101.3537c.0288.0923.0488.1415.0756.2254C181.4218,101.0775,181.4443,100.5768,181.346,101.3537Z" fill="#e1efe9"/><path d="M138.7007,103.3511c-.1114-.0516-.1755.1342-.2241.4046A.9582.9582,0,0,1,138.7007,103.3511Z" fill="#e1efe9"/><path d="M64.5737,105.1176s.033-.0393.0573-.0728c-.0431-.1677-.0879-.2886-.1317-.5065Z" fill="#e1efe9"/><path d="M64.8525,103.6922a1.37,1.37,0,0,1-.2215,1.3526c.2984,1.14.6116,1.2311.9372.7147C65.5837,104.4684,64.98,104.6548,64.8525,103.6922Z" fill="#e1efe9"/><path d="M21.6562,108.1063l.1359-.5191A3.1027,3.1027,0,0,0,21.6562,108.1063Z" fill="#e1efe9"/><path d="M139.1012,166.6775c-.0651.1165-.1378.1736-.1981.3035C139.0033,167.0192,139.06,166.875,139.1012,166.6775Z" fill="#e1efe9"/><path d="M28.4053,109.4827l.102-2.0443C28.43,108.2878,28.4065,108.9279,28.4053,109.4827Z" fill="#e1efe9"/><path d="M168.7905,93.8425l.1044-.7969C168.8605,93.2277,168.8269,93.5109,168.7905,93.8425Z" fill="#e1efe9"/><path d="M193.2423,102.8411c-.0041.6274.0162,1.1283.0422,1.5572a.0421.0421,0,0,1,.0335.0155Z" fill="#e1efe9"/><path d="M252.8559,136.2c-.001-.2539-.0077-.5214-.0209-.799l-.26,1.4519A1.2934,1.2934,0,0,0,252.8559,136.2Z" fill="#e1efe9"/><path d="M209.4654,111.9312c.0176-.2363.0593-.4529.0655-.711-.27-.688-1.0051-.85-1.949-.7832l-.092,2.5107Z" fill="#e1efe9"/><path d="M226.5377,170.7416l-1.673-5.0778c5.6238-2.2474,8.1638,2.8522,13.0055-1.1572l-.28,1.0915c.6808,1.179,1.229-10.1639,8.7367,3.8024l-.0069.505c.2683-.0832.28-1.0928.7954.2594l-1.2882-3.114c.8143-1.2585,1.5442-3.6627,2.6114-3.9906a8.3566,8.3566,0,0,1,.2922,2.41l2.6178-.81.7542,3.2752c.8209-1.7593.5521-8.6525,2.6308-4.7862-.738-4.7905,1.0967-2.852.8668-5.2887.0995.5929.3317,1.4784.517,2.3,1.2747-.5374,3.68-1.8446,4.3043-4.2909,0,0-4.8216-10.1318-6.0853-15.2607,1.7666,1.3226.4786-.5787.1487-2.1908l-.135,1.1884c-1.0532-1.1812-1.012-4.1985-1.5349-5.0428-.0033.2426.0089.5365.02.8374l.0737-.403a4.15,4.15,0,0,1-.0528,1.202c.0042.6455-.0522,1.1528-.3407.9683l.06-.3154c-.4527.4333-1.2172-.05-1.55-.27l.0278-2.5208c-.8578,4.7892-5.2261-7.3942-6.2878-7.5679-1.0252-3.1932-2.4054.7533-3.7178-.8554-2.1156-.8412-1.0136-3.6919-2.0512-5.88-1.3121-1.5987.23,2.9425-.3075,3.1043l-1.55-3.5274c.9325-.2893.45-1.8165.2929-2.7929-1.3751-.447-3.4895-5.0984-3.9832-.0766-1.83-2.4334-1.8072-4.4483-2.6027-4.7078a9.9192,9.9192,0,0,1,.7655,2.7765c-.7159-2.2293-.3641.5427-.0655,1.0414-1.1683,2.17-5.7824-9.2484-6.0972-3.73l.0138-1.0074c-.3207,4.1076.0493,8.1068-.7767,10.3677l-.5052-1.8446-.823,1.7562a6.118,6.118,0,0,1-.232-2.9375c-1.3273,1.881-3.1117-.41-4.68-.983l1.516,11.2337c-1.2943-2.6073-3.6212-7.8966-3.9359-4.2916l-.7473-3.78c-2.5677-7.2276-1.9041,3.0988-2.9383.9173l-1.2828-4.1216,1.3313.09a30.5,30.5,0,0,1-2.8445-6.1353c-.0006.0409-.0126.07-.0132.11a1.684,1.684,0,0,1,.122.6137l-.1875.0973c-.1895,2.0435-.9036,3.437-1.84,3.2884-1.3253-.5942-2.409,2.4159-4.4784-1.957l-.5883,4.1888-1.5639-2.5222.0456-3.34c1.5631.2214,4.5272-1.01,6.542-1.1526l.0564-1.5253c-1.1935-.0113-2.5713,1.4491-3.3552,1.1059-.3754-.6714-1.3116-4.16-.567-6.4028l-.7818,3.2583c-3.9887.32-4.0166.4793-8.1221-3.36l.338,1.6823c-.8381.9736-1.6734,1.9223-1.8657-.7975-2.4885-.5859-5.0456-2.726-6.6085-6.9787l-.4086,3.9309c-.5242-.2244-1.2332-6.1822-1.5651-.6761l-1.15,1.7222c-.7164-.3106-1.1885,1.9317-1.9779-.3391,0-.0051,0-.0021,0-.0021-.0017-.01-.0044-.01-.0044-.01-.0485-.1407-.1-.29-.1484-.4662-.0017.12.0014.2236.0045.3276-1.6068-1.7618-.032,3.5284-1.8683,1.2369-.5608-2.8062-.7309,4.9868-1.6285,4.0809l-.8363-5.6577c-1.6044-3.2621-1.9638,2.3956-4.3526,2.3814-1.1195-2.0268-1.6078-6.8515-.79-11.1177-1.1153,5.1628-.5215,3.3675-1.9409,5.8316a12.8157,12.8157,0,0,1,.302-4.49c-1.1965-2.5108-.7855,1.913-1.7117,1.7738-.3243,4.006-.7224,10.3838-1.0273,10.6387l.3422,1.2563c-1.0116,2.128-2.0985,3.1128-3.2134,1.0852l.0706-2.0156-1.23,1.0051-.0413-2.58-1.7466.7757.2284.6987c-.4123.3352-1.7626,1.2041-2.5093-.1526l.0474-1.4314c-2.0979-4.4978-3.9578,1.332-6.4927,1.7694l.3719-2.92c-.8215-2.918-.2976,4.4982-1.3042,3.031l-.0021-3.5932c-.9683,4.7087-1.1545-1.0184-1.7526-2.8124l.2267,4.71-1.1592-1.008c-1.27-1.5781-.7111-5.956-.4886-8.419l-.93,3.6965-.115-4.1557c-.7085,4.8237-.6318-.7865-1.7935,1.791-.0712-1.5726.2258-2.47-.1477-3.1443l-1.937,5.8329,1.1554-2.581-.2192,6.07c-1.2294,4.5914-1.5711-.6832-2.4274.9991l.5986-1.7961c-1.38,1.455-1.417-1.1289-2.1659-2.4835.2226,1.1309.5635,2.8125.0021,3.5994-.4085.329-.19-2.1373-.5627-2.8125-.1466,4.0431-1.1511,6.1721-2.0094,4.2533a12.6314,12.6314,0,0,1,.1079-1.4971c-.2344.6519-.3655,1.6924-.745.7151l.2928-4.4928-.8144,4.2693c-.4869-1.2374-1.2668,2.0133-1.1592-1.0193l.2988-.8967-3.8032-1.1369-.0039-3.5964c-.4451,4.9426-2.0537-1.91-2.0131,4.2694-.6742-3.3771-2.8683,2.3412-2.3492-4.62-2.5009-.5714-3.9477,6.1126-6.9506,2.6815-1.0051-5.9283-4.0072-4.054-5.9556-4.7056-3.86,2.42-6.3622,4.6114-10.2983,6.4526-2.2388-8.2847-5.9047,2.7609-8.3716-1.9359l-.7379,3.2689c-1.6105-5.242-4.2664,1.1084-6.5569-4.0133a6.7384,6.7384,0,0,1-1.0434,1.991,7.7853,7.7853,0,0,1,.2819,2.8634c-.6537-1.4711-2.0422.3405-1.8881-3.8145l.1771-.4249c.1559-4.1562-2.0717,1.9147-2.7746-1.6964l.3516,4.46-1.2663-.77.3535-.8507c-5.68,9.8114-7.9921-4.3541-13.3226,4.6053.7569-4.85-1.0613,2.5384-1.0567-2.7733-1.2216-6.6992-2.4523,1.4085-3.5535,3.1744a6.2914,6.2914,0,0,1-.088.9746l-1.8734-.661c1.216-6.7-1.4313,5.55-.3209-.1481-4.8388-5.0892-11.3126-.0607-16.962-2.4544l.2255,1.7309c-1.4362-.35-3.2569,1.7218-4.3122-1.0524-1.0563-2.7683-2.4512,4.3521-2.879,4.6208-1.239,2.9578-2.248-2.97-1.7377-2.66-1.2926.8066-2.5812,6.9245-4.3229,4.2676-.53-5.7017-4.9267,5.5206-4.8923-.8953l-.0268.54c-2.2152-4.5483-4.4682,3.108-6.8645-1.0158,0,0,.0531-.4706.1422-.9008l-5.2568,19.3963,1.1284,21.4409,4.088,17.4546L33.39,162.7864l9.2634,6.93,22.8017-1.9887,1.6922-4.8115c4.3587,8.5107,10.23-1.13,14.9676,4.9679l.1567-4.1591c1.3618-.2284,1.2344,2.3483,1.56,3.0788,12.6536-.7489,25.7433-6.1139,37.045-.7133,1.0589,2.7655,4.4168,1.1926,5.2372,4.1127,3.7639-5.038,7.6769-4.9344,11.3685-4.36l-.1462.4559,1.7531-.7777a3.4724,3.4724,0,0,1,.0113,1.1556c2.0156-3.6562,5.0617.03,7.4478,1.5616l-.1467.4517c14.0291.9487,27.1691-6.638,41.0139-.6415,6.3809,6.8758,14.0405-2.39,21.3909,3.3655C210.1139,175.5735,225.1832,172.671,226.5377,170.7416Z" fill="#e1efe9"/><path d="M248.7309,165.47l-.0582.02C248.6515,167.2407,248.7468,166.58,248.7309,165.47Z" fill="#e1efe9"/><path d="M218.3482,117.1513c.0336.0126.0657.0314.0974.0461l-.335-2.4777Z" fill="#e1efe9"/><path d="M238.2492,115.9752c-.8859-.5607-.9331-.1373-.8171.5669C237.7536,116.65,238.0383,116.522,238.2492,115.9752Z" fill="#e1efe9"/><path d="M256.0743,162.2335c.4676.1451.3029-.9015.0432-2.0731a7.7992,7.7992,0,0,1-.8159.305C255.5591,160.8851,255.81,161.8105,256.0743,162.2335Z" fill="#e1efe9"/><path d="M254.4852,138.418,254.6509,137A1.7088,1.7088,0,0,0,254.4852,138.418Z" fill="#e1efe9"/><path d="M93.6155,122.4275c-.0782-.1527-.11.13,0,0Z" fill="#e1efe9"/><path d="M151.745,115.2122c.0232.0138.034-.0189.0566-.0193.0257-.8362.0507-1.5585.0776-2.108Z" fill="#e1efe9"/><path d="M161.2118,120.2494c.0235.0914.0395.14.0613.2232C161.2588,119.9711,161.2608,119.47,161.2118,120.2494Z" fill="#e1efe9"/><path d="M130.3044,123.4119c-.0824-.0487-.1236.1389-.1511.4106A1.0988,1.0988,0,0,1,130.3044,123.4119Z" fill="#e1efe9"/><path d="M76.5313,127.2044s.0228-.04.04-.0743c-.0361-.1664-.0721-.286-.11-.5026Z" fill="#e1efe9"/><path d="M76.6927,125.7722a1.7831,1.7831,0,0,1-.1219,1.3579c.2495,1.1317.4795,1.2138.7011.6887C77.246,126.5279,76.8131,126.7308,76.6927,125.7722Z" fill="#e1efe9"/><path d="M45.4547,131.3652l.0838-.5225A4.0923,4.0923,0,0,0,45.4547,131.3652Z" fill="#e1efe9"/><path d="M132.4158,186.6984c-.0439.1182-.0951.1772-.135.3088C132.3546,187.0426,132.3918,186.8969,132.4158,186.6984Z" fill="#e1efe9"/><path d="M50.3948,132.5565,50.41,130.51C50.3785,131.3616,50.38,132.002,50.3948,132.5565Z" fill="#e1efe9"/><path d="M151.8792,113.0849l.0529-.7994C151.9124,112.4684,151.8961,112.7524,151.8792,113.0849Z" fill="#e1efe9"/><path d="M169.8925,121.4108c.0151.6273.0442,1.1272.0754,1.5553a.028.028,0,0,1,.0248.0145Z" fill="#e1efe9"/><path d="M214.1372,153.1244c-.0081-.254-.0206-.521-.0382-.7981l-.1468,1.4583A1.5763,1.5763,0,0,0,214.1372,153.1244Z" fill="#e1efe9"/><path d="M181.9335,130.053c.0059-.2366.03-.4543.0271-.7124-.2159-.68-.7543-.8222-1.4377-.73l.0054,2.5121Z" fill="#e1efe9"/><path d="M196.0206,188.37l-1.3608-5.03c4.0189-2.4,6.01,2.6277,9.41-1.5123l-.172,1.0987c.5283,1.16.6-10.1929,6.4531,3.5617l.01.505c.1925-.09.1722-1.1.585.2375l-1.0248-3.0774c.5551-1.28,1.0159-3.7031,1.7814-4.06a11.323,11.323,0,0,1,.2814,2.4008l1.8775-.8809.6419,3.253c.5454-1.7809.152-8.6638,1.7726-4.856-.6736-4.7681.7142-2.8808.4773-5.31.0892.59.2833,1.4686.4415,2.2845a6.4169,6.4169,0,0,0,3.002-4.4065s-3.7922-9.9953-4.8573-15.0874c1.3207,1.2737.3308-.5916.0449-2.1938l-.0638,1.1914c-.7987-1.1517-.8555-4.1689-1.2594-4.9985.0045.2426.0218.536.0383.8366l.042-.4048a5.7,5.7,0,0,1-.0038,1.2029c.0216.645-.0047,1.1536-.22.9772l.0346-.317c-.3163.4455-.8853-.0171-1.1332-.2277l-.0523-2.52c-.4852,4.8105-4.0072-7.2479-4.7831-7.3926-.8362-3.1636-1.7249.8188-2.7242-.7534-1.56-.7828-.842-3.6624-1.6583-5.8216-.9987-1.5621.2513,2.9349-.1341,3.1113l-1.2267-3.4835c.6688-.3146.2742-1.8279.1324-2.8-1.0113-.4091-2.68-5-2.8944.0325-1.3989-2.3823-1.44-4.397-2.0252-4.6345a12.8759,12.8759,0,0,1,.6357,2.7542c-.5839-2.2087-.2488.5524-.0176,1.0427-.786,2.2007-4.4646-9.0861-4.5345-3.5611l-.0189-1.0074c-.1148,4.1145.2688,8.1018-.2658,10.3842l-.42-1.83-.5471,1.7779a8.3273,8.3273,0,0,1-.253-2.93c-.91,1.9163-2.2711-.3245-3.4266-.8547l1.4238,11.1872c-1.0147-2.5709-2.8565-7.7941-2.9813-4.182l-.6512-3.7575c-2.0723-7.1542-1.2935,3.15-2.1072.9972l-1.05-4.0846.9693.0532a36.446,36.446,0,0,1-2.2418-6.0546c.0007.0409-.0072.0707-.0064.11a2.2352,2.2352,0,0,1,.1062.61l-.1333.1023c-.0788,2.0478-.5573,3.46-1.2419,3.3373-.9794-.5576-1.68,2.4807-3.308-1.8336l-.3067,4.2028-1.2082-2.4781-.0628-3.3395c1.1413.1787,3.2581-1.1333,4.717-1.3309l-.0029-1.5261c-.8669.0214-1.8254,1.5188-2.4045,1.1971a14.708,14.708,0,0,1-.5957-6.3843l-.474,3.2782c-2.887.4286-2.9027.5889-5.9941-3.136l.2938,1.6723c-.5805.9961-1.16,1.967-1.3776-.7461-1.8238-.5176-3.742-2.5867-4.9991-6.7949l-.1837,3.94c-.387-.21-1.0731-6.1457-1.1558-.633l-.7855,1.7528c-.5291-.2908-.8074,1.9634-1.446-.2849,0-.005,0-.0021,0-.0021l-.0035-.01c-.0393-.1392-.0806-.2871-.1212-.4618.0023.12.0075.2233.0127.3273-1.2173-1.7172.0782,3.5276-1.3209,1.2874-.488-2.79-.3874,5.0045-1.0652,4.1236l-.77-5.6324c-1.2587-3.2167-1.3571,2.4484-3.092,2.4994-.8711-1.9953-1.3644-6.8043-.8929-11.091-.6614,5.1909-.2819,3.38-1.2417,5.8821a17.5333,17.5333,0,0,1,.09-4.4959c-.941-2.4769-.5154,1.9336-1.1919,1.82-.12,4.013-.226,10.3988-.44,10.6619l.2846,1.2464c-.6734,2.1547-1.4342,3.1688-2.3021,1.1726l-.0067-2.0166-.864,1.0382-.1041-2.5775-1.2459.8232.1859.692c-.29.3464-1.2452,1.2517-1.8264-.0838l-.0067-1.432c-1.6526-4.4385-2.8355,1.44-4.6635,1.9461l.1861-2.9289c-.68-2.8942-.0868,4.5041-.86,3.0652l-.1049-3.5915c-.5677,4.733-.8676-.9863-1.3534-2.7633l.3,4.7017-.8707-.9759c-.9676-1.5426-.6876-5.9339-.5968-8.4018l-.569,3.72-.203-4.1508c-.3757,4.841-.4813-.7688-1.2508,1.8393-.0969-1.57.093-2.4751-.1976-3.1389l-1.2388,5.8833.7648-2.6114.0153,6.0727c-.7607,4.623-1.16-.64-1.7338,1.065l.383-1.8117c-.96,1.4921-1.0614-1.09-1.6441-2.4231.1941,1.1244.49,2.7959.105,3.5978-.2871.34-.1993-2.1313-.4894-2.796.01,4.0453-.6584,6.2008-1.3367,4.3063-.003-.5765,0-1.1314.0353-1.4992-.1515.6579-.2168,1.7015-.52.7351l.0834-4.4988-.4686,4.29c-.3891-1.2235-.862,2.0471-.871-.9872l.1912-.9044-2.7942-1.0323-.1063-3.5948c-.181,4.9526-1.5461-1.8526-1.3389,4.3226-.5866-3.3572-2.0154,2.4185-1.8386-4.5536-1.8323-.5027-2.6907,6.2176-4.97,2.87-.9-5.8981-3.0262-3.9425-4.46-4.5405-2.7329,2.5247-4.487,4.7833-7.2921,6.7312-1.8638-8.22-4.2081,2.921-6.1343-1.7061l-.4418,3.2875c-1.32-5.1955-3.066,1.2246-4.8764-3.8321a7.8094,7.8094,0,0,1-.7,2.0186,10.5134,10.5134,0,0,1,.2871,2.8544c-.517-1.4526-1.4731.3962-1.4807-3.7611l.1164-.43c-.0063-4.1585-1.4492,1.9705-2.0634-1.62l.3835,4.4482-.9416-.7352.2322-.86c-3.8422,9.9622-5.9283-4.1336-9.5412,4.9675.41-4.8679-.6976,2.5663-.847-2.7432-1.08-6.6627-1.74,1.4749-2.4889,3.27a8.6125,8.6125,0,0,1-.0359.9767l-1.3793-.6095c.69-6.7307-.88,5.5869-.2373-.1392-3.66-4.9547-8.2158.2486-12.3866-1.99l.2135,1.724c-1.0529-.3106-2.3154,1.81-3.1614-.9341-.8466-2.7381-1.6547,4.4172-1.9576,4.6974-.8146,2.99-1.7177-2.9073-1.3382-2.6107-.9154.8415-1.6751,6.992-3.0162,4.3839-.5485-5.6846-3.4185,5.6527-3.5781-.7612l-.0039.5407c-1.7392-4.4857-3.155,3.2287-5.0135-.8277,0,0,.025-.4718.0773-.9043l-3.2592,19.5313,1.4357,21.4,3.47,17.3349L55.547,185.7l6.9255,6.6738,16.4992-2.6113,1.09-4.8556c3.41,8.3877,7.3952-1.4089,11.0108,4.5563l-.0057-4.1614c.9822-.2654.9637,2.3135,1.2215,3.0348,9.1663-1.0946,18.5165-6.8151,26.8779-1.7259.8484,2.7352,3.2414,1.0712,3.921,3.9675,2.5882-5.1387,5.4324-5.142,8.1294-4.6685l-.0931.46,1.2506-.8252a4.7589,4.7589,0,0,1,.0414,1.1548c1.3584-3.71,3.6762-.1089,5.4528,1.3571l-.0935.4555c10.2138.5648,19.5367-7.3778,29.7618-1.7626,4.8309,6.6981,10.1262-2.7734,15.6288,2.7791C184.2341,193.6486,195.0925,190.3354,196.0206,188.37Z" fill="#e1efe9"/><path d="M211.9835,182.4938l-.0417.0213C211.9767,184.2658,212.027,183.6026,211.9835,182.4938Z" fill="#e1efe9"/><path d="M188.5334,135.0279c.0247.0117.0486.03.072.0434l-.3145-2.4674Z" fill="#e1efe9"/><path d="M202.95,133.3081c-.6594-.5361-.6815-.1117-.577.589C202.6092,133.996,202.8123,133.8605,202.95,133.3081Z" fill="#e1efe9"/><path d="M217.2226,179.0579c.3436.1322.194-.9094-.0283-2.0734a4.8248,4.8248,0,0,1-.5836.3273C216.81,177.7241,217.0182,178.6423,217.2226,179.0579Z" fill="#e1efe9"/><path d="M215.3839,155.2968l.08-1.4224A2.28,2.28,0,0,0,215.3839,155.2968Z" fill="#e1efe9"/><path d="M138.7481,186.9993c.0813.1245.1254-.1,0,0Z" fill="#e1efe9"/><path d="M74.4781,191.0218c-.0252-.0117-.0381.0142-.0629.0139-.0549.6683-.1054,1.2457-.1524,1.6847Z" fill="#e1efe9"/><path d="M64.2081,186.7053c-.023-.0739-.039-.1133-.06-.18C64.1475,186.9265,64.1294,187.3274,64.2081,186.7053Z" fill="#e1efe9"/><path d="M98.3591,185.1058c.0892.0413.1406-.1075.18-.3241A.7668.7668,0,0,1,98.3591,185.1058Z" fill="#e1efe9"/><path d="M157.7211,183.6912s-.0264.0314-.0459.0583c.0346.1342.0705.2311.1055.4055Z" fill="#e1efe9"/><path d="M157.4979,184.8326a1.0972,1.0972,0,0,1,.1773-1.0831c-.2389-.9133-.49-.9859-.75-.5724C156.9123,184.2111,157.3957,184.0618,157.4979,184.8326Z" fill="#e1efe9"/><path d="M192.09,181.2978l-.1088.4157A2.4943,2.4943,0,0,0,192.09,181.2978Z" fill="#e1efe9"/><path d="M98.0384,134.3931c.0521-.0933.11-.139.1586-.2431C98.1168,134.12,98.0712,134.235,98.0384,134.3931Z" fill="#e1efe9"/><path d="M186.6853,180.1955l-.0817,1.6371C186.6654,181.1524,186.6844,180.64,186.6853,180.1955Z" fill="#e1efe9"/><path d="M74.2628,192.72l-.0836.6382C74.2067,193.2127,74.2336,192.9859,74.2628,192.72Z" fill="#e1efe9"/><path d="M54.6814,185.5141c.0033-.5024-.0129-.9035-.0338-1.247a.0334.0334,0,0,1-.0268-.0124Z" fill="#e1efe9"/><path d="M6.942,158.8c.0008.2033.0062.4176.0168.64l.2079-1.1627A1.0352,1.0352,0,0,0,6.942,158.8Z" fill="#e1efe9"/><path d="M41.69,178.2347c-.014.1892-.0475.3627-.0524.5694.2162.5509.8049.6808,1.5608.6272l.0736-2.0107Z" fill="#e1efe9"/><path d="M28.018,131.1385l1.34,4.0663c-4.5037,1.8-6.5377-2.284-10.4151.9268l.2242-.8741c-.5452-.9442-.9842,8.1394-6.9965-3.045l.0056-.4044c-.2149.0666-.2245.8751-.637-.2078l1.0316,2.4938c-.6522,1.0077-1.2367,2.9331-2.0913,3.1957a6.6937,6.6937,0,0,1-.234-1.93l-2.0964.6484-.6039-2.6227c-.6574,1.4088-.4421,6.929-2.1068,3.8328.591,3.8363-.8783,2.284-.6941,4.2353-.08-.4749-.2657-1.184-.4141-1.8417-1.0207.43-2.9471,1.4772-3.4469,3.4362,0,0,3.8612,8.1136,4.8732,12.221-1.4147-1.0592-.3833.4634-.1191,1.7544l.1081-.9517c.8435.9459.81,3.3622,1.2292,4.0383.0026-.1942-.0071-.43-.0157-.6705l-.0591.3226A3.32,3.32,0,0,1,6.942,158.8c-.0034-.517.0417-.9232.2728-.7754l-.0481.2526c.3626-.3471.9747.04,1.2412.2163l-.0223,2.0187c.687-3.8353,4.1851,5.9214,5.0353,6.06.8211,2.5571,1.9263-.6033,2.9773.685,1.6942.6736.8118,2.9565,1.6426,4.7092,1.0508,1.28-.1838-2.3564.2463-2.486l1.2411,2.8248c-.7468.2317-.36,1.4547-.2346,2.2366,1.1012.358,2.7945,4.0829,3.19.0614,1.4657,1.9486,1.4473,3.5622,2.0843,3.77a7.9435,7.9435,0,0,1-.6131-2.2234c.5733,1.7853.2916-.4346.0525-.834.9356-1.7375,4.6306,7.4063,4.8828,2.9867l-.0111.8068c.2568-3.2894-.0395-6.4921.6219-8.3027l.4046,1.4773.6591-1.4065A4.8993,4.8993,0,0,1,30.75,173.23c1.0629-1.5063,2.4919.3282,3.7481.7872l-1.2141-8.9961c1.0365,2.088,2.9,6.3238,3.1519,3.4368l.5985,3.0268c2.0562,5.7879,1.5248-2.4816,2.353-.7346l1.0273,3.3006-1.0661-.0719a24.4341,24.4341,0,0,1,2.2779,4.9132c.0005-.0327.01-.0563.0106-.0881a1.3482,1.3482,0,0,1-.0977-.4915l.15-.0779c.1518-1.6365.7237-2.7524,1.474-2.6334,1.0612.4758,1.9291-1.9347,3.5863,1.5672l.4711-3.3544,1.2524,2.02-.0365,2.6745c-1.2517-.1773-3.6255.8089-5.2389.923l-.0452,1.2214c.9558.0091,2.0591-1.16,2.6869-.8856a8.7358,8.7358,0,0,1,.454,5.1275l.6262-2.6093c3.1941-.256,3.2165-.3838,6.5042,2.69l-.2706-1.3472c.6711-.78,1.34-1.5394,1.494.6386,1.9929.4692,4.0406,2.183,5.2922,5.5887l.3272-3.1479c.42.18.9876,4.9507,1.2534.5414l.9209-1.3792c.5737.2488.9518-1.5469,1.584.2716,0,.0041,0,.0017,0,.0017l.0035.0081c.0389.1126.08.2322.119.3733.0013-.0964-.0012-.179-.0037-.2623,1.2867,1.4109.0257-2.8256,1.4961-.9906.4492,2.2473.5854-3.9935,1.3042-3.268l.67,4.5308c1.2848,2.6123,1.5727-1.9185,3.4856-1.9071.8965,1.6231,1.2876,5.4868.6324,8.9032.8931-4.1345.4176-2.6967,1.5543-4.67a10.2661,10.2661,0,0,1-.2419,3.5954c.9582,2.0107.6291-1.5319,1.3708-1.42.26-3.2081.5785-8.3156.8227-8.52l-.2741-1.0061c.81-1.7041,1.68-2.4927,2.5734-.869l-.0566,1.6141.9848-.8048.033,2.0658,1.3988-.6211-.1829-.56c.33-.2685,1.4115-.9643,2.01.1221l-.038,1.1463c1.68,3.6019,3.1694-1.0666,5.2-1.4169l-.2979,2.3384c.6579,2.3368.2383-3.6021,1.0444-2.4273l.0017,2.8775c.7754-3.7708.9246.8156,1.4035,2.2523l-.1816-3.7718.9284.8072c1.0171,1.2638.57,4.77.3912,6.7421l.7448-2.96.0921,3.3279c.5674-3.8629.5059.63,1.4363-1.4342.057,1.2593-.1809,1.978.1183,2.518l1.5511-4.6711-.9252,2.0669.1755-4.8606c.9846-3.6768,1.2582.5471,1.9439-.8l-.4794,1.4384c1.1051-1.1652,1.1348.904,1.7345,1.9889-.1782-.9058-.4512-2.2524-.0016-2.8825.3271-.2635.152,1.7116.4505,2.2523.1175-3.2378.9219-4.9427,1.6092-3.4061a10.1041,10.1041,0,0,1-.0864,1.1988c.1877-.522.2927-1.3552.5966-.5726l-.2345,3.5979.6522-3.4189c.39.9909,1.0145-1.6123.9283.8163l-.2393.718,3.0457.91.0031,2.88c.3564-3.9582,1.6447,1.5293,1.6121-3.4191.54,2.7045,2.297-1.8748,1.8813,3.7,2.0028.4576,3.1614-4.8951,5.5662-2.1473.8048,4.7474,3.209,3.2464,4.7693,3.7682,3.0908-1.9382,5.0949-3.6929,8.247-5.1673,1.7928,6.6345,4.7286-2.2109,6.7041,1.55l.591-2.6178c1.29,4.1979,3.4165-.8876,5.2508,3.2139a5.3933,5.3933,0,0,1,.8356-1.5944,6.2323,6.2323,0,0,1-.2258-2.293c.5235,1.1781,1.6354-.2727,1.5121,3.0546l-.1419.34c-.1249,3.3283,1.6591-1.5334,2.2219,1.3584l-.2815-3.5713,1.0141.6166-.2831.6813c4.5486-7.8571,6.4,3.4869,10.6689-3.688-.6061,3.8835.85-2.0328.8462,2.2209.9783,5.3648,1.9639-1.128,2.8457-2.5421a5.0439,5.0439,0,0,1,.0705-.78l1.5.5294c-.9738,5.3658,1.1463-4.4449.257.1186,3.875,4.0755,9.0593.0486,13.5834,1.9655l-.1806-1.3861c1.15.28,2.6082-1.3789,3.4534.8428.8458,2.2169,1.9629-3.4853,2.3055-3.7.9921-2.3687,1.8,2.3785,1.3916,2.13,1.0351-.6459,2.067-5.5453,3.4617-3.4176.4243,4.566,3.9455-4.4209,3.9179.717l.0215-.4326c1.774,3.6424,3.5782-2.4889,5.4972.8135,0,0-.0426.3768-.1139.7214l4.21-15.5328-.9037-17.17-3.2736-13.9778-9.4292,2.8923-7.4183-5.55-18.26,1.5926-1.3551,3.8531c-3.49-6.8156-8.1919.9046-11.9863-3.9784l-.1255,3.3307c-1.09.1828-.9885-1.8806-1.25-2.4656-10.1332.6-20.6156,4.8961-29.6662.5712-.848-2.2146-3.5371-.955-4.1941-3.2934-3.0141,4.0345-6.1477,3.9515-9.1041,3.4912l.1171-.3651-1.4038.6228a2.7792,2.7792,0,0,1-.0091-.9254c-1.6141,2.9279-4.0535-.0237-5.9643-1.2505l.1175-.3617c-11.2347-.76-21.7574,5.3157-32.8446.5136-5.11-5.5062-11.2438,1.9144-17.13-2.6951C41.17,127.269,29.1027,129.5934,28.018,131.1385Z" fill="#e1efe9"/><path d="M10.2453,135.36l.0466-.0158C10.309,133.9421,10.2326,134.4712,10.2453,135.36Z" fill="#e1efe9"/><path d="M34.5762,174.0543c-.0268-.01-.0526-.0251-.0779-.0369l.2683,1.9842Z" fill="#e1efe9"/><path d="M18.6393,174.9962c.7094.449.7472.11.6543-.454C19.0361,174.4561,18.8082,174.5583,18.6393,174.9962Z" fill="#e1efe9"/><path d="M4.3646,137.9519c-.3745-.1162-.2426.722-.0346,1.66a6.24,6.24,0,0,1,.6534-.2443C4.7772,139.0317,4.5765,138.2907,4.3646,137.9519Z" fill="#e1efe9"/><path d="M5.6372,157.0237,5.5045,158.16A1.368,1.368,0,0,0,5.6372,157.0237Z" fill="#e1efe9"/><path d="M222.8014,88.2291c.66.6721-.0172.7051-.0172,1.6468s.4943.9417.4943,1.8834.2159.9418.2159,1.8836-.6414.9417-.6414,1.8834-.2254.9417-.2254,1.8835.1453.9419.1453,1.8838.5809.9416.5809,1.8832-.3508.9414-.3508,1.8827.5506.9416.5506,1.8832-.2924.9415-.2924,1.8829-.16.9418-.16,1.8836-.1768.9415-.1768,1.883.0233.9418.0233,1.8836.0014.942.0014,1.8839-.0989.9418-.0989,1.8836.5547.9418.5547,1.8836-.2944.942-.2944,1.8839.1273.9421.1273,1.8841-.3679.9419-.3679,1.8838.23.9421.23,1.8841.343.9417.343,1.8835-.4723.9418-.4723,1.8835-.2969.942-.2969,1.8841.8558.9423.8558,1.8847-.0561.942-.0561,1.884-.7824.9427-.7824,1.8854.9171,1.1173.2468,1.78c-.6781.67-.8494.1545-1.8028.1545s-.9535.3883-1.907.3883-.9534-.14-1.9067-.14-.9535.1941-1.9069.1941-.9536-.4124-1.9071-.4124-.9534.0356-1.9068.0356-.9536-.1688-1.9072-.1688-.9534-.376-1.9069-.376-.9535-.1167-1.907-.1167-.9536.1107-1.9072.1107-.9535.8071-1.907.8071-.9537-.3843-1.9074-.3843-.9535-.3277-1.907-.3277-.9537.1-1.9074.1-.9535-.073-1.9071-.073-.9536.46-1.9072.46-.9536-.0266-1.9073-.0266-.9536.0834-1.9071.0834-.9537.151-1.9074.151-.9537-.0937-1.9075-.0937-.9535-.0361-1.907-.0361-.9532-.5337-1.9065-.5337-.9534.3551-1.9069.3551-.9533-.1723-1.9067-.1723-.9536.019-1.9073.019-.9534.1838-1.9068.1838-.9537.06-1.9074.06-.9538-.2273-1.9076-.2273-.9537-.1146-1.9074-.1146-.9537.5575-1.9074.5575-.9538.0488-1.9076.0488-.9539-.2871-1.9079-.2871-.9538-.485-1.9076-.485-.9539-.0807-1.9078-.0807-.9536.9163-1.9073.9163-.9536-.7424-1.9073-.7424-.9539.2315-1.9078.2315-.9542.1832-1.9085.1832-.9539-.5708-1.9078-.5708-.9546.3151-1.9092.3151-1.1073.84-2.0325.6049c-.9275-.2355.8166-.6478,1.8807-1.272.4626-.2713.9838-.6517,1.6149-1.0289.4983-.2978.8-1.0339,1.3925-1.3936.512-.3109.9811-.7636,1.5564-1.1182.5182-.3193,1.0629-.6469,1.6277-1,.5215-.3259,1.0715-.6453,1.629-.9984.5232-.3315,1.3752-.1809,1.927-.5352.5239-.3365.8007-1.083,1.3477-1.4391.5239-.341,1.5193.0125,2.0622-.3457.5233-.3452.5255-1.4956,1.0645-1.856.5225-.35,1.5881.09,2.1234-.2731.5214-.3536.9985-.792,1.53-1.1579.52-.3578,1.0753-.6821,1.6036-1.0509.5184-.362,1.0573-.7109,1.5822-1.083.5165-.3661,1.0666-.7,1.588-1.0758.5145-.37.74-1.15,1.258-1.5287.5122-.3748,1.1185-.63,1.6327-1.0123.51-.3794,1.0922-.67,1.6026-1.0568.5071-.3842.9351-.8787,1.4416-1.2695.5042-.3889,1.0287-.757,1.531-1.1521s.975-.8265,1.4729-1.2263.5846-1.3025,1.0778-1.7072,1.2768-.457,1.765-.8669c.49-.4111,1.1169-.6606,1.6-1.076.4852-.4175.6748-1.1709,1.1517-1.5922.48-.4241,1.3051-.46,1.7756-.888.4745-.4312.8969-.92,1.36-1.3544.4683-.4388,1.0316-.7795,1.4871-1.2208.4614-.4471.6934-1.1256,1.14-1.5747.4538-.456,1.1121-.7106,1.5494-1.1682.4451-.4656.7154-1.093,1.1419-1.56.435-.4761.8394-.9731,1.2534-1.45.4235-.4874,1.1055-.7554,1.5052-1.2427.41-.5.0925-1.5651.4758-2.0643.3944-.5136,1.4973-.4895,1.8612-1.0015.3759-.5289.4754-1.2448.8164-1.771.3535-.5455.3444-1.292.6579-1.8337.3262-.5638.8928-.9715,1.1728-1.53.2923-.583.3512-1.247.59-1.8232.25-.6033.4313-1.1918.6186-1.7861.1962-.6226.7077-.8379.831-1.4491.9283-.2447.86.1347,1.8189.1713s.9771-.4257,1.9365-.3891.9553.1393,1.9146.1759.941.5175,1.9.5541.9756-.396,1.9347-.3594.9722-.3059,1.9313-.2694.9408.5246,1.9.5611.9674-.1656,1.9271-.129.95.298,1.9089.3345a9.3528,9.3528,0,0,0,1.9418-.1413C222.0285,87.9224,222.1284,87.5434,222.8014,88.2291Z" fill="#7c9381"/><path d="M253.0874,35.5968c-.69.624-1.4517-.2185-2.1418.4054s-.4336.9066-1.1232,1.53-.3835.9626-1.0734,1.5864-.9488.3377-1.6389.9616-.8874.405-1.5771,1.0286-.3383,1.0127-1.0282,1.6365-.9578.3279-1.648.9519-.24,1.1212-.93,1.7449-1.47-.2381-2.16.3859-.5.8337-1.19,1.4576-.63.6906-1.32,1.3146-.9138.3765-1.6039,1-.1131,1.2625-.8034,1.8866-.7421.5666-1.4322,1.1905-1.1428.1237-1.8331.7478-.2818,1.0763-.9722,1.7-.83.4694-1.5206,1.0935-.5532.7758-1.2436,1.4-.724.587-1.4144,1.2112-1.1771.0861-1.8677.7105.1907,1.5981-.4993,2.2219-.7876.5167-1.478,1.1409-.7129.5991-1.4033,1.2233-.845.4531-1.5354,1.0773-.6458.6738-1.3363,1.2981-.9637.3228-1.6544.9474-.5014.8337-1.1919,1.458-.9681.3184-1.6592.9432-.2884,1.73-1.22,1.73-.728-.884-1.4181-1.5079-.9561-.3287-1.6457-.9522-.5285-.8021-1.2184-1.4258-.5332-.7975-1.2233-1.4214-.595-.7284-1.2847-1.352-.5582-.77-1.2481-1.3933-.8125-.4887-1.5027-1.1127-.9878-.2941-1.6777-.9178-.65-.6684-1.34-1.2924-.656-.6616-1.346-1.2854-.5615-.7662-1.2517-1.39-.5245-.8071-1.2146-1.431-1.1089-.1612-1.7992-.7853-.8277-.4717-1.5178-1.0957-.7653-.5412-1.4556-1.1654-.4982-.8368-1.1886-1.461.0246-1.415-.6657-2.0391-1.4534.22-2.1438-.4042.066-1.4609-.6244-2.0851-1.606.3883-2.2966-.236-.3722-.9754-1.0623-1.5993-.6961-.6178-1.3864-1.242-.4562-.8832-1.1465-1.5074-.8945-.3984-1.5849-1.0226-.6934-.6212-1.3839-1.2455-.909-.3832-1.6-1.0078-.6047-.7193-1.2953-1.3436-.5138-.8209-1.2048-1.4457-.5735-.7549-1.2645-1.38c-.478-.4322-1.2186-.3469-1.7489-.6058a5.4968,5.4968,0,0,0-1.62-.5906c-.614-.0967-1.2711-1.1125-1.8752-1.03-.6106.0834-.8286,1.5705-1.3894,1.82s-1.5845-.3185-2.0559.0784c-.4664.3928-.5719,1.1675-.9119,1.6879-.3289.5034-.0538,1.1823-.229,1.7894-.1636.567-1.3822.9936-1.3822,1.638,0,.9271.9441.9271.9441,1.8541s-1.0257.9272-1.0257,1.8544.85.9271.85,1.8542-.029.9271-.029,1.8543-.0487.9269-.0487,1.8538.01.9269.01,1.8538-.8642.9272-.8642,1.8543,1.2641.9275,1.2641,1.855-1.0485.9272-1.0485,1.8544-.0883.9278-.0883,1.8556,1.0121.9278,1.0121,1.8556c0,.63.0288,1.2255.0671,1.846.0389.6283-.928,1.3488-.8509,1.9661.0779.6243.65,1.1872.7663,1.7989.1169.6177.3706,1.2027.5249,1.8063.1555.6086.7644,1.0651.9566,1.6582.1936.5972.2344,1.2189.4638,1.799.2308.5834.3628,1.1889.6286,1.7537.267.5674.1034,1.3553.4043,1.9025.302.5492.421,1.2355.7558,1.763s1.3.6426,1.6674,1.1484.0563,1.5592.4546,2.0412,1.3855.4738,1.8132.93,1.076.6755,1.5315,1.1045.806.95,1.2875,1.35.7434,1.0792,1.2492,1.4485.99.791,1.5178,1.128,1.1429.5461,1.6913.8494c.5465.3023,1.2839.2227,1.8506.4911.5641.2672.8041,1.3039,1.3869,1.5361.5795.231,1.3737-.0722,1.97.1229.5926.1937,1.0351.9817,1.6432,1.1387.6032.1559,1.2424.356,1.86.4745.6114.1174,1.396-.7494,2.02-.67.6171.0786,1.2443-.2112,1.8726-.1707.62.04,1.207.0985,1.8371.1l.0019.179c.0387,0,.0333.1441.072.1441.9447,0,.9447-.3844,1.8895-.3844s.9445.0724,1.889.0724.9442,1.0825,1.8884,1.0825.9445-.8178,1.8889-.8178.9444,1.0071,1.8887,1.0071.9447-.3216,1.8893-.3216.9444-.268,1.8888-.268.9447-.0585,1.8893-.0585.9448-.6544,1.89-.6544.9446.74,1.8893.74h1.8894c.9448,0,.9448.1038,1.89.1038s.9449-.7121,1.89-.7121.9447.2238,1.8895.2238.9449-.2536,1.89-.2536.9446.4817,1.8892.4817.9447-.3759,1.8893-.3759.9449-.088,1.89-.088.9452.22,1.8905.22.9449.3558,1.89.3558.9456-.02,1.8911-.02.9456-.1894,1.8912-.1894c.0386,0,.0413.3465.08.3461l-.0014.3631c.63-.0015,1.2182-1.1394,1.8385-1.1793.6283-.0405,1.3413.8753,1.9585.7966.624-.0795,1.174-.6779,1.7854-.7953.6174-.1185,1.31.08,1.9134-.0758.6082-.1571,1.126-.6428,1.7186-.8365.5967-.1951.9985-.8693,1.5781-1.1.5828-.2323,1.6009.5354,2.165.2682.5667-.2684.8721-1.0829,1.4186-1.3852.5484-.3034.9076-.9018,1.4343-1.2379s1.1207-.5495,1.6255-.9181.7446-1.0426,1.2256-1.4422,1.7983.1376,2.2536-.2913.051-1.7257.4789-2.1823,1.0516-.7121,1.45-1.1946.585-1.1043.953-1.611,1.41-.5529,1.7456-1.0818-.2064-1.5678.0955-2.117c.3009-.5472,1.3685-.6951,1.6355-1.2625.2657-.5647.3084-1.24.5391-1.8238.23-.58.9638-1.0037,1.1574-1.6009.1922-.593-.2319-1.3868-.0764-1.9954.1543-.6036-.272-1.32-.1551-1.9374.1158-.6117.3087-1.1806.3866-1.8048.0771-.6173.0087-1.2178.0476-1.8462.0384-.62.7862-1.2081.7862-1.8383,0-.927.5264-.927.5264-1.8541s-.85-.9272-.85-1.8544.6634-.9271.6634-1.8541-.685-.9272-.685-1.8543.1291-.9269.1291-1.8538.7274-.9269.7274-1.8539-1.2485-.9271-1.2485-1.8543.185-.9275.185-1.8549.5259-.9272.5259-1.8544.2466-.9278.2466-1.8557S264,40.7489,264,39.8211c0-.6444-1.3259-1.1-1.49-1.6672-.1752-.6072.3454-1.4834.0164-1.9869a7.1652,7.1652,0,0,0-1.1816-1.5527c-.4714-.397-1.2762-.404-1.8371-.653s-1.2442.1712-1.8548.0878a4.7863,4.7863,0,0,0-3.39.248C253.7331,34.556,253.5654,35.1647,253.0874,35.5968Z" fill="#9eada8"/><path d="M184.6662,107.4779c-.7762,0-.7762-.2165-1.5524-.2165s-.7463.0828-1.5219.0522c-.4366-.0787-.9887,1.0053-1.4947.9335-.6406-.0909-1.1176-.9847-1.7269-1.1306-.6269-.15-1.6337.9392-2.2283.7342-.6068-.2093-1.0675-.9469-1.6416-1.21-.581-.2664-1.2432-.4708-1.7917-.7889-.5509-.32-.8047-1.1456-1.3237-1.5137s-1.6031-.0671-2.09-.4793c-.4836-.4093-.0992-1.7995-.5533-2.2495-.4493-.4453-1.4826-.3489-1.904-.8307-.4162-.4758-.1844-1.49-.5742-1.9977-.3847-.5014-1.0422-.7962-1.402-1.326-.3551-.5229-.1991-1.3592-.5308-1.9067-.3278-.5409-.477-1.1513-.7827-1.7134-.3024-.556-1.6969-.5435-1.9785-1.1175-.2791-.5687.0633-1.436-.1961-2.02-.2575-.5795-.4811-1.1672-.72-1.7588-.2377-.5888-.1231-1.3007-.3429-1.8988s-1.6975-.7541-1.9-1.3575.2864-1.4393.1-2.047c-.1865-.61-.0082-1.3209-.1789-1.9321-.1719-.6151-1.4175-.9461-1.574-1.56-.1581-.62,1.01-1.5618.8668-2.1778-.1452-.6246-.5552-1.1765-.6858-1.794-.133-.6287-.9042-1.1231-1.0229-1.7415-.1214-.6326.5386-1.4.4312-2.0182-.1105-.6367-.7628-1.1719-.8593-1.79-.1-.6409.4307-1.36.3447-1.9771-.09-.6456-.1259-1.2748-.2017-1.89-.08-.6511-.6308-1.2239-.6966-1.836-.0707-.6583.0127-1.3047-.0431-1.9114-.0615-.6693-.0409-1.3071-.0864-1.9051-.0524-.687-.7814-1.2781-.8161-1.8584-.0436-.7291-.3106-1.3661-.3327-1.9027-.05-1.218.098-.93.0094-1.8792-.011-.1173.224.3051.2213.1873-.0218-.96.2661-.9666.2661-1.9264s.19-.96.19-1.9209-.7442-.96-.7442-1.921c0-.634,1.0806-1.2867,1.0536-1.9141-.0271-.6332-.4383-1.253-.4924-1.8789-.0545-.6312.0061-1.2814-.0751-1.9045-.0819-.628-.5643-1.1959-.6728-1.8151-.1092-.6236.5924-1.419.4568-2.0331-.1364-.6179-.543-1.195-.7055-1.8027-.1633-.6112.0619-1.3648-.1271-1.9651-.19-.6032-.5724-1.1769-.7878-1.7684-.2163-.5941-.4407-1.2178-.6819-1.8-.2421-.5838-.94-.9892-1.207-1.56-.2674-.5725-.0871-1.3906-.3784-1.9492-.2922-.56-1.0115-.912-1.3271-1.4575s-1.2729-.7008-1.6121-1.2321.3446-1.7605-.0174-2.2766-1.0987-.7924-1.4829-1.2923-1.767-.186-2.1726-.6689-.128-1.5424-.5543-2.0074-.517-1.2687-.9631-1.7148-1-.8094-1.4648-1.2358-1.5192-.1792-2.0024-.5851-.1944-1.7824-.6949-2.167-1.1394-.63-1.6562-.9925-1.1426-.6013-1.6749-.941-1.3211-.2724-1.8678-.5887-1.0339-.741-1.594-1.0331-.89-1.0841-1.4627-1.3515c-.5706-.2665-1.5212.3011-2.1051.059-.5816-.2412-1.39.1652-1.9845-.0511-.5915-.2153-.6412-2.0262-1.2444-2.2162-.6-.1891-1.2416-.369-1.8528-.5324-.6077-.1624-1.4393.5163-2.0572.38-.6141-.1355-1.2359-.2266-1.8595-.3358-.6192-.1085-1.1139-1.1626-1.7419-1.2445-.6232-.0812-1.38.9131-2.0117.8585-.6258-.054-1.2515.0053-1.8847-.0219-.6274-.027-1.2457-.23-1.88-.23v.3153c-.634,0-1.2585-.2545-1.8859-.2275-.6332.0271-1.2291.3834-1.855.4374-.6312.0545-1.3656-.8555-1.9887-.7742-.628.0819-1.1054,1.1437-1.7247,1.2521-.6235.1092-1.1344.6277-1.7485.7633-.6179.1364-1.4195-.5675-2.0272-.405-.6112.1633-1.4931-.5362-2.0933-.3471-.6032.19-1.0584.9025-1.65,1.1178-.594.2163-.8524,1.2853-1.4341,1.5265-.5838.2421-1.4849-.2492-2.0556.0174-.5725.2674-1.0844.6788-1.6429.97-.56.2922-1.4358.0526-1.9813.3682s-.6149,1.4461-1.1462,1.7853-1.0943.6267-1.61.9888-.49,1.4282-.99,1.8124-1.6884-.112-2.1712.2936-.9466.8467-1.4115,1.2729-1.0615.7326-1.5075,1.1787-.3525,1.409-.7789,1.8741-1.4381.4178-1.8439.901-.3938,1.3105-.7784,1.811-1.132.74-1.4945,1.257-1.0228.8609-1.3626,1.3931-.37,1.2779-.6862,1.8246-1.1063.8615-1.3985,1.4216-.3049,1.2914-.5723,1.8639c-.2665.5707.8471,1.7427.6051,2.3265-.2412.5816-1.8693.6173-2.0856,1.2114-.2153.5915-.3713,1.2308-.5613,1.834-.1891.6.2487,1.3943.0853,2.0054-.1624.6077-.7028,1.1293-.8392,1.7472-.1356.6141-.1847,1.2588-.2939,1.8823-.1084.6192.2475,1.3112.1656,1.9391-.0813.6232-1.0967,1.158-1.1512,1.7891-.0541.6259,1.0867,1.3369,1.06,1.97-.0269.6274-1.0507,1.2378-1.0507,1.8718,0,.9723-.3333.9723-.3333,1.9445s.4791.9725.4791,1.945-.4558.9726-.4558,1.9452.9406.9725.9406,1.945-.9734.9725-.9734,1.945-.0458.9727-.0458,1.9453,1.6626.9728,1.6626,1.9456-.86.9726-.86,1.9452-.181.9727-.181,1.9454-.4781.9725-.4781,1.9449,1.1746.9725,1.1746,1.9449-1.32.9728-1.32,1.9455,1.52.973,1.52,1.9461.0874.9728.0874,1.9455-1.2066.9734-1.2066,1.9468,1.1022.9735,1.1022,1.9469c0,.634-.4792,1.2612-.4523,1.8886.0272.6332-.1344,1.2766-.08,1.9025.0545.6312-.3326,1.323-.2514,1.9462.0819.628-.1753,1.339-.0669,1.9582.1093.6236,1.907.9149,2.0426,1.529.1364.6179-.9315,1.5214-.7691,2.1291.1634.6112.9434,1.0491,1.1325,1.6493.19.6032.301,1.2274.5164,1.8189.2163.5941-.3337,1.5027-.0925,2.0844.2421.5838.8693,1.0256,1.1359,1.5962.2674.5725,1.2149.8094,1.5063,1.368s.6618,1.0576.9774,1.603.734,1.0062,1.0731,1.5374.7055,1.0171,1.0675,1.5332.3585,1.2836.7427,1.7836.6666,1.08,1.0722,1.5633,1.3518.4728,1.7781.9377.5283,1.2124.9744,1.6585.3913,1.4229.8564,1.8493,1.1284.65,1.6117,1.0558.924.8823,1.4245,1.2669.6915,1.2333,1.2083,1.5959,1.9811-.6891,2.5133-.3493,1.0215.6813,1.5681.9975.7418,1.2305,1.3019,1.5227c.5586.2913.939.9613,1.5115,1.2287.5706.2666,1.6389-.62,2.2227-.3782.5816.2412.7115,1.6166,1.3055,1.8329.5915.2153,1.17.5319,1.7731.7219.6.1891,1.5827-.9625,2.1938-.7991.6077.1624.9942,1.1542,1.6121,1.29.614.1356,1.0689,1.1873,1.6924,1.2965.6192.1085,1.3.074,1.9281.1558.6231.0813,1.399-1.1789,2.03-1.1244.6258.054,1.2315.0891,1.8647.1163.6274.0269,1.234,1.0354,1.868,1.0354v.1992c.6749,0,1.3635-.2718,2.0307-.3028.6737-.0313,1.2542-1.2277,1.92-1.2894.6712-.0623,1.4658-.141,2.128-.233-.0035.1392-.2628,1.0556-.2628,1.1957h-.0992c0,.6169,1.214,1.1275,1.2808,1.7266a14.9807,14.9807,0,0,0,.1563,1.7333c.1361.5986-.6747,1.4376-.4747,2.0091a17.3881,17.3881,0,0,0,.5274,1.8039c.2657.5507,1.2655.7026,1.5893,1.2168a16.2758,16.2758,0,0,0,.8736,1.589c.3806.4766.23,1.4685.6608,1.8993s1.898-.3153,2.3746.0652-.0626,2.191.4541,2.5163a18.7439,18.7439,0,0,0,1.832.6339,17.8406,17.8406,0,0,0,1.6666.9543c.5715.2,1.597-1.152,2.1955-1.0159.5891.1339.9556,1.5569,1.5671,1.6251.599.0667,1.2708-1.1706,1.8876-1.1706.9544,0,.9544.5844,1.9087.5844s.9544-.4869,1.9089-.4869.9544.6322,1.9089.6322.9544.5255,1.9087.5255.9545-.44,1.909-.44.9545-.0911,1.9091-.0911.9543.59,1.9086.59.9541-1.3747,1.9081-1.3747.9543.63,1.9085.63.9542.1724,1.9084.1724.9545.5016,1.9089.5016.9542-1.1007,1.9084-1.1007.9545,1.2364,1.909,1.2364.9547-1.1793,1.9093-1.1793.9545.0187,1.909.0187.9545.9557,1.909.9557.9546-1.0042,1.9092-1.0042.9548.5361,1.91.5361.9546.4393,1.9092.4393.9547-.5929,1.9094-.5929.9544.085,1.9089.085.9544-.2538,1.9089-.2538.9547.77,1.9094.77.9551-.4058,1.91-.4058.9548-.9463,1.91-.9463.9554,1.7857,1.9108,1.7857.9554-.8547,1.9108-.8547c.6169,0,1.1359-.8661,1.735-.9328.6115-.0682,1.2863.5643,1.8755.43.5986-.1361.9213-1.0327,1.4928-1.2327.5782-.2023,1.3933.305,1.94.0414.5508-.2658.8618-.9015,1.376-1.2253.5167-.3254,1.5466.0722,2.0221-.3074s.5517-1.2382.9825-1.6689a16.2111,16.2111,0,0,0,1.0687-1.4618c.38-.4754,1.5206-.4352,1.8459-.952a12.1907,12.1907,0,0,0,1.9172-3.3215c.2-.5715-1.33-1.6505-1.1935-2.2491.1339-.5891.9939-1.01,1.0621-1.6217.0667-.599-.3984-1.2-.3984-1.8171h-.0956c0-.6169.8934-1.2553.8267-1.8543-.0682-.6115-.9726-1.0611-1.1066-1.65-.136-.5986.9493-1.5577.7493-2.1292-.2023-.5782-1.7168-.6188-1.98-1.1652-.2658-.5508.7582-1.8324.4344-2.3465-.3254-.5168-1.3789-.5828-1.7586-1.0582s-.5472-1.1828-.978-1.6135-1.5661-.06-2.0426-.4405-.3694-1.5624-.8862-1.8877c-.5142-.3238-1.664.5519-2.2148.2862-.5464-.2636-.6663-1.453-1.2445-1.6554-.5715-.2-1.0257-1.02-1.6242-1.156-.5891-.134-1.398.8125-2.0094.7443C185.8623,108.3862,185.283,107.4779,184.6662,107.4779Z" fill="#332933"/><path d="M164.3513,145.4834c0,.675.3662.675.3662,1.3594,0,.6748-.5589.6651-.5206,1.34.029.5206-.0576.482-.5493.9351-.55.5013-.3471-.0673-1.09-.0673s-.7423,1.0313-1.4749,1.0313c-.7423,0-.7423.1737-1.4844.1737-.7329,0-.7329-1.2342-1.4752-1.2342s-.7421.3761-1.4748.3761c-.7423,0-.7423-.482-1.4846-.482-.7326,0-.7326.2024-1.475.2024-.7326,0-.7326.694-1.4749.694s-.7423-.8964-1.475-.8964c-.7423,0-.7423.3568-1.4846.3568-.7327,0-.7327.8964-1.475.8964s-.7423-.82-1.4747-.82c-.7423,0-.7423-.0675-1.4847-.0675-.7326,0-.7326.5785-1.4749.5785s-.7423-.6072-1.475-.6072c-.7423,0-.7423-.2509-1.4846-.2509-.7327,0-.7327.9739-1.475.9739s-.7423-.9739-1.475-.9739c-.7423,0-.7423.9833-1.4846.9833-.7324,0-.7324-1.0024-1.4747-1.0024s-.7423-.1734-1.475-.1734c-.7423,0-.7423.6458-1.4846.6458-.7327,0-.7327-.3472-1.475-.3472s-.7423.5882-1.475.5882c-.7423,0-.7423.4723-1.4846.4723-.7326,0-.7326-.8677-1.475-.8677s-.7423.9061-1.4747.9061c-.7423,0-.7423-.4048-1.4846-.4048-.7327,0-.7327-.5493-1.475-.5493s-.7423.8868-1.475.8868c-.7423,0-.7423-1.1664-1.4846-1.1664-.7326,0-.7326.0386-1.475.0386s-.7423.4144-1.4749.4144c-.7423,0-.7423.077-1.4847.077-.7324,0-.7324-.3276-1.4747-.3276s-.7423.4916-1.475.4916c-.7423,0-.7423.0869-1.4846.0869-.7326,0-.7326-.8871-1.475-.8871s-.7423.7616-1.4846.7616c-.7326,0-.7326.4724-1.475.4724s-.742-.7906-1.4749-.7906c-.7423,0-.7423.6941-1.4844.6941-.7327,0-.7327-.81-1.475-.81s-.7423-.1445-1.475-.1445c-.7423,0-.7423,1.0216-1.4846,1.0216-.7326,0-.7326-1.1664-1.475-1.1664s-.7423.0676-1.4846.0676c-.7326,0-.7326.935-1.4747.935-.7329,0-.7329-.0289-1.4752-.0289s-.7421-.9447-1.4748-.9447c-.7423,0-.7423.6072-1.4846.6072-.7326,0-.7326.0965-1.475.0965s-.7423-.6651-1.4749-.6651c-.7423,0-.7423-.0483-1.4846-.0483s-.7424.2893-1.475.2893c-.7421,0-.7421,1.012-1.4844,1.012-.7329,0-.7329-.5686-1.475-.5686s-.7423-.8388-1.475-.8388c-.7423,0-.7423,1.2532-1.4846,1.2532s-.7423-.6072-1.4749-.6072c-.7424,0-.7424.8193-1.4847.8193-.7326,0-.7326-1.0219-1.4749-1.0219s-.7424.1737-1.4847.1737c-.7324,0-.7324.7809-1.4747.7809s-.7423-1.3884-1.475-1.3884c-.7423,0-.7423.3182-1.4846.3182-.7327,0-.7327-.1447-1.475-.1447s-.7423.3664-1.4846.3664c-.7327,0-.7327.4338-1.475.4338s-.7423.4147-1.4844.4147c-.7328,0-.7328-.0676-1.4752-.0676s-.4914-.5881-1.0313-1.0894c-.5013-.4531-.5013-.1928-.5013-.8675s.6941-.6748.6941-1.35-.9833-.675-.9833-1.3594c0-.6747-.01-.6747-.01-1.3495s.7713-.675.7713-1.3594c0-.6748-.7327-.6748-.7327-1.35,0-.4916.6844-.9543.7134-1.4363.0289-.4917-.7037-1.0509-.6459-1.5329s.7424-.8772.829-1.3592c.0965-.482-.4434-1.0989-.3276-1.5714s.8868-.7711,1.0313-1.2338c.1447-.4726.3857-.887.5592-1.34.1734-.4627.6458-.7616.8386-1.205.2026-.4434-.6169-1.3785-.3952-1.8122.2314-.434.8195-.675,1.07-1.0992.2506-.4144.3758-.9254.6458-1.33s.212-1.08.5013-1.475c.2989-.3857,1.07-.4241,1.3785-.8s1.2243-.2024,1.5618-.5589c.3278-.3568.1927-1.1474.54-1.4847s.5593-.8388.9257-1.157c.3662-.3276,1.34.0965,1.716-.2118.3855-.3085-.1351-1.7835.26-2.0631.3951-.2893.8772-.511,1.282-.7809s.9833-.3083,1.3977-.5592c.4244-.25,1.3691.4436,1.7932.2123.4338-.2316.7809-.5592,1.2243-.7713.4338-.2121.8386-.4434,1.282-.6362s.5112-1.33.9739-1.5039c.4531-.1737,1.1085.2024,1.5712.048s1.022.0292,1.4943-.1059c.4627-.1351.8675-.4627,1.34-.5785s.8581-.6169,1.34-.7133c.4724-.0963,1.041.3085,1.523.2313s.9544-.1542,1.4364-.212.9929.2989,1.4749.26.9448-.1446,1.4268-.1639c.4916-.0193.9543-.164,1.446-.164.7134,0,.7134-.241,1.4364-.241s.723-.0193,1.446-.0193c.7136,0,.7136.3182,1.4366.3182s.723.1831,1.446.1831c.7132,0,.7132-.2118,1.4362-.2118s.723-1.1281,1.446-1.1281c.7136,0,.7136,1.1088,1.4366,1.1088a1.1122,1.1122,0,0,0,.6362-.1737v-.1156c0-.7519.1061-.7519.1061-1.4942,0-.752.0094-.752.0094-1.4943,0-.752.0386-.752.0386-1.5039,0-.7421-.0289-.7421-.0289-1.4943a7.3424,7.3424,0,0,0-.1445-1.1568,4.1278,4.1278,0,0,1-1.1088-.1155c-.4627-.1737-.81-.6557-1.2627-.8485s-.694-.8482-1.128-1.06c-.4434-.2123-1.0893-.0193-1.523-.2506s-.9833-.2893-1.3978-.54c-.4243-.2507-.646-.8386-1.0509-1.1088s-1.0508-.2311-1.446-.5107c-.3951-.2893-.8291-.5689-1.2147-.8678-.3855-.3085-.723-.694-1.0892-1.0216-.3761-.3182-.2892-1.1377-.646-1.475s-.723-.6555-1.06-1.0123c-.3375-.3471-.4244-.9157-.7423-1.2822-.3279-.3662-.993-.4241-1.3015-.81s-.5013-.8485-.7906-1.2436-1.1857-.3761-1.4557-.7906c-.27-.4048-.048-1.1375-.3083-1.5616-.2506-.4147-.4627-.8581-.6943-1.2918-.241-.4244-.3179-.9255-.53-1.3691s-.8967-.6748-1.09-1.1278c-.1927-.4434-.4916-.8772-.6651-1.33-.1734-.4627-.3085-.9543-.4627-1.4173s.6075-1.205.4724-1.6771c-.1252-.4726-1.0026-.752-1.1086-1.234-.1157-.4723-.4146-.9256-.5013-1.4076s-.0579-1.0024-.1254-1.4941c-.0675-.482.8292-1.07.7809-1.5618-.0386-.482-.5688-.9254-.5881-1.4171-.0288-.4916-.54-.9736-.54-1.4653,0-.7423-.0772-.7423-.0772-1.475,0-.7423.0962-.7423.0962-1.4747,0-.7423.1351-.7423.1351-1.4752,0-.7423-.241-.7423-.241-1.4747,0-.7424.1638-.7424.1638-1.475,0-.7423.0386-.7423.0386-1.475,0-.7423.2024-.7423.2024-1.475,0-.7423.4051-.7423.4051-1.4749,0-.7424-.2026-.7424-.2026-1.475,0-.7423-.0867-.7423-.0867-1.475,0-.7423.4531-.7423.4531-1.4747,0-.7423-.5976-.7423-.5976-1.4846,0-.7327-.0868-.7327-.0868-1.475,0-.7327.5688-.7327.5688-1.475,0-.7327-.9256-.7327-.9256-1.475,0-.4916.5978-.9833.6267-1.4653.0193-.4916-.4916-1.0315-.4434-1.5136.0384-.4914.9735-.8868,1.041-1.3688.0579-.4916-.4338-1.06-.3469-1.5425s.1735-.9734.2892-1.4554c.106-.4726.4722-.8967.5976-1.3691.1349-.4724.6555-.81.81-1.282.1541-.4627-.434-1.1857-.26-1.639.1734-.4627.964-.6748,1.1567-1.1278.1928-.4434-.0965-1.1184.1156-1.5618s.8581-.6555,1.09-1.0893c.241-.4337-.0772-1.176.1734-1.6.26-.4144.82-.6555,1.0991-1.06.27-.4048.6362-.7519.9254-1.1471.28-.3951.4242-.9063.7327-1.2919.2987-.3855,1.1954-.26,1.5136-.6361.3179-.3665.1927-1.1375.53-1.4846.3375-.3566.4048-.993.7616-1.3305.3472-.3469,1.3881.0772,1.7642-.25.3662-.3182-.0289-1.5618.3566-1.8607.3761-.3084.82-.5785,1.2147-.8676s.9543-.3855,1.3594-.6557.7037-.7613,1.1182-1.012c.4241-.2506,1.1471,0,1.5808-.241.4244-.2313.675-.8388,1.1184-1.0509s1.0989.0386,1.552-.1541.82-.5978,1.2822-.7713c.4531-.1734.8289-.6361,1.2919-.79.4723-.1445,1.1374.3471,1.61.212.4724-.1252.964-.1252,1.446-.241.4724-.1059.8965-.4144,1.3881-.5011.4724-.0868.9158-.4532,1.4075-.5111.482-.0674.9736-.1928,1.4653-.2411.482-.0383,1.0219.7617,1.5136.7329.4916-.0193.9543-.6653,1.446-.6653v.55c.4916,0,1.0026-.82,1.4846-.8.4917.0193.9544.511,1.446.5592.4917.0386.9544.2025,1.4364.27.4917.0577,1.0892-.53,1.5712-.4434s.7713,1.1085,1.2437,1.2147c.482.1059.9063.3276,1.3784.453.4726.1349,1.1763-.5109,1.6391-.3664.4723.1544.9543.2892,1.4074.4627.4627.1737.81.6364,1.2629.8291s.8482.5013,1.282.7134c.4436.2121,1.176-.1252,1.61.1059s.4628,1.1667.8869,1.4173,1.2725-.1737,1.687.0963c.4048.27.3375,1.2339.7327,1.5232s1.0988.1831,1.4749.482c.3855.3086,1.0314.3279,1.4075.6458.3662.3279.694.723,1.0506,1.0605.3568.3472-.0384,1.4268.3085,1.7833.3375.3472,1.2726.1448,1.6.5206.318.3665.2893,1.0316.5976,1.4173.2989.3856,1.1377.3759,1.4267.7711s.3472.9736.6268,1.3787c.27.4144.3276.9541.5783,1.3785s.2506.9833.482,1.417c.2313.4241,1.0122.5785,1.2243,1.0219s.1254,1.0314.3182,1.4847c.1927.4434.8675.7131,1.0412,1.1758.1735.4533-.3472,1.1667-.2026,1.639.1544.4627.3954.8965.5206,1.3688.1351.4724.2989.9351.405,1.4171.1059.4724-.1544,1.0219-.0675,1.5039s.0576.9641.1155,1.4557c.0676.482.3472.9254.3954,1.4171.0386.482.0287.964.048,1.4557.029.482.6461.964.6461,1.4556,0,.7423.0576.7423.0576,1.475,0,.7423-.3276.7423-.3276,1.475,0,.7423.1349.7423.1349,1.475,0,.7423-.1735.7423-.1735,1.4747,0,.7423-.4144.7423-.4144,1.4752,0,.7421.0576.7421.0576,1.4747,0,.7423.7522.7423.7522,1.475,0,.7423.0287.7423.0287,1.475,0,.7423-1.012.7423-1.012,1.475,0,.7423,1.0217.7423,1.0217,1.4749,0,.7423-.6362.7423-.6362,1.475,0,.7421.5206.7421.5206,1.4844,0,.7329-.1158.7329-.1158,1.4752,0,.7324-.0193.7324-.0193,1.4747,0,.7327-.2024.7327-.2024,1.475,0,.4917-.0772.9737-.0965,1.4653-.0287.4917-.0962.9737-.1348,1.4557-.0483.4917-.3759.9351-.4434,1.4267-.0676.482-.28.9254-.3665,1.4075s-.1445.9447-.25,1.4267c-.1061.4726.5107,1.128.3759,1.6-.1255.4724-.7616.8-.9158,1.2629-.1447.4627.511,1.2243.3373,1.6772-.1735.4627-.6748.81-.8676,1.2629s-.3278.9447-.54,1.3787c-.212.4434-.7616.723-1.0026,1.1568-.2313.4337.0386,1.1567-.212,1.5808-.26.4147-1.234.3954-1.504.8s-.1059,1.1182-.3951,1.5134-1.0123.4629-1.3206.8484c-.2989.3759-.434.8965-.752,1.2726-.3278.3662-.935.4627-1.2725.82s-.752.6072-1.0991.9447c-.3566.3373-.1638,1.2627-.54,1.5906-.3665.3182-1.0219.2989-1.4074.6072-.3858.2989-.7809.5785-1.1761.8677s-.9257.3663-1.3305.6362-.3565,1.2726-.7809,1.5329c-.4144.2506-1.0892.0868-1.5135.3179-.4338.2316-.9735.241-1.4169.4533s-.5881,1.08-1.0412,1.2724-1.2436-.4434-1.6967-.27c-.3471.1253-.646.347-.9736.5011v1.6388c0,.7423.0482.7423.0482,1.4943s.1349.7519.1349,1.4942c0,.752-.2507.752-.2507,1.4943s.0869.752.0869,1.475a2.6044,2.6044,0,0,1,.4434-.0386c.7519,0,.7519.1927,1.5039.1927s.7517-.0962,1.494-.0962c.752,0,.752-.27,1.5039-.27.7424,0,.7424.27,1.4943.27s.752-.8485,1.5039-.8485.752.8292,1.4943.8292c.7517,0,.7517-.3182,1.5037-.3182.4917,0,1.0026-.5689,1.4846-.55.4917.0193,1.0026.0965,1.4846.1351.4917.0384.8772,1.1375,1.3592,1.1954s.9064.4241,1.3787.5013c.482.077,1.2244-1.2533,1.6967-1.1664.482.0962.9158.5107,1.3881.6265s.6941,1.1761,1.1568,1.3109c.4724.1351.9447.1737,1.4074.3279s1.2726-.6362,1.7257-.4627.6458,1.0219,1.0892,1.2146c.4533.1928,1.1666-.1734,1.6.0386.4434.2121.9447.3566,1.3688.588.434.2315.2507,1.5232.675,1.7738.4145.2507,1.4555-.482,1.8605-.2217.4048.27.3086,1.2726.7037,1.5616s.54.8581.9158,1.1664c.3855.3086,1.6484-.4335,2.0149-.1155.3662.3278.5975.8385.9447,1.176s.8868.54,1.2147.8967c.3372.3566.0579,1.2724.3662,1.6388.3182.3759.2217,1.06.5109,1.446s.6651.6941.9351,1.0989,1.1568.4147,1.3978.8388c.2506.4145-.318,1.282-.0963,1.7158.2314.4243,1.1471.5112,1.34.9546.2024.453.8484.7324,1.0219,1.1951.1735.4533-.1254,1.0991.0193,1.5618s.6458.8581.7616,1.33.3469.9546.4338,1.4366c.0866.4723.1348,1.0026.1927,1.4846s-.1348,1.0217-.1061,1.5133c.0292.482-.2217.993-.2217,1.4846,0,.6748-.4434.6748-.4434,1.35,0,.6844,1.0508.6844,1.0508,1.3594S164.3513,144.8087,164.3513,145.4834Z" fill="url(#linear-gradient)"/><path d="M104.8889,142.116c-.212,0-.1571.3029-.2569.116.1223-.5644.5222-1,.5847-1.5841a17.42,17.42,0,0,0,.2676-1.7945h-.1972c0-.6339-1.0653-1.1932-1.1358-1.8082-.0719-.6282.8243-1.4113.683-2.0157-.1436-.6141-.7224-1.1245-.9334-1.71a16.168,16.168,0,0,0-.91-1.6442c-.28-.5624-.054-1.434-.3948-1.9572a17.3039,17.3039,0,0,0-1.2818-1.4415c-.4-.4823-1.176-.6247-1.6281-1.0577s-.6854-1.1259-1.1847-1.5049A17.0624,17.0624,0,0,0,97.017,124.5a17.0475,17.0475,0,0,0-1.748-.788,17.1219,17.1219,0,0,0-1.7191-.8888c-.5934-.1851-1.3319.0821-1.9523-.0349-.55-.2509-1.4562-.0129-2.0418-.3835a15.8718,15.8718,0,0,1-1.4371-1.4419,14.0259,14.0259,0,0,1-1.14-1.637,12.5981,12.5981,0,0,1-.8839-1.722,11.3222,11.3222,0,0,1-1.0462-1.62,14.0848,14.0848,0,0,1-.3959-1.89,14.5216,14.5216,0,0,1-.3982-1.8812,16.633,16.633,0,0,1-.3384-1.93c.0033-.6214.2875-1.2516.3521-1.93.0591-.6205-.6267-1.3828-.5115-2.0528.1158-.6734.9489-1.2021.9993-1.814a15.5751,15.5751,0,0,0-.2336-1.9531c-.02-.6881-.6127-1.2231-.7176-1.8241a9.7757,9.7757,0,0,0-.4288-1.7778c-.2348-.64.3585-1.6235.0289-2.147a10.4945,10.4945,0,0,0-1.0586-1.7792c-.467-.4691-1.8073.1513-2.3383-.1981a10.7847,10.7847,0,0,0-1.4929-1.1228c-.6092-.2631-.9414-1.3114-1.5484-1.4765a16.8844,16.8844,0,0,0-1.9718-.3131c-.7106-.1062-1.4522.7719-2.0166.7462-1.1713-.0532-1.311.2517-1.8152-.5782-.4826-.7941-.71-.7806-.86-1.6975s-.2358-.9031-.3867-1.82.9477-1.0979.7968-2.0151-1.2189-.7413-1.37-1.6584.6443-1.0479.4934-1.965.1821-.9717.0312-1.8886-1.4086-.71-1.5595-1.6268.0478-.95-.1031-1.867-.379-.88-.53-1.7974.5816-1.0377.4307-1.9549.3-.992.1493-1.91a13.2978,13.2978,0,0,0-.4255-1.8551c-.2461-.9219-.1118.8037-.1622,2.0229-.0221.5366-.894,1.1311-.9376,1.86-.0347.58.6473,1.2629.595,1.95-.0456.5976.347,1.2765.2856,1.9453-.0558.6066-.5657,1.2021-.6364,1.86-.0658.612.202,1.2893.1218,1.94-.0758.6153-.0442,1.2709-.1341,1.9163-.0859.617-.2109,1.252-.3108,1.8926-.0964.6181-.42,1.2183-.53,1.8547-.1073.6185-.4686,1.2041-.59,1.8365-.1186.6183-.644,1.16-.7769,1.7887-.1306.6174.6757,1.4525.5306,2.0769-.1432.616-.6761,1.1521-.8342,1.7721-.1565.614.0011,1.3258-.1707,1.941-.1707.6112-.81,1.0974-.9965,1.7072-.1859.6077-.8274,1.0683-1.03,1.672s-.5027,1.1614-.722,1.7583-.2966,1.2394-.5343,1.8283c-.2388.5917-.1324,1.3256-.39,1.9053-.2594.5838-.5156,1.1722-.7947,1.7411-.2816.5741-.1294,1.3879-.4318,1.9441-.3058.5623-.619,1.152-.9468,1.6931-.3319.5477-1.0912.8432-1.4464,1.3662-.36.53-.9421.8988-1.3268,1.4-.39.5083-.826.966-1.2422,1.4419-.4214.4819-.3239,1.4718-.7732,1.9171-.4542.45-.9507.9241-1.4343,1.3335-.4871.4122-1.1274.7031-1.6452,1.07s-1.6479-.2242-2.1988.0953c-.5486.3182-.6937,1.3811-1.2748,1.6475-.5741.2633-1.4167-.158-2.0235.0513-.5946.2051-.9248,1.3625-1.5516,1.5125-.6094.1459-1.357-.042-1.9976.0489-1.1281.0354-1.136.0789-2.2646.0789s-1.1286-.8988-2.2572-.8988c-.6169,0-1.2259.6163-1.8249.6831a17.0046,17.0046,0,0,0-1.8453.114,16.8092,16.8092,0,0,0-1.8071.4265,16.9353,16.9353,0,0,0-1.5791,1,16.26,16.26,0,0,0-1.6183.8469,16.5277,16.5277,0,0,0-1.334,1.255c-.4766.3806-.6544,1.0264-1.0852,1.4571s-1.0686.615-1.4491,1.0916-1.1887.6528-1.5141,1.1695c-.3237.5142-.1679,1.3038-.4336,1.8546a16.181,16.181,0,0,0-.4508,1.75c-.2.5715-.7742,1.0113-.91,1.61-.1339.5892.2138,1.2364.1457,1.8479a15.56,15.56,0,0,0-.0471,1.77h-.0861c0,.6169-.6961,1.2566-.6293,1.8557a16.6928,16.6928,0,0,0,.3478,1.8241,18.3012,18.3012,0,0,0,.18,1.8983c.2023.5782.94.9725,1.2037,1.5189a16.7208,16.7208,0,0,0,.77,1.6788c.3254.5167,1.3449.5107,1.7246.9861s.2848,1.3338.7155,1.7645a16.445,16.445,0,0,0,1.3436,1.2428,16.753,16.753,0,0,0,1.4015,1.2063c.5141.3237,1.3238.1015,1.8746.3672a15.5283,15.5283,0,0,0,1.6916.56,15.1722,15.1722,0,0,0,1.6935.5217c.5891.1339,1.0217,1.2684,1.6332,1.3365.599.0668,1.2713-.7679,1.8881-.7679.8657,0,.8657-.233,1.7314-.233s.8655.1222,1.7309.1222.866,1.0607,1.7321,1.0607.9174-.96,1.6884-.5653a.738.738,0,0,1,.5117.801,36.1362,36.1362,0,0,0,.5312,3.5546,11.3273,11.3273,0,0,0,.562,1.7325,11.3749,11.3749,0,0,0,1.1706,1.4012,7.8024,7.8024,0,0,0,2.3853,2.7013,11.6777,11.6777,0,0,0,1.4526,1.1479c.5533.2825.975.9465,1.5741,1.141a12.77,12.77,0,0,0,1.9083.23,12.34,12.34,0,0,0,1.8863.044c.9427,0,.9427.5056,1.8854.5056s.9427-.6672,1.8854-.6672.9426-.0881,1.8853-.0881.9427.6292,1.8854.6292.9428-1.0294,1.8856-1.0294.9426.6569,1.8852.6569.9423-.6066,1.8846-.6066.9425.9865,1.885.9865.9425-.6447,1.8849-.6447.9427-.0117,1.8854-.0117.9425.2793,1.885.2793.9427.4532,1.8855.4532.9428-.8852,1.8857-.8852.9428.74,1.8855.74.9428-.6128,1.8856-.6128.9428.5373,1.8857.5373.943-.7126,1.886-.7126.9429.3973,1.8858.3973.9429.119,1.8859.119.9427-.2231,1.8854-.2231.9427.8449,1.8854.8449.943-.6864,1.8859-.6864.9433-.452,1.8866-.452.943,1.1276,1.886,1.1276.9437-1.3432,1.8873-1.3432.9436.0564,1.8873.0564a11.7775,11.7775,0,0,0,1.8132.1214,11.0707,11.0707,0,0,0,1.6787-.6978c.5991-.1946,1.3748.1739,1.9282-.1086.5591-.2855.8137-.9967,1.3176-1.3634.5062-.3684,1.32-.3334,1.7617-.7752a12.3055,12.3055,0,0,0,1.0072-1.5928,11.9671,11.9671,0,0,0,.6545-1.73c.2824-.5533,1.1946-.8246,1.3891-1.4236a12.3818,12.3818,0,0,0,.5755-1.8326,13.1117,13.1117,0,0,0-.0976-1.92c0-.8864-.32-.8864-.32-1.7728a11.4373,11.4373,0,0,0-.22-1.82c-.0982-.6247.651-1.4732.46-2.0619-.1945-.599-1.1031-.9461-1.3856-1.5-.2854-.5591-.1161-1.4381-.4829-1.942-.3684-.5062-1.484-.3885-1.9257-.83s-.5684-1.2216-1.0746-1.59a12.3293,12.3293,0,0,0-1.5557-1.0966c-.5533-.2824-1.3988.1852-1.9978-.0093-.5887-.1912-.952-1.3586-1.5768-1.4567A13.7026,13.7026,0,0,0,104.8889,142.116Z" fill="#332933"/><g opacity="0.81"><path d="M109.6611,78.7505V77.5736a3.5575,3.5575,0,0,1-1.4655-.4992c-.5344-.2216-1.38.1126-1.7829-.29s-.3133-1.147-.5349-1.6814c-.2138-.5155-.8682-.9741-.8682-1.5669,0-.9175.8188-.9175.8188-1.8349s-1.1233-.9176-1.1233-1.8351.4573-.9173.4573-1.8346.6208-.9173.6208-1.8346-.5229-.9176-.5229-1.8351.4651-.9179.4651-1.8357-.8767-.9176-.8767-1.8352.5656-.9182.5656-1.8364.7851-.9182.7851-1.8364c0-.5929-.4456-1.0142-.2318-1.53.2216-.5344-.2387-1.597.164-2s1.3663-.1812,1.9007-.4028c.5156-.2138,1.0359.1741,1.6288.1741v.1715c.5929,0,1.5226-1.5467,2.0382-1.3329.5344.2216.9679,1.108,1.3706,1.5108s-.1113,1.417.11,1.9514c.2137.5155-.0592.8645-.0592,1.4574,0,.9174.7365.9174.7365,1.8349s.5549.9175.5549,1.835-.68.9173-.68,1.8346-.6371.9173-.6371,1.8347.8465.9175.8465,1.835.21.9179.21,1.8358-.6023.9176-.6023,1.8351,1.4217.9182,1.4217,1.8364-.0858.9182-.0858,1.8365c0,.5928-1.2612,1.0371-1.475,1.5526a3.8861,3.8861,0,0,1-.8148,1.3813,4.1717,4.1717,0,0,1-1.2764,1.0676C110.803,77.7513,110.2539,78.7505,109.6611,78.7505Z" fill="#b59783"/></g><g opacity="0.49"><path d="M201.4952,110.6638a2.0727,2.0727,0,0,1-2.0727-2.0727v-3.4545a2.0727,2.0727,0,1,1,4.1453,0v3.4545A2.0726,2.0726,0,0,1,201.4952,110.6638Z" fill="#fff"/><path d="M215.313,110.6638a2.0726,2.0726,0,0,1-2.0726-2.0727v-3.4545a2.0727,2.0727,0,1,1,4.1453,0v3.4545A2.0727,2.0727,0,0,1,215.313,110.6638Z" fill="#fff"/><path d="M208.4042,118.9545a2.0727,2.0727,0,0,1-2.0727-2.0727v-3.4543a2.0727,2.0727,0,0,1,4.1454,0v3.4543A2.0727,2.0727,0,0,1,208.4042,118.9545Z" fill="#fff"/></g><path d="M87.6828,77.5586A11.0211,11.0211,0,0,1,86.85,78.78a11.2037,11.2037,0,0,1-.8955,1.1853c-.35.3533-.962.38-1.3517.6794-.3933.3025-.6277.7968-1.0544,1.0433a20.8328,20.8328,0,0,1-2.7293,1.0917c-.4767.1292-1.0037-.1611-1.494-.0938a10.6534,10.6534,0,0,1-1.4161.1558,11.1354,11.1354,0,0,1-1.452.1453A13.3928,13.3928,0,0,1,72.3014,81.69c-.4285-.2622-1.23-.0033-1.6123-.3-.3949-.3061-.3389-1.1527-.6848-1.4955-.3522-.3492-.4443-.8771-.7455-1.2645s-1.2722-.3347-1.5227-.7616c-.0538-.0962.0262-.1448-.0266-.2416-.3365-.6176-.2246-.6773-.5645-1.2929s.2688-.9511-.0709-1.5664-.8487-.3345-1.1885-.95-.2907-.6426-.63-1.2581-.0319-.7855-.3717-1.401-.3441-.6134-.684-1.2291-.6033-.47-.943-1.0852-.45-.5553-.79-1.1711.2141-.9224-.1261-1.5387-1.1711-.155-1.5147-.7694c-.2574-.4446.4158-1.126.4041-1.5723-.0126-.4868-.4986-1.0464-.2714-1.4563a3.4023,3.4023,0,0,1,.957-1.2453,3.667,3.667,0,0,1,1.5475-.1653c.719-.0272.7136-.1941,1.4327-.2188s.7293.2787,1.4483.254.7149-.14,1.4337-.1647.7123-.2169,1.4312-.2416.7119-.2255,1.4308-.25.7224.0726,1.4415.048.7435.6839,1.4629.6592.7138-.1762,1.4329-.2009.7145-.1733,1.4341-.198.7164-.1344,1.4361-.1528a11.06,11.06,0,0,1,1.5041-.0548c.4816.0665.798.8729,1.2776,1.0075a10.2138,10.2138,0,0,1,1.4317.2264c.4449.1938,1.1775-.1412,1.6039.1195.4406.2438.421,1.1769.8145,1.4683a10.8545,10.8545,0,0,1,1.2047.814c.3585.3487,1.266.227,1.57.615.3076.3925.23,1.0939.48,1.52.2519.4291.05,1.061.2417,1.5174a11.09,11.09,0,0,1,.6776,1.299c.13.4784.9462.8441,1.0128,1.3364.0664.4906-.3473,1.0592-.346,1.5567a11.4789,11.4789,0,0,1-.226,1.48,11.15,11.15,0,0,1-.3871,1.4272,10.9945,10.9945,0,0,1-.5649,1.3522A11.1265,11.1265,0,0,1,87.6828,77.5586Z" fill="#b8ccbc"/><path d="M94.5544,58.4024a5.5853,5.5853,0,0,0-1.3293-.572c-.4731-.125-.9572-.7075-1.4354-.706l.01.95c-.8777.0258-.8982-.6541-1.7758-.6265s-.88-.0709-1.7577-.0433-.8679.3468-1.7458.3744-.8818-.0955-1.76-.0678c-1.0408.0327-1.2642,1.0569-.7642,1.97.4216.77.4423.7589.8639,1.5291s-.1075,1.06.3139,1.83.5391.7063.9609,1.4768.8947.5086,1.32,1.2769c.0022.0041-.6467.3611-.6443.365a5.9519,5.9519,0,0,0,1.0311,1.0695c.3361.3324.57.9238,1,1.17.5209.2977,1.3412-.2069,1.8984-.0909a5.1646,5.1646,0,0,0,1.6431.2809,4.267,4.267,0,0,0,3.0653-1.34c.4212-.3828,1.2556-.525,1.5533-1.0458a6.2168,6.2168,0,0,0,.4026-1.8088,5.7637,5.7637,0,0,0-.2394-1.7544c-.0639-.58.1821-1.2727-.057-1.8048-.2367-.5269-1.0119-.716-1.4085-1.1526C95.3172,59.26,95.0752,58.7,94.5544,58.4024Z" fill="#332933"/><path d="M109.864,93.7238c-.5985,0-1.1943-.4627-1.7858-.5436s-1.0319-.7221-1.6078-.8827a12.6584,12.6584,0,0,1-1.7205-.3356,12.475,12.475,0,0,1-1.558-.8c-.5076-.308-1.2915-.2279-1.7581-.608-.4591-.3739-1.2679-.48-1.6792-.9218-.4018-.432-.0744-1.5089-.4232-2.0047a2.0686,2.0686,0,0,1-.4448-1.644,2.1788,2.1788,0,0,1,.8946-1.5106c.5448-.3832,1.2562-1.2434,1.8645-1.1374s1.3183.9229,1.7015,1.4678c.3632.5163.2677,1.437.718,1.8429a9.1981,9.1981,0,0,0,1.5116,1.2337c.5428.3019,1.51-.4176,2.101-.2454a7.2357,7.2357,0,0,0,1.7144.1036c.6141.0378,1.2134.8952,1.8263.7948a9.2829,9.2829,0,0,0,1.9624-.1459c.5611-.23.5437-1.5364,1.06-1.9a3.45,3.45,0,0,1,2.2151-.245,2.4513,2.4513,0,0,1,2.2785,3.2013,3.2461,3.2461,0,0,1-1.1188,1.8449c-.5538.3893-1.4194.2879-2.0081.58a13.0557,13.0557,0,0,1-1.804.8485,12.8924,12.8924,0,0,1-1.9727.285C111.17,93.1038,110.5282,93.7238,109.864,93.7238Z" fill="#83a58a"/><path d="M95.0186,21.1939c-.6129.7284-.0608.769.145,1.9849.0889.5252.3038,1.1374.4371,1.8592.1047.567.9316,1.0535,1.0656,1.7318.1153.5832-.0491,1.26.0891,1.9192.124.5914.3156,1.1961.4588,1.8445.1317.5961.4164,1.1782.565,1.8192.139.5991-.071,1.2982.0833,1.9338.1458.6007.5045,1.1635.6644,1.7946.1525.6015-.1523,1.3352.0134,1.9624.1589.6017.0651,1.2874.2366,1.9111.1654.6016,1.2573.954,1.4346,1.5745.1718.6011.234,1.239.4173,1.8564.1782.6.2492,1.238.4385,1.8526.1847.5993-.393,1.4468-.1976,2.0585.1912.5982.644,1.1224.8456,1.7313.1977.5968.4384,1.1879.6464,1.7939.2043.5952.419,1.1947.6334,1.7978.211.5935.6633,1.1054.8842,1.7056.2178.5915.8586,1.0255,1.0863,1.6226.2247.5894.2513,1.2546.4858,1.8486.2317.587-.3791,1.5184-.1377,2.1091.239.5846.5132,1.1658.7618,1.7532.2463.5818.6852,1.09.9412,1.6743.2538.5789.5978,1.1251.8612,1.7054.2615.5758,1.0376.9163,1.3088,1.4927.2693.5726-.0251,1.4178.2539,1.99.2774.569.5884,1.1286.8754,1.6967.2856.5652.5655,1.1405.8609,1.7041.294.5611.78,1.0249,1.0843,1.5837.3027.5568,1.0969.84,1.4095,1.3934.3115.552-.2882,1.6311.0333,2.1795s.9859.8974,1.3165,1.44.6409,1.1008.9809,1.6375.7346,1.0413,1.0843,1.5717,1.2975.6531,1.6571,1.1766.5018,1.1894.8715,1.7057.2053,1.4249.5854,1.9334,1.2961.61,1.6868,1.11.1984,1.47.6,1.9616,1.3411.5387,1.7537,1.021.47,1.278.8939,1.75,1.3484.4839,1.7836.9458.5769,1.2022,1.0238,1.6529.58,1.2308,1.0391,1.67.9819.827,1.4523,1.2532,1.52.1947,2.0022.6075,1.0562.6917,1.55,1.09.3478,1.6119.8538,1.9957,1.2112.51,1.7289.8782.82,1.0664,1.3491,1.4179,1.6166.5077,2.1572.842c.6669-.6677-.0494-1.2055.3617-2.055s1.0971-.5175,1.5083-1.3671.1383-.9815.5494-1.8309-.2743-1.1811.1367-2.03,1.0354-.5471,1.4465-1.3964.4633-.824.8744-1.6734-.0323-1.0641.3789-1.9137.876-.6249,1.2873-1.4748.6055-.7555,1.0166-1.6051-.3323-1.21.0792-2.06,1.4292-.5276,1.6063-1.4553c.1788-.9367-.8912-1.0126-.9588-1.9637s.7775-1.0115.71-1.9629.0767-.9614.0091-1.9127-.61-.9127-.6778-1.864.22-.9718.152-1.9231-.5643-.916-.6319-1.8672-.4624-.9234-.53-1.8747.6667-1.0036.5991-1.9551-.8386-.8964-.9061-1.8476.2778-.9755.21-1.9264.4-.9843.3326-1.9355-.8236-.8973-.8912-1.8484.9191-1.0214.8515-1.9728-.099-.9488-.1665-1.9-.4143-.9268-.4819-1.8781-.1385-.9465-.2061-1.898.2113-.9712.1437-1.9226-.4844-.9218-.552-1.8731-.1381-.9465-.2057-1.898.6852-1.0052.6176-1.9568-.716-.9054-.7836-1.8569-.4623-.9236-.53-1.8752.5963-.9984.5287-1.95-.6519-.91-.7195-1.8612.6174-1,.55-1.9518.0548-.9606-.0128-1.9126-.9344-.89-1.002-1.8416.92-1.0224.8521-1.9747.2766-1.3768-.2808-2.1519c-.5492-.7637-1.3849.2173-2.2565-.1366s-.8613-.3782-1.7326-.7319-.5706-1.0952-1.4423-1.4491-1.0645.1218-1.9359-.232-.9017-.28-1.7733-.6337-.66-.8757-1.5312-1.23-.8573-.3895-1.7291-.7435-.9645-.1248-1.8361-.4787-1.1936.4386-2.0654.0846-.69-.8021-1.5619-1.1561-.6039-1.0139-1.4757-1.3679-1.2713.63-2.1431.276-.6807-.8252-1.5526-1.1792-1.1317.2853-2.0037-.0688-.5452-1.1588-1.4171-1.5128-.9293-.213-1.8013-.5671-1.1192.2554-1.9909-.0985-.4291-1.4444-1.3009-1.7984-.9738-.1033-1.8458-.4574-.8265-.4669-1.6988-.8211-.9893-.0654-1.8613-.42-1.0093-.0176-1.882-.3719-.6573-.4645-1.5909-.3407c-.9872.131-.59.429-1.4016,1.0066s-1.4327-.2945-2.2441.2833-.4595,1.0726-1.2712,1.6507-1.1524.0991-1.9638.6769-.3,1.3644-1.172,1.8469C95.9633,20.847,95.66,20.4311,95.0186,21.1939Z" fill="#332933"/><rect x="121.2577" y="33.4217" width="22.2756" height="10.3852" rx="5.1926" ry="5.1926" fill="#bad8c1" opacity="0.37"/><circle cx="111.6347" cy="38.6143" r="5.1926" fill="#bad8c1" opacity="0.37"/><g opacity="0.81"><path d="M97.087,77.9084c0,.6687-.6337,1.2751-.7986,1.8918a7.3972,7.3972,0,0,1-.5876,1.8448A7.5208,7.5208,0,0,1,94.52,83.2a7.7379,7.7379,0,0,1-1.4716,1.3246,8.12,8.12,0,0,1-1.777,1.0086c-.6167.1649-1.3742-.5077-2.0429-.5077a7.3978,7.3978,0,0,1-1.9086.0052,6.7859,6.7859,0,0,1-3.2457-1.9681c-.46-.46-.52-1.1228-.8481-1.69-.3232-.5587-1.056-.89-1.2265-1.5277a7.5185,7.5185,0,0,1-.106-1.937,8.1735,8.1735,0,0,1-.09-1.99c.1706-.6382.97-.9916,1.2933-1.55.3279-.5667.1583-1.514.6183-1.9739a6.6531,6.6531,0,0,1,3.4544-2.172c.6167-.1649,1.39.498,2.0591.498a6.7153,6.7153,0,0,1,1.789.5127c.6382.1706,1.5878-.464,2.1465-.1408.5667.3279.935,1.0255,1.395,1.4855s.2953,1.3271.6232,1.8938c.3232.5587,1.4306.7742,1.6012,1.4123A8.2127,8.2127,0,0,1,97.087,77.9084Z" fill="#b59783"/></g></svg>