<svg id="Layer_1" data-name="Layer 1" xmlns="http://www.w3.org/2000/svg" xmlns:xlink="http://www.w3.org/1999/xlink" width="3.68in" height="2.8056in" viewBox="0 0 264.96 202"><defs><linearGradient id="linear-gradient" x1="133.3934" y1="139.5578" x2="133.3934" y2="48.4077" gradientUnits="userSpaceOnUse"><stop offset="0" stop-color="#9b7774"/><stop offset="1" stop-color="#b59783"/></linearGradient></defs><title>cactusArtboard 3</title><path d="M99.3281,162.4507c-.0728-.0725-.106.063,0,0Z" fill="#e6ddd9"/><path d="M154.7224,158.5364c.0219.0063.0324-.0093.0539-.01.0325-.4006.063-.7468.0938-1.01Z" fill="#e6ddd9"/><path d="M163.6852,160.8743c.0215.0437.0362.0666.0562.1064C163.7326,160.7405,163.7392,160.5007,163.6852,160.8743Z" fill="#e6ddd9"/><path d="M134.2385,162.6328c-.0779-.0227-.1189.0674-.1477.1978A.445.445,0,0,1,134.2385,162.6328Z" fill="#e6ddd9"/><path d="M83.0229,164.8733s.0222-.0193.0383-.0359c-.0327-.0793-.0659-.1365-.1-.24Z" fill="#e6ddd9"/><path d="M83.19,164.186a.508.508,0,0,1-.1289.6514c.2268.54.4451.5776.6607.3245C83.7094,164.5437,83.2956,164.6443,83.19,164.186Z" fill="#e6ddd9"/><path d="M53.4057,167.1113l.0847-.2509A1.1332,1.1332,0,0,0,53.4057,167.1113Z" fill="#e6ddd9"/><path d="M135.6523,192.9272a1.9406,1.9406,0,0,0-.1314.149C135.5908,193.0925,135.6276,193.0225,135.6523,192.9272Z" fill="#e6ddd9"/><path d="M58.0964,167.6428l.0339-.98A7.5035,7.5035,0,0,0,58.0964,167.6428Z" fill="#e6ddd9"/><path d="M154.87,157.5164l.0578-.3833C154.9074,157.2209,154.8893,157.3569,154.87,157.5164Z" fill="#e6ddd9"/><path d="M171.9362,161.3621c.0086.3.0315.54.0571.7443a.037.037,0,0,1,.0235.0066Z" fill="#e6ddd9"/><path d="M213.7487,176.2021c-.0051-.1213-.0146-.2492-.0288-.3818l-.1533.7A.5458.5458,0,0,0,213.7487,176.2021Z" fill="#e6ddd9"/><path d="M183.3154,165.4062c.0078-.1132.0327-.2177.0324-.3415-.1992-.324-.71-.3877-1.3615-.3379l-.0186,1.2031Z" fill="#e6ddd9"/><path d="M196.174,193.2258l-1.2478-2.3982c3.8477-1.1811,5.6953,1.2112,8.9707-.7985l-.1741.5275c.492.5516.6673-4.8864,6.1084,1.6551l.0042.2417c.1841-.0447.1743-.5281.5547.1093l-.9466-1.4658c.54-.6177,1.0018-1.7817,1.7337-1.9587a2.87,2.87,0,0,1,.2453,1.1474l1.7952-.4365.58,1.5528c.5359-.8572.2264-4.1507,1.7329-2.34-.5961-2.2784.7068-1.3855.5042-2.5472.08.282.2559.7012.3989,1.0909.8714-.281,2.511-.9519,2.8987-2.1343,0,0-3.5154-4.7573-4.4812-7.1878,1.2451.6.3206-.2859.0635-1.051l-.072.5711c-.7493-.5452-.7749-1.99-1.1517-2.3841.002.1162.0159.2566.0286.4l.0437-.1943a1.38,1.38,0,0,1-.0149.5761c.0147.3089-.0154.5528-.218.47l.0359-.1519c-.3052.2158-.8425-.0014-1.0764-.1l-.0262-1.2068c-.507,2.3077-3.7458-3.44-4.4829-3.5029-.7661-1.5088-1.6494.4058-2.5857-.3394-1.4775-.3627-.7668-1.7475-1.5236-2.7753-.9358-.74.2116,1.4038-.1568,1.4914L202.58,168.428c.64-.1558.2783-.8777.1523-1.3418-.9587-.188-2.5039-2.374-2.7551.0383-1.3091-1.13-1.3294-2.0945-1.8838-2.2036.1929.436.5674.8276.5791,1.314-.5349-1.0533-.2422.2666-.0266.4995-.7688,1.06-4.1638-4.3164-4.2822-1.67l-.0086-.4824c-.1479,1.9717.1795,3.8781-.3508,4.9756l-.3823-.8731-.5376.8557a2.0782,2.0782,0,0,1-.2132-1.4011c-.8838.9251-2.1584-.1374-3.2534-.3823l1.25,5.3469c-.9416-1.2234-2.6455-3.71-2.7981-1.98l-.5847-1.7944c-1.9048-3.41-1.2608,1.5185-2.0149.4941l-.9609-1.948.9221.0178a13.3946,13.3946,0,0,1-2.0767-2.882c0,.0195-.0075.0339-.0071.0527a.6062.6062,0,0,1,.0953.2915l-.1277.05c-.0945.9815-.5633,1.6617-1.2137,1.6082-.9267-.2593-1.622,1.2014-3.1311-.852l-.3315,2.0153L177.5126,167l-.0283-1.5988c1.0845.0766,3.1116-.5686,4.502-.6746l.0117-.731c-.8255.0171-1.7517.7417-2.3.5923a3.78,3.78,0,0,1-.5069-3.0529l-.4821,1.5737c-2.7517.228-2.7683.3049-5.6756-1.4546l.2639.7986c-.5617.4817-1.1223.9512-1.3042-.3465a6.3484,6.3484,0,0,1-4.6938-3.215l-.2119,1.8886c-.3665-.0974-.9636-2.935-1.0943-.2939l-.7641.8457c-.5007-.1353-.7869.9465-1.3735-.1253v-.0009l-.0032-.0047c-.0362-.0664-.0742-.1369-.1111-.22.001.0576.0051.1069.009.1565-1.1423-.8127.0413,1.689-1.2693.6272-.4382-1.3323-.4157,2.4-1.0527,1.9834l-.68-2.6916c-1.1677-1.5308-1.3147,1.1833-2.9663,1.2214-.81-.9487-1.2346-3.2481-.7456-5.3049-.6782,2.4914-.3,1.6211-1.2371,2.8269a4.3043,4.3043,0,0,1,.1282-2.1538c-.8723-1.179-.5088.93-1.1516.8808-.1523,1.9231-.313,4.9824-.5193,5.11l.2593.5947c-.6611,1.0372-1.3948,1.5289-2.2022.58l.0127-.9655-.8322.5039-.0747-1.2337-1.1936.4041.17.33c-.2791.1682-1.1971.6093-1.7376-.0259l.0071-.6858c-1.531-2.1128-2.7122.7119-4.4568.969l.2046-1.4043c-.62-1.3809-.125,2.1579-.8472,1.4748l-.0659-1.7192c-.5849,2.2712-.8166-.4656-1.2622-1.3127l.2412,2.2492-.8193-.46c-.9065-.7312-.5987-2.8367-.489-4.0193l-.5767,1.7864-.154-1.9866c-.4034,2.3215-.451-.3643-1.2078.8909-.0776-.7513.1118-1.1863-.1587-1.5018l-1.2344,2.8274.7525-1.2566-.0425,2.9083c-.7676,2.22-1.0984-.2974-1.66.5239l.3814-.8709c-.9278.7222-1-.5134-1.5418-1.1474.1741.5368.44,1.3352.0659,1.7221-.2763.1653-.17-1.019-.4394-1.3352-.0288,1.9375-.6851,2.9751-1.3127,2.073a4.218,4.218,0,0,1,.0476-.7182c-.15.3164-.2225.8166-.5022.3562l.1218-2.1553-.4863,2.0581c-.3589-.583-.84.9873-.82-.4658l.19-.4348-2.65-.4724-.0674-1.721c-.2187,2.3735-1.4541-.875-1.3149,2.0811-.5269-1.6033-1.9409,1.174-1.707-2.1665-1.7393-.2264-2.62,2.9992-4.7574,1.4138-.8012-2.8179-2.843-1.8643-4.2016-2.1394a72.2,72.2,0,0,1-7.0039,3.2815c-1.6966-3.9222-4.0325,1.4321-5.8223-.7688l-.4517,1.5781c-1.2075-2.478-2.9294.6106-4.6049-1.7971a3.108,3.108,0,0,1-.6858.9724c.0754.074.1933.37.2463,1.3647-.4783-.6916-1.4055.2014-1.3738-1.79l.1148-.2068c.0332-1.9917-1.3977.9553-1.9485-.76l.323,2.1274-.8892-.3447.229-.4136c-3.7505,4.8018-5.6035-1.9331-9.1277,2.4544.4363-2.3348-.6882,1.2346-.78-1.3072-.9649-3.1826-1.67.72-2.4,1.586a2.1086,2.1086,0,0,1-.0433.468l-1.3071-.281c.7205-3.2293-.89,2.6826-.2243-.065-3.4368-2.3442-7.8221.1839-11.7708-.8552l.187.824c-.9993-.14-2.2207.8852-3-.4224-.78-1.3047-1.6162,2.1287-1.9073,2.2654-.8034,1.4387-1.6074-1.3789-1.2492-1.24-.8792.41-1.66,3.3621-2.9119,2.1235-.4685-2.7182-3.3069,2.7344-3.3984-.3364l-.0088.2591c-1.6131-2.1346-3.0332,1.5712-4.7639-.357a3.9688,3.9688,0,0,1,.082-.4336l-3.2859,9.38L51.2849,186.73l3.14,8.2751,8.0754-1.95,6.5286,3.1418,15.7283-1.3808,1.0835-2.3343c3.166,3.99,7.0517-.7331,10.4367,2.0955l.0337-1.9932c.9375-.135.8955,1.1,1.1341,1.4439,8.7346-.5965,17.6877-3.41,25.5981-1.0386.7817,1.3032,3.075.4876,3.6946,1.8691,2.5117-2.4814,5.2187-2.5056,7.7812-2.3l-.093.2209,1.198-.405a1.1591,1.1591,0,0,1,.0286.5527c1.3279-1.7876,3.5-.0813,5.1772.607l-.0935.219c9.7161.19,18.6641-3.6878,28.3433-1.0791,4.5349,3.17,9.6638-1.4082,14.8489,1.2077C184.9062,195.8472,195.2724,194.1748,196.174,193.2258Z" fill="#e6ddd9"/><path d="M211.4225,190.2856l-.04.0105C211.3994,191.1345,211.4536,190.8164,211.4225,190.2856Z" fill="#e6ddd9"/><path d="M189.55,167.7368c.0234.0054.0461.0139.0681.02l-.2761-1.1792Z" fill="#e6ddd9"/><path d="M203.2873,166.8c-.6226-.2517-.6475-.0481-.5547.2866A.4677.4677,0,0,0,203.2873,166.8Z" fill="#e6ddd9"/><path d="M216.4413,188.5989c.3257.0605.1932-.4373-.0073-.9929-.3293.1084-.5586.1613-.5586.1613C216.061,187.9631,216.2507,188.4014,216.4413,188.5989Z" fill="#e6ddd9"/><path d="M214.915,177.2329l.0891-.6819A.6051.6051,0,0,0,214.915,177.2329Z" fill="#e6ddd9"/><path d="M76.4657,41.8443c-.4292-.0311-.9165.99-1.3492.9721-.4294-.0177-.8358-.53-1.2694-.53-.6166,0-.6166.3772-1.2332.3772s-.6165-.0433-1.233-.0433-.6165-.4331-1.233-.4331-.6166.4875-1.2332.4875-.6165-.4583-1.233-.4583-.6166-.4793-1.2333-.4793-.6165.0459-1.233.0459-.6167.632-1.2334.632-.6165-.7025-1.233-.7025-.6165.6276-1.233.6276-.6162-.4114-1.2324-.4114-.6163.6009-1.2326.6009-.6166-.1087-1.2332-.1087-.6163-.135-1.2325-.135-.6166-.4316-1.2332-.4316-.6164.3206-1.2328.3206-.6166.5209-1.2331.5209-.6165-.8966-1.233-.8966-.6167-.0565-1.2334-.0565-.6165.7632-1.233.7632-.6167-.0842-1.2334-.0842-.6168-.2582-1.2336-.2582-.6167.2691-1.2334.2691-.6167-.9351-1.2334-.9351-.6168,1.4461-1.2336,1.4461-.6168-1.56-1.2337-1.56-.6168.594-1.2336.594-.6166.7162-1.2333.7162-.6167-.57-1.2334-.57-.6167-.1831-1.2334-.1831-.6169.3812-1.2338.3812-.617-.1079-1.2341-.1079-.6169-.71-1.2338-.71-.6173.4938-1.2346.4938-.6173.205-1.2346.205c-.4011,0-.8466-.4065-1.2329-.3585-.3967.0493-.7559.4482-1.1343.5447-.3861.0986-.921-.15-1.2852-.0054-.3694.1464-.2713,1.2694-.6151,1.4592-.3471.1916-1.0046-.1609-1.3224.0712-.32.2334-.3883.7512-.6751,1.0217a8.9457,8.9457,0,0,0-.7735.85c-.2512.3044-.9513.2856-1.163.6194s-.8042.53-.9727.8885c-.1675.356.1834.98.0611,1.3567-.121.3736-.8457.6593-.9192,1.05-.0725.3849.8512.9353.8278,1.3331-.023.39-.885.8191-.858,1.2179.0263.3884.4649.79.5411,1.1833.0739.3824,1.1669.576,1.2432.9726.0738.3833.1641.77.24,1.1663.0737.3841-.6165.92-.5409,1.3157.0736.3847.6562.6775.7314,1.0722.0735.3852-.2006.8416-.1256,1.2357.0734.3857.21.7637.2852,1.1573.0733.3863.55.7.6249,1.0934.0732.3865-1.045,1.0019-.9707,1.3948.0732.3871,1.1745.5831,1.2487.976.0731.3872.057.7941.131,1.1865.0731.3879.4377.7236.5116,1.1162.0731.3882-1.1548,1.0222-1.0811,1.4146.0837.4523,1.6564.596,1.7493,1.0421.0811.382-.8378.9779-.75,1.3569s.7226.6272.8173,1.0045.6435.6271.7454,1.0026-.6374.9826-.5283,1.356.772.5765.8886.9478-.4215.9538-.2973,1.3226-.1174.8748.0143,1.241c.135.3761,1.1126.4421,1.2548.8142s-.117.9024.0329,1.2716.9523.4625,1.11.8286-.9,1.2727-.7352,1.6355.2867.7647.4589,1.1242.7232.5478.9026.9037,1.4167.1622,1.6033.5145.115.8311.3085,1.18-.3079,1.0911-.1074,1.4357,1.355.1167,1.5623.4573-.2835,1.1073-.0695,1.4437c.2385.3764.4073.8.6539,1.17s.8379.5037,1.093.8682.906.4311,1.1693.79-.1665,1.229.105,1.5816.705.5775.9844.9239c.2569.3191,1.0314.2,1.2947.5137s-.203,1.2442.0665,1.5523,1.0492.1562,1.325.4587.7306.4209,1.0125.7178-.396,1.5215-.1081,1.8125,1.4454-.2969,1.7392-.0117.4944.6506.794.93.2248.96.53,1.2334.4262.7612.7369,1.0279,1.2847-.2624,1.6008-.0022.531.6248.8524.8785-.175,1.5682.1515,1.8154.9519.1086,1.2834.349.6142.561.9506.7946.7978.2926,1.139.5193,1.2129-.3761,1.5586-.1564-.1406,1.7774.21,1.99,1.1934-.3958,1.5479-.1906.8617.1248,1.22.3228.5527.6856.9153.8761.83.1624,1.1965.3455.2308,1.4049.601,1.58,1.052-.3072,1.4259-.1394.4531,1.0292.83,1.1892.8817.0433,1.2622.1955.7384.39,1.122.5343.7588.3452,1.1453.4815.8957-.0611,1.285.0671.9392-.2513,1.3311-.1311.6867.5589,1.081.6709.9115-.243,1.3081-.1392.5894,1.0181.9881,1.1136.7634.3845,1.164.4718.8156.1636,1.218.2425.8065.2162,1.21.2868,1.0124-1.1065,1.4177-1.0443.7575.4254,1.1641.4792.7977.1845,1.2054.23.7357.914,1.1442.951c.4494.0405.93-.1517,1.3816-.1208.45.0308.946-.7041,1.3983-.6832.4506.0208.8713,1.0449,1.324,1.0555.4509.01.9187-.0281,1.3716-.0281.6206,0,.6206.0421,1.2412.0421s.6207.08,1.2414.08.6207-.5067,1.2415-.5067.6207-.0836,1.2413-.0836.6206.4161,1.2412.4161.6206-1.0208,1.2412-1.0208.6206,1.15,1.2412,1.15.6207-1.0372,1.2415-1.0372.621-.31,1.2419-.31.6208.2867,1.2416.2867.6212.954,1.2424.954.7383-.2385,1.1876-.6676c.429-.41.7813-.5358.7813-1.129s-.94-.593-.94-1.1861-.4532-.5934-.4532-1.1869.125-.5933.1248-1.1867c0-.6207.5544-.6208.5541-1.2415s-.3424-.6206-.3427-1.2414,1.0752-.6212,1.0749-1.242-.5522-.6206-.5525-1.2415-.6825-.62-.6829-1.2412.43-.6212.43-1.2421-.6212-.6207-.6215-1.2418,1.1456-.6215,1.1452-1.2424-.3244-.6208-.3247-1.2417.0546-.6211.0543-1.2421-1.0213-.6206-1.0216-1.2417,1.4774-.6218,1.4771-1.2428-.96-.62-.96-1.2414.1134-.621.1131-1.2419.0519-.621.0516-1.2419.9212-.6216.9209-1.2427-.3576-.6211-.3579-1.2425-.0062-.6211-.0065-1.2422-1.2-.6209-1.2006-1.2425.9821-.62.9895-1.241c0-.0077-.2376.0047-.2375-.0031.0077-.5721.01-.5716.01-1.1438s.1143-.5723.1143-1.1445.2868-.5724.2868-1.1448-.6713-.5726-.6713-1.1451.5577-.5724.5577-1.1448-.1967-.5728-.1967-1.1456.7419-.5728.7419-1.1456c0-.4007-1.04-.8078-1.0275-1.2053.0129-.4.0345-.8069.06-1.2039.0257-.4,1.0527-.709,1.0912-1.105.0386-.3985-1.2721-.9467-1.2208-1.3413.0516-.397.4263-.76.49-1.1533.0645-.395.6932-.6877.77-1.0784.0773-.3925.6836-.6527.7734-1.0407.09-.39-.3719-.8982-.2694-1.2831.1028-.3865.6007-.645.7158-1.0264s.3757-.6938.5031-1.0713-1.2659-1.2989-1.1261-1.6721,1.4756-.2845,1.6275-.653-.3407-1.0133-.1768-1.3767,1.0926-.3624,1.2682-.72-.6529-1.23-.4658-1.5818,1.3483-.1671,1.5468-.5129-.7664-1.3905-.5569-1.73.7255-.2513.9459-.5837c-.226-.3371.24-.9005.0039-1.2288s-.8582-.378-1.1057-.6983-.9531-.26-1.2113-.5717.2573-1.2812-.0113-1.5841-.9768-.2072-1.2554-.5011-.0956-1.0461-.384-1.3305-1.2784.17-1.5762-.1045.1941-1.4366-.1127-1.701-.9942-.09-1.31-.3436-.8948-.16-1.2188-.4029-.04-1.3327-.3721-1.565-1.2971.4677-1.6368.2467-.4671-.7632-.8141-.9728-.7809-.2579-1.1347-.4557-.46-.8568-.82-1.0426-.8515-.1163-1.2179-.29-.6794-.4691-1.0515-.63-1.0429.4257-1.42.2772-.7488-.2447-1.131-.38-.6378-.5889-1.0245-.7117-.4786-1.2466-.8693-1.3563-.9758.4829-1.37.3865-.8725.2217-1.27.1386-.6871-.6867-1.0871-.7563c-.3984-.0693-.8364.1143-1.2386.0583-.4-.0559-.778-.2916-1.182-.3341C77.2468,42.3131,76.8709,41.8731,76.4657,41.8443Z" fill="#332933"/><path d="M94.4133,146.4439c-.0177-.6037.6752-.6124.675-1.2163s-.81-.6034-.8105-1.2073.2622-.6037.2619-1.2072.536-.6039.5357-1.2076-.21-.6038-.21-1.2077.0806-.6037.08-1.2074.0493-.6039.049-1.2079-.1055-.6037-.1057-1.2075-.6128-.6036-.6131-1.2075.4064-.604.4061-1.2079-.0034-.604-.0036-1.208.2808-.604.2805-1.2079-.2355-.6039-.2357-1.208-.4435-.6039-.4437-1.2081.7772-.6044.7769-1.2084-.1165-.604-.1168-1.2081-.6946-.6038-.6948-1.2079.1849-.6044.1846-1.2086-.0611-.6041-.0613-1.2082.7137-.6044.7135-1.2084-.5894-.6038-.59-1.2078.6314-.6044.6311-1.2084-.4877-.604-.488-1.2082-.1828-.6044-.1831-1.2088.187-.6043.1867-1.2085-.2952-.6045-.2955-1.2092.5291-.55.1059-.982c-.4147-.423-.36.06-.9529.06s-.5924-.2921-1.1848-.2921-.5925-.1828-1.185-.1828-.5926-.1384-1.1852-.1384-.5922-.1359-1.1844-.1359-.5924.4173-1.1849.4173-.5924-.3343-1.1849-.3343-.5924.1839-1.1849.1839-.5926.2043-1.1852.2043-.5929-.2672-1.1857-.2672-.5926-.14-1.1852-.14-.5931.6344-1.1861.6344-.5931.0417-1.1861.0417c-.3747,0-.7485-.2917-1.1218-.2985s-.7586.2706-1.1316.257-.7371-.32-1.11-.3406-.7755.3492-1.1479.3221-.6942-.2639-1.0661-.2976c-.3915.1384-.6855.3884-1.0658.5482-.3826.1609-.943-.0815-1.3136.1-.3724.1826-.71.4451-1.0693.648s-.5062.7513-.8536.9748-.7465.35-1.0805.5931-.6475.4975-.967.76-.7892.3472-1.0932.6277-.8721.3111-1.1594.6088-.5223.6732-.792.9871-.4509.7205-.7021,1.05-.1952.8811-.4269,1.2244-.2292.8152-.4407,1.1716-.9683.403-1.1588.7712-.1134.8691-.2822,1.2479c-.1681.377-.6488.6348-.7954,1.0229-.1457.386.3888,1.0047.265,1.401-.123.3936-.4588.7118-.5595,1.1148-.1.4-.2954.7739-.3725,1.1823-.0765.4048-.6124.7489-.6659,1.1614-.0786.6052-.1113.601-.19,1.2062s.31.6555.2312,1.26.18.6389.1017,1.244-.55.544-.6284,1.1491-.0212.6128-.1,1.2181-.0865.6041-.1651,1.2093-.2333.5852-.3119,1.19.7675.7154.6889,1.3208-.5078.55-.5864,1.1549.3466.6606.268,1.266-.603.5373-.6816,1.1427.1013.6289.0226,1.2344.1433.6342.0647,1.24-.91.4974-.9881,1.1028.4091.6686.3305,1.274-.3909.5647-.47,1.17.2643.65.1857,1.2555.0115.6174-.0671,1.2232-.0513.609-.13,1.2145-.3387.5722-.4174,1.1781.033.6205-.0457,1.2264c-.0542.4172.2949.7957.33,1.1951.0367.415-.403.9017-.28,1.287.126.3938.06.95.2659,1.3017.208.3548.7666.5309,1.0452.8307a5.8764,5.8764,0,0,0,1.0568.661,5.385,5.385,0,0,0,1.0739.5538,5.4614,5.4614,0,0,0,1.1409.4548,5.7237,5.7237,0,0,0,1.23-.0184c.39-.024.7755-.3222,1.1893-.347.392-.0235.827.5048,1.2385.4807.3937-.0231.7783-.3458,1.1881-.3694.3952-.0229.7872-.227,1.1957-.25.3963-.0226.84.6849,1.2473.6619.3975-.0224.7884-.247,1.1951-.27.3984-.0222.76-.7789,1.166-.8014.4163-.0231.8487.3176,1.2612.28.4151-.0376.7921-.3473,1.2031-.3992.4135-.0522.8407.0623,1.25-.004.4113-.0668.8032-.1958,1.21-.2766.4086-.0812.9149.29,1.3184.1952.4053-.0956.6989-.63,1.0989-.7391.4016-.11.9825.38,1.3783.2568.3974-.124.676-.6306,1.0673-.7682s.9415.1195,1.3278-.0319.7119-.49,1.0926-.6554.465-.98.84-1.1587.7918-.2467,1.16-.4384.7288-.3782,1.09-.5827.6516-.5076,1.0054-.7248.6693-.4687,1.0153-.6983.9481-.076,1.2859-.3176.8566-.2508,1.1857-.5042.2887-.9722.6088-1.2371.9588-.1577,1.2694-.4336.22-.9848.5211-1.2715.8618-.3021,1.1523-.5992.8635-.56,1.1435-.8672a4.0712,4.0712,0,0,0,.0638-1.14c0-.5387-.8657-.5387-.8657-1.0775s.0194-.5391.0194-1.0782.6613-.5728.5062-1.0891C94.72,146.2718,94.4138,146.4612,94.4133,146.4439Z" fill="#7a6279"/><g opacity="0.2"><path d="M52.9176,41.7385c-.247-.5445-.5123-.2708-1.11-.2708s-.598.4867-1.1959.4867-.5981.0585-1.1962.0585-.5983-.1268-1.1966-.1268-.5981-.298-1.1962-.298-.5985-.083-1.197-.083-.7039-.1571-1.2387.1116c-.555.2789-.5047.4458-.8844.9374s-.1412.6761-.521,1.1678-.2012.6293-.5809,1.1208-.5553.356-.935.8475-.58.3372-.96.829-.1159.6954-.4956,1.1869-.5331.3735-.913.8653-.2512.591-.631,1.0827-.307.548-.6869,1.04-.7694.1908-1.1492.6825.0847.8508-.2953,1.3427-.66.2749-1.04.7667-.6.3223-.98.8142-.0916.7147-.4717,1.2066-.2544.5889-.6344,1.0808-.5092.392-.8892.8839-.6877.2543-1.0678.7462-.3775.4931-.7572.9847-.1611.6607-.5409,1.1525-.4012.4756-.7813.9676-.2693.5775-.6494,1.0694-.6082.3157-.9882.8077-.1309.6846-.5111,1.1767-.6064.3169-.9864.8087-.2809.569-.6612,1.0613-.3433.5213-.7238,1.0139a4.2676,4.2676,0,0,0-.7343,1.004c.0807.382.0723.7789.16,1.158s.13.7734.2248,1.1508.0612.7945.1631,1.17.4054.7.5146,1.0732.0835.7928.2,1.164.33.7165.454,1.0853.2079.8571.3394,1.2234c.1179-.1133.5846-.2353.6873-.3685.376-.4868.39-.476.766-.9628s.2282-.6008.6042-1.0876.52-.3752.8963-.8619.1471-.6628.5227-1.1491.2812-.56.657-1.0461.2734-.5662.6495-1.053.659-.2678,1.0348-.7543.25-.5834.6259-1.07.18-.6381.5558-1.1247.7475-.2,1.1235-.6866.4108-.46.7866-.9461-.0024-.7789.3735-1.2655.7892-.1677,1.1653-.6545.0378-.7478.4137-1.2344.81-.1516,1.1861-.6384-.0242-.7959.3518-1.2826.3331-.52.7091-1.0068.5008-.39.8769-.8772.3434-.5121.72-.9991.317-.5324.693-1.0192.5531-.35.9292-.8372.4111-.46.7873-.947.2438-.5892.62-1.0761.3144-.5347.6905-1.0217.6859-.2478,1.0621-.7348.1028-.6975.4786-1.1841.6573-.27,1.0333-.7563.2733-.5666.6495-1.0536.1994-.6236.5756-1.1106.2993-.5464.6756-1.0335.2914-.5527.6677-1.04.4891-.4.8652-.8864.5452-.357.9217-.8443.4409-.366.9207-.7527C52.9492,42.5193,53.1722,42.3,52.9176,41.7385Z" fill="#fff"/></g><g opacity="0.13"><path d="M76.2771,41.85c-.43-.0307-1.0078-.2122-1.44-.23-.43-.0175-.8657-.2878-1.2989-.2878-.5706,0-.5706.6384-1.1413.6384s-.5708-.7192-1.1417-.7192-.5707.6487-1.1414.6487-.571.1939-1.1421.1939-.5358-.4625-1.0444-.2028c-.5418.2767-.7717.0567-1.1436.5382s-.0305.745-.4023,1.2264-.7707.1731-1.1425.6544.0933.8406-.2785,1.322-.1477.6547-.52,1.1362-.4336.4337-.8055.9151-.6463.2693-1.0181.7506-.2026.6122-.5745,1.0936-.9042.07-1.2761.5517-.0986.6924-.4705,1.1738-.0342.7422-.406,1.2237-.585.3168-.9569.7983-.0645.7188-.4364,1.2-.9391.0433-1.311.5248-.2114.6054-.5833,1.0868-.3991.46-.7709.9419.1337.8713-.2378,1.3523-1.1031-.0837-1.4748.3975.103.8484-.269,1.33-.428.4377-.8.9189-.3975.4612-.7691.9423-.8279.129-1.2.61-.1951.6181-.567,1.1-.3688.4835-.7406.9647.2222.94-.15,1.4215-.8621.103-1.234.5845-.2466.5781-.6184,1.0594-.3767.4779-.7487.9594-.4284.4377-.8.9192-.5139.3718-.8858.8533-.04.7382-.4116,1.22-.6481.2685-1.02.75-.2745.5567-.6465,1.0382-.7392.198-1.1113.68.146.8819-.226,1.3636-.3731.4809-.7451.9626-.8665.1-1.2385.5814.3032,1.0033-.0689,1.485-.5292.36-.9009.8409-.6525.2648-1.0245.7463-.6386.2759-1.0107.7577-.0894.7-.4615,1.1818-.5742.3255-.9463.8073-.4481.4232-.82.9051.4307,1.1016.0587,1.5832-1.0038-.0057-1.3761.4763-.0222.753-.3948,1.2353-.9993.1683-1.2146.7385c.239.3762,1.1105.6908,1.3573,1.0607s-.0723,1.1287.1829,1.493,1.2071.2284,1.47.587.3162.8661.5875,1.2188.3025,1.0855.5818,1.4322a4.57,4.57,0,0,0,.914-1.0479c.377-.4881.0856-.7132.4626-1.2012s.8829-.0972,1.26-.5851.0864-.7123.4632-1.2.7024-.2366,1.0793-.7246-.1239-.8751.2531-1.3632.9684-.0312,1.3454-.5192.0927-.7075.47-1.1955.164-.6524.541-1.14.8962-.0872,1.2732-.5754-.1775-.9163.2-1.4043.5708-.3383.9477-.8263.29-.5554.6668-1.0435.6395-.2853,1.0165-.7734.2384-.5951.6154-1.0831.4463-.4346.8233-.9226-.0183-.7935.3588-1.2816.357-.5034.734-.9915.5494-.355.9264-.8431.897-.0865,1.274-.5746.02-.764.3968-1.2521.1708-.6467.5474-1.1343.6434-.282,1.02-.77.2538-.5836.6309-1.0718.47-.4159.8468-.9037.123-.6838.5-1.1716.705-.2347,1.0819-.7226.4032-.4679.78-.9561.2722-.5687.6491-1.0566.7178-.2246,1.0948-.7126-.2695-.9877.1075-1.4759.2712-.57.6481-1.0576,1.15.1088,1.5271-.3794-.2069-.9391.17-1.4272.874-.1043,1.2511-.5924.1944-.6293.5715-1.1174.0054-.7754.3826-1.2637.536-.3654.913-.8535.4225-.4533.8-.9416.1163-.69.4935-1.1783.56-.3474.9368-.8357.4986-.3945.8757-.8828.152-.6623.5293-1.1507.7016-.2371,1.0785-.725.5989-.3168.9759-.805.1363-.6745.5136-1.1629.251-.5858.6283-1.0742.1174-.689.4946-1.1774.3059-.5437.6833-1.0322.7273-.2178,1.1044-.706.2963-.5514.6738-1.04a4.6355,4.6355,0,0,1,.8535-.9121C75.8369,42.303,76.0871,42.4378,76.2771,41.85Z" fill="#fff"/></g><g opacity="0.26"><path d="M69.949,101.8415c.42,0,.9064.539,1.3171.5033.4175-.0362.8094-.6222,1.216-.6937.4121-.0725.5984-1.0809.9976-1.188.4036-.1082,1.0488.6141,1.4376.4722.392-.1432.5351-.8657.91-1.0414.3776-.1768,1.1669.4223,1.5257.2144.36-.2089.3724-.9932.712-1.2317s.658-.4892.9759-.7565.2805-.8759.5744-1.17,1.3786.1443,1.6462-.1741-.33-1.2962-.0908-1.6368,1.138-.2394,1.3468-.6c.208-.3588.661-.6269.8378-1.0045.1756-.3752.054-.9086.1972-1.3006.1419-.3887.6046-.7114.7128-1.115.1071-.3992-.4313-.9626-.3588-1.3747.0715-.4065-.3587-.85-.3225-1.2675.0356-.4107-.1423-.7736-.1423-1.1933s1.1565-.8676,1.1209-1.2783c-.0363-.4175-1.2194-.6646-1.2909-1.0711-.0725-.4121.4774-.92.37-1.3193-.1083-.4036.021-.882-.121-1.2707-.1431-.3921-.003-.931-.1787-1.3062-.1767-.3776-1.4814-.1507-1.6893-.51-.2089-.36.6835-1.4126.445-1.7522s-.3777-.8286-.6449-1.1466-1.2664.0033-1.56-.2906-.5786-.5712-.897-.8388-.0912-1.2814-.4319-1.5206-1.0964.1116-1.4567-.0972-1.0238.2265-1.4014.05c-.3752-.1757-.6827-.375-1.0747-.5181-.3888-.1419-.56-.9051-.9632-1.0134-.3992-.1071-.95.5889-1.3624.5164-.4065-.0715-.6741-1.0628-1.0915-1.099-.4106-.0356-.8456.7438-1.2653.7438s-.818-.3553-1.2286-.32c-.4175.0362-.9332-.5976-1.34-.5261-.4121.0725-.8677.1465-1.2669.2536-.4036.1082-.3738,1.5353-.7626,1.6772-.392.1432-.8805-.0953-1.2558.08-.3775.1768-1.1022-.3212-1.461-.1132-.36.2089-.695.5068-1.0347.7453s-.9467.2-1.2646.4674-.0946,1.1609-.3885,1.4549-.4431.6954-.7107,1.0138-.7214.4749-.9606.8155.2229,1.0835.014,1.4439c-.2079.3588-1.3855.1864-1.5623.564-.1757.3752-.74.6392-.8829,1.0313-.1419.3887.79,1.1341.6821,1.5377-.1071.3992-.7572.671-.83,1.0831-.0715.4065-.236.8247-.2723,1.2422-.0356.4106.5126.8507.5126,1.27s.4558.7728.4915,1.1835c.0362.4174-.3634.8455-.2919,1.2521.0725.412.5058.7015.6129,1.1007.1083.4036.4074.6777.5493,1.0665.1432.392-.2908.9735-.1151,1.3487.1768.3776.1717.84.38,1.1987.2089.36.192.8812.4306,1.2209s.09,1.0437.357,1.3616.5972.6809.8911.9748,1.32-.1663,1.6385.1013.4881.7214.8287.9606.7361.3969,1.0965.6058c.3588.208.5169.85.8945,1.0267.3752.1757,1.04-.3066,1.4318-.1635.3888.142.86-.0807,1.2634.0275.3992.1071.5228,1.5179.9349,1.59.4065.0715.9487-.572,1.3661-.5358C69.1069,101.64,69.5293,101.8415,69.949,101.8415Zm0-7.1559c-.4078,0-.68-.5823-1.0708-.6439-.4008-.0632-.8291.3771-1.2069.2541-.3843-.1251-1.143.5791-1.4981.3975-.3587-.1834-.2675-1.1626-.5909-1.3981s-1.0361-.0414-1.32-.3249.142-1.1627-.0946-1.4875-.987-.2986-1.17-.6573a7.9006,7.9006,0,0,1-.4742-1.129c-.123-.3779-.6913-.7165-.7545-1.1174-.0616-.3907.9955-.8873.9955-1.2951s-1.0317-.9-.97-1.2911c.0633-.4008.9521-.6308,1.0751-1.0087.1251-.3843.5134-.5967.695-.9518.1835-.3587.0968-.8215.3324-1.1449s.723-.3656,1.0065-.6492.1452-1.0159.47-1.2525.4614-.8881.82-1.0716a9.2709,9.2709,0,0,1,1.139-.6825c.3778-.123,1.075.9147,1.4758.8515.3908-.0617.7329-1.231,1.1407-1.231s.8269.6811,1.2177.7427c.4008.0632.727.4168,1.1048.54.3843.1251.58.5707.9355.7524.3587.1834,1.38-.6658,1.7031-.43s-.211,1.51.0725,1.7937.3381.6356.5747.96,1.2362.1337,1.42.4924a8.0654,8.0654,0,0,1,.4635,1.1468c.1231.3778-.7061.9479-.6429,1.3488.0616.3907.7881.6773.7881,1.0851s.6537.9121.5921,1.3028a8.902,8.902,0,0,1-.3679,1.2514c-.1251.3843-.9187.5348-1.1.89-.1834.3586.2583,1.1617.0228,1.4851s-1.2422.045-1.5257.3286-.0923,1.1676-.4171,1.4042-.912.1614-1.2707.3449c-.3551.1816-.9709-.3138-1.3552-.1886a6.6535,6.6535,0,0,1-1.0971.2361C70.6758,94.4,70.3568,94.6856,69.949,94.6856Z" fill="#fff"/></g><g opacity="0.43"><path d="M79.8,125.85a9.597,9.597,0,0,0-1.2284-.1177c-.39.0558-.7058.587-1.0764.6961a9.0086,9.0086,0,0,0-1.1915.1943c-.356.1633-.4717.7617-.7981.9723a7.8176,7.8176,0,0,0-.93.6542c-.2945.2557-.8568.2447-1.1123.5394s.0005.9554-.2112,1.2839a7.4229,7.4229,0,0,0-.5684.9582c-.1615.3523-.91.4833-1.02.86a8.7869,8.7869,0,0,0-.3509,1.1691,9.0468,9.0468,0,0,0-.1728,1.22,9.0833,9.0833,0,0,0,.3095,1.2005,4.2056,4.2056,0,0,0,.8824,2.21,9.1035,9.1035,0,0,0,.36,1.1583c.2117.3283.9835.2235,1.2386.5175s-.0051,1.099.29,1.3545.7784.31,1.1068.5219c.3264.21.5935.5922.95.7554.3522.1614.9131-.2168,1.29-.1061.3705.109.6787.441,1.0689.4968.3808.0545.77.4036,1.1657.4036s.779-.3913,1.16-.4458a7.0424,7.0424,0,0,0,2.22-.6655,8.4228,8.4228,0,0,0,1.0909-.4448c.3285-.2117.8745-.194,1.1686-.4491a9.123,9.123,0,0,0,.8628-.8737,9.335,9.335,0,0,0,.5523-1.1008,4.0815,4.0815,0,0,0,1.1-2.1388,8.7507,8.7507,0,0,0,.2488-1.1861c.0545-.3809-.3184-.812-.3184-1.2077a8.1583,8.1583,0,0,0-.0272-1.1585c-.0558-.39-.4652-.6677-.5743-1.0383a8.0235,8.0235,0,0,0-.2092-1.1244c-.1632-.356.1089-.9619-.1017-1.2884a8.8849,8.8849,0,0,0-.8031-.91,8.6143,8.6143,0,0,0-2.8539-2.18,9.1847,9.1847,0,0,0-1.07-.63c-.3706-.109-.941.6357-1.3312.58C80.5331,126.477,80.1957,125.85,79.8,125.85Zm0,12.5859c-.3929,0-.66-.2418-1.0223-.3391-.3748-.1006-.85.1863-1.1786-.0041-.3329-.193-.4736-.5973-.744-.8678s-.8768-.2939-1.07-.6268a4.8441,4.8441,0,0,1-.4305-1.127c-.0974-.3627.25-.7981.25-1.191s-.5372-.8794-.44-1.2422a5.1644,5.1644,0,0,1,.5136-1.1383c.1929-.3332.9507-.2507,1.221-.5213a3.8318,3.8318,0,0,1,.8971-.5717,3.6179,3.6179,0,0,1,.9881-.3184c.3628-.0974.6223-.3577,1.0153-.3577a3.96,3.96,0,0,1,1.0811.1146,4.3958,4.3958,0,0,1,1.106.2464c.3332.1931.4639.5965.7345.8671s1.0548.1807,1.2478.5139c.19.3286-.3475.9816-.2469,1.3567.0973.3629.3852.6577.3852,1.0509a4.09,4.09,0,0,1-.346,1.0609c-.1006.3749.2578.9363.0672,1.2648-.1931.333-.6529.5083-.9235.7787s-.737.2279-1.07.4208c-.3286.19-.5121.6581-.8871.7586C80.5852,138.6614,80.193,138.4362,79.8,138.4362Z" fill="#fff"/></g><path d="M190.673,42.7262c.4291-.0311.8032-1.1034,1.2359-1.1212.4294-.0177.8856.4748,1.3192.4748.6166,0,.6166-.3773,1.2332-.3773s.6165.0433,1.233.0433.6165.4332,1.233.4332.6166-.4875,1.2332-.4875.6165.4583,1.233.4583.6167.4792,1.2333.4792.6166-.0458,1.2331-.0458.6166-.6321,1.2333-.6321.6165.7025,1.2331.7025.6165-.6275,1.233-.6275.6161.4113,1.2323.4113.6163-.6009,1.2327-.6009.6165.1088,1.2331.1088.6163.1349,1.2326.1349.6165.4316,1.2331.4316.6164-.3206,1.2329-.3206.6165-.5209,1.233-.5209.6165.8966,1.233.8966.6167.0565,1.2334.0565.6165-.7632,1.233-.7632.6167.0843,1.2334.0843.6168.2581,1.2336.2581.6167-.2691,1.2334-.2691.6167.9351,1.2334.9351.6168-1.4461,1.2336-1.4461.6169,1.56,1.2337,1.56.6168-.594,1.2336-.594.6167-.7161,1.2334-.7161.6167.57,1.2333.57.6167.183,1.2335.183.6168-.3811,1.2337-.3811.6171.1078,1.2341.1078.6169.71,1.2338.71.6173-.4939,1.2346-.4939.6173-.205,1.2346-.205c.4011,0,.7444.456,1.1307.504.3967.0493.814-.202,1.1924-.1054.3862.0985.603.5915.9671.7357.3695.1464,1.1824-.6386,1.5261-.4488.3472.1916.3562.97.674,1.2018.32.2334.859.2214,1.1457.4918a10.06,10.06,0,0,1,.8443.8787c.2512.3045.0155.9635.2272,1.2972s-.001.8283.1674,1.1865c.1675.356.81.4676.9319.8448.1211.3735-.4075.8537-.3339,1.2442.0725.3849,1.0936.6189,1.117,1.0167.0229.39-.8418.7509-.8688,1.15-.0263.3884.3109.771.2347,1.1647-.0739.3825.8687.9684.7924,1.3651-.0738.3832-.1332.7754-.2092,1.1712-.0736.384-.9131.6271-.9886,1.0223-.0736.3847.36.8714.2849,1.266-.0735.3853-.4962.7086-.5711,1.1028-.0734.3857-.0845.7874-.1592,1.1811-.0734.3862.2558.8525.1813,1.2459-.0733.3865-1.339.5507-1.4133.9436-.0732.3871.8806.9714.8065,1.3643-.0731.3872-.2362.76-.31,1.1525-.0731.3879.1445.8329.0707,1.2255-.0731.3882-1.4478.5349-1.5215.9273-.0836.4523,1.2226,1.17,1.13,1.616-.0811.382-1.1686.5472-1.2562.9261-.088.38.3639.8914.2692,1.2687s.2566.8846.1547,1.26-1.0532.521-1.1624.8945.3268.9186.21,1.29-.8963.532-1.02.9008-.6225.6008-.7542.967c-.1351.3761.5652,1.0584.4229,1.43s-.695.5865-.8449.9557.344,1.0143.1866,1.38-1.5382.191-1.703.5539-.3811.6857-.5532,1.0451.0262.8888-.1532,1.2447.6908,1.26.5042,1.6122-.6391.576-.8327.9245-1.09.3006-1.29.6452.5453,1.2591.338,1.6-1.12.2522-1.3341.5886c-.2385.3764-.555.7-.8017,1.07s-.1582.9731-.4133,1.3377-.1235,1.0226-.3869,1.3812-1.2286.2007-1.5.5534-.3893.8277-.6687,1.1741c-.2569.3191-.0027,1.0706-.2659,1.3841s-1.2628.0053-1.5323.3133-.0359,1.0713-.3116,1.3739-.3792.7841-.6611,1.081-1.53-.3393-1.8182-.0483.2875,1.4557-.0063,1.7408-.6869.4843-.9865.7634-.9793.15-1.2845.423-.8.3245-1.1112.5912.0362,1.3228-.28,1.5831-.7389.41-1.06.6637-1.4657-.56-1.7922-.3125-.3591.8732-.6906,1.1137-.7166.3938-1.053.6274-.5522.6347-.8933.8614-.1559,1.2755-.5016,1.4952-1.5274-.9063-1.8776-.6938-.211,1.2383-.5655,1.4436-.56.6885-.9182.8865-.8851.0983-1.2478.2888-.6236.5917-.99.7747-1.238-.681-1.6082-.5055-.4314,1.0006-.8053,1.1684-1.0442-.3666-1.4214-.2066-.629.5883-1.01.74-.785.21-1.1686.3543-.7766.2232-1.1631.3594-.6512.5976-1.0405.7259-.6184.7555-1.01.8757-.8809-.0873-1.2752.0247-.6655.6821-1.0621.7859-.9965-.6117-1.3952-.5162-.8305-.0113-1.2311.076-.7856.1764-1.188.2553-.8014.0906-1.2053.1611-.6016,1.38-1.0069,1.442-.8616-.1856-1.2682-.1318-.8261.0217-1.2338.0671-.892-.7413-1.3-.7044c-.4493.0405-.87.3043-1.3214.3352-.45.0308-.8563.8175-1.3086.8384-.4506.0208-.9332-.9717-1.3859-.9611-.4509.01-.8868.06-1.34.06-.6206,0-.6206-.0422-1.2412-.0422s-.6207-.08-1.2413-.08-.6208.5067-1.2416.5067-.6206.0837-1.2413.0837-.6206-.4162-1.2412-.4162-.6206,1.0208-1.2412,1.0208-.6206-1.15-1.2412-1.15-.6207,1.0372-1.2415,1.0372-.6209.31-1.2419.31-.6208-.2867-1.2416-.2867-.6212-.954-1.2424-.954-.848,1.0966-1.2972.6676c-.429-.41.7814-.6507.7814-1.2439s-.94-.593-.94-1.1861-.4531-.5934-.4531-1.1869.1246-.5936.1247-1.187c0-.6207.555-.62.5553-1.2412s-.3417-.6209-.3414-1.2417,1.0758-.62,1.0761-1.2409-.5516-.6212-.5512-1.2421-.6819-.6211-.6816-1.2419.4307-.6207.4311-1.2417-.6206-.6213-.62-1.2423,1.1462-.62,1.1465-1.2413-.3238-.6211-.3235-1.2421.0552-.621.0556-1.242-1.0207-.6216-1.02-1.2428,1.478-.62,1.4783-1.2413-.9593-.6214-.9589-1.2423.114-.6209.1143-1.2418.0525-.6209.0528-1.2419.9218-.6206.9221-1.2417-.3569-.6215-.3566-1.2428-.0056-.6211-.0052-1.2423-1.2-.6221-1.2-1.2437.9983-.6237.9908-1.2452c0-.0077-.2684.0108-.2685.0031-.0077-.5722.01-.5728.01-1.145s.1143-.5723.1143-1.1445.2869-.5724.2869-1.1448-.6713-.5726-.6713-1.1451.5577-.5724.5577-1.1448-.1968-.5728-.1968-1.1456.742-.5728.742-1.1456c0-.4007-1.0531-.7919-1.0659-1.1895-.0128-.4-.03-.7912-.0553-1.1882-.0257-.4.9371-.8861.8986-1.2821-.0386-.3985-1.4394-.6437-1.4907-1.0383-.0516-.397.2072-.8235.143-1.2164-.0645-.395.4226-.8881.3456-1.2788-.0774-.3926.3616-.913.2719-1.301-.09-.39-.7449-.6561-.8474-1.041-.1028-.3865.1771-.896.0621-1.2774-.1155-.3829-.0983-.8325-.2257-1.21s-1.79-.2107-1.9292-.5839.903-1.2072.7511-1.5757-.9617-.4588-1.1255-.8222.4241-1.0885.2485-1.4464-1.3682-.1986-1.5554-.5507.5872-1.2372.3887-1.5831-1.5726.0117-1.7822-.3276-.1248-1.1007-.3452-1.4331c.226-.337,1.1551-.4393,1.3916-.7676s.1009-.93.3484-1.25.0494-1.0151.3076-1.3269,1.302.0407,1.5705-.2623.109-.9973.3876-1.2911,1.03-.1211,1.3182-.4054-.1144-1.2987.1834-1.5732,1.3954.3477,1.7022.0833.2428-.9583.5584-1.2123.3766-.8461.7006-1.0894,1.2643.37,1.5963.138.0387-1.3857.3784-1.6068.8987-.1094,1.2457-.3189.6134-.5682.9672-.766.9612.0781,1.3215-.1077.5951-.6141.9615-.7877.7908-.2122,1.1629-.3734.4494-1.057.8268-1.2056.7637-.336,1.1459-.4717.8934.06,1.28-.063,1.0693.7694,1.46.66.5873-.9074.9815-1.0038.7039-.5932,1.1012-.6762.901.3687,1.3009.2991.7612-.3784,1.1633-.4344c.4005-.0559.8276.0815,1.2315.039C189.8362,42.3863,190.2677,42.7551,190.673,42.7262Z" fill="#332933"/><path d="M172.0984,146.4274c.0177-.6037.6758-.5955.6761-1.1994s-.81-.6042-.8095-1.2081.2628-.6034.263-1.2069.5366-.6035.5368-1.2072-.21-.604-.2093-1.2079.0811-.6036.0814-1.2072.05-.604.05-1.2079-.1049-.6038-.1047-1.2076-.6122-.6042-.612-1.2081.407-.6036.4072-1.2075-.0028-.604-.0026-1.208.2814-.6038.2816-1.2077-.2349-.6041-.2347-1.2082-.4429-.6043-.4426-1.2084.7778-.6037.778-1.2078-.116-.6041-.1157-1.2082-.6941-.6044-.6939-1.2085.1855-.6042.1858-1.2084-.0606-.6041-.06-1.2083.7143-.6037.7145-1.2077-.5888-.6043-.5885-1.2084.6319-.6038.6322-1.2078-.4872-.6044-.487-1.2087-.1823-.6045-.182-1.2089.1875-.6041.1878-1.2083-.2948-.6048-.2945-1.21-.3163-1.0047.1069-1.4365c.4147-.4231.8245-.06,1.4169-.06s.5924.2921,1.1848.2921.5925.1828,1.185.1828.5926.1384,1.1852.1384.5922.1359,1.1844.1359.5925-.4173,1.1849-.4173.5925.3343,1.1849.3343.5925-.1839,1.1849-.1839.5926-.2043,1.1853-.2043.5928.2672,1.1856.2672.5926.14,1.1853.14.593-.6344,1.186-.6344.5931-.0418,1.1861-.0418c.3747,0,.7489.2849,1.1221.2781s.738-.3048,1.1111-.3184.7586.2589,1.1314.2385.7187-.4376,1.091-.4646.7981.1486,1.17.1148c.3915.1385.87.1872,1.25.3471.3827.1608.5759.746.9465.9277.3725.1826.7678.306,1.1274.509s.9249.0839,1.2723.3074.6336.5668.9676.81.677.497.9965.7594.4753.7221.7792,1.0026.3282.8294.6156,1.1271.61.5345.8795.8485.6093.55.86.88.79.4488,1.0212.7921.6765.5693.888.9257-.1446,1.0313.0459,1.4.6252.61.794.9892c.1681.3771.0023.8849.1489,1.2731.1457.386.95.55,1.0739.9462.123.3936.011.8725.1117,1.2755.1.4.0815.8345.1587,1.2429.0764.4047-.3292.8781-.2757,1.2906.0786.6052.046.61.1246,1.2147s.4669.5546.5455,1.16.3376.5716.4162,1.1768-.3926.6663-.314,1.2715.136.5978.2147,1.2031.0707.6062.1493,1.2114-.0761.6254.0026,1.2307.9248.4955,1.0035,1.1009-.3505.6611-.2719,1.2665.5039.55.5825,1.1554-.4457.6735-.367,1.2789.2586.5822.3373,1.1877.3006.5766.3792,1.182-.7522.7132-.6736,1.3185.5664.542.645,1.1473-.2336.6459-.155,1.2513.4216.5609.5,1.1664.1689.594.2476,1.2.1061.602.1848,1.2075-.1813.64-.1026,1.2456.19.5914.2691,1.1973c.0542.4172.4176.86.3824,1.26-.0367.415-.6413.7341-.7647,1.1194-.126.3938-.53.5883-.7357.94-.208.3547-.1415.8391-.42,1.1389a3.5565,3.5565,0,0,1-3.1138,1.7517,5.57,5.57,0,0,1-1.2225.1358c-.39-.024-.8082.2255-1.222.2007-.3919-.0235-.7614-.6-1.1729-.6237-.3937-.0231-.8134.2526-1.2231.229-.3952-.0229-.8077.1351-1.2163.1118-.3963-.0225-.7572-.7757-1.1647-.7986-.3975-.0224-.8114.157-1.2181.1343-.3984-.0222-.8417.69-1.2476.6672-.4164-.0231-.8129-.4244-1.2254-.4618-.4152-.0376-.8645.1824-1.2755.1305-.4134-.0521-.8088-.2853-1.2178-.3517-.4113-.0667-.8374-.0853-1.2439-.1661-.4086-.0812-.7144-.6293-1.1179-.7245-.4054-.0956-.9172.2332-1.3171.1238-.4016-.11-.6183-.8339-1.0142-.9575-.3974-.1241-.9076.1206-1.2989-.017s-.6229-.6853-1.0092-.8368-.8313-.1305-1.212-.2956-1.055.305-1.43.1265-.7032-.4817-1.0714-.6733-.7393-.4027-1.1006-.6072-.788-.3246-1.1418-.5418-.74-.4136-1.086-.6432-.4291-.8554-.7669-1.097-.4869-.7284-.8161-.9818-1.0194-.0534-1.3395-.3183-.3124-.9131-.623-1.1891-1.0125-.13-1.3132-.4167-.3312-.8551-.6218-1.1522-.288-.6383-.568-.9454c-.1068-.5276.0638-.4751.0638-1.0134s-.8657-.5387-.8657-1.0775.0193-.5391.0193-1.0782.6285-.5616.5069-1.0868C172.3539,146.3054,172.0979,146.4448,172.0984,146.4274Z" fill="#7a6279"/><g opacity="0.2"><path d="M213.9865,41.6609c.247-.5445.6835.2708,1.2814.2708s.5979-.4868,1.1958-.4868.5981-.0584,1.1962-.0584.5983.1268,1.1966.1268.5981.2979,1.1962.2979.5985.0831,1.197.0831.6206-.38,1.1554-.1116c.555.2789.2547.5373.6344,1.0289s.6186.3073.9984.799.5581.3536.9378.8451.2041.6272.5839,1.1188.18.6464.56,1.1382.6435.2877,1.0233.7793.2267.61.6066,1.1019.5084.3923.8882.884.4527.4355.8326.9272-.01.7927.37,1.2844.8446.1329,1.2246.6248.0992.7085.479,1.2.1605.6614.5405,1.1533.6684.2692,1.0484.7612.5055.3949.8855.8868.2506.5918.6306,1.0837.0723.73.4523,1.2216.3818.49.7615.9814.5987.3227.9785.8145.3589.5083.739,1,.4907.4065.8707.8985.1518.6682.5319,1.16.6293.3,1.01.7917.1534.6668.5333,1.1587.48.4155.86.9078.4177.4638.7982.9564.5105.4092.7878.9665c-.0807.382-.2574.7463-.3449,1.1254s-.228.7454-.3227,1.1227-.3256.7173-.4275,1.0928-.0106.804-.12,1.1774-.3617.7024-.4783,1.0737-.1448.7694-.2689,1.1383-.2968.6189-.4283.9852c-.1179-.1132.1022-.2019-.0006-.3351-.3759-.4868-.3621-.4975-.7381-.9843s-.5237-.3726-.9-.8593-.2317-.5982-.6077-1.085-.6041-.31-.98-.796-.47-.4134-.8462-.9-.4788-.4075-.8549-.8944-.0926-.7053-.4684-1.1918-.5013-.3894-.877-.8758-.572-.3352-.9479-.8218-.0046-.7737-.3806-1.2605-.3408-.5136-.7166-1-.7543-.1943-1.13-.681.0371-.806-.3389-1.2928-.714-.2255-1.09-.7121.0579-.8221-.3181-1.3089-.7762-.1776-1.1522-.6643-.419-.4536-.795-.94-.2513-.5832-.6273-1.07-.4088-.4617-.7849-.9486-.4351-.4412-.8111-.928-.1993-.6236-.5754-1.1105-.3413-.514-.7175-1.001-.5085-.3847-.8846-.8716-.438-.4392-.8141-.9262-.0666-.7262-.4428-1.2132-.6489-.2756-1.0248-.7622-.0948-.704-.4709-1.1908-.4791-.4075-.8553-.8945-.553-.3505-.9292-.8375-.4531-.4276-.8293-.9147-.4613-.4215-.8376-.9087-.263-.5742-.6391-1.0611-.2077-.6177-.5842-1.105-.1036-.8249-.591-1.2018C214.4453,41.9794,213.7319,42.222,213.9865,41.6609Z" fill="#fff"/></g><g opacity="0.13"><path d="M191.1017,41.7518c.43-.0307.713.1,1.1453.0824.43-.0175.8569.233,1.29.233.5706,0,.5706-.6385,1.1413-.6385s.5709.7192,1.1417.7192.5707-.6487,1.1414-.6487.5711-.1939,1.1421-.1939a2.0252,2.0252,0,0,1,1.24.2029c.5418.2766-.0279.9062.344,1.3877s.7132.2178,1.085.6991-.0271.79.3446,1.2708.8369.1221,1.2088.6034.5962.3083.9681.79.31.5291.6819,1.0105.0973.6934.4691,1.1747.5411.3507.913.8321-.16.8926.2115,1.3741.645.27,1.0168.7517.7095.2206,1.0814.702.1588.6461.5307,1.1275.6792.244,1.051.7254-.1952.92.1767,1.4011.5323.3575.9042.8389.3447.5025.7166.9839.8768.0907,1.2484.5717-.36,1.0461.012,1.5273.8469.1147,1.2189.5963.3154.5247.6871,1.0059.3458.5011.7175.9822-.0843.8336.2875,1.315.5487.3448.9206.8263.3746.479.7464.96.9657.0225,1.3375.5039-.1181.86.2539,1.3416.497.3846.8688.8659.3672.4852.7392.9668.3153.5251.6871,1.0065.23.5912.6019,1.0727.7042.2248,1.0761.7063.096.6949.4681,1.1765.4693.4063.8412.8878.0048.7653.3768,1.2469.89.0815,1.2623.5632.3711.4824.7431.9641-.1223.8635.25,1.3452,1.0474-.04,1.4195.4418.2143.6028.5861,1.0841.0913.6982.4633,1.18.1056.6875.4777,1.1692.6548.2634,1.0269.7451.17.6379.5421,1.12.2963.54.6685,1.0223,1.1747-.1384,1.5467.3432-.2591.97.1132,1.4518.723.2117,1.0955.694.06.6207.2758,1.1909c-.239.3762.1466.8078-.1,1.1778s-1.07.3478-1.3246.7122.177,1.2251-.0863,1.5837-.7461.5637-1.0174.9164-.7914.32-1.0706.6667c-.3334-.2043-.63-.1854-.8828-.5129-.3769-.4882-.6684-.263-1.0454-.7511s.129-.8787-.2479-1.3667-.6673-.2635-1.0442-.7515-.0515-.7393-.4285-1.2273-.878-.1012-1.255-.5893.2144-.9449-.1625-1.4329-.6612-.2684-1.0381-.7564-.59-.3235-.9667-.8115.142-.8892-.235-1.3773-.9315-.06-1.3085-.5478-.183-.6377-.56-1.1257-.4642-.4207-.8412-.9088-.1145-.6909-.4915-1.179-.5155-.381-.8925-.869-.3077-.5416-.6847-1.03-.7723-.1828-1.1494-.6709-.3968-.4727-.7738-.9607-.2047-.6213-.5817-1.1094.1429-.89-.2341-1.3778-.7342-.2122-1.1112-.7-.5826-.3286-.9593-.8163-.11-.6937-.4871-1.1816-.5005-.3929-.8776-.8811-.2837-.56-.6605-1.0477-.6306-.2917-1.0073-.7795-.049-.7413-.4259-1.2293-.3508-.5084-.7279-.9966-.4815-.407-.8583-.8949-.036-.7513-.413-1.2393-1.0237.0112-1.4008-.477-.4826-.4063-.8595-.8942.3957-1.0852.0186-1.5734-.9609-.0371-1.3379-.5251.12-.8721-.2571-1.36-.56-.347-.9368-.8352-.7489-.2011-1.126-.6894-.2181-.6109-.5952-1.0991-.3318-.5233-.709-1.0116-.6382-.2868-1.0154-.7752-.1947-.6292-.5719-1.1175-.2558-.5821-.633-1.07-.6024-.3144-.98-.8027-.0521-.7388-.429-1.2267-.1553-.66-.5323-1.1477-.6182-.3023-.9955-.7907-.5034-.3909-.8806-.8793-.637-.2877-1.0143-.7761-.4487-.4333-.8261-.9218-.0269-.7588-.4041-1.247-.4586-.4259-.8361-.9146-.2685-.572-.6618-1.0486A2.1407,2.1407,0,0,1,191.1017,41.7518Z" fill="#fff"/></g><g opacity="0.26"><path d="M211.6837,87.284c0-.42.539-.9064.5034-1.3171-.0363-.4175-.6223-.8094-.6938-1.216-.0725-.412-1.0809-.5984-1.188-.9976-.1082-.4036.6141-1.0488.4722-1.4376-.1432-.392-.8657-.5351-1.0414-.91-.1768-.3776.4224-1.1669.2144-1.5257-.2089-.36-.9931-.3724-1.2317-.712s-.4892-.658-.7564-.9759-.876-.2805-1.17-.5744.1443-1.3786-.1741-1.6462-1.2961.33-1.6368.0909-.2394-1.1381-.6-1.3469-.627-.661-1.0046-.8378c-.3752-.1756-.9086-.054-1.3006-.1972-.3887-.1419-.7114-.6046-1.1149-.7128-.3992-.1071-.9627.4313-1.3747.3588-.4066-.0715-.85.3587-1.2676.3225-.4106-.0356-.7736.1423-1.1933.1423s-.8676-1.1565-1.2783-1.1209c-.4175.0363-.6646,1.2194-1.0711,1.2909-.4121.0725-.92-.4774-1.3193-.37-.4035.1083-.882-.021-1.2707.121-.3921.1432-.9309.003-1.3062.1787-.3776.1768-.1507,1.4814-.5095,1.6893-.36.2089-1.4125-.6835-1.7522-.445s-.8286.3777-1.1466.6449.0033,1.2664-.2906,1.56-.5712.5786-.8388.897-1.2814.0913-1.5206.4319.1116,1.0964-.0972,1.4568c-.208.3588.2265,1.0237.05,1.4013-.1757.3752-.3749.6827-.5181,1.0747-.1419.3888-.9051.56-1.0134.9632-.107.3992.5889.95.5164,1.3624-.0715.4065-1.0627.6741-1.099,1.0915-.0356.4106.7439.8456.7439,1.2653s-.3554.818-.32,1.2286c.0362.4175-.5976.9332-.5261,1.34.0725.412.1465.8676.2536,1.2668.1083.4036,1.5353.3738,1.6773.7626.1431.392-.0954.88.08,1.2558.1768.3775-.3212,1.1022-.1132,1.461.2089.36.5068.695.7453,1.0347s.2.9467.4674,1.2646,1.161.0946,1.4549.3885.6954.4431,1.0138.7107.4749.7214.8155.9606,1.0836-.2229,1.4439-.014.1865,1.3855.564,1.5623c.3753.1757.6393.74,1.0313.8829.3887.1419,1.1341-.79,1.5377-.6821.3992.1071.671.7572,1.0831.83.4065.0715.8248.236,1.2422.2723.4106.0356.8508-.5126,1.27-.5126s.7728-.4558,1.1835-.4915c.4175-.0362.8455.3634,1.2521.2919.4121-.0725.7015-.5058,1.1007-.6129.4036-.1083.6777-.4074,1.0665-.5493.392-.1432.9735.2908,1.3487.1151.3776-.1768.84-.1717,1.1987-.38.36-.2089.8812-.192,1.2209-.43s1.0437-.09,1.3617-.3571.6808-.5972.9747-.8911-.1663-1.32.1013-1.6385.7214-.4881.9606-.8287.397-.7361.6058-1.0965c.208-.3588.85-.5169,1.0267-.8945.1757-.3752-.3066-1.04-.1635-1.4318.142-.3888-.0807-.86.0275-1.2634.1071-.3992,1.5179-.5228,1.59-.9349.0715-.4065-.572-.9487-.5358-1.3661C211.4823,88.1261,211.6837,87.7037,211.6837,87.284Zm-21.959,0c0-.4078.5822-.68.6438-1.0707.0633-.4009-.3771-.8292-.2541-1.207.1252-.3843-.5791-1.143-.3975-1.4981.1835-.3587,1.1626-.2675,1.3981-.5908.2366-.3249.0414-1.0362.325-1.32s1.1626.142,1.4874-.0946.2986-.987.6573-1.17a7.897,7.897,0,0,1,1.1291-.4742c.3778-.123.7165-.6913,1.1173-.7545.3908-.0616.8873.9955,1.2951.9955s.9-1.0317,1.2911-.97c.4009.0633.6309.9521,1.0087,1.0751.3843.1251.5968.5134.9519.6951.3587.1834.8215.0967,1.1448.3323.3248.2366.3657.723.6492,1.0065s1.0159.1452,1.2525.47.8882.4614,1.0716.82a9.2709,9.2709,0,0,1,.6825,1.139c.1231.3778-.9146,1.075-.8514,1.4759.0616.3907,1.2309.7328,1.2309,1.1406s-.681.8269-.7427,1.2177c-.0632.4008-.4167.727-.54,1.1048-.1252.3843-.5708.5805-.7524.9356-.1835.3586.6658,1.38.43,1.703s-1.51-.211-1.7936.0725-.6357.3381-.96.5747c-.3233.2356-.1337,1.2362-.4924,1.42a8.0763,8.0763,0,0,1-1.1467.4636c-.3779.123-.948-.7062-1.3489-.643-.3907.0616-.6773.7881-1.0851.7881s-.912.6537-1.3027.5921a8.894,8.894,0,0,1-1.2515-.3679c-.3843-.1251-.5347-.9186-.89-1.1-.3587-.1834-1.1618.2583-1.4851.0228-.3248-.2366-.0451-1.2422-.3286-1.5257s-1.1676-.0923-1.4042-.4171-.1615-.912-.3449-1.2707c-.1816-.3551.3137-.9709.1886-1.3551a6.6467,6.6467,0,0,1-.2361-1.0972C190.01,88.0108,189.7247,87.6918,189.7247,87.284Z" fill="#fff"/></g><g opacity="0.43"><path d="M178.8452,134.28a9.6,9.6,0,0,0-.1177,1.2285c.0558.39.587.7057.6961,1.0763a9.006,9.006,0,0,0,.1943,1.1915c.1633.356.7617.4717.9723.7982a7.8131,7.8131,0,0,0,.6542.93c.2557.2945.2447.8568.5394,1.1124s.9554,0,1.2839.2112a7.4457,7.4457,0,0,0,.9582.5684c.3523.1614.4833.91.86,1.02a8.8072,8.8072,0,0,0,1.1692.3508,9.0446,9.0446,0,0,0,1.22.1728,9.0833,9.0833,0,0,0,1.2005-.31,4.2043,4.2043,0,0,0,2.21-.8824,9.1035,9.1035,0,0,0,1.1583-.36c.3283-.2117.2234-.9835.5175-1.2386s1.099.0051,1.3545-.29.31-.7784.5218-1.1067c.21-.3265.5923-.5936.7555-.95.1614-.3522-.2168-.9131-.1061-1.29.109-.37.441-.6788.4968-1.0689.0545-.3809.4036-.77.4036-1.1658s-.3913-.779-.4458-1.16a7.04,7.04,0,0,0-.6655-2.22,8.4184,8.4184,0,0,0-.4448-1.091c-.2117-.3284-.194-.8744-.4491-1.1686a9.123,9.123,0,0,0-.8737-.8628,9.35,9.35,0,0,0-1.1008-.5523,4.08,4.08,0,0,0-2.1388-1.1,8.7356,8.7356,0,0,0-1.1861-.2489c-.3809-.0545-.812.3184-1.2077.3184a8.1583,8.1583,0,0,0-1.1585.0272c-.39.0559-.6677.4652-1.0383.5743a8.0353,8.0353,0,0,0-1.1244.2092c-.356.1633-.9619-.1089-1.2885.1017a8.9075,8.9075,0,0,0-.91.8032,8.613,8.613,0,0,0-2.1795,2.8538,9.1847,9.1847,0,0,0-.63,1.07c-.109.3707.6357.941.58,1.3312C179.4719,133.5472,178.8452,133.8846,178.8452,134.28Zm4.2715,0c0-.3932.2418-.66.3391-1.0233.1-.3751-.1864-.8507.004-1.1793.1931-.3333.5976-.4742.8682-.7448s.2944-.8772.6276-1.07a4.8523,4.8523,0,0,1,1.1279-.4306c.3629-.0973.7986.25,1.1918.25s.88-.537,1.2423-.44a5.1587,5.1587,0,0,1,1.1381.5144c.333.1931.25.9509.52,1.2215a3.8321,3.8321,0,0,1,.5709.8976,3.623,3.623,0,0,1,.3178.9885c.0972.3628.3575.6225.3575,1.0156a3.9527,3.9527,0,0,1-.1147,1.08,4.39,4.39,0,0,1-.2464,1.1052c-.193.3329-.5963.4633-.8667.7338s-.18,1.0544-.513,1.2473c-.3285.19-.9813-.3474-1.3561-.2468-.3627.0973-.657.3852-1.05.3852a4.097,4.097,0,0,1-1.0611-.3457c-.375-.1-.9362.2584-1.2648.0681-.3332-.1929-.5089-.6525-.7795-.9229s-.2286-.7368-.4217-1.07c-.1906-.3285-.6586-.5117-.7592-.8866C182.8916,135.0656,183.1167,134.6734,183.1167,134.28Z" fill="#fff"/></g><path d="M155.9841,24.4783c.471-.3454.31-.5644.7814-.91s.7536.04,1.2246-.3054.7066-.0244,1.1777-.37.0741-.8862.545-1.2315.7878.0861,1.2591-.2595.0194-.9624.491-1.3082.5793-.199,1.0508-.5448a1.623,1.623,0,0,0,.6247-1.134,1.8587,1.8587,0,0,0-.0976-1.3847,1.9955,1.9955,0,0,0-1.2629-.6946,2.0858,2.0858,0,0,0-1.4594.22c-.4675.3428-.6154.1411-1.0829.4839s-.3434.5115-.8106.8541-.2258.6727-.6934,1.0157-.24.6543-.7077.9975-.5115.2638-.9727-.0884c-.5568-.4251.229-.3455.229-1.046s-.2287-.69-.2022-1.39c.0541-.0313-.0612.1018-.01.064.471-.3454.0578-.9088.5287-1.2542s.7872.0857,1.2582-.26.2919-.59.763-.9352.9714.3371,1.4422-.0082.3355-.5307.8068-.8763-.15-1.1936.3214-1.54.9523.31,1.4238-.0362c.3916-.2874,1.1074-.7237,1.1758-1.1687a2.7818,2.7818,0,0,0-.6488-1.5571,2.3991,2.3991,0,0,0-1.3248-.8609c-.445-.0685-.7661.6329-1.1579.92-.4675.3428-.697.03-1.1645.3727s-.6627.076-1.13.4187-.3809.4612-.8485.8041-.0328.9366-.5007,1.28-.6072.3751-1.0991.0672c-.5392-.3375.0658-.4221.0658-1.0582s-.4036-.6359-.4036-1.2718.42-.6364.42-1.2727-.8749-.6363-.8749-1.2727c0-.4858.1523-.6163-.166-.9347s-.4489-.2373-.9347-.2373-.78-.2442-1.0979.0742-.14.612-.14,1.0978c0,.6361-.7171.6361-.7171,1.2722s-.1513.6359-.1513,1.2718.8819.6364.8819,1.2727-.3314.3995-.87.7379c-.4909.3082-.06.0936-.527-.2493s-.857.1889-1.3242-.1537-.0882-.86-.5558-1.2033-.8792.2176-1.3471-.1256.2808-1.364-.1871-1.7073c-.3917-.2875-1.2038.5347-1.6488.6033s-.84-.0115-1.127.38-.7637.8473-.6953,1.2922a2.54,2.54,0,0,0,.7314,1.46c.4709.3454,1.1179-.5368,1.5889-.1914s-.2247,1.2941.2462,1.64.9922-.3651,1.4633-.02.0984.8532.5692,1.1985.6714.0727,1.1427.4184.816-.1239,1.2875.222-.1371,1.1758.3345,1.5217c.0516.0378.8421-.2571.8962-.2257.0265.7-1.2251.72-1.2251,1.42s1.5969,1.4031,1.0406,1.8287c-.46.3522-.4881-1.1889-.9555-1.5317s-.6729-.0623-1.14-.4049-.2906-.5843-.7582-.9273-.43-.3953-.8977-.7384-.5863-.1817-1.0542-.5249c-.3917-.2878-1.0051.2425-1.45.3111s-1.1948-.2562-1.482.1353.3867.9876.4551,1.4325-.3232,1.1176.0684,1.405c.471.3454.8367-.1532,1.3076.1922s.1884.7308.6594,1.0762.4292.4025.9.748.8867-.2217,1.3576.1236-.1947,1.2537.2765,1.5993.55.239,1.0215.5849.75-.0341,1.2218.3117c.0516.0379.49.0773.5437.1088.0264.7-.1885.7156-.1885,1.4161s-.0417.4721-.598.8977c-.46.3523-.3875.5764-.855.2336s-.2951-.5773-.7623-.92-.1482-.7786-.6158-1.1215-1.0808.4927-1.5488.15-.2864-.5907-.7544-.9337c-.3917-.287-.672-1.0743-1.117-1.0059a2.709,2.709,0,0,0-1.5159.7429c-.2872.3918.6484,1.0749.7168,1.52s-.5457,1.2784-.1541,1.5658c.4709.3454.98-.3483,1.4506-.003s-.004.9931.467,1.3385.8524-.1745,1.3235.1709.1543.7771.6251,1.1223.9577-.3178,1.429.0278.4621.3587.9337.7045-.2145,1.2814.2571,1.6272c.0516.0378.794-.4172.8481-.3858.0264.6354-.3716.65-.3716,1.2861s-.398.636-.398,1.272,1.0782.6361,1.0782,1.2723-1.1557.6364-1.1557,1.2727.8084.6362.8084,1.2724-.03.6366-.03,1.2732-.5968.6366-.5968,1.2732a2.64,2.64,0,0,0,.5068,1.5753c.3183.3183,1.0894.2811,1.5753.2811s1.3222.1025,1.6406-.2159a2.8061,2.8061,0,0,0,.4449-1.64c0-.636.3247-.636.3247-1.272s-.7845-.636-.7845-1.2719.6238-.6362.6238-1.2723.1564-.6364.1564-1.2728.0168-.6361.0168-1.2723-.8591-.6366-.8591-1.2732-.09-.6479-.0632-1.2839c.0541-.0314.6477.3313.6993.2935.471-.3454.2249-.6809.6959-1.0263s.6609-.0864,1.1318-.4317.0588-.9079.53-1.2533.5194-.279.99-.6243.3293-.5393.8-.8848.9409.2942,1.4125-.0517.5263-.2712.9978-.6171c.3916-.2873.1336-1.0751.202-1.52s.5206-1.0962.2335-1.488-.9984-.456-1.4433-.5244a1.7664,1.7664,0,0,0-1.2821.41c-.4675.3427-.5575.22-1.025.5628s-.4552.359-.9224.7016-.4148.4149-.8824.7578-.2836.5945-.7516.9377-.7582.8968-1.2194.5446c-.5567-.4251-.1544-.8205-.1544-1.521s.5673-.6878.5937-1.3878C156.1819,24.5,155.9325,24.5161,155.9841,24.4783Z" fill="#513e4f"/><path d="M114.5754,16.9369c.471-.3454.814.1225,1.285-.2229s.4984-.308.9694-.6534.3617-.4948.8328-.84.8274.141,1.2983-.2043-.2052-1.2679.2661-1.6135.361-.4967.8325-.8425,1.28.7566,1.7517.4107c.3916-.2874-.1276-1.2978-.0591-1.7428s.7433-1.1617.4561-1.5535-1.0892-.5129-1.5343-.5814-.6666.597-1.0582.8842c-.4675.3428-.6337.1161-1.1012.4589s-.5146.278-.9818.6206-.1947.7152-.6623,1.0581-.6588.0829-1.1268.4261-.608.8225-1.1.5146c-.5392-.3375-.4139-.6641-.4139-1.3s.5745-.6359.5745-1.2718.3924-.6364.3924-1.2727-.4263-.6363-.4263-1.2727a1.7848,1.7848,0,0,0-.705-1.1634c-.3184-.3184-.6776-.0223-1.1634-.0223s-.4308.1182-.7492.4366-.93.2633-.93.7491c0,.6361.1437.6361.1437,1.2722s-.1642.6359-.1642,1.2718.1374.6364.1374,1.2727.0825.5217-.4564.86c-.4909.3082-.5248.5011-.9922.1583s-.54-.2436-1.0071-.5862-.31-.5578-.7777-.9007-.098-.8477-.5659-1.1909-.3648-.4837-.8327-.8269a2.4086,2.4086,0,0,0-1.5792-.1834,2.4653,2.4653,0,0,0-1.4781.63c-.2871.3918.1571,1.0954.2256,1.54s.5107.3569.9023.6443c.471.3454.1954.7211.6664,1.0665s.1569.7736.6279,1.119.8851-.219,1.3562.1265.23.673.7013,1.0183.6732.07,1.1444.416.5858.19,1.0574.5359-.14,1.1794.3318,1.5253c.0517.0378,1.1193-.3925,1.1734-.3611.0265.7-.7442.7267-.7442,1.4272s.2218.4733-.3345.8989c-.46.3522-.1623.2665-.63-.0763s-.6643-.074-1.1315-.4167-.2647-.62-.7323-.9625.0149-1.0016-.453-1.3448-.4712-.3385-.9391-.6818c-.3917-.2877-1.2859.06-1.7309.1284a2.0238,2.0238,0,0,0-1.2665.7078c-.2872.3918-.1279.94-.0595,1.3845s-.1033,1.2668.2883,1.5542c.4709.3454.8621-.1879,1.3331.1575s.1155.83.5865,1.1755.6269.1329,1.098.4784.5293.2657,1,.611.512.29.9832.6357.3529.5077.8245.8536.4083.432.88.7778c.0517.0379-.3013-.1455-.2472-.114.0264.7.4283.6785.4283,1.379s.4293.6109-.127,1.0365c-.46.3523-.0369-.1854-.5043-.5282s-.34-.5169-.8067-.86-.46-.3533-.9276-.6962-.4462-.3729-.9141-.716-.7-.0271-1.1678-.37c-.3917-.287-1.018-.79-1.4629-.722s-.7109.869-.9983,1.26-.1233.7556-.0549,1.2005.3312.419.7228.7064c.471.3454.0266.9513.4975,1.2967s.6681.0766,1.139.422.7788-.0741,1.25.2714-.1121,1.14.3588,1.4854.4163.4205.8876.7661,1.0653-.4639,1.5369-.1181-.1767,1.23.2948,1.5757c.0517.0379.8183-.3157.8724-.2843.0264.6354-1.1512.6544-1.1512,1.29s1.0619.636,1.0619,1.272.1141.6361.1141,1.2723-.3312.6364-.3312,1.2727.0867.6362.0867,1.2724.1566.6366.1566,1.2732-.4694.6366-.4694,1.2732a2.0409,2.0409,0,0,0,.4755,1.3719c.3184.3184.8861.217,1.372.217s.6892-.263,1.0075-.5814,1.2391-.5217,1.2391-1.0075c0-.636-.7247-.636-.7247-1.272s.7462-.636.7462-1.2719-.2732-.6362-.2732-1.2723-.4691-.6364-.4691-1.2728-.204-.6361-.204-1.2723-.2253-.6366-.2253-1.2732.2739-.6522.3-1.2882c.0541-.0314.5217.0226.5733-.0153.4709-.3453.8152.1241,1.2861-.2213s.1188-.8257.59-1.1711.5345-.2591,1.0056-.6046.7349.0148,1.2057-.3305.006-.98.4773-1.3255.7326.01,1.2041-.3357-.1119-1.1414.36-1.4873c.3916-.2874,1.3023-.097,1.3708-.5419a2.4313,2.4313,0,0,0-.2641-1.5745c-.2872-.3916-1.0645-.09-1.51-.1582s-.5156.2011-.9072.4883c-.4675.3428-.5409.2427-1.0084.5855s-.4227.4033-.89.7459-1.18-.6289-1.6479-.286-.1678.7524-.6357,1.0955-.101.7866-.5621.4344c-.5568-.4251.03-.3274.03-1.0279s.1329-.683.1594-1.383c.0541-.0314-.66-.48-.6083-.5179.4709-.3454,1.11.5266,1.5814.1812s.4981-.3084.969-.6538.2216-.6859.6927-1.0313.7306.0089,1.2014-.3364-.0623-1.0732.409-1.4188.3006-.579.7721-.9248.4974-.3106.9689-.6565c.3916-.2874,1.4737-.2182,1.5421-.6632a2.8837,2.8837,0,0,0-.5019-1.66c-.2871-.3916-1.0665-.3969-1.5116-.4654s-1.316-.47-1.7076-.1824c-.4674.3429-.3668.48-.8342.8229s-.15.7754-.6171,1.1181-.797-.1063-1.2646.2367-.1826.7323-.65,1.0755-.4741,1.0921-.9354.74c-.5567-.4251-.4746-.7264-.4746-1.4269s.6963-.6923.7228-1.3923C114.9437,17.349,114.5238,16.9748,114.5754,16.9369Z" fill="#513e4f"/><path d="M175.78,132.51c-.05-.5571-1.0389-.5183-1.0392-1.0776s.9621-.56.9618-1.1192-.3794-.559-.38-1.1181.211-.5594.2108-1.1187-.9941-.559-.9944-1.1185.6855-.5595.6853-1.1188.84-.56.84-1.1194-1.3476-.5587-1.3478-1.1181.6983-.56.6981-1.1192-.0894-.5594-.09-1.1188.8156-.56.8153-1.12-.2546-.5593-.2548-1.1187-.42-.5595-.42-1.1191-.5725-.5594-.5728-1.1191.7456-.56.7454-1.12-.1482-.5595-.1484-1.1191.394-.56.3938-1.12.22-.56.22-1.12-.36-.5593-.36-1.1186-.4163-.5595-.4165-1.1191.08-.56.08-1.1194.2159-.56.2156-1.1193.11-.56.1094-1.12.171-.56.1707-1.12.01-.56.01-1.12-1.3723-.56-1.3726-1.12,1.1411-.56,1.1424-1.12c.0035-.2253-.3564-.4511-.3564-.6771,0-.5423.33-.5423.33-1.0847s-.2117-.5425-.2117-1.085.4967-.5422.4967-1.0844-1.0611-.5423-1.0611-1.0847.6909-.5425.6909-1.0851.0783-.5423.0783-1.0846-.5615-.5426-.5615-1.0851.0554-.5425.0554-1.0849.1253-.5425.1253-1.0851-.3229-.5425-.3229-1.0849.9053-.5427.9053-1.0854-.5191-.5425-.5191-1.085.3984-.5427.3984-1.0853-.519-.5428-.519-1.0855.4663-.5427.4663-1.0854-1.0089-.5427-1.0089-1.0853.611-.5428.611-1.0855.0082-.5429.0082-1.0857-.6476-.5424-.6476-1.0849.6347-.5427.6347-1.0854.687-.5427.687-1.0854-.8257-.5427-.8257-1.0854.737-.5429.737-1.0857-.5456-.5426-.5456-1.0851-.16-.5431-.16-1.0861.772-.5434.772-1.0868-1.3923-.5434-1.3923-1.0868c0-.3671.7146-.7317.7052-1.0965-.0094-.3669-.6636-.6983-.6824-1.0628-.0189-.3665.6041-.764.5758-1.1279-.0284-.3659.0635-.7422.0258-1.1053-.0379-.365.3392-.7853.2919-1.1474-.0474-.3638-.959-.6044-1.0157-.9652-.0569-.3623.4767-.823.4105-1.1822s-.6547-.6168-.73-.9742.5025-.8656.4175-1.2209-1.2422-.4368-1.3366-.79.2089-.8059.1053-1.1563.3111-.8628.1982-1.21.1414-.8339.0194-1.1785-1.5269-.2162-1.658-.5574,1.0111-1.1916.8711-1.5293-.4085-.6385-.5574-.9724-.5493-.5645-.707-.8944-1.1022-.2671-1.2685-.5928-.3245-.6387-.4993-.96.0745-.8706-.1086-1.1872-.2675-.6912-.4589-1.0029-.0749-.8247-.2744-1.1313-.13-.8112-.3374-1.1125-.6239-.4743-.8392-.77-.2762-.7264-.4992-1.0165-1.245.0443-1.4754-.24-.3226-.6759-.56-.954-.2482-.7563-.4931-1.0282-.8645-.1942-1.1164-.46-.1754-.8468-.4342-1.1056-.7365-.2913-1.002-.5433-.39-.6523-.6623-.8973-.6411-.3766-.9193-.6145-.02-1.1322-.304-1.3627-1.0194.095-1.31-.1281-.5181-.532-.8141-.7474-.4271-.6754-.7287-.883-1.2632.58-1.57.38-.4011-.7065-.7132-.8981-.6105-.385-.9275-.5684-.6369-.3392-.9586-.5142-.3414-.9171-.6676-1.0836-1.04.464-1.37.3061-.6209-.3626-.9555-.5118-.7338-.1008-1.0722-.2411-.1841-1.5039-.5261-1.6352-.6816-.31-1.027-.4323-.78-.0169-1.1286-.13-.8623.3034-1.2138.1994-.5769-.6543-.9311-.7489-.7311-.1183-1.0877-.2036-.7362-.0792-1.0949-.1551-.7044-.2294-1.0651-.2958c-.3592-.0661-.7752.189-1.1375.1321-.3607-.0567-.7025-.2423-1.0662-.29-.3621-.0472-.7162-.1846-1.0812-.2225-.3631-.0377-.7694.429-1.1352.4006-.364-.0282-.6986-.45-1.0651-.4684-.3645-.0188-.7394.3094-1.1063.3-.3649-.0094-.7224-.9822-1.09-.9822v-.0239c-.3671,0-.7528-.1036-1.1176-.0942-.3669.0094-.6915,1.2088-1.056,1.2276-.3665.0189-.7836-.7651-1.1475-.7368-.3659.0284-.677.6745-1.04.7122-.3649.0379-.6536.61-1.0157.6567-.3638.0474-.7956-.4708-1.1564-.4141-.3623.057-.8368-.5247-1.196-.4586-.3607.0665-.6577.4907-1.0151.5663s-.6877.2866-1.043.3716-.65.4047-1.0025.4991-.9168-.5412-1.2672-.4376-.5709.6569-.9185.77-.9488-.4821-1.2934-.36-.1805,1.6313-.5217,1.7624-1.0952-.7758-1.4329-.6357-.8272-.028-1.1611.1209-.4251.8572-.755,1.0149-.7255.2-1.0512.3664-.8038.0725-1.1251.2473-.0942,1.3322-.4108,1.5153-1.0139-.2762-1.3256-.0848-.3912.7537-.6978.9533-.8758.0112-1.1771.2186-.2329.9375-.5287,1.1528-.813.1292-1.1031.3522-.1513.9776-.4355,1.2081-1.3222-.4455-1.6-.2077-.3185.7616-.59,1.0065-.1443.9182-.41,1.17-1.1415-.1209-1.4.1379-.3269.716-.5789.9815-.446.5907-.691.8626-.2212.7784-.459,1.0566-.62.4319-.8509.7162-.9826.1672-1.2056.4574-.1764.7974-.3918,1.0934-.0309.8767-.2385,1.1783-1.0527.1822-1.2524.4891.4295,1.14.2379,1.4523-.9752.2691-1.1586.5861-.8212.3951-.9962.7168-.0118.8394-.1784,1.1656-.1075.772-.2654,1.1025-.8454.4293-.9946.7639,1.1725,1.3,1.0322,1.6383-1.3737.2324-1.5051.5745.125.83.0027,1.1755.3664.8864.2532,1.2349-.2617.6662-.3657,1.0177-1.4563.35-1.5509.7043.8224.9665.7371,1.323-.2986.6739-.3745,1.0327c-.0756.3573-.7918.5911-.8582.9518-.0662.3591.4265.8181.37,1.18-.0567.3607-.0719.7239-.1193,1.0876-.0472.3621-.4006.6885-.4386,1.0534-.0377.3632-.45.7017-.4781,1.0675-.0283.3639.2569.7583.238,1.1248-.0188.3645.06.7379.0508,1.1048-.0094.3649-.3039.7336-.3039,1.1007,0,.5693.1.5693.1,1.1386s.9819.5693.9819,1.1385-1.284.5693-1.284,1.1386.0732.5695.0732,1.1389.6794.57.6794,1.1393.5487.5695.5487,1.1389-1.0626.57-1.0626,1.14.4318.5709.423,1.1407c0,.0088.2753-.0042.2752.0046-.0086.5514.3344.5457.3347,1.0972s-.1706.5515-.17,1.1029-.9318.5517-.9316,1.1031-.02.5514-.02,1.1027.662.5512.6622,1.1026-1.0113.552-1.0111,1.1036.4238.5514.424,1.103-.4483.5516-.448,1.103.1206.5514.1209,1.1028.98.551.98,1.1024-1.01.552-1.01,1.1036.11.5516.11,1.1032-.0952.5515-.095,1.103.8035.5511.8037,1.1025-.568.5518-.5677,1.1033-.2451.5518-.2449,1.1035,1.3929.5509,1.3931,1.1025-.53.5517-.53,1.1032-.5039.5517-.5037,1.1033-.2862.5518-.286,1.1035.0817.5515.0819,1.1031.8349.5511.8351,1.1027.307.5514.3072,1.1031-.084.5516-.0838,1.1033-1.0836.552-1.0834,1.1035.2644.5516.2646,1.1032.6728.5513.673,1.103-.4058.5518-.4055,1.1033-.7081.552-.7079,1.1037.6437.5513.6439,1.103.0943.5516.0945,1.1032.2055.5516.2057,1.1033-.5887.5519-.5884,1.1035-.1223.5518-.122,1.1036.3076.5512.3079,1.1025-.3268.5514-.3266,1.1027-.2078.5515-.2076,1.103.3331.5515.3333,1.1032.1722.5513.1725,1.1026.1608.5515.161,1.103.7683.5514.7686,1.1031-.677.5517-.6768,1.1032.301.5516.3013,1.1033.1086.5516.1088,1.1031.0823.5517.0825,1.1034-.5423.5519-.542,1.1035.6209.5516.6211,1.1034-.6136.5519-.6133,1.1036.3254.5517.3256,1.1035-.3777.5521-.3775,1.104.6188.5516.619,1.1034-.0809.5519-.0807,1.1038-.5537.5521-.5535,1.104.4224.5518.4226,1.1038.4038.5515.404,1.1031-.9148.5523-.9146,1.1041.6553.5516.6555,1.1035-.1921.5519-.1918,1.1038-.9405.5524-.94,1.1044,1.4214.5511,1.4216,1.1028.002.5522.0022,1.1044-.5739.5529-.5736,1.1054.0209.5459.04,1.0981c.0007.0193-.5247,0-.524.02.0192.553-.426.5408-.426,1.0942s.7379.5535.7379,1.1071.1547.5536.1547,1.1072.5509.5535.5509,1.1071-.3826.5535-.3826,1.1071-.1747.5536-.1747,1.1072.127.5537.127,1.1074-.5294.5533-.5294,1.1066.9123.5536.9123,1.1072-.2237.5535-.2237,1.1071-.011.5536-.011,1.1071-.3964.5537-.3964,1.1075.6041.5539.6041,1.1078-.2424.5537-.2424,1.1074-.9716.5542-.9716,1.1083.5665.3957.9542.7916c.38.3877.2194.3253.7621.3253s.5426.41,1.0852.41.5428-.0819,1.0856-.0819.5429-.8771,1.0859-.8771.5427.69,1.0854.69.5428-.5214,1.0856-.5214.5431.2995,1.0861.2995.5428-.61,1.0856-.61.543,1.224,1.0861,1.224.5429-1.166,1.0858-1.166.543,1.1483,1.086,1.1483.543-1.1448,1.086-1.1448.5431.203,1.0862.203.543.8182,1.086.8182.5432-.74,1.0863-.74.5433.515,1.0865.515.5432-.407,1.0863-.407.5432.6728,1.0863.6728.5433-.5153,1.0865-.5153.5433-.2443,1.0866-.2443.5429-.1106,1.0859-.1106.5432-.2732,1.0864-.2732.5431.1153,1.0863.1153.5432.8658,1.0864.8658.5433-.5,1.0867-.5.543,1.0019,1.086,1.0019.5435-1.5687,1.087-1.5687.5439,1.1277,1.0878,1.1277.2535-.398.6346-.786c.3881-.3951-.2815-.1088-.2815-.6626s-.0117-.554-.0117-1.1079-.012-.5541-.012-1.1081.6567-.554.6567-1.1079.908-.554.908-1.108-1.3489-.554-1.3489-1.108,1.1308-.5541,1.1308-1.1083-.3735-.5537-.3735-1.1075-.1-.5539-.1-1.1079.6491-.554.6491-1.108-1.4721-.554-1.4721-1.108,1.0662-.5542,1.0662-1.1083-.4775-.5543-.4775-1.1087-.1391-.5541-.1391-1.1083.6466-.5545.6466-1.1091-.9079-.8433-.5174-1.237c.3876-.3907.6794.4967,1.23.4964s.55-.8031,1.1-.8033.5508.8523,1.1012.8521.5505.3758,1.1008.3755.55-1.4892,1.1-1.4894.5506.2341,1.1012.2338.55-.3284,1.1007-.3286.5508.6242,1.1013.624.55-.1245,1.101-.1248.55-.4947,1.101-.4949.55.2335,1.1006.2333.5508.7312,1.1013.731.55-.9114,1.1006-.9117.55-.0432,1.101-.0434.5511,1.185,1.1018,1.1847.55-.4959,1.1-.4962.5511.4975,1.1019.4973.551-.4164,1.1022-.4167.9025-.5776,1.29-.1857c.3921.3967-.083.7432-.083,1.301s.1323.5579.1323,1.1159-.6294.558-.6294,1.116.7636.5579.7636,1.1158-.1946.558-.1946,1.1159.4066.558.4066,1.116-1.3606.5581-1.3606,1.1162.9374.5577.9374,1.1154-.0664.5579-.0664,1.1159-.5144.5579-.5144,1.1159,1.1422.558,1.1422,1.1159-1.0807.5581-1.0807,1.1162.6847.5583.6847,1.1166.3888.5582.3888,1.1163-1.3678.5585-1.3678,1.117.6324.359,1.0216.7595c.3782.3892.1748.13.7174.13s.5426-.4034,1.0852-.4034.5428.6036,1.0856.6036.543.3217,1.0859.3217.5427-.2909,1.0854-.2909.5429-.11,1.0857-.11.543.5234,1.086.5234.5428-.943,1.0856-.943.5431-.0723,1.0861-.0723.5429-.0971,1.0858-.0971.5431,1.4889,1.0861,1.4889.5429-.9539,1.0859-.9539.5431.0862,1.0863.0862.543.7319,1.086.7319.5431-.2013,1.0863-.2013.5432.09,1.0864.09.5432-.9259,1.0863-.9259.5432-.3538,1.0864-.3538.5432,1.1449,1.0864,1.1449.5433-.7657,1.0866-.7657.543.4494,1.0859.4494.5432.0053,1.0864.0053.5432.0353,1.0864.0353.5431-.5542,1.0863-.5542.5434-.3723,1.0867-.3723.543,1.1041,1.0861,1.1041.5435.1256,1.087.1256.5439-.0161,1.0877-.0161,1.0357.2913,1.4184-.0951c.3864-.39-.9882-.8766-.9882-1.4258s.9344-.5494.9344-1.0987-.6046-.5492-.6046-1.0984.36-.5494.36-1.0988.162-.5489.162-1.0979-.69-.5489-.69-1.0977.5455-.5491.5455-1.0982-.5457-.5492-.5457-1.0985.0756-.549.0756-1.098.8743-.5491.8743-1.0982-1.2036-.5493-1.2036-1.0986,1.087-.5491,1.087-1.0982-.0638-.5493-.0638-1.0987.135-.5492.135-1.0984-.7922-.5493-.7922-1.0986.2263-.5492.2263-1.0985.3388-.5494.3388-1.0988-.78-.5493-.78-1.0986.6941-.5494.6941-1.0989-.625-.5495-.625-1.099.3163-.5495.3163-1.0989.6792-.5495.6792-1.0989-.3462-.5495-.3462-1.0991.3146-.55.3146-1.0992.3012-.5492.3012-1.0984-.5356-.5495-.5356-1.099-.8337-.5495-.8337-1.0989,1.3606-.5495,1.3606-1.099-.0366-.55-.0366-1.0992-.7843-.5494-.7843-1.0987-.1185-.55-.1185-1.1.342-.55.342-1.1.07-.4542.2438-.9763C175.853,132.4993,175.784,132.5591,175.78,132.51Z" fill="url(#linear-gradient)"/><path d="M121.0572,174.5593c-.55,0-.55.266-1.1.266s-.5494-.1343-1.0988-.1343-.5493-.0609-1.0986-.0609-.5495.021-1.099.021-.55.13-1.0994.13-.5494.1423-1.0989.1423-.5495-.2238-1.0991-.2238-.55.1949-1.0995.1949-.55-.0127-1.099-.0127-.55-.0539-1.1-.0539-.55-.17-1.0993-.17-.55.0826-1.1.0826-.55-.0075-1.0994-.0075-.55-.0835-1.1-.0835-.55-.0651-1.0995-.0651-.55.29-1.1.29-.55-.2346-1.1-.2346-.55-.0211-1.1-.0211-.55.2492-1.1.2492-.55-.3034-1.1-.3034-.55.2243-1.1.2243-.55-.0751-1.0994-.0751-.55.0458-1.1.0458-.55.1058-1.1.1058-.55.0337-1.1.0337-.55.0453-1.1.0453-.55-.0627-1.1-.0627-.55-.0307-1.1-.0307-.5506.1123-1.1012.1123-.5506-.0116-1.1013-.0116c-.3546,0-.6516-.3415-.9379-.5072a2.0008,2.0008,0,0,1-.8059-.6179,2.0633,2.0633,0,0,1-.26-1.0068H86.29a5.512,5.512,0,0,1-.03-1.0526,5.2278,5.2278,0,0,1,.4-.9734c.137-.3306.0046-.814.2013-1.1079.1982-.2961.59-.4643.8407-.7153s.6466-.3028.9427-.5011a3.2438,3.2438,0,0,1,1.8827-.7936c.3427-.0678.6608-.3676,1.0235-.3676.5418,0,.5418.2209,1.0837.2209s.5418-.2429,1.0835-.2429.542.0555,1.084.0555.5422.1247,1.0844.1247.5419-.2562,1.0838-.2562.542.123,1.084.123.5422.1124,1.0845.1124.542-.0633,1.0839-.0633.5423.1953,1.0845.1953.5421-.078,1.0842-.078.5423-.0282,1.0845-.0282.5421-.0173,1.0843-.0173.5423.1512,1.0847.1512.5422-.2555,1.0844-.2555.5423-.0894,1.0847-.0894.5424.2893,1.0848.2893.5424-.1015,1.0847-.1015.5424-.2265,1.0847-.2265.5424.1322,1.0849.1322.5425.1579,1.085.1579.5421-.2773,1.0843-.2773.5423.2565,1.0847.2565.5424-.1011,1.0848-.1011.5424.0563,1.0848.0563.5425-.2649,1.085-.2649.5422.1828,1.0845.1828.5427.2241,1.0854.2241.5431-.3591,1.0861-.3591.6838-.2053,1.0679.1786.0163.5246.0163,1.0674-.2174.5425-.2174,1.085.0679.543.0679,1.086.1118.5434.1118,1.0867.1525.5434.1526,1.0867c0,.3547-.282.6441-.4477.93a1.8324,1.8324,0,0,1-.6615.7154A1.8,1.8,0,0,1,121.0572,174.5593Z" fill="#513e4f"/><path d="M145.8657,175.0992c.55,0,.55-.3437,1.1-.3437s.5494.25,1.0988.25.5493-.31,1.0986-.31.55.2712,1.0991.2712.55-.027,1.0994-.027.5494-.0726,1.0988-.0726.55.0238,1.0991.0238.55.0338,1.1.0338.5495-.1249,1.099-.1249.55.2411,1.1.2411.55.0365,1.0992.0365.55.0061,1.1.0061.55-.4062,1.0995-.4062.55.2148,1.1.2148.55.1434,1.0994.1434.55-.213,1.1-.213.55-.0979,1.1-.0979.55.0428,1.1.0428.55.3014,1.1.3014.55-.0365,1.1-.0365.55-.0465,1.1-.0465.55-.0773,1.0994-.0773.55.1869,1.1.1869.55-.3486,1.1-.3486.55.0884,1.1.0884.55.0821,1.1.0821.55.165,1.1.165.55-.2048,1.1-.2048.5506.15,1.1013.15.5506-.16,1.1012-.16c.3547,0,.7932.1052,1.0795-.06a2.3053,2.3053,0,0,0,.6916-.8468c.1657-.2863.0553-.6679.0553-1.0226h.1833a20.4876,20.4876,0,0,1-.4644-2.083,5.6264,5.6264,0,0,0-.4255-.9928c-.1982-.2961-.6218-.4036-.8728-.6546s-.3449-.6949-.641-.8931c-.2938-.1967-.76-.0657-1.09-.2028-.3249-.1347-.5589-.5682-.9121-.638-.3427-.0678-.7242.2093-1.0868.2093-.5419,0-.5419-.0561-1.0837-.0561s-.5418-.2-1.0836-.2-.542-.0988-1.084-.0988-.5421.0612-1.0843.0612-.5419.039-1.0838.039-.542.2211-1.084.2211-.5423-.0064-1.0845-.0064-.542.0089-1.084.0089-.5422-.0374-1.0845-.0374-.5421-.0077-1.0842-.0077-.5422-.2532-1.0844-.2532-.5422.0278-1.0843.0278-.5424-.0925-1.0847-.0925-.5422.1506-1.0844.1506-.5423.0507-1.0847.0507-.5424.1775-1.0848.1775-.5424-.1471-1.0847-.1471-.5424-.0556-1.0848-.0556-.5424-.0122-1.0848-.0122-.5425-.1525-1.085-.1525-.5422.266-1.0843.266-.5424-.1343-1.0848-.1343-.5423-.0609-1.0847-.0609-.5424.021-1.0848.021-.5425.13-1.085.13-.5423.1423-1.0845.1423-.5427-.2238-1.0854-.2238-.5431.1949-1.0862.1949-.6207-.43-1.0049-.0463-.02.4615-.02,1.0043-.17.5425-.17,1.085.0826.543.0826,1.086-.0076.5433-.0076,1.0867-.0835.5434-.0836,1.0867a2.27,2.27,0,0,0,.22,1.0648c.1709.2955.629.3571.9245.528C145.2327,174.6958,145.511,175.0992,145.8657,175.0992Z" fill="#513e4f"/><g opacity="0.51"><path d="M147.3608,81.5293c-.6042,0-.6042.17-1.2083.17s-.6039-.1249-1.2078-.1249-.6042.7871-1.2083.7871-.604.1388-1.208.1388-.6042-.9327-1.2083-.9327-.6041,1.0237-1.2082,1.0237-.6042-.2134-1.2085-.2134-.6041-.0884-1.2082-.0884-.6043-.1834-1.2086-.1834-.6043-.3027-1.2087-.3027-.6043.7492-1.2086.7492-.6043.0176-1.2086.0176-.6043-.1115-1.2087-.1115-.6044-.6968-1.2089-.6968-.6044.3732-1.2087.3732-.6043-.4695-1.2086-.4695-.6042-.1232-1.2085-.1232-.6043.8682-1.2086.8682-.6044-.7758-1.2089-.7758-.6046.4112-1.2093.4112-.6044-.2945-1.2089-.2945-.6049.8075-1.21.8075-.6048-.17-1.21-.17c-.4169,0-.8285-.3291-1.2372-.3608-.4151-.0322-.8566.1253-1.2621.0616-.4108-.0646-.7017-.6886-1.1014-.7842-.404-.0967-.7678-.22-1.1591-.3471-.3946-.1282-.8778.0382-1.2581-.12-.383-.1588-.6792-.4763-1.0463-.6637-.3689-.1883-.6856-.428-1.0371-.6438s-1.074.11-1.4076-.1333-.0862-1.2169-.4-1.4852-.5894-.52-.8816-.8119-1.3779.1462-1.6465-.1681-.1249-.9845-.3683-1.319-.3817-.7372-.5983-1.09-.873-.474-1.0613-.8429c-.1874-.3671.3862-1.09.2275-1.4733-.1577-.38-.8449-.56-.973-.9548-.127-.3912-.59-.722-.6862-1.126-.0955-.4.0421-.8842-.0225-1.2949-.0637-.4055-.1284-.8408-.1606-1.2559-.0318-.4088.587-.8485.587-1.2654h.0847c0-.4169-.1862-.8165-.1544-1.2252.0322-.4151-.5806-.9158-.5169-1.3213.0646-.4109.2688-.8268.3644-1.2265.0967-.404.3744-.7793.5015-1.1705.1281-.3947-.0541-.9354.1036-1.3157.1588-.3829.3815-.7833.5689-1.15.1884-.3689.8671-.4861,1.0829-.8376s.752-.4739.9949-.8076.29-.7992.5583-1.1131.71-.4431,1.0022-.7352.51-.6294.8243-.898.3761-.85.7106-1.0932.5908-.6367.9435-.8533,1.1262.3349,1.4951.1465c.367-.1873.4184-1.0344.8014-1.1932.38-.1577.86-.0769,1.2541-.2051.3913-.127.9126.2823,1.3165.1856.4-.0956.7023-.55,1.1131-.6143.4055-.0637.8349.299,1.25.2668.4088-.0318.7772-.1832,1.1941-.1832.6041,0,.6041-.19,1.2083-.19s.6039-.5142,1.2078-.5142.6041.53,1.2083.53.604-.3442,1.208-.3442.6041.0645,1.2083.0645.6041-.1874,1.2081-.1874.6043.7908,1.2086.7908.6041-.2951,1.2082-.2951.6043.1074,1.2085.1074.6044-.2623,1.2088-.2623.6043.3022,1.2085.3022.6043-.2148,1.2086-.2148.6044-.4331,1.2088-.4331.6044-.0177,1.2089-.0177.6043-.3079,1.2087-.3079.6043.04,1.2085.04.6043.0414,1.2086.0414.6043.6889,1.2086.6889.6044-.2988,1.2088-.2988.6047.48,1.2093.48.6045.1344,1.209.1344.6048-.9484,1.21-.9484.6049.2678,1.21.2678c.4168,0,.79.6555,1.1989.6872.4152.0322.8839-.5481,1.2894-.4844.4109.0645.839.091,1.2387.1866.404.0967.9211-.1129,1.3123.0142.3947.1281.5392.9652.92,1.1229.3829.1588.8145.1845,1.1815.3718.369.1884.4635.8152.8149,1.031s1.1692-.2776,1.5029-.0347.1041,1.1856.418,1.4539,1.1121-.0085,1.4043.2836.6695.5306.9381.8448-.1454,1.1535.098,1.4879.6576.5123.8742.865.6039.5893.7922.9583c.1874.367.44.7016.5985,1.0845.1577.38.6113.667.7394,1.0616.127.3912.334.7926.4307,1.1966.0956.4-.1013.8815-.0368,1.2923.0638.4055-.1669.8475-.1347,1.2626.0318.4087.5769.81.5769,1.2266h.2194c0,.4168-1.1819.7854-1.2136,1.1941-.0322.4152.6814.9.6177,1.3054-.0645.4109.0405.8763-.0551,1.276-.0967.404-1.1262.536-1.2533.9273-.1281.3946-.1635.7784-.3212,1.1587-.1588.3829-.12.8247-.3079,1.1917-.1883.369-.6156.5683-.8315.92s-.4521.6414-.6949.9751-.1146.9306-.383,1.2444-.74.4171-1.0323.7093-.1576,1.0415-.4718,1.31-1.143-.1322-1.4774.1112-.5806.5475-.9334.7641-.3165,1.1171-.6855,1.3055c-.367.1873-.9426-.0468-1.3255.1119-.38.1577-.6237.7231-1.0183.8512-.3913.1271-1.002-.5288-1.406-.4322-.4.0956-.7668.1969-1.1775.2614-.4055.0637-.7613.4013-1.1764.4335C148.1816,81.9606,147.7776,81.5293,147.3608,81.5293Z" fill="#dbdbc1"/></g><g opacity="0.33"><path d="M115.47,71.3769a4.2293,4.2293,0,0,1-.33,1.1957,4.0781,4.0781,0,0,1-.5435,1.0832c-.2262.3107-.7778.3141-1.0885.54a3.2744,3.2744,0,0,1-.987.4457,3.3327,3.3327,0,0,1-1.0608.2916c-.3953,0-.87.3345-1.2267.2187a4.2081,4.2081,0,0,1-1.0628-.6242,4.0931,4.0931,0,0,1-.7789-.9216c-.2238-.3077-.63-.6191-.75-.9887a4.38,4.38,0,0,1-.1744-1.2406c0-.3952.3926-.7755.5085-1.1321.12-.37.4854-.5759.7093-.8836a1.9279,1.9279,0,0,1,1.7118-1.2555,3.27,3.27,0,0,1,1.063-.2289c.3952,0,.805-.1908,1.1617-.075a4.0353,4.0353,0,0,1,1.1144.4426c.3107.2261.2011.8581.4273,1.1688.2238.3077.794.4187.914.7883A4.2172,4.2172,0,0,1,115.47,71.3769Z" fill="#ff5f2e"/></g><g opacity="0.33"><path d="M157.62,71.3769a3.4672,3.4672,0,0,1-.35,1.0672c-.12.37.1359.9475-.088,1.2551a4.2127,4.2127,0,0,1-.9356.7889,4.0144,4.0144,0,0,1-1.1315.3632,3.7652,3.7652,0,0,1-1.1289.3063c-.3953,0-.706-.3946-1.0627-.51a3.2061,3.2061,0,0,1-.9506-.4989c-.3107-.2261-.6935-.33-.92-.6406a3.5405,3.5405,0,0,1-.4192-1.0415,3.378,3.378,0,0,1-.1382-1.0893c0-.3952-.3409-.8506-.2251-1.2073.12-.37.79-.4475,1.014-.7551a3.068,3.068,0,0,1,.7382-.74c.3077-.2239.3523-.9981.7219-1.1181.3566-.1158.8462.1306,1.2414.1306a3.63,3.63,0,0,1,1.12.2438c.37.12.8885.0352,1.1962.2591.3107.2262.2337.86.46,1.171.2239.3076.71.4752.83.8448A3.9433,3.9433,0,0,1,157.62,71.3769Z" fill="#ff5f2e"/></g><path d="M121.064,61.4711c0,.391.5294.8386.4463,1.2044-.0859.3778-.4826.6848-.6471,1.0256-.1671.3464-.5552.5328-.7928.83a4.7109,4.7109,0,0,1-.836.7042,3.3867,3.3867,0,0,1-1.8914,1.0992,4.9812,4.9812,0,0,1-1.11-.0154c-.3911,0-.8085.38-1.1743.2968a5.309,5.309,0,0,1-1.0614-.5028,5.1518,5.1518,0,0,1-.941-.659c-.299-.2388-.4-.6425-.6382-.9415a4.6336,4.6336,0,0,1-.5277-.9509c-.1644-.3408-.5227-.5831-.6085-.9608-.0832-.3658.1384-.7392.1384-1.13a4.6986,4.6986,0,0,1,.0533-1.0866c.0859-.3777-.2462-.9041-.0818-1.245a5.6051,5.6051,0,0,1,.6771-.9893c.2387-.299.7484-.3488,1.0474-.5876a4.9491,4.9491,0,0,1,1.0267-.4319c.3408-.1644.5607-.6184.9385-.7043a5.4259,5.4259,0,0,1,1.1515-.2892c.391,0,.715.5164,1.0808.6.3778.0859.9132-.2781,1.254-.1136.3465.1671.4339.7651.7314,1.0028a4.9343,4.9343,0,0,1,.8631.7118,4.919,4.919,0,0,1,.5246.9886,4.771,4.771,0,0,1,.4036,1.0358A4.986,4.986,0,0,1,121.064,61.4711Z" fill="#8c2511"/><path d="M156.0522,61.4711c0,.391-.5564.7124-.64,1.0782a4.5334,4.5334,0,0,1-.37,1.0176c-.1671.3464-.0687.8333-.3064,1.1309a5.2305,5.2305,0,0,1-.856.7736,5.11,5.11,0,0,1-1.02.5052,4.8461,4.8461,0,0,1-1.0625.3442,4.9384,4.9384,0,0,1-1.1071.23,5.147,5.147,0,0,1-1.1392-.0889,5,5,0,0,1-1.03-.4865,4.8318,4.8318,0,0,1-.8933-.664,5.1219,5.1219,0,0,1-.9194-.6652,5.05,5.05,0,0,1-.5664-.985,4.5817,4.5817,0,0,1-.4037-2.19A5.2815,5.2815,0,0,1,145.7,60.332a5.1837,5.1837,0,0,1,1.0527-2.0011,4.95,4.95,0,0,1,.8671-.7108,4.7766,4.7766,0,0,1,.92-.6159,4.9991,4.9991,0,0,1,1.0125-.5209,5.1558,5.1558,0,0,1,1.1385-.0482,5.0719,5.0719,0,0,1,1.1312.08,5.3121,5.3121,0,0,1,1.1325.2554c.3464.1671.4585.6759.7561.9135a4.7193,4.7193,0,0,1,.8215.7239,3.1987,3.1987,0,0,1,1.0445,1.9477C155.6591,60.7216,156.0522,61.08,156.0522,61.4711Z" fill="#8c2511"/><path d="M146.7979,71.9306c-.6057,0-.6057-.1549-1.2115-.1549s-.606-.2321-1.2121-.2321-.6059.4441-1.2117.4441-.606-.1723-1.212-.1723-.606.2857-1.212.2857-.6061-.1559-1.2122-.1559-.606-.3167-1.212-.3167-.6062-.0317-1.2123-.0317-.6063.2676-1.2125.2676-.6062.0623-1.2123.0623-.6062-.14-1.2124-.14-.6062-.0021-1.2124-.0021-.6064.2764-1.2127.2764-.6062-.428-1.2125-.428-.6061.0047-1.2123.0047-.6061.1816-1.2123.1816-.6061.1974-1.2123.1974-.6063-.1287-1.2126-.1287-.6066-.1248-1.2131-.1248-.6063-.1487-1.2127-.1487-.6067.2654-1.2135.2654-.6067-.0008-1.2135-.0008c-.5962,0-.8465-.533-.8465-1.1291s.25-.8036.8465-.8036c.6058,0,.6058-.2612,1.2115-.2612s.606-.23,1.2121-.23.6059.038,1.2118.038.606.1872,1.212.1872.6059-.0554,1.2119-.0554.6061.2218,1.2123.2218.6059.071,1.2119.071.6062-.0709,1.2123-.0709.6063.0146,1.2125.0146.6062.0178,1.2123.0178.6062-.3647,1.2124-.3647.6062.2536,1.2125.2536.6063-.1284,1.2126-.1284.6063-.1967,1.2125-.1967.6061.3512,1.2123.3512.6062.0955,1.2123.0955.6062-.4176,1.2123-.4176.6063.4044,1.2127.4044.6065-.0354,1.213-.0354.6064-.099,1.2127-.099.6068-.0862,1.2135-.0862.6068-.1949,1.2135-.1949a1.395,1.395,0,0,1,1.2114,1.2885A1.2891,1.2891,0,0,1,146.7979,71.9306Z" fill="#fff"/><path d="M145.0531,74.4963c.3025-.5805.24-.613.5426-1.1935s.3689-.5459.6714-1.1264a1.2109,1.2109,0,0,0-.0587-1.185,1.1526,1.1526,0,0,0-1.0238-.5292c-.605,0-.605-.0143-1.21-.0143s-.605-.0231-1.21-.0231a1.2185,1.2185,0,0,0-1.053.5489,1.2466,1.2466,0,0,0-.0305,1.2033c.3025.58.3489.5563.6514,1.1368s.3153.5738.6178,1.1543a1.1433,1.1433,0,0,0,1.0243.6538A1.1946,1.1946,0,0,0,145.0531,74.4963Z" fill="#fff"/><path d="M124.5381,74.4862c.3024-.5805.331-.5656.6335-1.1461s.294-.585.5964-1.1655a1.2322,1.2322,0,0,0-.0339-1.1961,1.2131,1.2131,0,0,0-1.0451-.56c-.605,0-.605.0245-1.21.0245s-.605.0168-1.21.0168a1.1655,1.1655,0,0,0-1.0329.5257,1.1853,1.1853,0,0,0-.0115,1.1707c.3025.5805.2494.6081.5519,1.1886s.3775.5415.68,1.122a1.1693,1.1693,0,0,0,1.0225.6811A1.2019,1.2019,0,0,0,124.5381,74.4862Z" fill="#fff"/><path d="M129.6921,65.2289a1.3919,1.3919,0,0,1-1.3918-1.392V62.4233a1.3919,1.3919,0,1,1,2.7837,0v1.4136A1.3919,1.3919,0,0,1,129.6921,65.2289Z" fill="#513e4f"/><path d="M137.2307,65.2289a1.392,1.392,0,0,1-1.3919-1.392V62.4233a1.3919,1.3919,0,1,1,2.7838,0v1.4136A1.392,1.392,0,0,1,137.2307,65.2289Z" fill="#513e4f"/><g opacity="0.45"><path d="M102.4271,99.5222a1.8088,1.8088,0,0,1-1.809-1.809V94.701a1.809,1.809,0,0,1,3.618,0v3.0122A1.8089,1.8089,0,0,1,102.4271,99.5222Z" fill="#fff" opacity="0.5"/><path d="M114.4842,99.5222a1.8089,1.8089,0,0,1-1.809-1.809V94.701a1.809,1.809,0,0,1,3.618,0v3.0122A1.8088,1.8088,0,0,1,114.4842,99.5222Z" fill="#fff" opacity="0.5"/><path d="M108.4542,106.7553a1.8088,1.8088,0,0,1-1.809-1.809v-3.0121a1.809,1.809,0,0,1,3.618,0v3.0121A1.8087,1.8087,0,0,1,108.4542,106.7553Z" fill="#fff" opacity="0.5"/><path d="M152.9068,123.2324a1.8089,1.8089,0,0,1-1.809-1.809v-3.0122a1.809,1.809,0,0,1,3.618,0v3.0122A1.8088,1.8088,0,0,1,152.9068,123.2324Z" fill="#fff" opacity="0.5"/><path d="M164.964,123.2324a1.8088,1.8088,0,0,1-1.809-1.809v-3.0122a1.809,1.809,0,1,1,3.618,0v3.0122A1.8088,1.8088,0,0,1,164.964,123.2324Z" fill="#fff" opacity="0.5"/><path d="M158.934,130.4655a1.8087,1.8087,0,0,1-1.809-1.809v-3.0121a1.809,1.809,0,0,1,3.618,0v3.0121A1.8088,1.8088,0,0,1,158.934,130.4655Z" fill="#fff" opacity="0.5"/><path d="M101.8152,154.744a1.8088,1.8088,0,0,1-1.809-1.809v-3.0122a1.809,1.809,0,0,1,3.618,0v3.0122A1.8088,1.8088,0,0,1,101.8152,154.744Z" fill="#fff" opacity="0.5"/><path d="M113.8724,154.744a1.8088,1.8088,0,0,1-1.809-1.809v-3.0122a1.809,1.809,0,0,1,3.618,0v3.0122A1.8089,1.8089,0,0,1,113.8724,154.744Z" fill="#fff" opacity="0.5"/><path d="M107.8424,161.9771a1.8088,1.8088,0,0,1-1.8091-1.809V157.156a1.8091,1.8091,0,0,1,3.6181,0v3.0121A1.8088,1.8088,0,0,1,107.8424,161.9771Z" fill="#fff" opacity="0.5"/></g></svg>