<svg id="Layer_1" data-name="Layer 1" xmlns="http://www.w3.org/2000/svg" width="0.3382in" height="0.3889in" viewBox="0 0 24.3529 28"><title>cactusArtboard 8</title><path d="M5.3617,13.0882c.2259-.2259.7045.2527.93.0267s-.2319-.6836-.006-.91.1663-.2855.3923-.5115.4761.0243.702-.2016.41-.0422.6356-.2682.2494-.2024.4754-.4284-.22-.6713.0065-.8973.218-.2339.4439-.46.6026.1506.8286-.0754.1245-.7519.4174-.6241c.2975.13-.1135.42-.1135.7449s.0333.3246.0333.6492-.2331.3246-.2331.6492.159.3245.159.6491-.2287.3245-.2287.6491.532.3245.532.6491-.4543.3246-.4543.6492.2831.3246.2831.6492.1732.3246.1732.6492.2167.3246.2167.6492-.53.3246-.53.6491-.2591.3246-.2591.6492.0647.3246.0647.6492.5572.3247.5572.6493-.5887.3246-.5887.6492.2627.3246.2627.6492.1352.3245.1352.6491-.4032.3247-.4032.6493.4258.3246.4258.6492.3452.3247.3452.6493-.1449.3246-.1449.6493-.4216.3247-.4216.6493-.173.3247-.173.6494a2.5178,2.5178,0,0,0,.041.7452c.0714.1864.7133.1021.8384.2651.1231.16-.0662.6642.0943.7873a2.8036,2.8036,0,0,0,.6009.355c.1925.0737.5094-.4746.71-.4746s.4391.3433.6316.2695c.1864-.0714.1857-.456.3487-.5811.1605-.1231.5637.0052.6869-.1553.1251-.163-.2232-.5586-.1518-.745a1.0324,1.0324,0,0,0,.0943-.4661c0-.3246.4029-.3246.4029-.6491s-.4568-.3246-.4568-.6492,0-.3246,0-.6491.8127-.3246.8127-.6492-.2656-.3245-.2656-.6491.0838-.3245.0838-.6491-.0549-.3246-.0549-.6492.2365-.3246.2366-.6492-.3659-.3246-.3659-.6492.1122-.3246.1122-.6492-.2564-.3246-.2564-.6491-.3089-.3246-.3089-.6492.5747-.3246.5747-.6492-.3431-.3246-.3431-.6493-.0662-.3246-.0662-.6492-.0264-.3246-.0264-.6492.4618-.3245.4618-.6491-.3112-.3247-.3112-.6493.2092-.3246.2092-.6492-.0492-.3247-.0492-.6493-.4377-.3246-.4377-.6493.5036-.3247.5036-.6493-.2467-.192.0483-.3279c.29-.1337.107-.1266.3428.0895s.4041.0324.64.2484-.12.6035.1163.82.1386.322.3744.5381.8083-.4085,1.0441-.1923-.137.6227.0988.8388-.01.4844.2256.7.2662.1829.502.399.4014.0356.6372.2518.161.2932.3944.512a2.5673,2.5673,0,0,0,.56.3909,2.7656,2.7656,0,0,0,.6376.347c.2027.0341.4972-.1975.7-.2315.1986-.0334.3446-.2922.53-.3908.1744-.093.5931.0943.7441-.0567.1668-.1251-.187-.6836-.091-.8663.0938-.1785.4686-.2363.4949-.445.0251-.2-.1451-.3971-.1821-.603-.036-.2-.3376-.242-.4322-.4273-.0923-.1807-.0315-.36-.18-.5081-.2387-.234-.168-.3056-.4075-.5389s-.4405-.0269-.68-.26.1092-.5911-.13-.8244-.3814-.0876-.6208-.3209.036-.516-.2034-.7493-.7068.2463-.9462.013-.0066-.4723-.246-.7056-.5033.0376-.7427-.1957.3319-.82.0925-1.0529-.5946.1312-.8341-.1021-.4113-.0569-.6508-.29-.24-.2323-.48-.4656-.2781-.1937-.5176-.427.11-.5915-.13-.8249-.1478-.3274-.3873-.5607-.4935.0391-.7434-.1831c-.1832-.1222-.0444-.7116-.2276-.8219-.1941-.1169-.647.2646-.8411.1882-.2121-.0835-.3614-.3746-.5735-.3746-.21,0-.2951.408-.4965.4991-.1877.0849-.7634-.3707-.9284-.2216a2.95,2.95,0,0,0-.4169.5358c-.2271.2455.3313.7918.0918,1.0251s-.2624.21-.5019.4429-.67-.2082-.9091.0251-.3358.1343-.5752.3676-.2542.2182-.4936.4515.1842.6682-.0552.9015-.6057-.1426-.8451.0907-.0668.41-.3062.6437-.32.15-.56.3836-.27.2024-.509.4357.082.5632-.1575.7965-.2894.1821-.5288.4154-.6465-.1843-.8859.049-.2093.2644-.4487.4977.0164.4961-.2231.7294.0452.5237-.1936.7579c-.1509.1509-.7621-.0865-.855.0879a2.2892,2.2892,0,0,0-.117.6644c-.034.2027.2263.4042.26.6069.0334.1985-.3631.5876-.2644.7727a2.93,2.93,0,0,0,.5.5048,2.981,2.981,0,0,0,.499.5114,2.63,2.63,0,0,0,.7167.0928,2.3994,2.3994,0,0,0,.6951.05,2.6634,2.6634,0,0,0,.717-.1264C5.4948,13.972,5.2107,13.2391,5.3617,13.0882Z" fill="#513e4f"/></svg>