<svg id="Layer_1" data-name="Layer 1" xmlns="http://www.w3.org/2000/svg" xmlns:xlink="http://www.w3.org/1999/xlink" width="3.68in" height="2.8056in" viewBox="0 0 264.96 202"><defs><linearGradient id="linear-gradient" x1="135.7964" y1="132.4329" x2="134.5033" y2="40.8464" gradientUnits="userSpaceOnUse"><stop offset="0" stop-color="#9b7774"/><stop offset="1" stop-color="#b59783"/></linearGradient></defs><title>cactusArtboard 3 copy</title><path d="M102.3281,160.4507c-.0728-.0725-.106.063,0,0Z" fill="#e6ddd9"/><path d="M157.7224,156.5364c.0219.0063.0324-.0093.0539-.01.0325-.4006.063-.7468.0938-1.01Z" fill="#e6ddd9"/><path d="M166.6852,158.8743c.0215.0437.0362.0666.0562.1064C166.7326,158.7405,166.7392,158.5007,166.6852,158.8743Z" fill="#e6ddd9"/><path d="M137.2385,160.6328c-.0779-.0227-.1189.0674-.1477.1978A.445.445,0,0,1,137.2385,160.6328Z" fill="#e6ddd9"/><path d="M86.0229,162.8733s.0222-.0193.0383-.0359c-.0327-.0793-.0659-.1365-.1-.24Z" fill="#e6ddd9"/><path d="M86.19,162.186a.508.508,0,0,1-.1289.6514c.2268.54.4451.5776.6607.3245C86.7094,162.5437,86.2956,162.6443,86.19,162.186Z" fill="#e6ddd9"/><path d="M56.4057,165.1113l.0847-.2509A1.1332,1.1332,0,0,0,56.4057,165.1113Z" fill="#e6ddd9"/><path d="M138.6523,190.9272a1.9406,1.9406,0,0,0-.1314.149C138.5908,191.0925,138.6276,191.0225,138.6523,190.9272Z" fill="#e6ddd9"/><path d="M61.0964,165.6428l.0339-.98A7.5035,7.5035,0,0,0,61.0964,165.6428Z" fill="#e6ddd9"/><path d="M157.87,155.5164l.0578-.3833C157.9074,155.2209,157.8893,155.3569,157.87,155.5164Z" fill="#e6ddd9"/><path d="M174.9362,159.3621c.0086.3.0315.54.0571.7443a.037.037,0,0,1,.0235.0066Z" fill="#e6ddd9"/><path d="M216.7487,174.2021c-.0051-.1213-.0146-.2492-.0288-.3818l-.1533.7A.5458.5458,0,0,0,216.7487,174.2021Z" fill="#e6ddd9"/><path d="M186.3154,163.4062c.0078-.1132.0327-.2177.0324-.3415-.1992-.324-.71-.3877-1.3615-.3379l-.0186,1.2031Z" fill="#e6ddd9"/><path d="M199.174,191.2258l-1.2478-2.3982c3.8477-1.1811,5.6953,1.2112,8.9707-.7985l-.1741.5275c.492.5516.6673-4.8864,6.1084,1.6551l.0042.2417c.1841-.0447.1743-.5281.5547.1093l-.9466-1.4658c.54-.6177,1.0018-1.7817,1.7337-1.9587a2.87,2.87,0,0,1,.2453,1.1474l1.7952-.4365.58,1.5528c.5359-.8572.2264-4.1507,1.7329-2.34-.5961-2.2784.7068-1.3855.5042-2.5472.08.282.2559.7012.3989,1.0909.8714-.281,2.511-.9519,2.8987-2.1343,0,0-3.5154-4.7573-4.4812-7.1878,1.2451.6.3206-.2859.0635-1.051l-.072.5711c-.7493-.5452-.7749-1.99-1.1517-2.3841.002.1162.0159.2566.0286.4l.0437-.1943a1.38,1.38,0,0,1-.0149.5761c.0147.3089-.0154.5528-.218.47l.0359-.1519c-.3052.2158-.8425-.0014-1.0764-.1l-.0262-1.2068c-.507,2.3077-3.7458-3.44-4.4829-3.5029-.7661-1.5088-1.6494.4058-2.5857-.3394-1.4775-.3627-.7668-1.7475-1.5236-2.7753-.9358-.74.2116,1.4038-.1568,1.4914L205.58,166.428c.64-.1558.2783-.8777.1523-1.3418-.9587-.188-2.5039-2.374-2.7551.0383-1.3091-1.13-1.3294-2.0945-1.8838-2.2036.1929.436.5674.8276.5791,1.314-.5349-1.0533-.2422.2666-.0266.4995-.7688,1.06-4.1638-4.3164-4.2822-1.67l-.0086-.4824c-.1479,1.9717.1795,3.8781-.3508,4.9756l-.3823-.8731-.5376.8557a2.0782,2.0782,0,0,1-.2132-1.4011c-.8838.9251-2.1584-.1374-3.2534-.3823l1.25,5.3469c-.9416-1.2234-2.6455-3.71-2.7981-1.98l-.5847-1.7944c-1.9048-3.41-1.2608,1.5185-2.0149.4941l-.9609-1.948.9221.0178a13.3946,13.3946,0,0,1-2.0767-2.882c0,.0195-.0075.0339-.0071.0527a.6062.6062,0,0,1,.0953.2915l-.1277.05c-.0945.9815-.5633,1.6617-1.2137,1.6082-.9267-.2593-1.622,1.2014-3.1311-.852l-.3315,2.0153L180.5126,165l-.0283-1.5988c1.0845.0766,3.1116-.5686,4.502-.6746l.0117-.731c-.8255.0171-1.7517.7417-2.3.5923a3.78,3.78,0,0,1-.5069-3.0529l-.4821,1.5737c-2.7517.228-2.7683.3049-5.6756-1.4546l.2639.7986c-.5617.4817-1.1223.9512-1.3042-.3465a6.3484,6.3484,0,0,1-4.6938-3.215l-.2119,1.8886c-.3665-.0974-.9636-2.935-1.0943-.2939l-.7641.8457c-.5007-.1353-.7869.9465-1.3735-.1253v-.0009l-.0032-.0047c-.0362-.0664-.0742-.1369-.1111-.22.001.0576.0051.1069.009.1565-1.1423-.8127.0413,1.689-1.2693.6272-.4382-1.3323-.4157,2.4-1.0527,1.9834l-.68-2.6916c-1.1677-1.5308-1.3147,1.1833-2.9663,1.2214-.81-.9487-1.2346-3.2481-.7456-5.3049-.6782,2.4914-.3,1.6211-1.2371,2.8269a4.3043,4.3043,0,0,1,.1282-2.1538c-.8723-1.179-.5088.93-1.1516.8808-.1523,1.9231-.313,4.9824-.5193,5.11l.2593.5947c-.6611,1.0372-1.3948,1.5289-2.2022.58l.0127-.9655-.8322.5039-.0747-1.2337-1.1936.4041.17.33c-.2791.1682-1.1971.6093-1.7376-.0259l.0071-.6858c-1.531-2.1128-2.7122.7119-4.4568.969l.2046-1.4043c-.62-1.3809-.125,2.1579-.8472,1.4748l-.0659-1.7192c-.5849,2.2712-.8166-.4656-1.2622-1.3127l.2412,2.2492-.8193-.46c-.9065-.7312-.5987-2.8367-.489-4.0193l-.5767,1.7864-.154-1.9866c-.4034,2.3215-.451-.3643-1.2078.8909-.0776-.7513.1118-1.1863-.1587-1.5018l-1.2344,2.8274.7525-1.2566-.0425,2.9083c-.7676,2.22-1.0984-.2974-1.66.5239l.3814-.8709c-.9278.7222-1-.5134-1.5418-1.1474.1741.5368.44,1.3352.0659,1.7221-.2763.1653-.17-1.019-.4394-1.3352-.0288,1.9375-.6851,2.9751-1.3127,2.073a4.218,4.218,0,0,1,.0476-.7182c-.15.3164-.2225.8166-.5022.3562l.1218-2.1553-.4863,2.0581c-.3589-.583-.84.9873-.82-.4658l.19-.4348-2.65-.4724-.0674-1.721c-.2187,2.3735-1.4541-.875-1.3149,2.0811-.5269-1.6033-1.9409,1.174-1.707-2.1665-1.7393-.2264-2.62,2.9992-4.7574,1.4138-.8012-2.8179-2.843-1.8643-4.2016-2.1394a72.2,72.2,0,0,1-7.0039,3.2815c-1.6966-3.9222-4.0325,1.4321-5.8223-.7688l-.4517,1.5781c-1.2075-2.478-2.9294.6106-4.6049-1.7971a3.108,3.108,0,0,1-.6858.9724c.0754.074.1933.37.2463,1.3647-.4783-.6916-1.4055.2014-1.3738-1.79l.1148-.2068c.0332-1.9917-1.3977.9553-1.9485-.76l.323,2.1274-.8892-.3447.229-.4136c-3.7505,4.8018-5.6035-1.9331-9.1277,2.4544.4363-2.3348-.6882,1.2346-.78-1.3072-.9649-3.1826-1.67.72-2.4,1.586a2.1086,2.1086,0,0,1-.0433.468l-1.3071-.281c.7205-3.2293-.89,2.6826-.2243-.065-3.4368-2.3442-7.8221.1839-11.7708-.8552l.187.824c-.9993-.14-2.2207.8852-3-.4224-.78-1.3047-1.6162,2.1287-1.9073,2.2654-.8034,1.4387-1.6074-1.3789-1.2492-1.24-.8792.41-1.66,3.3621-2.9119,2.1235-.4685-2.7182-3.3069,2.7344-3.3984-.3364l-.0088.2591c-1.6131-2.1346-3.0332,1.5712-4.7639-.357a3.9688,3.9688,0,0,1,.082-.4336l-3.2859,9.38L54.2849,184.73l3.14,8.2751,8.0754-1.95,6.5286,3.1418,15.7283-1.3808,1.0835-2.3343c3.166,3.99,7.0517-.7331,10.4367,2.0955l.0337-1.9932c.9375-.135.8955,1.1,1.1341,1.4439,8.7346-.5965,17.6877-3.41,25.5981-1.0386.7817,1.3032,3.075.4876,3.6946,1.8691,2.5117-2.4814,5.2187-2.5056,7.7812-2.3l-.093.2209,1.198-.405a1.1591,1.1591,0,0,1,.0286.5527c1.3279-1.7876,3.5-.0813,5.1772.607l-.0935.219c9.7161.19,18.6641-3.6878,28.3433-1.0791,4.5349,3.17,9.6638-1.4082,14.8489,1.2077C187.9062,193.8472,198.2724,192.1748,199.174,191.2258Z" fill="#e6ddd9"/><path d="M214.4225,188.2856l-.04.0105C214.3994,189.1345,214.4536,188.8164,214.4225,188.2856Z" fill="#e6ddd9"/><path d="M192.55,165.7368c.0234.0054.0461.0139.0681.02l-.2761-1.1792Z" fill="#e6ddd9"/><path d="M206.2873,164.8c-.6226-.2517-.6475-.0481-.5547.2866A.4677.4677,0,0,0,206.2873,164.8Z" fill="#e6ddd9"/><path d="M219.4413,186.5989c.3257.0605.1932-.4373-.0073-.9929-.3293.1084-.5586.1613-.5586.1613C219.061,185.9631,219.2507,186.4014,219.4413,186.5989Z" fill="#e6ddd9"/><path d="M217.915,175.2329l.0891-.6819A.6051.6051,0,0,0,217.915,175.2329Z" fill="#e6ddd9"/><path d="M56.8482,55.0151v-.0587a3.47,3.47,0,0,1-1.0922-.1535,3.8791,3.8791,0,0,1-2.3408-2.2458,3.6818,3.6818,0,0,1-.25-1.1155c0-.504.1945-.504.1945-1.0081s-.1131-.5042-.1131-1.0084.09-.504.09-1.0079.0453-.5044.0453-1.0087-.0506-.5048-.0506-1.0095-.0563-.5047-.0563-1.0094a3.5046,3.5046,0,0,1,.2123-1.0924,3.6,3.6,0,0,1,.4342-1.0346A3.6717,3.6717,0,0,1,54.72,42.46a3.74,3.74,0,0,1,.9833-.595,3.86,3.86,0,0,1,1.1453-.0145v-.0065a3.6768,3.6768,0,0,1,1.1249.0842,3.59,3.59,0,0,1,.938.6222,3.6853,3.6853,0,0,1,.8945.6909,3.6974,3.6974,0,0,1,.3579,1.0713,3.4523,3.4523,0,0,1,.2539,1.0773c0,.5041.1323.5041.1323,1.0081s-.23.5042-.23,1.0085.1819.5039.1819,1.0078-.0284.5044-.0284,1.0088-.1167.5047-.1167,1.0094-.0452.5047-.0452,1.0094a3.9264,3.9264,0,0,1,.0527,1.1424,3.7464,3.7464,0,0,1-.564,1.0021,3.6846,3.6846,0,0,1-.8381.7645,3.552,3.552,0,0,1-1.0387.3984A3.4511,3.4511,0,0,1,56.8482,55.0151Z" fill="#513e4f"/><path d="M67.3161,54.8442v.023a3.8908,3.8908,0,0,1-1.147.0042c-.362-.1176-.5947-.4984-.8961-.7177a3.7681,3.7681,0,0,1-1.299-1.7263,3.6142,3.6142,0,0,1-.33-1.086c0-.5041.1793-.5041.1793-1.0081s-.1894-.5042-.1894-1.0085.0949-.5039.0949-1.0078.0405-.5044.0405-1.0088-.073-.5047-.073-1.0094.0868-.5047.0868-1.0094a3.3944,3.3944,0,0,1,.2374-1.0712,3.7177,3.7177,0,0,1,.3356-1.08,3.6918,3.6918,0,0,1,.8978-.6883,3.4237,3.4237,0,0,1,.9776-.5,3.5949,3.5949,0,0,1,1.0851-.3208v.157a3.5222,3.5222,0,0,1,1.1017.1133,3.4627,3.4627,0,0,1,.9506.5654,3.4052,3.4052,0,0,1,.76.7817,3.5877,3.5877,0,0,1,.6477.9189,3.6757,3.6757,0,0,1,.1576,1.1243c0,.504.0105.504.0105,1.0081s-.0791.5042-.0791,1.0084.0954.504.0954,1.0079-.1529.5044-.1529,1.0087-.0068.5048-.0068,1.01.1722.5047.1722,1.0094a3.6824,3.6824,0,0,1-.2064,1.1213,3.6093,3.6093,0,0,1-.5515.9851,3.5486,3.5486,0,0,1-.8361.7335,3.3085,3.3085,0,0,1-2.0632.6629Z" fill="#513e4f"/><path d="M77.7841,55.2823v.0528a3.7066,3.7066,0,0,1-1.119-.2494,8.1421,8.1421,0,0,1-1.7844-1.3343,3.7052,3.7052,0,0,1-.6108-.9675,3.8444,3.8444,0,0,1-.0031-1.1418c0-.5041-.1385-.5041-.1385-1.0082s.041-.5042.041-1.0084.1024-.5039.1024-1.0078-.19-.5044-.19-1.0088.1174-.5047.1174-1.0094.0233-.5047.0233-1.0095a3.5777,3.5777,0,0,1,.1454-1.11,3.7259,3.7259,0,0,1,.4361-1.0552,3.737,3.737,0,0,1,.8887-.7136,3.48,3.48,0,0,1,1.0188-.422A3.6545,3.6545,0,0,1,77.7841,41.9v.2155a3.4911,3.4911,0,0,1,1.0966.1,3.6176,3.6176,0,0,1,1.0354.44,2.8129,2.8129,0,0,1,1.3378,1.807,3.6908,3.6908,0,0,1,.1213,1.1274c0,.5041.0349.5041.0349,1.0082s.0823.5042.0823,1.0084-.1043.5039-.1043,1.0079.0248.5044.0248,1.0087-.11.5047-.11,1.01.07.5047.07,1.0094a3.6073,3.6073,0,0,1-.16,1.1139,3.5557,3.5557,0,0,1-.5558.9728,3.7027,3.7027,0,0,1-.7189.8771,3.7131,3.7131,0,0,1-1.0743.3568A3.5544,3.5544,0,0,1,77.7841,55.2823Z" fill="#513e4f"/><path d="M192.3062,113.1927v-.055a2.8044,2.8044,0,0,1-2.1454-.5457,3.73,3.73,0,0,1-.8077-.8074,2.8151,2.8151,0,0,1-.5381-2.1455c0-.5041-.0947-.5041-.0947-1.0081s.0137-.5043.0137-1.0085.1095-.5039.1095-1.0078-.2055-.5044-.2055-1.0088-.0165-.5047-.0165-1.0094.2138-.5047.2138-1.01a3.3429,3.3429,0,0,1,.1765-1.0705c.1176-.3621.0653-.815.2846-1.1164a3.8159,3.8159,0,0,1,.8745-.7523,2.9213,2.9213,0,0,1,2.1353-.5923v-.1811a3.6944,3.6944,0,0,1,1.0915.3536,2.2924,2.2924,0,0,1,1.7762,1.2757,3.5619,3.5619,0,0,1,.5678.9671,3.6189,3.6189,0,0,1,.1047,1.1162c0,.5041.1541.5041.1541,1.0082s.0052.5042.0052,1.0084-.2218.5039-.2218,1.0079.067.5044.067,1.0087.0715.5047.0715,1.01-.1269.5047-.1269,1.0094a3.55,3.55,0,0,1-.0873,1.1055,3.4865,3.4865,0,0,1-.5687.9529,2.1853,2.1853,0,0,1-1.7629,1.2359A3.4174,3.4174,0,0,1,192.3062,113.1927Z" fill="#513e4f"/><path d="M202.7741,113.019v.0251a3.4836,3.4836,0,0,1-1.0955-.1339,3.7793,3.7793,0,0,1-1.08-.3767c-.3043-.2215-.4026-.6562-.6241-.9606a3.5584,3.5584,0,0,1-.6454-.9145,3.6643,3.6643,0,0,1-.0442-1.12c0-.5041-.0957-.5041-.0957-1.0082s-.0274-.5042-.0274-1.0084.11-.5039.11-1.0079-.0518-.5043-.0518-1.0087-.067-.5047-.067-1.0094-.0115-.5048-.0115-1.01a3.5508,3.5508,0,0,1,.2949-1.0846,2.38,2.38,0,0,1,1.2541-1.7836,6.1739,6.1739,0,0,1,2.0837-.6968v-.0013a3.58,3.58,0,0,1,1.11.15,4.1,4.1,0,0,1,1.7647,1.3276,3.4666,3.4666,0,0,1,.4162,1.0191,3.332,3.332,0,0,1,.1679,1.0694c0,.5041.2371.5041.2371,1.0082s-.0479.5042-.0479,1.0084-.0959.5039-.0959,1.0079-.0928.5043-.0928,1.0087.0415.5047.0415,1.0094.0463.5048.0463,1.01a3.8733,3.8733,0,0,1-.0157,1.1475,3.7922,3.7922,0,0,1-.5535,1.0162,3.8363,3.8363,0,0,1-.7936.8428,3.7956,3.7956,0,0,1-1.0583.4592A3.7286,3.7286,0,0,1,202.7741,113.019Z" fill="#513e4f"/><path d="M213.242,113.3987v.0995a3.7037,3.7037,0,0,1-1.126-.1932,3.2413,3.2413,0,0,1-2.2307-2.3747,3.4881,3.4881,0,0,1-.2039-1.0907c0-.5041-.0528-.5041-.0528-1.0082s-.0581-.5042-.0581-1.0084-.0445-.5039-.0445-1.0079.19-.5044.19-1.0087-.1442-.5047-.1442-1.01.06-.5047.06-1.0094a3.807,3.807,0,0,1,.0887-1.1444,3.73,3.73,0,0,1,.5982-.98,3.6124,3.6124,0,0,1,.8378-.7471,3.5063,3.5063,0,0,1,.9853-.5159,3.6718,3.6718,0,0,1,1.1006-.311v.1736a3.6261,3.6261,0,0,1,1.1168.088,2.5474,2.5474,0,0,1,1.8118,1.309,3.6045,3.6045,0,0,1,.4047,1.0445,3.4157,3.4157,0,0,1,.1593,1.0831c0,.5041.0449.5041.0449,1.0082s.1649.5042.1649,1.0084-.2029.5039-.2029,1.0078.1453.5044.1453,1.0088.0007.5047.0007,1.0094-.1166.5047-.1166,1.01a3.4505,3.4505,0,0,1-.1843,1.0868,2.3232,2.3232,0,0,1-1.2769,1.7593,4.3394,4.3394,0,0,1-2.0677.713Z" fill="#513e4f"/><path d="M216.9879,106.3141c.3924-.4117-.369-.7182-.369-1.2869s.2493-.5687.2493-1.1375-.43-.5684-.43-1.1368.804-.5686.804-1.1373-.0689-.5686-.0689-1.1372-.3614-.5687-.3614-1.1373.3933-.5688.3933-1.1376.0128-.569.0128-1.138-.0753-.5688-.0753-1.1376-.5911-.5692-.5911-1.1384-.0666-.5692-.0666-1.1384c0-.37.4259-.7416.4126-1.1084-.0133-.37.3225-.7666.296-1.1328-.0268-.3689-.16-.7412-.2-1.1063-.04-.3675-.248-.7222-.3012-1.0857-.0536-.3657-.64-.6392-.7067-1.0006-.0669-.3634.3249-.8149.2451-1.1736-.08-.3607.1266-.8.0335-1.156-.0934-.3573-.8385-.5341-.9446-.8862s-.1279-.7263-.2469-1.0743-.0723-.7562-.2041-1.1-.3033-.6736-.4477-1.0121-.391-.6308-.5477-.9638-.2833-.679-.4521-1.0061-.0129-.836-.1936-1.1568-.92-.3142-1.1125-.6282.0619-.9113-.1417-1.2181-.9768-.2156-1.1915-.5149-.0157-.8976-.2412-1.1889-.17-.8193-.4059-1.1023-.9192-.1853-1.1652-.46-.3183-.708-.5741-.9733-.9019-.13-1.1672-.3857-.1138-.95-.3881-1.1965-.5188-.5357-.8019-.7717-.791-.1927-1.0826-.4183-.2278-.936-.5274-1.1509-.6145-.4354-.9217-.6393-.8388-.0718-1.1533-.2644-.52-.5811-.8414-.7622-.6017-.4621-.93-.6313-.7882-.0884-1.122-.2455-.8409.0837-1.18-.0611-.4516-.8465-.7962-.9787-.6783-.3257-1.0276-.4452-.73-.1745-1.0839-.281-.7345-.1448-1.0918-.2382c-.3556-.0931-.7394-.1054-1.1-.1856-.3588-.08-.7085-.2481-1.0718-.3151-.3614-.0666-.7516-.01-1.1173-.0637-.3635-.0533-.7169-.2574-1.0844-.2976-.3651-.04-.7454-.0383-1.1142-.065-.3663-.0266-.7571.3251-1.1268.3118-.3669-.0133-.7313-.0083-1.1013-.0083-.6069,0-.6069-.5445-1.2138-.5445s-.6066.44-1.2133.44-.6071-.2541-1.2142-.2541-.8024.6815-1.2443.2652c-.4163-.3923-.0237-.6039-.0237-1.1759s.453-.572.453-1.1441-.5705-.5721-.5705-1.1443.6218-.5724.6218-1.1447-.8386-.5722-.8386-1.1444.7776-.5726.7776-1.1452-.78-.5725-.78-1.1451c0-.3662.4125-.732.4041-1.0962-.0084-.366.3456-.7485.3288-1.1124-.0169-.3657-.73-.6914-.755-1.0548-.0254-.3652.7064-.7929.6727-1.1557-.0338-.3644-.6071-.6762-.6493-1.0381-.0423-.3635.2275-.7683.1768-1.1292s-.7894-.6168-.8486-.9765.1476-.761.08-1.1191.3052-.8083.2292-1.1648-.678-.5967-.7624-.9514-.3075-.6686-.4-1.0213.235-.8187.134-1.1691-.122-.7288-.2314-1.0767-.6487-.5545-.7662-.9.4833-.9479.3576-1.29-1.1045-.3616-1.2383-.701.4331-.9639.2914-1.3-.8832-.4118-1.0328-.7446-.2177-.6967-.3751-1.0259.0128-.8191-.1524-1.1445-.5827-.5193-.7555-.8407.0516-.8651-.1287-1.1823-.6863-.4484-.874-.7613.0036-.8643-.1914-1.1729-.8182-.3436-1.02-.6475-.6253-.45-.8345-.7495-.1658-.7732-.382-1.0673-.4533-.57-.6763-.8594-.48-.5483-.7093-.832-.5519-.4851-.7882-.7634-.5384-.49-.7811-.763-.42-.5956-.669-.8627-.4213-.6005-.6765-.8617-.46-.5685-.7215-.8237-.1576-.8986-.4247-1.1476-.6147-.4234-.8875-.6662-.9458-.0264-1.2242-.2628-.5223-.5055-.8062-.7353-.5418-.485-.831-.7082-.3389-.7649-.6333-.9812-.4623-.6223-.7616-.8317-1.0408.2268-1.345.0245-.4315-.67-.74-.8652-.485-.6112-.7984-.7991-.9113.1133-1.2289-.0672-.3236-.9255-.6455-1.0984-.7431-.1673-1.069-.3327-.5722-.5039-.9019-.6616-.7632-.1026-1.0965-.2525-.8669.17-1.2037.028-.6412-.3387-.9813-.4727-.504-.7233-.8472-.8493-.7352-.1175-1.0813-.2354-.6471-.3778-.9959-.4874-.7256-.1333-1.077-.2347-.816.2241-1.17.1311-.5691-.7265-.9249-.8112-.8338.3859-1.1916.31-.7329-.0074-1.0924-.0752-.6226-.6413-.9836-.7007-.7586.15-1.1209.0988-.6427-.7416-1.0062-.7839c-.3619-.0422-.8108.7343-1.1752.7-.3628-.0337-.6884-.483-1.0536-.5084-.3634-.0252-.74.2011-1.1057.1842-.3639-.0168-.7271.1124-1.0931.104-.3642-.0084-.7211-.7942-1.0873-.7942v.4193c-.3662,0-.7275.175-1.0917.1834-.366.0084-.7436-.3364-1.1075-.32-.3657.0169-.731.09-1.0944.1153-.3652.0253-.7.4085-1.0623.4422-.3644.0339-.7533-.1929-1.1152-.1507-.3635.0423-.665.5292-1.0259.58-.3624.0509-.8475-.7067-1.2071-.6476-.3611.0593-.6244.6869-.9826.7545s-.843-.4655-1.2-.3895-.59.7268-.9443.8112-.793-.1522-1.1456-.0594-.5409.7807-.8913.8818-.76-.0116-1.1079.0977-.8052-.11-1.15.0076-.7274.1517-1.07.2774-.7519.103-1.0912.2368-.5973.4912-.9335.6329-.7847.0486-1.1175.1983-.5514.5663-.8806.7237-.7631.1207-1.0884.2859-.4353.7539-.7567.9266-.5779.4591-.8952.6394-.4735.6225-.7865.81-.8928-.0667-1.2013.1283-.5835.4433-.8874.6454-.4236.6679-.7227.8772-1.0275-.178-1.3216.0382-.4135.675-.7025.898-.6055.4167-.8893.6464-.2762.8085-.5546,1.0448-.59.4255-.8623.6682-.9091.0877-1.1762.3367-.1467.9049-.4079,1.16-.4959.5281-.7511.7894-.5829.4459-.8319.713-.6485.395-.8913.6679-.7995.28-1.0359.5587.0366.9826-.1932,1.2665-.305.6808-.5281.97-.37.6229-.5861.9172-.4279.5781-.6373.8775-.4236.5818-.6259.886-.7483.3782-.9435.687-.0809.8018-.2687,1.1151-.5287.5287-.7092.8464-.2178.7063-.3908,1.0282-.3484.6322-.5138.958-.9235.3583-1.0812.688.2318.9127.0819,1.246-.8189.44-.9609.7764-.2111.7087-.3451,1.0488.3814.9228.2555,1.266-.7059.5187-.8238.8648-.2137.698-.3234,1.0468-.2733.6805-.3746,1.0319.2189.8134.1259,1.1671-.3854.6492-.47,1.005-.3838.66-.46,1.018.344.8088.2762,1.1682-.607.6291-.6664.99-.43.6774-.4808,1.04-.1728.7228-.2152,1.0863c-.0422.3619-.0723.7361-.1062,1.1006-.0337.3628.2343.7575.209,1.1226-.0253.3634.4635.7546.4466,1.12-.0168.3639-.7294.704-.7378,1.07-.0084.3641.7154.7367.7154,1.1029,0,.554-.5014.554-.5014,1.108s-.171.5543-.171,1.1086.4638.5542.4638,1.1085-.29.5543-.29,1.1086.0958.5544.0958,1.1088-.4837.5546-.4837,1.1092.13.5545.13,1.1089.3179.5548.3179,1.11.32.6052-.0854.9844c-.4327.405-.4755-.3188-1.0682-.3188s-.5925.0531-1.1851.0531-.5929.7153-1.1859.7153-.5929-.4417-1.1859-.4417c-.386,0-.5253-.3712-.8375-.5521a1.36,1.36,0,0,1-.6213-.6112c-.181-.3122-1.12-.4552-1.12-.8412,0-.5678.6865-.5678.6865-1.1355s-.6881-.5677-.6881-1.1355.7808-.5678.7808-1.1356-.1633-.5679-.1633-1.1357.3162-.5676.3162-1.1351-.194-.5677-.194-1.1355-.246-.5677-.246-1.1355-.179-.5677-.179-1.1355.52-.5679.52-1.1358-.4541-.5681-.4541-1.1362.5232-.568.5232-1.1359-.1455-.5683-.1455-1.1366.2976-.921-.0943-1.3326c-.3731-.3919-.7469.0363-1.288.0363s-.5408.4417-1.0816.4417-.5409-.722-1.0818-.722-.5412-.0317-1.0823-.0317-.5409.3625-1.0818.3625-.5411-.2433-1.0823-.2433-.541.0251-1.082.0251-.5411.3474-1.0822.3474-.5411.3457-1.0822.3457-.5412-.4391-1.0825-.4391-.5411-.3419-1.0822-.3419-.5412.8126-1.0825.8126-.5413-.7439-1.0826-.7439-.5413.1925-1.0825.1925-.5413.0415-1.0826.0415-.5413-.0323-1.0826-.0323-.5414.1878-1.0828.1878-.5411-.5164-1.0821-.5164-.5413.6179-1.0826.6179-.5413-.4881-1.0826-.4881-.5412.6447-1.0825.6447-.5415-.47-1.0829-.47-.5411.4962-1.0823.4962-.5416-.6336-1.0832-.6336-.542.42-1.084.42-.4806-.287-.8548.105c-.392.4107-.7016.3491-.7016.9168s.3391.5677.3391,1.1354-.2529.5678-.2529,1.1356.8765.5679.8765,1.1358-.531.5675-.531,1.135.4621.5678.4621,1.1356-.1374.5677-.1374,1.1355-.5579.5677-.5579,1.1355.4736.5679.4736,1.1358-.396.5681-.396,1.1362.4673.568.4673,1.1359-.7036.5683-.7036,1.1366.8379.5683.8379,1.1367c0,.37-.5208.7429-.5076,1.11.0133.37.37.7177.3967,1.0839.0267.3689-.3069.7681-.267,1.1332.04.3675-.2253.7845-.1721,1.148.0536.3657.9526.5923,1.0192.9537.067.3634-.3589.8213-.279,1.18.08.3606.4774.6425.5705.9982.0935.3573.3984.6429.5045.995s.1223.7217.2413,1.07-.36.9157-.228,1.2592.8781.44,1.0225.7788-.2.8958-.0431,1.2288.4285.6175.5973.9446.6245.4986.8052.8194.0945.7971.2868,1.1111.2627.7146.4663,1.0215.83.3231,1.0445.6223.413.6007.6385.892.42.5982.6561.8812.369.65.615.9238.6113.4316.8671.6968.0436,1.005.3089,1.2609,1.1242-.125,1.3985.121.1783.914.4614,1.15.8352.1342,1.1268.36.3309.7862.63,1.0011.618.4117.9252.6156.5184.5741.8329.7667.9434-.1486,1.2648.0325.5418.5344.87.7036.5357.5857.87.7428.7774.0747,1.1168.2195.646.3678.9906.5.5878.5624.9371.6819.8835-.3325,1.237-.226.6737.3014,1.031.3949c.3556.093.59.7151.9509.7954.3587.08.9007-.74,1.2641-.6732.3614.0666.5738,1.0374.9395,1.091.3635.0533.8445-.8052,1.212-.7651.3651.04.6833.51,1.0521.5372.3663.0266.7213.3813,1.091.3946.3669.0133.7465-.2892,1.1165-.2892.5781,0,.5781.0453,1.1562.0453s.578.1574,1.1559.1574.5783-.0378,1.1566-.0378.8031-.6312,1.2206-.231c.4.3839-.5276.6216-.5274,1.1762s.0811.5547.0813,1.1095.7135.5545.7137,1.1093-.2932.5546-.293,1.109-.1447.5548-.1445,1.1094-.1675.5548-.1673,1.1095.3461.5545.3463,1.1092-.0168.5549-.0166,1.11-.1088.5551-.1086,1.11.5332.5547.5335,1.1095-.5233.5555-.5231,1.1107a2.2976,2.2976,0,0,1-.1133,1.06c-.3643.0557-.5992-.0118-.96.0554-.3622.0675-.6911.31-1.0492.3891-.36.0792-.6381.4766-.9935.567s-.8206-.226-1.173-.124-.8-.0712-1.1494.0422-.6955.2787-1.0406.4034-.736.1719-1.077.3077-.449.8468-.7854.9936-.5913.4574-.9228.6151-.7.2228-1.0267.3912-.9093-.1359-1.23.043-.7051.2738-1.02.4629-.5256.5668-.8343.766-.6213.4064-.9234.6153-.5811.4624-.8764.681-.5821.458-.87.6859-.5059.5482-.7867.7852-.4131.6421-.6861.888-.8772.14-1.1423.3944-.0207,1.0216-.2776,1.2845-.56.4665-.8083.7375-.597.4426-.8365.7214-.528.5114-.7586.7978-.8444.28-1.0657.5734-.2562.7338-.468,1.0343-.3208.6746-.5229.9819-.0586.8272-.2507,1.1408-.69.4394-.8717.7591-.2786.6838-.45,1.0092-.0583.7855-.2193,1.1163-1.0646.3146-1.2148.6505.191.8867.0518,1.2273-.0881.7473-.2162,1.0924-.9457.4477-1.0626.7968.2252.8488.12,1.2015.0182.7631-.0757,1.1192-.1947.7-.277,1.0587c-.082.3574-.05.73-.1211,1.0914-.07.36-.155.7068-.2139,1.0705-.0586.3618-.4076.6765-.4547,1.042-.0469.3635-.311.7063-.3463,1.0732-.0351.3647.3671.7649.3436,1.1328-.0233.3656-.7566.7023-.7683,1.0709-.0117.3661.156.7488.156,1.1177,0,.5418.4782.5418.4782,1.0836s.1893.542.1893,1.084-.21.5418-.21,1.0836.2421.542.2421,1.084-.7247.5419-.7247,1.0838.6921.542.6921,1.084-.2.5419-.2,1.0839-.5693.5421-.5693,1.0842.3011.5419.3011,1.0839.4815.5421.4815,1.0843-.7819.5422-.7819,1.0844.3021.5421.3021,1.0842.4322.5422.4322,1.0843-.2949.5422-.2949,1.0844.3962.5423.3962,1.0846-.8618.5419-.8618,1.0838.623.5422.623,1.0843.1358.5422.1358,1.0843-.3793.5422-.3793,1.0843.417.5424.417,1.0847-.036.542-.036,1.084-.2758.5425-.2758,1.0849.0307.5429.0307,1.0857-.4124.6458-.0276,1.0286c.3869.3849.4889-.3382,1.0346-.3382s.5457.7736,1.0915.7736.5457-.2056,1.0914-.2056.5459.3028,1.0917.3028.5454-.2865,1.0908-.2865.5454-.1755,1.0907-.1755.5455-.0133,1.0911-.0133.5457-.1659,1.0914-.1659.5455.4477,1.0909.4477.5456.0376,1.0912.0376.5458-.5312,1.0916-.5312.5455.631,1.091.631.5458-.1138,1.0917-.1138.5456-.5882,1.0913-.5882.5457.6107,1.0915.6107.5457-.53,1.0915-.53.5458.0152,1.0917.0152.5458.4426,1.0915.4426.5459-.5522,1.0918-.5522.546.0627,1.092.0627.5459.7117,1.0918.7117.5459-.0882,1.0919-.0882.5459-.6293,1.0919-.6293.5461.352,1.0921.352.5457-.4877,1.0914-.4877.546.7084,1.0919.7084.5459-.175,1.0919-.175.5459.179,1.0919.179.5461-.1766,1.0921-.1766.5458-.3278,1.0916-.3278.5463-.1054,1.0925-.1054.5467.0035,1.0933.0035,1.025.9661,1.4066.5747c.3914-.4014-.2019-.8662-.2019-1.4268s-.285-.56-.285-1.1209.6138-.5606.6138-1.1212-.7225-.5606-.7225-1.1211-.0718-.5607-.0718-1.1214.33-.5606.33-1.1212.02-.5607.02-1.1214.4417-.5608.4417-1.1216-.0074-.5608-.0074-1.1215-.339-.5607-.339-1.1215-.5625-.5608-.5625-1.1216.2317-.5609.2317-1.1218-.09-.56-.09-1.121-.0764-.5608-.0764-1.1215.8087-.5608.8087-1.1215-.699-.5608-.699-1.1216.5433-.5609.5433-1.1218-.3744-.5611-.3744-1.1222-.0805-.561-.0805-1.1219.0773-.5613.0773-1.1226-.1429-.6052.2486-1.0075c.3812-.3916.4283.2514.9749.2511s.5463-.2365,1.0928-.2368.5465-.0322,1.093-.0324.5468.1233,1.0935.1231.5463-.5639,1.0929-.5642.5465.1155,1.0931.1152.5465-.1231,1.0931-.1233.5468.276,1.0934.2758.5465-.2289,1.093-.2291.5469.7282,1.0935.7279.5464-.7952,1.093-.7955.5469.6568,1.0934.6565.5466-.28,1.0933-.2806.5464-.3688,1.0931-.369.5468.5158,1.0934.5156.5467.0319,1.0934.0317.5464-.5725,1.093-.5727.5469.3925,1.0937.3923.5463-.0471,1.0927-.0473.5462.091,1.0925.0907.5466.3849,1.0931.3847.5467.0043,1.0933.004.5461-.6572,1.0925-.6574.5463-.2387,1.0928-.2389.5471.8807,1.0938.88.5464-.2824,1.0928-.2826.5465-.6142,1.0932-.6144.5468.5112,1.0934.511.5465-.4054,1.0932-.4057.5469.6724,1.0936.6722.5468.0613,1.0936.0611.5464-.7926,1.093-.7929.5469.0843,1.0937.0841.547.1483,1.0939.1481.5468.0276,1.0937.0274.5468.0581,1.0937.0579.5469.0993,1.0938.0991.5471.3373,1.0941.3371.5465-.4426,1.0931-.4428.5467-.3647,1.0935-.3649.5472.6851,1.094.6849.5466-.6657,1.0935-.6659.5473.7513,1.0943.751.5467.0588,1.0935.0586.5469-.6236,1.0941-.6238.5474-.1975,1.095-.1978.4917.5651,1.0161.7227c.0835.3547.5343.3674.6288.7178s-.269.8327-.1632,1.18.123.7332.24,1.0769.2008.7118.3287,1.0516.368.6468.5068.9824.3862.6318.5356.9628.8344.4051.9944.7312.034.7884.2043,1.1092.3358.64.5163.9557.3913.608.5817.9174.1454.7689.3456,1.0722.5962.4735.806.77.2792.6959.4983.9858.28.7112.5078.9941.525.519.762.7946.6676.3827.9133.6507.1925.8258.4466,1.086.8086.2246,1.0707.4766.7038.3029.9738.5465.1675.912.4451,1.147.789.1882,1.0739.4143.35.7428.6416.96.6234.3915.9221.5991.7036.2636,1.0088.4617.4446.6715.7559.86.9149-.121,1.2322.0573.644.3224.9668.49.7473.105,1.0754.2626.5517.511.8847.6581.7164.1444,1.054.2807.4044.9689.7462,1.0943.7525.0737,1.0983.1882.8357-.2464,1.185-.1431.5773.6224.93.7144.84-.4049,1.1956-.3243.6125.5748.97.644c.3561.0688.7049.1786,1.0648.2362.3581.0574.72.0925,1.0815.1387.36.0458.7422-.1442,1.1053-.11.3608.0344.7141.0783,1.0781.1014.3618.0228.7219-.1031,1.0866-.0916.3622.0114.7137.19,1.0787.19.5517,0,.5517-.1491,1.1035-.1491s.5518.562,1.1037.562.5518-.4976,1.1036-.4976.552,0,1.104,0,.5518.3017,1.1037.3017.5519-.18,1.1039-.18.5521-.017,1.1042-.017.552-.1216,1.104-.1216.552-.1765,1.104-.1765.5521.145,1.1042.145.5521.08,1.1043.08.5518.4,1.1036.4.552.1373,1.104.1373.552-.7092,1.1041-.7092.552.1441,1.104.1441.5522.2773,1.1044.2773.5524.04,1.1047.04.5522.0653,1.1044.0653.5526-.2945,1.1052-.2945.5443.4231.9375.0348c.3882-.3834.1959-.3759.1959-.9215s.2174-.5458.2174-1.0916-.1957-.5457-.1957-1.0914-.1989-.5458-.1989-1.0917.6314-.5454.6314-1.0908-.5257-.5453-.5257-1.0907.3671-.5455.3671-1.0911.1395-.5457.1395-1.0914-.6182-.5455-.6182-1.0909-.1917-.5456-.1917-1.0912.5941-.5458.5941-1.0916.1884-.5455.1884-1.091-.1962-.5458-.1962-1.0916-.4536-.5457-.4536-1.0914.52-.5457.52-1.0915.0628-.5457.0628-1.0914-.3451-.5459-.3451-1.0918-.3971-.5458-.3971-1.0915-.0533-.5459-.0533-1.0918.7956-.546.7956-1.092-.1331-.5459-.1331-1.0918-.1255-.5459-.1255-1.0918-.2308-.546-.2308-1.092-.0307-.5461-.0307-1.0921.2539-.5457.2539-1.0914.15-.546.15-1.0919-.0542-.5459-.0542-1.0919.2682-.5459.2682-1.0919.01-.546.01-1.0921-.7162-.5458-.7162-1.0916.1052-.5463.1052-1.0925.1565-.5467.1565-1.0933.5093-.8568.1173-1.2377c-.4035-.3921-.703-.1614-1.2656-.1614s-.5628.019-1.1255.019-.5627.315-1.1253.315-.5628-.3647-1.1256-.3647-.5629-.0789-1.1258-.0789-.5628.209-1.1255.209-.5629.533-1.1257.533-.5628-.6059-1.1257-.6059-.563.2649-1.1259.2649-.5626.2939-1.1252.2939-.5628-.3035-1.1256-.3035-.5629.3074-1.1257.3074-.5628-.0238-1.1257-.0238-.5629-.49-1.1259-.49-.5632-.15-1.1264-.15-.563.1224-1.126.1224-.5634-.0241-1.1267-.0241-.8427.7981-1.2459.4047c-.3934-.3839-.2181-.6718-.2181-1.2215s.4273-.55.4273-1.1-.4659-.55-.4659-1.1.1662-.55.1662-1.1.4569-.55.4569-1.1-.23-.55-.23-1.1.2881-.55.2881-1.1-.2667-.55-.2667-1.1-.0032-.55-.0032-1.1-.51-.55-.51-1.1.5267-.55.5267-1.1.2159-.55.2159-1.1-.5033-.55-.5033-1.1.48-.55.48-1.1.2176-.55.2176-1.1-.1746-.55-.1746-1.1-.142-.55-.142-1.1.2052-.55.2052-1.1-.1279-.55-.1279-1.1-.6521-.55-.6521-1.1008.6309-.5508.6309-1.1016a10.7938,10.7938,0,0,0,.0294-1.118c-.0028-.0387-.61.0766-.6127.0378-.039-.5508.69-.5738.69-1.1261s-.5432-.5521-.5434-1.1045.17-.5526.1694-1.105.0206-.5524.02-1.1048-.2666-.5523-.2668-1.1047.6286-.5528.6283-1.1052.0426-.5526.0423-1.1052-.3231-.552-.3233-1.1042.1033-.5525.1031-1.1049.01-.5524.0093-1.1049.2246-.5525.2244-1.1049-.4883-.5524-.4885-1.105-.0935-.5527-.0937-1.1055-.073-.5525-.0732-1.1051.2425-.5531.2422-1.1061-.2559-.5525.1137-.9638c.3323-.37.339-.2992.8362-.2992s.4968-.31.9937-.31.4973.1766.9947.1766.4976.6555.9953.6555.4976-.0691.9953-.0691c.386,0,.78-.2477,1.0926-.0667.3217.1865.347.6326.5335.9543a1.6994,1.6994,0,0,1,.3034.9381c0,.5687-.2282.5687-.2282,1.1374s.281.5688.281,1.1375.084.5684.084,1.1368-.04.5686-.04,1.1373-.1886.5686-.1886,1.1372-.04.5687-.04,1.1373.7273.5688.7273,1.1376-.2564.569-.2564,1.138-.2978.5688-.2978,1.1376-.1458.5692-.1458,1.1384-.3453.9634.0468,1.376c.3728.3921.791.2477,1.3321.2477s.5408-.3212,1.0816-.3212.5409-.4682,1.0819-.4682.5411.328,1.0822.328.5409-.2678,1.0818-.2678.5412.1149,1.0823.1149.541.0491,1.082.0491.5412.0659,1.0823.0659.541-.1716,1.0821-.1716.5413-.2875,1.0825-.2875.5411.003,1.0822.003.5412.4084,1.0825.4084.5413-.1113,1.0827-.1113.5412-.1169,1.0825-.1169.5412.189,1.0825.189.5413-.0383,1.0826-.0383.5415.0887,1.0829.0887.541.2482,1.0821.2482.5412-.0911,1.0825-.0911.5413-.1009,1.0826-.1009.5413.2828,1.0826.2828.5414-.7421,1.0828-.7421.5412.262,1.0823.262.5416.3647,1.0832.3647.6663-.6944,1.1885-.5494C216.4959,105.9673,216.614,106.7064,216.9879,106.3141Z" fill="url(#linear-gradient)"/><path d="M154.0136,65.09c-.5435,0-.5435.4775-1.087.4775s-.5434-.5621-1.0869-.5621-.5434.819-1.0869.819-.5435-.7531-1.087-.7531-.5435.0989-1.0869.0989-.5436.7245-1.0871.7245-.5432-1.016-1.0864-1.016-.543-.0536-1.0861-.0536-.5433.9373-1.0866.9373-.5435.3945-1.0869.3945-.5432-.4174-1.0864-.4174-.5433-.0446-1.0867-.0446-.5435.12-1.087.12-.5433-.0445-1.0866-.0445-.5435.3528-1.0871.3528-.5434-1.0807-1.0868-1.0807-.5435.382-1.087.382-.5435.6472-1.0869.6472-.5437-.8789-1.0873-.8789-.5435.8642-1.087.8642-.5436-.5045-1.0873-.5045-.5437-.5007-1.0874-.5007-.5437.7048-1.0873.7048-.5437.0652-1.0873.0652-.5438.05-1.0875.05-.5438.0992-1.0876.0992-.5434-.0759-1.0869-.0759-.5436-.725-1.0873-.725-.5437-.0529-1.0874-.0529-.5437.4325-1.0873.4325-.5439.11-1.0877.11-.5435-.0782-1.0871-.0782-.544.2366-1.088.2366-.5443-.887-1.0887-.887-.5444.6953-1.0888.6953c-.3629,0-.75.227-1.1066.2007-.3615-.0268-.7509-.0465-1.1045-.0994-.3581-.0535-.6892-.3562-1.0382-.4355-.3528-.08-.6815-.2776-1.0239-.3831-.3454-.1064-.6314-.3748-.9651-.5059-.3361-.132-.8129.0455-1.1361-.1105-.325-.1567-.6577-.3383-.9685-.5182s-.3992-.7241-.6959-.9268-.4644-.5514-.7454-.7758-.66-.3076-.9241-.5524-.2268-.754-.4717-1.0178-1.1283.0333-1.353-.2481-.1317-.8086-.3349-1.1062-.1021-.7645-.2826-1.0765-.138-.6968-.2948-1.0217c-.1559-.3232-.3876-.5684-.52-.9045-.1311-.3337-1.294-.3117-1.4-.657-.1055-.3424.5873-.9149.5072-1.2676-.0794-.349.1875-.7358.134-1.0939-.0528-.3536-.9426-.6071-.9693-.9685-.0264-.3562.1809-.7382.1809-1.1011h-.0241c0-.3629.2586-.7122.2849-1.0683.0267-.3615-.2816-.7607-.2287-1.1143.0535-.3581-.0384-.7641.0409-1.1131.08-.3527,1.0008-.4751,1.1063-.8175.1064-.3454-.7122-1.0144-.5811-1.3481.132-.3361.6-.5525.7558-.8757.1568-.3249.9526-.2948,1.1325-.6056s.4223-.533.625-.83-.3135-1.11-.0891-1.3909.3412-.691.586-.9547.9345-.098,1.1983-.3429.1483-.9465.43-1.1712.68-.3362.9779-.5394,1.0066.2614,1.3186.0808.4-.7415.7248-.8983c.3232-.1559.7024-.1705,1.0385-.3025.3337-.1311.65-.2859.9953-.3923.3424-.1054.7151-.0493,1.0678-.13.3489-.0793.6628-.2774,1.0209-.3309.3536-.0528.7317.3149,1.0932.2882.3562-.0264.6762-.9054,1.0391-.9054.5435,0,.5435.7465,1.087.7465s.5435.0336,1.0869.0336.5434-.4993,1.0869-.4993.5435-.0289,1.087-.0289.5435-.5444,1.0869-.5444.5436.0139,1.0872.0139.5431-.0211,1.0863-.0211.5431,1.2152,1.0861,1.2152.5433-.0461,1.0866-.0461.5435-.5136,1.087-.5136.5431.0555,1.0863.0555.5434-.5078,1.0867-.5078.5435,1.0779,1.087,1.0779.5433-.129,1.0866-.129.5435-.0754,1.0871-.0754.5434-1.0338,1.0868-1.0338.5435.5664,1.087.5664.5435-.4273,1.087-.4273.5436.1127,1.0872.1127.5435-.0793,1.087-.0793.5436.2757,1.0873.2757.5437.0323,1.0874.0323.5437.718,1.0873.718.5437-.1005,1.0873-.1005.5438-1.0162,1.0875-1.0162.5438-.009,1.0876-.009.5434,1.0381,1.0869,1.0381.5437-.4589,1.0873-.4589.5437.3875,1.0874.3875.5437-.4462,1.0874-.4462.5438.42,1.0876.42.5435-.1076,1.0871-.1076.544-.3459,1.088-.3459.5444-.5054,1.0887-.5054.5444,1.1692,1.0888,1.1692c.3629,0,.72-.5885,1.0761-.5622.3615.0267.6837.2862,1.0373.3391.3582.0535.696.1031,1.045.1825.3527.08.79-.18,1.1324-.0742.3454.1064.6563.3236.99.4547.3361.132.6137.3877.9369.5436.3249.1568.5051.548.816.7279s.7252.1649,1.0219.3676.2826.7828.5635,1.0071.8481.0768,1.1117.3215.9718.0658,1.2167.33.1542.8441.3789,1.1255.057.8358.26,1.1333.8086.3264.9891.6385.7558.44.9126.7645c.1559.3232.04.7985.1721,1.1345.131.3337.0642.7495.1706,1.0948.1054.3424.478.63.5582.9823.0793.3489-.1454.7708-.0919,1.1289.0528.3536-.5706.7622-.5439,1.1237.0263.3561.8269.6686.8269,1.0315h.42c0,.3629-.7788.7081-.8051,1.0642-.0268.3615.2671.7543.2143,1.1079-.0536.3581-.4468.6483-.5261.9973-.08.3527-.2109.6736-.3164,1.016-.1064.3453-.1083.7118-.2394,1.0456-.132.336.2221.8964.0662,1.22-.1568.325-1.2817.1271-1.4615.4379s-.2651.6307-.4677.9274-.2015.7062-.4259.9872-.0947.8611-.34,1.1248-1.0456-.0522-1.3094.1927-.2771.73-.5586.9545-.0732,1.1309-.3708,1.3342-1.1063-.3909-1.4183-.21-.3778.809-.7027.9657c-.3232.1559-.7465.0985-1.0825.2305-.3337.1311-.6384.3522-.9837.4585-.3423.1055-.5888.665-.9415.7452-.349.0793-.8672-.6808-1.2253-.6272-.3536.0528-.7129-.2372-1.0744-.21C154.69,64.8432,154.3765,65.09,154.0136,65.09Z" fill="#513e4f"/><path d="M117.9148,48.951a2.9953,2.9953,0,0,1-.3678,1.12,2.8482,2.8482,0,0,1-.6389.9453,3.0942,3.0942,0,0,1-.88.7959,3.1507,3.1507,0,0,1-1.1852.1753,3.05,3.05,0,0,1-1.16-.236,3.0041,3.0041,0,0,1-.9384-.7022,3.0934,3.0934,0,0,1-.7581-.9152,3.138,3.138,0,0,1-.1106-1.1833,2.316,2.316,0,0,1,.8626-2.1046,2.4994,2.4994,0,0,1,2.1046-.8689,3.1108,3.1108,0,0,1,1.1785.1285,3.1593,3.1593,0,0,1,1.001.6656,3.0974,3.0974,0,0,1,.5291,1.0575A2.9976,2.9976,0,0,1,117.9148,48.951Z" fill="#fff"/><path d="M158.1127,48.35a2.8213,2.8213,0,0,1-2.9784,3.0437,2.9992,2.9992,0,0,1-1.1417-.2873,2.9282,2.9282,0,0,1-.9409-.6739,2.9882,2.9882,0,0,1-.7187-.9222,2.9251,2.9251,0,0,1,.66-3.3016,3,3,0,0,1,1.0158-.5759,2.9194,2.9194,0,0,1,1.1254-.2876,2.9815,2.9815,0,0,1,1.1466.2367,2.9272,2.9272,0,0,1,.9187.7028,3.0289,3.0289,0,0,1,.7633.8936A3.0759,3.0759,0,0,1,158.1127,48.35Z" fill="#fff"/><g opacity="0.5"><path d="M139.5489,52.6568c-.57,0-.57.1366-1.14.1366s-.57-.1277-1.14-.1277-.57.0408-1.14.0408-.57.043-1.14.043-.57.054-1.14.054-.57.11-1.14.11-.57-.0981-1.1408-.0981-.57-.0342-1.1408-.0342a3.5577,3.5577,0,0,1-1.0361.01c-.3235-.1051-.5188-.4817-.7881-.6777-.272-.1979-.68-.2753-.8784-.5474a3.4393,3.4393,0,0,1-.3454-.9732,3.2433,3.2433,0,0,1-.2166-.99h.1461a3.2579,3.2579,0,0,1,.0449-.9987,3.1675,3.1675,0,0,1,.5563-.83c.198-.272.3091-.6382.5811-.8361a3.3354,3.3354,0,0,1,.9409-.3982,3.2538,3.2538,0,0,1,.9953-.02c.57,0,.57-.0118,1.14-.0118s.57-.1068,1.14-.1068.57-.0326,1.14-.0326.57.0141,1.14.0141.57-.071,1.14-.071.57.0579,1.14.0579.57-.046,1.1408-.046.57-.0662,1.1408-.0662a3.37,3.37,0,0,1,1.0007.266,2.4147,2.4147,0,0,1,1.5449,1.23c.196.2693.5268.4933.6319.8169a3.4768,3.4768,0,0,1,.0522,1.0324h-.0534a3.1758,3.1758,0,0,1-.1352.9882,3.4847,3.4847,0,0,1-.3268.984,3.476,3.476,0,0,1-.7879.6793,3.347,3.347,0,0,1-.911.4735C140.2521,52.8289,139.8949,52.6568,139.5489,52.6568Z" fill="#fff"/></g><rect x="131.2801" y="50.0536" width="2.0547" height="4.1595" rx="1.0273" ry="1.0273" fill="#513e4f"/><rect x="136.6423" y="50.0536" width="2.0547" height="4.1595" rx="1.0273" ry="1.0273" fill="#513e4f"/><path d="M92.9854,174.0922c-.5567,0-.5567-.1081-1.1135-.1081s-.5568.1167-1.1137.1167-.5567-.1-1.1135-.1-.5569-.5152-1.1138-.5152-.5567-.0216-1.1135-.0216-.5564.1544-1.1127.1544-.5566.2937-1.1132.2937-.5568-.2045-1.1136-.2045-.5565.3294-1.113.3294-.5566-.0373-1.1132-.0373-.5568-.5023-1.1137-.5023-.5566.3545-1.1132.3545-.5568-.0357-1.1137-.0357-.5567.4227-1.1134.4227-.5568-.5651-1.1136-.5651-.5568.2688-1.1136.2688-.5569.064-1.1139.064-.5567.0739-1.1135.0739-.557-.4091-1.114-.4091-.557.0519-1.114.0519-.557.3569-1.114.3569-.5569-.1459-1.1139-.1459-.557.1883-1.1141.1883-.5571-.6-1.1142-.6-.5568.2218-1.1135.2218-.557.359-1.114.359-.557-.45-1.114-.45-.557.176-1.114.176-.5571.3-1.1142.3-.5574-.6741-1.1147-.6741-.5572.3456-1.1143.3456-.5576.1146-1.1151.1146-.5576-.4212-1.1151-.4212c-.3951,0-.7478.2352-1.0668.0506a2.07,2.07,0,0,1-.7391-.8054c-.1846-.3191-.0276-.6474-.0276-1.0425h-.176a6.365,6.365,0,0,1-.0749-1.0519,6.6129,6.6129,0,0,1,.1039-1.0815,6.36,6.36,0,0,1,.5881-.9111,6.133,6.133,0,0,1,.6151-.8641c.2265-.27.286-.7539.5557-.98s.97.1687,1.2755-.0082c.3029-.1753.4258-.6627.759-.784.3274-.1192.6225-.4648.9734-.5262.3413-.06.736.5427,1.0944.5427.5475,0,.5475-.5824,1.095-.5824s.5474.3534,1.0948.3534.5476.0829,1.0951.0829.5472-.4436,1.0943-.4436.547-.0434,1.0941-.0434.5472.4212,1.0945.4212.5474.2281,1.0949.2281.5471-.8019,1.0943-.8019.5473.03,1.0946.03.5475.3568,1.095.3568.5472.1649,1.0945.1649.5475-.3677,1.095-.3677.5474.2,1.0948.2.5475.0687,1.095.0687.5474.3423,1.0948.3423.5476-.6142,1.0952-.6142.5475.1808,1.095.1808.5476.04,1.0952.04.5477.1179,1.0954.1179.5476.1466,1.0953.1466.5476-.5154,1.0952-.5154.5477,0,1.0954,0,.5478.0118,1.0956.0118.5474-.0552,1.0948-.0552.5477.075,1.0953.075.5477.5074,1.0953.5074.5477-.3473,1.0953-.3473.5478-.024,1.0956-.024.5475.4523,1.095.4523.548-.2669,1.096-.2669.5484-.2639,1.0967-.2639.73-.25,1.1341.1206c.371.341-.1524.5446-.1524,1.0484s.063.5041.063,1.0081.12.5037.12,1.0074-.0062.5042-.0062,1.0084-.0968.5045-.0968,1.009-.3089.5046-.3089,1.0091a1.6973,1.6973,0,0,1-.14.9727,1.9382,1.9382,0,0,1-.6412.8357C93.71,173.69,93.3806,174.0922,92.9854,174.0922Z" fill="#513e4f"/><path d="M210.0844,135.7432c0,.5568-.1389.5568-.1389,1.1135s.4241.5569.4241,1.1137-.5581.5568-.5581,1.1135.3567.5569.3567,1.1138-.0876.5568-.0876,1.1136.4472.5564.4472,1.1127-.0809.5566-.0809,1.1132-.2289.5568-.2289,1.1136-.4668.5565-.4668,1.113.7981.5566.7981,1.1132-.1509.5569-.1509,1.1137-.5358.5566-.5358,1.1132.48.5568.48,1.1137-.2134.5567-.2134,1.1134-.3.5568-.3,1.1136.0468.5568.0468,1.1136.0541.5569.0541,1.1139.0483.5568.0483,1.1136.1263.5569.1263,1.1139.3452.557.3452,1.1141.0413.557.0413,1.1139-.6731.557-.6731,1.114.1412.557.1412,1.114-.0185.5572-.0185,1.1143.568.5567.568,1.1135-.1029.557-.1029,1.114-.5264.5569-.5264,1.1139.6131.557.6131,1.114-.27.5572-.27,1.1143-.4614.5574-.4614,1.1147.4782.5572.4782,1.1143-.0267.5576-.0267,1.1151.1238.5576.1238,1.1151a2.7238,2.7238,0,0,1-.2063,1.2359A2.2853,2.2853,0,0,1,207.99,175v-.4237a5.9552,5.9552,0,0,1-1.045-.07c-.3528-.0621-.6117-.3478-.9412-.4682a5.6411,5.6411,0,0,1-.9413-.3874,5.9067,5.9067,0,0,1-.8869-.526c-.2719-.2265-.345-.596-.5758-.8654s-.5974-.3889-.7809-.6934a6.38,6.38,0,0,1-.5946-.8775,6.4938,6.4938,0,0,1-.1917-1.0415c-.073-.3418-.6359-.6656-.6523-1.0246-.0061-.5475.081-.5521.081-1.1s.4629-.5474.4629-1.0948-.3266-.5476-.3266-1.0951.3264-.5471.3264-1.0943.2249-.547.2249-1.0941-.1485-.5472-.1485-1.0945-.5379-.5474-.5379-1.0949.12-.5471.12-1.0943.2547-.5473.2547-1.0946-.456-.5475-.456-1.095.749-.5473.749-1.0945-.2321-.5475-.2321-1.0951-.5026-.5473-.5026-1.0947.4433-.5475.4433-1.095.065-.5474.065-1.0949-.358-.5476-.358-1.0952.2434-.5474.2434-1.0949.2145-.5476.2145-1.0952.192-.5477.192-1.0954-.7407-.5477-.7407-1.0953.0624-.5476.0624-1.0953.43-.5477.43-1.0954-.0345-.5477-.0345-1.0955.0032-.5474.0032-1.0948-.4376-.5477-.4376-1.0953.5754-.5477.5754-1.0954-.43-.5476-.43-1.0953.2977-.5478.2977-1.0956-.1964-.5475-.1964-1.095.3775-.548.3775-1.096-.3465-.5483-.3465-1.0967-.5285-.8709-.1525-1.27c.3542-.376.7006.4877,1.2172.4877s.5167-.1158,1.0334-.1158.5164-.3012,1.0329-.3012.5169.2352,1.0337.2352.5173-.0092,1.0345-.0092.5172-.1444,1.0345-.1444c.3951,0,.633.3557.9521.54.3291.19.39.436.5806.7652C209.7075,135.1778,210.0844,135.3481,210.0844,135.7432Z" fill="#513e4f"/><g opacity="0.51"><path d="M146.5886,142.6045c-.3951.3918-.0863-.18-.6428-.18s-.5565,1.3164-1.1131,1.3164-.5565-.8558-1.113-.8558-.5565.2787-1.113.2787-.5566-.3547-1.1131-.3547-.5565.6723-1.113.6723-.5567-.8321-1.1133-.8321-.5565.3645-1.113.3645-.5561.46-1.1123.46-.5563-.9657-1.1126-.9657-.5566,1.0357-1.1131,1.0357-.5562-.8894-1.1124-.8894-.5564.1352-1.1128.1352-.5565-.1056-1.1131-.1056-.5564.0181-1.1127.0181-.5566.6351-1.1132.6351-.5564-.0812-1.1129-.0812-.5565.4123-1.1131.4123-.5565-1.1965-1.113-1.1965-.5567.2035-1.1134.2035-.5565.341-1.1131.341-.5567.6182-1.1134.6182-.5568-.5445-1.1135-.5445-.5567-.6094-1.1134-.6094-.5568.6693-1.1135.6693-.5567-.4593-1.1135-.4593-.5569,1.0485-1.1137,1.0485-.5565-.3468-1.113-.3468-.5568-.0893-1.1135-.0893-.5567-.3318-1.1134-.3318-.5568-.5565-1.1135-.5565-.5569,1.1167-1.1138,1.1167-.5571-.13-1.1141-.13-.5569-.6546-1.1138-.6546-.5573.4988-1.1146.4988-.6014.1063-.9977-.2855c-.3918-.3872.07-.4326.07-.9834s.0883-.5507.0883-1.1014-.0137-.5506-.0137-1.1012.2916-.5508.2916-1.1015-.5848-.5508-.5848-1.1016-.4377-.5506-.4377-1.1013.3-.5508.3-1.1015.7327-.5508.7327-1.1016-.3684-.5507-.3684-1.1014-.1212-.5508-.1212-1.1016-.341-.5507-.341-1.1015.139-.5507.139-1.1015-.5446-.5508-.5446-1.1017,1.2653-.5507,1.2653-1.1014-.9637-.5509-.9637-1.1018.8354-.55.8354-1.101-.1513-.55-.1513-1.1007-.3492-.5506-.3492-1.1012-.4926-.5508-.4926-1.1016-.02-.55-.02-1.101.8718-.5506.8718-1.1012.0638-.5508.0638-1.1017-1.0327-.5506-1.0327-1.1012.7971-.5508.7971-1.1017-.2484-.5507-.2484-1.1014.1167-.5508.1167-1.1016.1945-.5508.1945-1.1016-.2859-.5509-.2859-1.1019.3856-.5508.3856-1.1016-.9588-.5509-.9588-1.1019.0856-.551.0856-1.1021.8165-.5509.8165-1.1019.0511-.5509.0511-1.1019.0767-.551.0767-1.1021.0161-.5511.0161-1.1022-.1983-.5508-.1983-1.1015.0264-.551.0264-1.102-.3674-.551-.3674-1.102.4067-.551.4067-1.102-.3617-.5511-.3617-1.1022.4976-.5509.4976-1.1017-.1874-.5513-.1874-1.1027-.78-.5517-.78-1.1034.1021-.5517.1021-1.1034c0-.37.8418-.7166.8627-1.0815.0212-.3693.011-.7191.053-1.0824.0425-.3672-.62-.8369-.5565-1.1974.0638-.3639.6056-.6374.69-.9939.0848-.3593-.4813-.9073-.3763-1.2584.1057-.3535,1.2738-.3573,1.3992-.7019.1262-.3465-.1092-.8167.0363-1.1534.1461-.3384-.2455-.94-.0805-1.2678s.2827-.72.4666-1.0376.8836-.339,1.0857-.6457.42-.604.6395-.8985.5044-.5358.7407-.8172.5011-.5312.7535-.7986.4063-.6305.6738-.8829.1636-.9507.4453-1.1873,1.1608.2672,1.4558.0472.0368-1.2457.3442-1.4482.7258-.29,1.0446-.4743,1.1384.5607,1.4675.3951.6427-.2867.981-.4329c.3368-.1454.242-1.388.5885-1.5141.3444-.1254.9862.6052,1.34.5.351-.1049.6078-.5543.9671-.6392.3564-.0841.7073-.2523,1.0712-.316.36-.0631.7573.06,1.1245.0174.3633-.042.7184-.3077,1.0877-.3289.365-.0209.7481-.0761,1.1183-.0761.5389,0,.5389-.127,1.0777-.127s.5389.699,1.0778.699c.37,0,.7307-.1234,1.0956-.1024.3693.0211.6959.3347,1.0592.3767.3672.0425.7616-.2157,1.122-.1526.3639.0637.83-.333,1.1861-.2488.3593.0848.7267.2187,1.0778.3237.3535.1057.4568.9573.8013,1.0827.3465.1261,1.06-.6616,1.3969-.5161.3384.1461.611.4968.9388.6617s.311.9743.6288,1.1582.6273.3474.9339.5495,1.0016-.145,1.2962.0747.3328.7786.6143,1.015.54.4935.8076.7458.1848.83.4372,1.0974,1.1055-.01,1.3421.2715.265.7387.485,1.0337.2178.7372.42,1.0446.18.7282.3642,1.047,1.207.1831,1.3726.5122-.1294.8863.0167,1.2246c.1455.3368.61.5576.7365.9041.1254.3444-.0517.8014.054,1.1548.1049.3511.5195.6321.6043.9913.0842.3564-.7216.8914-.6578,1.2553.0631.36,1.1821.5688,1.2246.9359.042.3634-1.007.8224-.9858,1.1917.021.3649.2155.7007.2155,1.0708,0,.5509.4787.5509.4787,1.1017s-.0688.5507-.0688,1.1014-.46.5506-.46,1.1013.1739.5507.1739,1.1015.6848.5507.6848,1.1015-.1674.5507-.1674,1.1013.0819.5508.0819,1.1015-.846.5508-.846,1.1016.2452.5507.2452,1.1014.7219.5508.7219,1.1016-.5378.5508-.5378,1.1015.4288.5508.4288,1.1015-.1264.5508-.1264,1.1017.331.5507.331,1.1015-.59.5509-.59,1.1017-.4024.55-.4024,1.101.938.55.938,1.1007-.5845.5506-.5845,1.1012.4172.5508.4172,1.1016-.63.55-.63,1.101.7322.5506.7322,1.1012-.8656.5509-.8656,1.1017-.1773.5506-.1773,1.1012,1.27.5508,1.27,1.1017-.7577.5507-.7577,1.1014-.1457.5508-.1457,1.1016.644.5508.644,1.1016-.3021.5509-.3021,1.1019.3815.5508.3815,1.1016-.1422.5509-.1422,1.1019-.7255.551-.7255,1.1021-.2579.5509-.2579,1.1019.1065.551.1065,1.1019.5322.5511.5322,1.1021-.2307.5511-.2307,1.1022.5962.5508.5962,1.1015-.3149.551-.3149,1.102.3363.551.3363,1.102-.0774.551-.0774,1.102-.3017.5511-.3017,1.1023.1145.5508.1145,1.1016.3057.5514.3057,1.1027-.4222.5515-.4543,1.1023C147.0166,142.3688,146.98,142.2161,146.5886,142.6045Z" fill="#dbdbc1"/></g><path d="M149.8479,60.78c-.55,0-.55-.0577-1.1-.0577s-.55-.4644-1.1-.4644-.55.34-1.1.34-.55-.2921-1.1-.2921-.55.117-1.1005.117-.55.1926-1.1.1926-.55.2113-1.1005.2113-.55.1621-1.1.1621-.55-.6923-1.1-.6923-.55.5251-1.1.5251-.55-.2166-1.1006-.2166-.55.3336-1.1.3336-.55-.3226-1.1006-.3226-.55-.2363-1.1009-.2363-.55.043-1.1006.043-.55.5013-1.1007.5013-.55-.6322-1.1009-.6322-.55.32-1.1009.32-.55.31-1.1.31-.55-.2845-1.1007-.2845-.55-.4214-1.1008-.4214-.55-.0411-1.1007-.0411-.55.1634-1.1011.1634-.55.6008-1.1.6008-.5507-.7391-1.1014-.7391-.5511.5291-1.1021.5291-.5511.0027-1.1022.0027c-.3323,0-.4783-.495-.696-.7127a.7878.7878,0,0,1-.24-.696c0-.3323-.199-.7.0187-.9174s.5851-.0257.9174-.0257c.55,0,.55.0483,1.1.0483s.55.0884,1.1.0884.55-.0915,1.1-.0915.55-.141,1.1-.141.55-.5735,1.1-.5735.55.877,1.1.877.55-.587,1.1-.587.55.4815,1.1.4815.55-.3488,1.1-.3488.55-.1,1.1-.1.55.4017,1.1006.4017.55-.1885,1.1-.1885.55-.2442,1.1006-.2442.55-.0417,1.1009-.0417.55.4518,1.1006.4518.55-.4014,1.1007-.4014.55.2689,1.1008.2689.55.2414,1.101.2414.55-.3143,1.1-.3143.55-.0048,1.1007-.0048.55-.09,1.1008-.09.55.1531,1.1007.1531.55-.0152,1.101-.0152.55.3412,1.1005.3412.5507.0021,1.1014.0021.5511-.8635,1.1021-.8635.5511.1744,1.1022.1744c.3323,0,.5381.4447.7559.6624s-.0248.4236-.0248.7559.1105.4061-.1072.6239S150.18,60.78,149.8479,60.78Z" fill="#fff"/><path d="M144.8231,55.4616c-.2246.431-.2512.4171-.4758.8481s-.2036.4423-.4283.8736-.1944.4471-.4191.8783a1.2449,1.2449,0,0,0-.0079,1.2627,1.2851,1.2851,0,0,0,1.1234.6277c.674,0,.674.052,1.348.052s.6741-.1,1.3481-.1a1.2515,1.2515,0,0,0,1.1269-.5772,1.3209,1.3209,0,0,0,.0663-1.3053c-.2245-.431-.2339-.4261-.4585-.8571s-.2973-.3934-.522-.8247-.189-.45-.4138-.8812a1.2359,1.2359,0,0,0-.6876-.6088,1.34,1.34,0,0,0-.9392-.0546A1.3042,1.3042,0,0,0,144.8231,55.4616Z" fill="#fff"/><g opacity="0.33"><path d="M115.2073,56.8918a3.6356,3.6356,0,0,1-.2993.9675,3.3272,3.3272,0,0,1-.4752.8417c-.1792.31-.1094.7133-.3608.9647a3.7784,3.7784,0,0,1-.8873.4942c-.3054.1766-.381.9562-.73,1.0494-.3371.09-.7912-.4305-1.1567-.4305a3.6,3.6,0,0,1-.9594-.3077,3.3523,3.3523,0,0,1-.8974-.3624,3.5184,3.5184,0,0,1-.8288-.5313c-.2514-.2514-.6792-.33-.8584-.6395-.1767-.3053-.0822-.7-.1754-1.0492a3.74,3.74,0,0,1,.0356-.9969c0-.3655-.6306-.7947-.5405-1.1317a4.5622,4.5622,0,0,1,.54-.9957c.1792-.31.6572-.3972.9085-.6486a3.7754,3.7754,0,0,1,2.776-1.2337,4.0862,4.0862,0,0,1,1.0562.0683c.3487.0932.7991.0227,1.1045.1994a4.72,4.72,0,0,1,.9549.6265c.2514.2513-.002.9051.1772,1.2148a3.51,3.51,0,0,1,.3639.9206A3.6368,3.6368,0,0,1,115.2073,56.8918Z" fill="#ff5f2e"/></g><g opacity="0.33"><path d="M162.5634,56.8918c0,.3655.4024.7874.3123,1.1245-.0932.3488-.874.3862-1.0507.6915-.1792.31.03.8578-.2212,1.1092s-.7824.0712-1.0922.25c-.3053.1767-.3912.81-.74.9033-.337.09-.7274-.4656-1.0929-.4656s-.6858.2939-1.0229.2038c-.3488-.0932-.5052-.4639-.8106-.6405a3.38,3.38,0,0,1-.7941-.549c-.2513-.2514-.6366-.33-.8158-.64a3.8777,3.8777,0,0,1-.43-.95,3.9415,3.9415,0,0,1-.1274-1.038c0-.3655.2428-.6459.3329-.983.0932-.3488.0227-.714.1994-1.0194.1792-.31.1312-.8321.3826-1.0835a4.9053,4.9053,0,0,1,.8369-.8087c.3053-.1767.9537.457,1.3025.3638.3371-.09.5809-.7265.9464-.7265a4.45,4.45,0,0,1,1.103.1408,4.6948,4.6948,0,0,1,1.0942.3114c.31.1792.51.5954.7613.8467s.2269.7064.4061,1.0161c.1767.3054.51.53.6029.8792C162.7363,56.1658,162.5634,56.5263,162.5634,56.8918Z" fill="#ff5f2e"/></g><g opacity="0.6"><path d="M156.1385,86.58a1.8045,1.8045,0,0,1-1.8047-1.8047V81.7675a1.8047,1.8047,0,1,1,3.6094,0v3.0078A1.8045,1.8045,0,0,1,156.1385,86.58Z" fill="#fff" opacity="0.5"/><path d="M168.1668,86.58a1.8045,1.8045,0,0,1-1.8047-1.8047V81.7675a1.8047,1.8047,0,1,1,3.6094,0v3.0078A1.8045,1.8045,0,0,1,168.1668,86.58Z" fill="#fff" opacity="0.5"/><path d="M162.1541,93.7958a1.8044,1.8044,0,0,1-1.8047-1.8046V88.9834a1.8047,1.8047,0,1,1,3.6094,0v3.0078A1.8045,1.8045,0,0,1,162.1541,93.7958Z" fill="#fff" opacity="0.5"/><path d="M197.6261,95.0878a1.8045,1.8045,0,0,1-1.8047-1.8047V90.2753a1.8047,1.8047,0,0,1,3.6094,0v3.0078A1.8046,1.8046,0,0,1,197.6261,95.0878Z" fill="#fff" opacity="0.5"/><path d="M209.6544,95.0878a1.8045,1.8045,0,0,1-1.8047-1.8047V90.2753a1.8047,1.8047,0,0,1,3.6094,0v3.0078A1.8045,1.8045,0,0,1,209.6544,95.0878Z" fill="#fff" opacity="0.5"/><path d="M203.6388,102.3036a1.8045,1.8045,0,0,1-1.8047-1.8047V97.4911a1.8047,1.8047,0,0,1,3.6094,0v3.0078A1.8045,1.8045,0,0,1,203.6388,102.3036Z" fill="#fff" opacity="0.5"/><path d="M96.521,75.6774a1.8045,1.8045,0,0,1-1.8047-1.8047V70.8678a1.8047,1.8047,0,0,1,3.6094,0v3.0049A1.8045,1.8045,0,0,1,96.521,75.6774Z" fill="#fff" opacity="0.5"/><path d="M108.5493,75.6774a1.8044,1.8044,0,0,1-1.8046-1.8047V70.8678a1.8047,1.8047,0,1,1,3.6093,0v3.0049A1.8045,1.8045,0,0,1,108.5493,75.6774Z" fill="#fff" opacity="0.5"/><path d="M102.5337,82.8933a1.8044,1.8044,0,0,1-1.8046-1.8047V78.0837a1.8047,1.8047,0,1,1,3.6093,0v3.0049A1.8045,1.8045,0,0,1,102.5337,82.8933Z" fill="#fff" opacity="0.5"/><path d="M156.1385,134.6274a1.8044,1.8044,0,0,1-1.8047-1.8046V129.815a1.8047,1.8047,0,1,1,3.6094,0v3.0078A1.8045,1.8045,0,0,1,156.1385,134.6274Z" fill="#fff" opacity="0.5"/><path d="M168.1668,134.6274a1.8044,1.8044,0,0,1-1.8047-1.8046V129.815a1.8047,1.8047,0,1,1,3.6094,0v3.0078A1.8044,1.8044,0,0,1,168.1668,134.6274Z" fill="#fff" opacity="0.5"/><path d="M162.1541,141.8433a1.8045,1.8045,0,0,1-1.8047-1.8047v-3.0078a1.8047,1.8047,0,1,1,3.6094,0v3.0078A1.8045,1.8045,0,0,1,162.1541,141.8433Z" fill="#fff" opacity="0.5"/><path d="M66.0391,153.27a1.8045,1.8045,0,0,1-1.8047-1.8047v-3.0078a1.8047,1.8047,0,0,1,3.6094,0v3.0078A1.8045,1.8045,0,0,1,66.0391,153.27Z" fill="#fff" opacity="0.5"/><path d="M78.0646,153.27a1.8045,1.8045,0,0,1-1.8047-1.8047v-3.0078a1.8047,1.8047,0,0,1,3.6094,0v3.0078A1.8045,1.8045,0,0,1,78.0646,153.27Z" fill="#fff" opacity="0.5"/><path d="M72.0518,160.4859a1.8044,1.8044,0,0,1-1.8046-1.8047v-3.0078a1.8047,1.8047,0,0,1,3.6093,0v3.0078A1.8045,1.8045,0,0,1,72.0518,160.4859Z" fill="#fff" opacity="0.5"/><path d="M61.5274,61.6238a1.8045,1.8045,0,0,1-1.8047-1.8047V56.8113a1.8047,1.8047,0,0,1,3.6094,0v3.0078A1.8045,1.8045,0,0,1,61.5274,61.6238Z" fill="#fff" opacity="0.5"/><path d="M73.5557,61.6238a1.8044,1.8044,0,0,1-1.8046-1.8047V56.8113a1.8047,1.8047,0,0,1,3.6093,0v3.0078A1.8045,1.8045,0,0,1,73.5557,61.6238Z" fill="#fff" opacity="0.5"/><path d="M67.543,68.84a1.8045,1.8045,0,0,1-1.8047-1.8047V64.0272a1.8047,1.8047,0,0,1,3.6094,0V67.035A1.8045,1.8045,0,0,1,67.543,68.84Z" fill="#fff" opacity="0.5"/><path d="M186.5058,163.1872H183.498a1.8047,1.8047,0,1,1,0-3.6093h3.0078a1.8047,1.8047,0,1,1,0,3.6093Z" fill="#fff" opacity="0.5"/><path d="M186.5087,151.1646h-3.0078a1.8047,1.8047,0,1,1,0-3.6093h3.0078a1.8047,1.8047,0,0,1,0,3.6093Z" fill="#fff" opacity="0.5"/><path d="M193.7217,157.1773h-3.005a1.8047,1.8047,0,1,1,0-3.6093h3.005a1.8047,1.8047,0,0,1,0,3.6093Z" fill="#fff" opacity="0.5"/></g></svg>