<svg id="Layer_1" data-name="Layer 1" xmlns="http://www.w3.org/2000/svg" xmlns:xlink="http://www.w3.org/1999/xlink" width="3.6759in" height="2.8056in" viewBox="0 0 264.6667 202"><defs><linearGradient id="linear-gradient" x1="35.9848" y1="25.6283" x2="37.9848" y2="111.6283" gradientUnits="userSpaceOnUse"><stop offset="0" stop-color="#bfdfca"/><stop offset="0.9962" stop-color="#a1c2b6"/></linearGradient><linearGradient id="linear-gradient-2" x1="130.9867" y1="75" x2="130.9867" y2="101" xlink:href="#linear-gradient"/><linearGradient id="linear-gradient-3" x1="218.5649" y1="58.3384" x2="228.5649" y2="127.3384" xlink:href="#linear-gradient"/></defs><title>cactusArtboard 3 copy 2</title><path d="M84.0854,83.9555c-.104-.1594-.1605.1283,0,0Z" fill="#e1efe9"/><path d="M166.3334,78.8078c.0321.0149.0487-.0182.0805-.0178.07-.8553.1348-1.5942.195-2.156Z" fill="#e1efe9"/><path d="M179.4761,84.3317c.0295.0946.05.145.0774.231C179.5537,84.0486,179.5768,83.5355,179.4761,84.3317Z" fill="#e1efe9"/><path d="M135.7722,86.3786c-.1142-.0529-.18.1376-.23.4147A.9819.9819,0,0,1,135.7722,86.3786Z" fill="#e1efe9"/><path d="M59.8051,88.189s.0338-.04.0587-.0746c-.0442-.1718-.09-.2958-.135-.519Z" fill="#e1efe9"/><path d="M60.0908,86.7282a1.4042,1.4042,0,0,1-.227,1.3862c.3058,1.1687.6268,1.2617.96.7324C60.84,87.5237,60.2215,87.7147,60.0908,86.7282Z" fill="#e1efe9"/><path d="M15.8222,91.2519l.1393-.532A3.1822,3.1822,0,0,0,15.8222,91.2519Z" fill="#e1efe9"/><path d="M136.1826,151.2771c-.0667.1193-.1412.1779-.203.311C136.0823,151.6272,136.1406,151.4794,136.1826,151.2771Z" fill="#e1efe9"/><path d="M22.7388,92.6625l.1046-2.0951C22.7643,91.4379,22.74,92.0939,22.7388,92.6625Z" fill="#e1efe9"/><path d="M166.6089,76.634l.107-.8167C166.6806,76.004,166.6462,76.2942,166.6089,76.634Z" fill="#e1efe9"/><path d="M191.6677,85.8561c-.0042.6429.0165,1.1562.0432,1.5958a.0431.0431,0,0,1,.0344.0159Z" fill="#e1efe9"/><path d="M252.7611,120.043c-.0011-.26-.008-.5344-.0215-.8189l-.2661,1.488A1.326,1.326,0,0,0,252.7611,120.043Z" fill="#e1efe9"/><path d="M208.2935,95.1717c.018-.2421.0608-.4641.0671-.7286-.2767-.7051-1.03-.8713-1.9974-.8027l-.0942,2.5731Z" fill="#e1efe9"/><path d="M225.79,155.442l-1.7145-5.2038c5.7634-2.3032,8.3664,2.9229,13.3284-1.186l-.2869,1.1186c.6977,1.2083,1.26-10.4162,8.9536,3.8968l-.0071.5175c.275-.0852.2872-1.12.8152.2659l-1.32-3.1913c.8346-1.29,1.5826-3.7536,2.6762-4.09a8.5652,8.5652,0,0,1,.3,2.47l2.6828-.83.7729,3.3565c.8413-1.803.5658-8.8674,2.6961-4.9051-.7563-4.9094,1.1239-2.9228.8883-5.42.1019.6076.34,1.5151.53,2.3569,1.3062-.5508,3.7714-1.8905,4.4111-4.3974,0,0-4.9413-10.3833-6.2364-15.64,1.81,1.3554.49-.593.1524-2.2452l-.1383,1.2179c-1.0794-1.21-1.0371-4.3027-1.573-5.1679-.0034.2486.0091.55.02.8581l.0756-.4129a4.2532,4.2532,0,0,1-.0541,1.2318c.0043.6615-.0535,1.1814-.3492.9923l.0616-.3232c-.464.444-1.2474-.0518-1.5884-.2769l.0285-2.5833c-.8791,4.908-5.3558-7.5779-6.4438-7.7559-1.0507-3.2724-2.4651.7721-3.81-.8766-2.168-.8621-1.0387-3.7835-2.102-6.0265-1.3447-1.6383.2353,3.0155-.3152,3.1814l-1.5882-3.615c.9557-.2964.4607-1.8616.3-2.8622-1.4092-.4581-3.5761-5.2249-4.0821-.0785-1.8757-2.4938-1.8521-4.5588-2.6673-4.8246a10.1675,10.1675,0,0,1,.7846,2.8453c-.7337-2.2846-.3732.5563-.0672,1.0673-1.1974,2.2235-5.926-9.478-6.2486-3.8221l.0142-1.0325c-.3287,4.21.05,8.3081-.7959,10.6251l-.5178-1.89-.8434,1.8a6.2688,6.2688,0,0,1-.2378-3.01c-1.36,1.9276-3.189-.42-4.7965-1.0074l1.5537,11.5126c-1.3265-2.6721-3.7112-8.0927-4.0337-4.3982l-.7658-3.8734c-2.6314-7.407-1.9514,3.1757-3.0112.94l-1.3148-4.224,1.3645.092a31.2568,31.2568,0,0,1-2.9152-6.2875c0,.0419-.0129.0721-.0135.1128a1.7264,1.7264,0,0,1,.125.6289l-.1921.1c-.1942,2.0943-.9261,3.5223-1.8863,3.37-1.3581-.6089-2.4687,2.4759-4.5895-2.0056l-.6028,4.2927-1.6028-2.5847.0468-3.4226c1.6018.2269,4.6395-1.0352,6.7043-1.1812l.0578-1.5631c-1.2231-.0116-2.6351,1.485-3.4385,1.1334-.3847-.6882-1.3441-4.2634-.581-6.5618L201.6,89.9881c-4.0876.3276-4.1162.4912-8.3237-3.443l.3464,1.7241c-.8588.9977-1.7149,1.97-1.912-.8173-2.55-.6-5.1708-2.7937-6.7725-7.152l-.4188,4.0285c-.5371-.23-1.2637-6.3356-1.6039-.6928l-1.1786,1.7649c-.7341-.3184-1.218,1.98-2.027-.3475,0-.0053,0-.0022,0-.0022-.0017-.01-.0044-.01-.0044-.01-.05-.1441-.1021-.2972-.1522-.4777-.0017.1233.0015.2291.0046.3357-1.6466-1.8056-.0328,3.6159-1.9146,1.2676-.5748-2.8759-.749,5.1106-1.6689,4.1822l-.8571-5.7981c-1.6442-3.3431-2.0126,2.4551-4.4606,2.44-1.1473-2.0771-1.6478-7.0215-.8092-11.3936-1.143,5.291-.5345,3.4511-1.9891,5.9764a13.1323,13.1323,0,0,1,.31-4.6011c-1.2262-2.5731-.8051,1.96-1.7542,1.8178-.3324,4.1055-.74,10.6417-1.0528,10.9028l.3507,1.2875c-1.0368,2.1808-2.1506,3.19-3.2932,1.1122l.0723-2.0656-1.26,1.03-.0423-2.6437-1.79.7949.2341.716c-.4225.3436-1.8064,1.234-2.5716-.1563l.0486-1.467c-2.15-4.6094-4.0561,1.3651-6.6539,1.8133l.3812-2.9925c-.8419-2.99-.305,4.61-1.3366,3.1062l-.0022-3.6824c-.9923,4.8256-1.1832-1.0437-1.796-2.8823l.2323,4.8269-1.188-1.033c-1.3016-1.6173-.7288-6.1039-.5007-8.628l-.9531,3.7883-.1179-4.2589c-.7261,4.9434-.6474-.806-1.838,1.8354-.073-1.6116.2314-2.5313-.1514-3.2223L141.2,82.9491l1.184-2.6451-.2247,6.22c-1.26,4.7054-1.61-.7-2.4875,1.0239l.6134-1.8407c-1.4141,1.4911-1.4522-1.1569-2.22-2.5452.2281,1.1591.5775,2.8824.0021,3.6888-.4186.3372-.1946-2.19-.5766-2.8824-.15,4.1436-1.18,6.3254-2.0592,4.359a12.9458,12.9458,0,0,1,.1105-1.5343c-.24.6681-.3746,1.7344-.7635.7329l.3-4.6044-.8346,4.3753c-.499-1.2681-1.2983,2.0633-1.188-1.0446l.3062-.9189-3.8976-1.1651-.004-3.6858c-.4561,5.0654-2.1047-1.9571-2.0631,4.3755-.6909-3.461-2.9394,2.3993-2.4074-4.7347-2.5631-.5856-4.0458,6.2643-7.1232,2.748-1.03-6.0755-4.1067-4.1546-6.1035-4.8224-3.9554,2.48-6.52,4.7259-10.5539,6.6128-2.2943-8.49-6.0513,2.8294-8.5794-1.984l-.7562,3.35c-1.65-5.3721-4.3723,1.1359-6.72-4.1129a6.9038,6.9038,0,0,1-1.0693,2.04,7.9761,7.9761,0,0,1,.2889,2.9344c-.67-1.5076-2.0929.349-1.935-3.9091l.1815-.4355c.16-4.2594-2.1231,1.9622-2.8434-1.7385l.36,4.57L78.84,84.588l.3623-.8719c-5.821,10.0551-8.19-4.4622-13.6533,4.72.7757-4.97-1.0876,2.6014-1.0829-2.8422-1.2519-6.8655-2.5132,1.4436-3.6418,3.2532a6.4293,6.4293,0,0,1-.09.9988l-1.92-.6774c1.2462-6.8667-1.4669,5.6882-.3289-.1518-4.9589-5.2155-11.5934-.0622-17.383-2.5153l.2311,1.7739c-1.4719-.3588-3.3378,1.7645-4.4193-1.0786-1.0825-2.837-2.512,4.46-2.95,4.7355-1.27,3.0313-2.3037-3.0438-1.7808-2.7255-1.3247.8266-2.6452,7.0965-4.43,4.3736-.543-5.8432-5.0491,5.6576-5.0139-.9175l-.0274.5536c-2.27-4.6612-4.5791,3.1851-7.0349-1.0411,0,0,.0545-.4822.1457-.9231L10.435,111.13l1.1564,21.9731,4.1894,17.8879,12.0668-3.7013,9.4934,7.1022,23.3677-2.0381,1.7342-4.931c4.4669,8.7221,10.4834-1.1577,15.3391,5.0913l.1607-4.2624c1.3955-.234,1.2649,2.4066,1.599,3.1553,12.9678-.7676,26.3823-6.2657,37.9646-.731,1.0852,2.8341,4.5265,1.2222,5.3672,4.2147,3.8574-5.163,7.8675-5.0569,11.6508-4.4678l-.15.4672,1.7966-.7971a3.56,3.56,0,0,1,.0116,1.1844c2.0656-3.747,5.1874.03,7.6327,1.6l-.15.4629c14.3774.9723,27.8436-6.8028,42.032-.6574,6.5394,7.0465,14.3891-2.45,21.9219,3.449C208.958,160.3939,224.4015,157.4193,225.79,155.442Z" fill="#e1efe9"/><path d="M248.5337,150.04l-.06.02C248.4523,151.8542,248.55,151.1771,248.5337,150.04Z" fill="#e1efe9"/><path d="M217.3968,100.5215c.0344.0128.0673.0322.1.0472l-.3434-2.5393Z" fill="#e1efe9"/><path d="M237.7917,99.3161c-.9078-.5746-.9562-.1407-.8373.581C237.2839,100.0074,237.5756,99.8765,237.7917,99.3161Z" fill="#e1efe9"/><path d="M256.0594,146.7227c.4792.1487.31-.9239.0443-2.1245a8.0158,8.0158,0,0,1-.8362.3126C255.5314,145.3408,255.7882,146.2892,256.0594,146.7227Z" fill="#e1efe9"/><path d="M254.4308,122.316l.17-1.4536A1.7507,1.7507,0,0,0,254.4308,122.316Z" fill="#e1efe9"/><path d="M161.5943,181.9108c.08.1564.1128-.1327,0,0Z" fill="#e1efe9"/><path d="M102.0218,189.3051c-.0238-.0141-.0348.0194-.0579.02-.0264.8569-.0521,1.5971-.08,2.16Z" fill="#e1efe9"/><path d="M92.32,184.1429c-.0241-.0937-.04-.1435-.0628-.2287C92.2718,184.4281,92.27,184.9416,92.32,184.1429Z" fill="#e1efe9"/><path d="M123.9947,180.9019c.0844.05.1266-.1423.1548-.4207A1.1259,1.1259,0,0,1,123.9947,180.9019Z" fill="#e1efe9"/><path d="M179.1026,177.0153s-.0234.0411-.0405.0761c.037.1705.0739.2931.1129.5151Z" fill="#e1efe9"/><path d="M178.9371,178.4831a1.8279,1.8279,0,0,1,.125-1.3917c-.2557-1.16-.4914-1.2439-.7185-.7058C178.37,177.7085,178.8138,177.5006,178.9371,178.4831Z" fill="#e1efe9"/><path d="M210.9506,172.7511l-.0859.5356A4.1982,4.1982,0,0,0,210.9506,172.7511Z" fill="#e1efe9"/><path d="M121.8308,116.0444c.045-.1211.0975-.1816.1384-.3164C121.8936,115.6917,121.8554,115.841,121.8308,116.0444Z" fill="#e1efe9"/><path d="M205.8878,171.53l-.0157,2.097C205.9046,172.7549,205.9033,172.0986,205.8878,171.53Z" fill="#e1efe9"/><path d="M101.8843,191.4853l-.0543.8192C101.85,192.117,101.8669,191.826,101.8843,191.4853Z" fill="#e1efe9"/><path d="M83.4238,182.9527c-.0154-.6429-.0452-1.1552-.0772-1.5939a.0287.0287,0,0,1-.0254-.0149Z" fill="#e1efe9"/><path d="M38.0809,150.4519c.0082.26.0211.5339.0391.8179l.1505-1.4945A1.6122,1.6122,0,0,0,38.0809,150.4519Z" fill="#e1efe9"/><path d="M71.084,174.0959c-.0061.2425-.0308.4656-.0278.73.2212.6973.773.8426,1.4734.7477l-.0056-2.5744Z" fill="#e1efe9"/><path d="M56.6472,114.3316l1.3945,5.1546c-4.1186,2.46-6.1589-2.6929-9.6436,1.55l.1762-1.126c-.5414-1.1887-.6151,10.4459-6.6133-3.65l-.01-.5175c-.1973.0928-.1764,1.1273-.6-.2434l1.05,3.1538c-.5689,1.3118-1.0411,3.7951-1.8256,4.161a11.6008,11.6008,0,0,1-.2884-2.46l-1.9241.9028-.6578-3.3338c-.559,1.8251-.1558,8.8788-1.8166,4.9765.69,4.8865-.732,2.9523-.4892,5.4417-.0914-.6045-.29-1.505-.4525-2.3412a6.5764,6.5764,0,0,0-3.0765,4.5159s3.8864,10.2435,4.9779,15.4619c-1.3535-1.3052-.339.6063-.046,2.2483l.0654-1.221c.8185,1.18.8767,4.2724,1.2907,5.1226-.0047-.2486-.0225-.5493-.0393-.8573l-.043.4148a5.8233,5.8233,0,0,1,.0039-1.2327c-.0222-.6611.0048-1.1823.225-1.0015l-.0354.3249c.3241-.4566.9072.0175,1.1613.2333l.0535,2.583c.4973-4.93,4.1068,7.4278,4.9019,7.576.857,3.2422,1.7677-.839,2.7918.7722,1.599.8022.8629,3.7533,1.7,5.9661,1.0235,1.6009-.2576-3.0078.1374-3.1886l1.2571,3.57c-.6854.3224-.281,1.8733-.1356,2.8691,1.0364.4193,2.7469,5.1247,2.9662-.0332,1.4337,2.4414,1.4759,4.506,2.0754,4.75a13.2082,13.2082,0,0,1-.6514-2.8226c.5984,2.2635.255-.5661.018-1.0686.8055-2.2553,4.5754,9.3116,4.6471,3.6495l.0194,1.0324c.1176-4.2166-.2755-8.3028.2724-10.642l.43,1.8754.5607-1.8221a8.5326,8.5326,0,0,1,.2592,3.0025c.9322-1.9639,2.3276.3326,3.5117.8759l-1.4591-11.4649c1.04,2.6347,2.9273,7.9876,3.0553,4.2858l.6674,3.8508c2.1236,7.3317,1.3256-3.2277,2.1594-1.022l1.0761,4.186-.9933-.0545a37.344,37.344,0,0,1,2.2974,6.2049c-.0008-.042.0074-.0725.0066-.1132a2.29,2.29,0,0,1-.1089-.6252l.1367-.1049c.0807-2.0986.5711-3.546,1.2727-3.42,1.0037.5715,1.7214-2.5423,3.39,1.8792l.3143-4.3072,1.2382,2.54.0644,3.4224c-1.17-.1831-3.339,1.1615-4.8341,1.3639l.0029,1.5641c.8885-.022,1.8707-1.5565,2.4642-1.2269a15.0741,15.0741,0,0,1,.6105,6.5428l.4858-3.3595c2.9586-.4393,2.9747-.6036,6.1428,3.2137l-.301-1.7138c.5949-1.0207,1.1885-2.0158,1.4118.7647,1.869.53,3.8348,2.6509,5.1231,6.9636l.1883-4.0382c.3967.2152,1.1,6.2982,1.1845.6487l.805-1.7964c.5423.2981.8275-2.0121,1.4819.292,0,.0052,0,.0021,0,.0021.0016.01.0036.01.0036.01.04.1426.0826.2943.1242.4733-.0023-.1233-.0077-.2289-.0131-.3355,1.2476,1.76-.08-3.6151,1.3538-1.3194.5,2.8589.397-5.1286,1.0916-4.2258l.7891,5.7721c1.29,3.2966,1.3907-2.5091,3.1687-2.5614.8927,2.0448,1.3983,6.9732.9151,11.3663.6778-5.32.2888-3.4641,1.2724-6.0281a17.9673,17.9673,0,0,1-.0924,4.6075c.9643,2.5384.5282-1.9816,1.2215-1.8649.1233-4.1126.2315-10.657.451-10.9266l-.2917-1.2773c.69-2.2082,1.47-3.2475,2.3592-1.2017l.0069,2.0666.8854-1.0639.1067,2.6414,1.2769-.8436-.1906-.7092c.297-.3551,1.2762-1.2828,1.8718.0859l.0068,1.4676c1.6937,4.5486,2.9059-1.4754,4.7793-1.9945l-.1907,3.0017c.6973,2.9659.089-4.616.8812-3.1414l.1074,3.6806c.5818-4.85.8892,1.0109,1.3871,2.8319l-.3075-4.8183.8923,1c.9916,1.581.7046,6.0813.6116,8.6105l.5831-3.8127.2081,4.2538c.385-4.9611.4933.788,1.2818-1.885.0993,1.6089-.0953,2.5366.2026,3.2168l1.2694-6.0292-.7837,2.6761-.0157-6.2234c.78-4.7377,1.1892.6558,1.7768-1.0914l-.3925,1.8566c.984-1.5291,1.0878,1.1168,1.6849,2.4833-.1989-1.1523-.5021-2.8653-.1076-3.6871.2943-.3484.2043,2.1842.5016,2.8654-.01-4.1457.6747-6.3547,1.37-4.4132.003.5908,0,1.1595-.0362,1.5365.1553-.6743.2222-1.7438.5333-.7534l-.0854,4.61.48-4.396c.3988,1.2538.8834-2.0979.8927,1.0117l-.1959.9268,2.8635,1.058.1089,3.684c.1856-5.0755,1.5845,1.8986,1.3722-4.43.6012,3.44,2.0654-2.4786,1.8842,4.6666,1.8779.5152,2.7575-6.372,5.0932-2.9414.9225,6.0445,3.1013,4.04,4.57,4.6532,2.8007-2.5874,4.5984-4.9021,7.4732-6.8983,1.91,8.4237,4.3124-2.9936,6.2865,1.7484l.4528-3.3691c1.3528,5.3245,3.1421-1.255,4.9974,3.9272a8,8,0,0,1,.7178-2.0686,10.7767,10.7767,0,0,1-.2942-2.9253c.53,1.4887,1.51-.4061,1.5174,3.8544l-.1193.44c.0065,4.2618,1.4852-2.0194,2.1146,1.66l-.3929-4.5585.9649.7534-.2379.8814c3.9375-10.21,6.0754,4.2361,9.778-5.0909-.42,4.9887.7149-2.63.868,2.8113,1.1064,6.8281,1.7833-1.5116,2.5507-3.3513a8.8353,8.8353,0,0,1,.0368-1.0009l1.4135.6246c-.7074,6.8978.9015-5.7256.2432.1427,3.7506,5.0777,8.42-.2548,12.6941,2.039l-.2188-1.7668c1.0791.3183,2.3729-1.8549,3.24.9572.8675,2.8061,1.6957-4.5268,2.0062-4.814.8348-3.0646,1.76,2.98,1.3714,2.6755.9381-.8624,1.7167-7.1655,3.091-4.4927.5622,5.8257,3.5035-5.793,3.6669.78l.004-.5541c1.7825,4.597,3.2334-3.3089,5.1381.8482,0,0-.0257.4835-.0793.9267l3.34-20.016-1.4713-21.9315-3.5563-17.7652-8.6553,4.03-7.0974-6.8394-16.9087,2.676-1.1175,4.9762c-3.4942-8.5959-7.5787,1.4439-11.2841-4.6694l.0059,4.2648c-1.0066.2719-.9877-2.371-1.2518-3.11-9.3939,1.1219-18.9762,6.9844-27.5452,1.7688-.8695-2.8031-3.3218-1.0978-4.0183-4.066-2.6524,5.2663-5.5672,5.27-8.3312,4.7845l.0954-.4711-1.2816.8457a4.88,4.88,0,0,1-.0425-1.1835c-1.3921,3.8018-3.7674.1116-5.5881-1.3907l.0958-.4669c-10.4674-.5788-20.0216,7.561-30.5006,1.8064-4.9508-6.8644-10.3775,2.8423-16.0167-2.8481C68.7262,108.9217,57.5982,112.3172,56.6472,114.3316Z" fill="#e1efe9"/><path d="M40.288,120.3534l.0427-.0218C40.2949,118.5374,40.2434,119.217,40.288,120.3534Z" fill="#e1efe9"/><path d="M64.32,168.9975c-.0253-.012-.05-.03-.0738-.0444l.3223,2.5286Z" fill="#e1efe9"/><path d="M49.546,170.76c.6758.5494.6985.1144.5914-.6037C49.895,170.0551,49.6869,170.1939,49.546,170.76Z" fill="#e1efe9"/><path d="M34.9189,123.8746c-.3522-.1355-.1989.932.0289,2.1248a4.9575,4.9575,0,0,1,.5982-.3354C35.342,125.2415,35.1283,124.3006,34.9189,123.8746Z" fill="#e1efe9"/><path d="M36.8032,148.2255l-.0816,1.4578A2.3372,2.3372,0,0,0,36.8032,148.2255Z" fill="#e1efe9"/><path d="M67.6943,32.1345c-.0247-.38-.3566-.6763-.4035-1.05-.0474-.3775-.5829-.6717-.6523-1.0419-.07-.3737.5627-.9022.471-1.2678-.0925-.3685-.417-.6884-.5308-1.048-.1146-.362-.3043-.7061-.44-1.0583-.1362-.3542-.5522-.5881-.7088-.9316-.1573-.3452-.176-.7515-.3532-1.0851s.1061-.9506-.0909-1.2731-.6552-.505-.8713-.8152-.769-.376-1.0034-.6728.0054-1.0061-.2465-1.2884-1.1061-.0015-1.3745-.2684-.1476-.9463-.4315-1.1967-.3212-.8417-.62-1.0747-.8186-.2163-1.1306-.4311-.7555-.2528-1.08-.4485-.4364-.8153-.7723-.9912-1.254.8546-1.6.6992c-.3444-.1546-.3069-1.206-.6619-1.34-.3529-.1334-.8289.0634-1.1916-.0491-.36-.1116-.8484.3029-1.2174.2125-.3661-.0895-.6952-.2-1.0693-.2682-.37-.0672-.584-1.1955-.9618-1.2407-.3737-.0447-.8348.7825-1.2149.76-.3755-.0223-.7352-.1482-1.1162-.1482-.56,0-.56-.5473-1.1206-.5473s-.56.4687-1.1211.4687-.56.0306-1.1208.0306-.56-.2607-1.121-.2607-.5605-.3163-1.121-.3163-.5606.2582-1.1212.2582-.56.0778-1.121.0778-.5607-.2413-1.1213-.2413-.5608.0836-1.1215.0836-.5606.8175-1.1213.8175-.5607-1.0691-1.1213-1.0691-.5608.061-1.1215.061-.5608.5656-1.1216.5656-.56.4569-1.1209.4569-.5607-.8848-1.1214-.8848-.5606.3523-1.1213.3523-.5607.2438-1.1214.2438-.5609.2782-1.1217.2782-.56-.1422-1.1211-.1422-.561-.7761-1.122-.7761-.5614-.0168-1.1228-.0168-.5614.551-1.1228.551c-.3825,0-.801-.83-1.1779-.8074-.3814.0228-.7568.41-1.1318.4555-.3792.0456-.84-.2623-1.2116-.1946-.3755.0684-.7631.2538-1.1305.344-.37.091-.5274.9814-.8889,1.0939-.3639.1133-1.0075-.5542-1.3616-.42-.3562.1352-.7033.3777-1.0488.5335-.3471.1564-.7532.2662-1.0888.4427s-.3519.9536-.6763,1.15-.9092.0119-1.2213.2277-.7636.295-1.0623.5293.151,1.3686-.1331,1.6206-.8484.1772-1.117.4458-.8381.2614-1.09.5457-.6944.4423-.929.7414-.4231.669-.6394.9817.1567,1.0147-.04,1.34-.1507.762-.3278,1.0988-.3942.6219-.5507.969c-.1557.3454-1.1355.353-1.2706.7091-.1344.3541-.0581.8068-.1714,1.1707-.1125.3614.3251.8768.2341,1.2471-.09.3674-.4987.6611-.5671,1.0365-.0677.3719-.71.68-.756,1.0591-.0451.3751.4522.8235.4294,1.2051-.0224.3768.0443.7627.0443,1.1452h.1709c0,.3825-.4784.7826-.4559,1.16.0227.3814-.0426.7925.0024,1.1676.0456.3792.3583.7356.426,1.1075.0683.3755-.1142.8233-.024,1.1906.091.37.035.815.1475,1.1764.1133.364.509.6613.6434,1.0154.1351.3562.42.6684.5754,1.0138.1564.3471.4471.6381.6236.9736s.9135.34,1.11.6649-.0784.9367.1374,1.2488.6389.4642.8733.7629.5361.52.788.8037.5471.498.8157.7666.2278.85.5122,1.1025.897.0906,1.1961.3252.2911.8634.6038,1.08.7734.1922,1.0987.3893.4967.6552.8335.8323.8933-.1241,1.24.0324c.3455.1557.6483.3544,1.0045.49.3541.1343.5553.6916.9191.8049.3614.1124.8171-.1254,1.1875-.0344.3673.09.7841-.164,1.16-.0956.3718.0677.6214.8757,1,.9212.3751.0451.7964-.4643,1.1779-.4416.3769.0224.7346.1933,1.1171.1933.5446,0,.5446.7833,1.0892.7833s.5442-1.1834,1.0884-1.1834.5445-.0014,1.0889-.0014.5445.4781,1.089.4781.5444-.0334,1.0889-.0334.5446.4687,1.0893.4687.5443.3545,1.0886.3545.5448-.6144,1.09-.6144.5451-.1288,1.09-.1288,1.1057-.6837,1.4842-.2914c.3924.4066-.165.9451-.165,1.51s-.1455.5651-.1455,1.13.1058.5652.1058,1.13-.4409.565-.4409,1.13.76.565.76,1.13-.1862.565-.1862,1.13-.0092.5652-.0092,1.13-.33.565-.33,1.13.503.565.503,1.13-.2018.5651-.2018,1.13-.8091.5653-.8091,1.13.9022.5651.9022,1.13-.384.565-.384,1.13-.3417.5651-.3417,1.13.0682.5652.0682,1.13.73.5651.73,1.13-.5742.5651-.5742,1.13.4341.5652.4341,1.13-.2493.5651-.2493,1.13.5077.5653.5077,1.1305-1.0192.5651-1.0192,1.13.9708.5651.9708,1.13-.9561.5652-.9561,1.13.9532.5651.9532,1.13-.169.5652-.169,1.13-.6812.5649-.6812,1.13.6159.5647.6159,1.1295-.4289.565-.4289,1.13.3389.5652.3389,1.13-.56.5649-.56,1.13.429.5651.429,1.13.2035.5652.2035,1.13.0921.565.0921,1.13.2274.5652.2274,1.1305-.096.5651-.096,1.13-.7208.5652-.7208,1.1305.4159.5651.4159,1.13-.8343.5654-.8343,1.1307,1.3062.5652,1.3062,1.13-.939.5654-.939,1.1308.8128.5654.8128,1.1309.0829.5653.0829,1.1307.01.5654.01,1.1307.01.5655.01,1.1309-.5468.5656-.5468,1.1311-.756.5651-.756,1.13,1.1231.5654,1.1231,1.1308-.9415.5654-.9415,1.1308.311.5654.311,1.1308.0828.5656.0828,1.1311-.5405.5653-.5405,1.13,1.2258.5657,1.2258,1.1315-.8878.5661-.8878,1.1322-.0356.6646.368,1.0616c.41.4036.5059-.1443,1.0814-.1443s.5755.5384,1.151.5384.5755-.4747,1.1511-.4747.5756.4585,1.1513.4585.5752-.6686,1.1505-.6686.5755.71,1.151.71.5755.313,1.151.313.5755-1.24,1.1511-1.24.5756.1951,1.1513.1951.5758-.2732,1.1517-.2732.5757.52,1.1514.52.5761-.1035,1.1521-.1035.433-.2491.9912-.3915a2.3482,2.3482,0,0,1,.2729-.5636c.1907-.3032.9059-.2457,1.1459-.5132.2376-.2649.0148-1.0914.3011-1.3131a7.1264,7.1264,0,0,1,.9829-.6684c.31-.16,1.0374.6048,1.39.496.3308-.102.5695-.5769.9379-.6284.3414-.0478.7083.341,1.0821.341s.7315-.3216,1.0728-.274a8.12,8.12,0,0,1,1.1143.0215,6.3012,6.3012,0,0,1,.9708.5365,6.3438,6.3438,0,0,1,.9874.4982c.2865.2217.1845.8414.4222,1.1063.24.2677.96.1725,1.1509.4758s.1313.644.2729.9743c.56.1425.5419-.3431,1.12-.3431s.5783,1.1328,1.1567,1.1328.5782-.78,1.1564-.78.5786.0552,1.1572.0552.9871.7326,1.4017.329c.4036-.393-.8451-.8144-.8451-1.3778s.9-.5635.9-1.1269-.57-.5635-.57-1.1269-.3238-.5632-.3238-1.1265,1.1389-.5632,1.1389-1.1264-.9715-.5632-.9715-1.1264.2374-.5632.2374-1.1265-.3359-.5633-.3359-1.1266.5026-.5635.5026-1.127.2679-.5635.2679-1.1269-.2422-.5633-.2422-1.1267-.0918-.5632-.0918-1.1265.4358-.5632.4358-1.1265-.7852-.5633-.7852-1.1267-.06-.5635-.06-1.127-.0808-.5635-.0808-1.127,1.24-.5633,1.24-1.1266-.7943-.5634-.7943-1.1267.0718-.5633.0718-1.1267.61-.5634.61-1.1269-.1677-.5636-.1677-1.1271.0751-.5634.0751-1.1268-.7709-.5633-.7709-1.1267-.2946-.5634-.2946-1.1268.9533-.5636.9533-1.1272-.6376-.5635-.6376-1.1269.3742-.5634.3742-1.1268.0044-.5635.0044-1.1269.0294-.5636.0294-1.1273-.4615-.5634-.4615-1.1269-.31-.5634-.31-1.1269.9193-.5635.9193-1.127.1046-.5636.1046-1.1271-.0134-.5635-.0134-1.1269.0356-.5636.0356-1.1271-.935-.5636-.935-1.1272.778-.5635.778-1.1269-.5034-.5636-.5034-1.1272.3-.5636.3-1.1271.1349-.5635.1349-1.1271-.5746-.5636-.5746-1.1272.4542-.5636.4542-1.1271-.4544-.5637-.4544-1.1274.063-.5632.063-1.1265.7279-.5631.7279-1.1263-1.0021-.5634-1.0021-1.1267.905-.5636.905-1.1272-.0531-.5632-.0531-1.1265.1124-.5634.1124-1.1268-.66-.5637-.66-1.1273.1883-.5634.1883-1.1268.2822-.5636.2822-1.1273-.6493-.5635-.6493-1.1269.578-.5637.578-1.1273-.52-.5635-.52-1.1271.2634-.5637.2634-1.1275.5655-.5636.5655-1.1271-.2883-.5638-.2883-1.1275.262-.5639.262-1.1277.2507-.5638.2507-1.1275-.4459-.5638-.4459-1.1275-.6942-.5639-.6942-1.1277,1.1329-.5639,1.1329-1.1278-.0305-.5636-.0305-1.1271-.653-.5638-.653-1.1276-.0986-.5637-.0986-1.1275.2847-.5638.2847-1.1276.22-.564.22-1.1279-.0752-.5636-.0752-1.1272.1763-.5642.1763-1.1283.1557-.5645.1557-1.129-.8882-.635-.7105-1.1709C67.241,31.9986,67.7008,32.1635,67.6943,32.1345Z" fill="url(#linear-gradient)"/><path d="M131.1493,66.08c-.38,0-.766-.3236-1.144-.3163-.38.0074-.7306.9235-1.1085.9382-.38.0147-.8053-.9564-1.1828-.9344-.3792.0222-.6746,1.22-1.0517,1.25-.3786.03-.86-1.1439-1.2363-1.1071s-.6358,1.169-1.0114,1.2133-.7677-.1024-1.1424-.0507-.8514-.5806-1.225-.5215-.8147-.2156-1.187-.1491-.7166.3485-1.0876.4225-.722.2861-1.0915.3675-.5648.9162-.9326,1.0049-.7326.1575-1.0985.2536-.7151.2235-1.0791.3269-.7568.0837-1.1187.1944-.7254.1975-1.085.3154-1.0044-.5941-1.3616-.4689-.6906.349-1.0452.4814-.8362-.0275-1.188.112-.5147.7722-.8637.9188-.63.46-.9763.6142-.43.8713-.7732,1.0319-.9015-.139-1.2409.0285-.7666.1669-1.1026.3413-.6942.3169-1.0266.4981-.9307-.0926-1.2594.0953-.193,1.1815-.5178,1.3761-.8934-.0052-1.2141.196-.7611.2318-1.0777.44-.5985.4849-.9108.6991-.3671.8033-.675,1.0238-.3164.841-.62,1.0678-1.0752-.1638-1.3737.0692-.1707.9986-.4644,1.2377-.607.442-.8957.6871-.6935.3477-.9771.5988-.9623.0683-1.2407.3252-.3607.73-.6336.9922-.5633.5113-.8308.7795-.7441.34-1.0059.6143-.6939.4035-.95.6827.2408,1.2384-.0093,1.5229-1.1171.04-1.3612.3294-.5484.5432-.7862.8381.2073,1.1314-.0243,1.4313-1.3051-.0316-1.53.2731.1816,1.0745-.037,1.384-.65.4736-.8619.7877-.2886.72-.4938,1.0386-.0933.8325-.2916,1.1554-.2879.7008-.4792,1.0279-.2363.7241-.4205,1.0554-.5514.55-.7284.8855-.4417.6164-.6113.9554.0209.8409-.1413,1.1836-.3508.6565-.5055,1.0026-1.1219.3345-1.2689.684.1533.8808.014,1.2335-.3038.69-.4353,1.0454-1.003.4508-1.1266.8093.1934.8709.0778,1.2321-.5645.6257-.6721.9894.9527,1.0548.8532,1.4209-.8544.5516-.9457.92-.8992.5731-.9823.9433.0743.8031-.0006,1.175-.3448.7179-.4114,1.0915.79.9037.7319,1.2787-.8737.6415-.9236,1.0179.503.4753.4613.8527a1.9616,1.9616,0,0,0,1.0273.1738c.5714,0,.5714.434,1.1428.434s.5717-.8921,1.1433-.8921.5717.4284,1.1434.4284.5716.3914,1.1433.3914.5718-.22,1.1436-.22.5721.68,1.1441.68.5718-.2716,1.1437-.2716.5722-.0983,1.1444-.0983a2.9767,2.9767,0,0,0,1.2093-.07c.1165-.3794.87-.628,1.0466-.9808.177-.3544-.3983-1.1113-.1608-1.4277s.3131-.86.61-1.1261c.29-.26,1.1909.321,1.5388.1176.3325-.1945.4765-.649.862-.782.3605-.1244.588-.99.9949-1.0533.3746-.058.8582.3648,1.2721.3648s.7434.5752,1.118.633c.4072.0629,1.0318-.7728,1.3925-.6486.3859.1329.3913,1.1141.7241,1.3084.3483.2033.8446.1338,1.1349.3942a6.048,6.048,0,0,1,.6428.9923c.2376.3166,1.2512.2128,1.4281.5674s-.2988.9617-.1826,1.3413c.5012.1626.5.7759,1.0266.7759s.527-1.25,1.0539-1.25.5271.6482,1.0542.6482.5268-.0827,1.0536-.0827.5273.757,1.0545.757.5276-.236,1.0553-.236.5918-.24,1.0961-.3951c.1035-.3566-.1946-.9717-.0727-1.3211s.9014-.4542,1.0416-.7969.1594-.7266.3175-1.0616.6435-.4858.8187-.8123.52-.52.712-.8368.0946-.785.3021-1.0924.1016-.8243.3241-1.1213.5083-.5392.7451-.825.6247-.4261.875-.7.5683-.4587.8314-.7207.6243-.386.8994-.6354.5413-.4667.8277-.7032-.2085-1.4667.0885-1.69,1.2211.419,1.5279.21c.3052-.2084.4247-.69.7407-.8855.3142-.1945.7825-.1155,1.1069-.2969.3225-.18.55-.5231.8816-.69.33-.1659.8491.0976,1.1883-.0546.337-.1513.2914-1.2009.6368-1.3383.3433-.1365.918.3332,1.2691.2109.3488-.1216.7127-.1634,1.0689-.2706.3535-.1065.5692-.7071.93-.799.3577-.0913.7381-.1271,1.1022-.2037.3612-.0761.7513-.0314,1.1183-.0926.3641-.0608.6959-.4118,1.0653-.4576.3661-.0455.8179.7522,1.189.7217.3677-.03.6977-.5331,1.07-.5483.3685-.015.7386.347,1.1112.347s.7476-.4738,1.1162-.4588c.3724.0152.7112.4695,1.0791.5.3713.03.8419-.8618,1.2083-.8163.37.0459.6683.6621,1.0326.7229.3673.0612.7317.1377,1.0932.2138.3643.0766.8752-.4212,1.2332-.33.3606.0919.5741.7623.9279.8688.3564.1072.5011.8242.85.9457.3514.1224.9577-.4691,1.3012-.3326.3457.1374.4142.9086.7515,1.06.3394.1522.8812-.1507,1.2116.0152.3324.1668.7323.21,1.0551.3908.3246.1812.2731.9816.5877,1.1761.3162.1954,1.3334-.684,1.639-.4756.3071.2094.2346.9779.5305,1.2s.9689-.0052,1.2544.23.1868.9437.4612,1.192.4639.5885.7263.8494.2279.7922.4777,1.0653,1.0994.0222,1.3359.3071.0293.9259.2516,1.2221.8373.3159,1.0447.6228-.1215.9557.07,1.2727,1.2674.14,1.4428.4662.01.8527.1685,1.188-.1567.8806-.0161,1.2238-.08.8.0421,1.15.9789-.1359,1.0824.2208c.5647.1578.407,1.2524.9934,1.2524s.586-.1186,1.172-.1186.5862-.2476,1.1724-.2476.5863-.8116,1.1725-.8116.5862.0055,1.1725.0055.5863.4512,1.1727.4512.5866.1109,1.1732.1109.5864.3458,1.1728.3458.5869.3142,1.1737.3142a4.0951,4.0951,0,0,0,1.276-.2348c.1862-.3271.7834-.66,1.0244-.95.2391-.2877-.1748-1.1938.1183-1.4355a6.6877,6.6877,0,0,1,1.0625-.5166c.3221-.1751.7789-.0626,1.1479-.182.3458-.1119.62-.6581,1.0068-.7148.3577-.0523.78.3443,1.1727.3443s.7952-.2585,1.1531-.2063a6.72,6.72,0,0,1,1.07.4456,6.5815,6.5815,0,0,1,1.1.3246c.3376.1832.1657,1.0188.4516,1.2545.2933.2419.9781-.0011,1.2172.2866a7.2981,7.2981,0,0,1,.6207,1.0315,3.7322,3.7322,0,0,0,1.2042.2811c.5892,0,.5892-1.1037,1.1784-1.1037s.5893.3508,1.1786.3508.59.0123,1.1791.0123.5894-.0192,1.1787-.0192.59.6006,1.18.6006.4346-.6023.9943-.788c-.0413-.3774-.4257-.1262-.4752-.5013s-.2872-.7112-.3451-1.0851,1.0918-.948,1.0256-1.3206-.0934-.7664-.1679-1.1374-.3728-.7064-.4555-1.0757-.6671-.6239-.758-.9913.2344-.8452.1353-1.21-.2663-.7181-.3735-1.0811-.2991-.705-.4144-1.0656-.1625-.7486-.2858-1.1066-.5321-.6162-.6633-.9714-.1492-.7536-.2882-1.1059-.201-.7383-.3478-1.0874-.7236-.51-.878-.8555.0248-.8416-.1372-1.184-.6123-.5415-.7818-.88.4546-1.09.2778-1.4245-.3443-.6906-.5285-1.0217-.2916-.7229-.4828-1.05-1.3319-.09-1.53-.4124.2355-1.0434.03-1.362-.8915-.3219-1.1036-.636-.83-.3362-1.0484-.6457-.0033-.9213-.2286-1.226.028-.9748-.2037-1.2747-.7312-.3956-.9692-.69-.5751-.5092-.8193-.7991-.6567-.431-.907-.7156.0228-1.0423-.2335-1.3217-.8324-.2659-1.0944-.54-.03-1.0413-.2978-1.31-1.4963.4405-1.77.1778.1663-1.2787-.1124-1.5357-.3521-.7584-.6361-1.01-.9448-.0812-1.2339-.3265-.5027-.5884-.7968-.8277-.4206-.7029-.72-.9361-1.2319.3624-1.5356.1354-.1957-1.0122-.504-1.233-.8495-.1095-1.1623-.3239-.3838-.7905-.7009-.9985-.9537.0841-1.275-.1173-.4581-.6974-.7835-.8923-.9651.16-1.2944-.028S159,72.74,158.6667,72.5583s-.8332-.0617-1.17-.2364-.9158.1364-1.256-.0314-.3286-1.0668-.6722-1.2277-.7976-.0923-1.1443-.2463-.7257-.2383-1.0755-.3852-.8225.013-1.1752-.1268-.6383-.4442-.9938-.5769-.5072-.8416-.8653-.9671-.8261.05-1.1867-.0682-.8582.1973-1.2211.0863-.5273-.9029-.8924-1.0066-.97.671-1.3373.5747-.5753-.8138-.9442-.9027-.6393-.6446-1.01-.7262-.8253.189-1.1976.1148-.7921.083-1.1658.0162-.6649-.6641-1.04-.7234-.9648,1.35-1.341,1.2982c-.3747-.0517-.6069-1.19-.984-1.2341-.3756-.0442-.7959.2927-1.1738.2557-.3764-.0368-.7989.519-1.1775.49s-.74-.0987-1.1193-.1208c-.3775-.0221-.6976-1.2473-1.0772-1.2621-.3779-.0146-.7873.9383-1.1672.9309C131.9014,66.4754,131.5292,66.08,131.1493,66.08Z" fill="url(#linear-gradient-2)"/><path d="M246.4622,58.0091c-.3714.082-.6762.4346-1.04.521-.37.0878-.8671-.3506-1.23-.2584-.3686.0938-.67.4414-1.0313.54-.3671.1-.7213.236-1.0805.34-.3653.106-.8261-.1068-1.1834.0034-.3635.1123-.65.4689-1.0052.5853-.3616.1186-.7361.1953-1.0892.318-.36.1249-.5436.7248-.8944.8538-.3575.1315-.9308-.32-1.2793-.1843-.355.138-.4593.891-.8051,1.0328-.3524.1446-.6943.2858-1.0372.4341-.35.1511-.8956-.1557-1.2355-.0009-.3466.1579-.777.1377-1.1137.299-.3437.1647-.4484.8092-.7817.9772-.34.1715-.853,0-1.1828.1751-.3371.1784-.4533.7532-.7794.9344-.3335.1854-.8542.03-1.1764.2177-.33.1923-.73.2649-1.0481.4593-.3257.1993-.6538.3963-.9673.5973-.3216.2063-.4445.7095-.7534.9172-.3173.2133-.5581.523-.8621.7373-.3127.22-.7014.3212-1,.542-.308.2275-.6081.4535-.9016.6808-.3032.2347-.4863.6057-.7744.84-.2981.2419-.7111.33-.9933.5705-.2927.2491-.6594.4033-.9352.65-.2872.2565-.6578.4156-.927.6681-.2816.2639-.3377.752-.6,1.01-.2757.2716-.36.7108-.6149.9749-.27.28-.9929.1172-1.24.387-.2636.288-.5526.5473-.7907.8221-.2573.2969-.1578.8778-.3861,1.1569-.2515.3073-.709.4271-.9263.71-.2458.32-.3978.6815-.6014.965-.3107.435-.3206.9929-.5368,1.3295-.375.5836-.7067.9323-.8147,1.1343-.0036.0067-.4156-.2068-.4261-.1958,0,.01.0364.05.0151.0706,0,.021.4067.2583.3856.3-.0034.0069-.2592-.14-.27-.1285a6.6679,6.6679,0,0,1-.3523,1.1164c-.1614.2876-.4942.5416-.7043.9167-.1721.3072-.3076.67-.5072,1.0269-.1769.3161-.531.5565-.7261.9053-.18.3212-.1941.7514-.3866,1.0956-.1815.3246-.6019.5359-.7926.8771-.2655.5083-.283.5021-.5437,1.013s.33.8123.0692,1.3233-.8193.2257-1.08.7365.2677.78.0071,1.2913-.6048.3355-.8656.8465-.515.3811-.7757.8919-.3.491-.5608,1.0021.2275.76-.0332,1.271-.2135.5351-.4742,1.0461-.7935.2393-1.0542.75-.0626.6122-.3234,1.1234-.1846.55-.4454,1.0609-.4946.3918-.7554.903-.0643.6115-.3251,1.1228-.3783.4512-.6391.9624.1273.7092-.1335,1.22-.2632.51-.524,1.0213-.4676.4052-.7282.916-.3046.4886-.5654,1-.3251.4784-.586.99.1486.72-.1123,1.2314-.2474.5181-.5082,1.0294-.8875.1917-1.1484.7031.3285.8118.0677,1.3229-.7557.2592-1.0167.7708-.1634.5618-.4246,1.0737-.7186.6286-.4045,1.11c.3255.4986.6176.3271,1.213.3271s.5953-.4222,1.1907-.4222.5953.4583,1.1907.4583.5955-.622,1.191-.622.5958.35,1.1915.35.5955.1234,1.1911.1234.5959.1052,1.1918.1052.6146-.1855,1.1861-.3543a7.2881,7.2881,0,0,1,.4019-1.043c.1281-.3583.5026-.5653.6861-.8964s.0468-.85.2866-1.1449c.2382-.2925.3061-.8129.5994-1.0589.2861-.24.8026-.23,1.1413-.4166.3235-.1784.5959-.5945.9675-.7162.348-.114.8164.0881,1.2065.03a7.7324,7.7324,0,0,1,1.1386-.107,7.56,7.56,0,0,1,1.1312.1579,7.3645,7.3645,0,0,1,1.1484.12c.372.1216.597.5423.9207.7205a5.3735,5.3735,0,0,1,.8407.7047,5.5086,5.5086,0,0,1,.7924.745,6.3264,6.3264,0,0,1,.7608.8246,6.8416,6.8416,0,0,1,.4651,1.0253,11.5255,11.5255,0,0,1,.2735,1.3766c.56.1685.676-.3516,1.2611-.3516s.5851-.0317,1.17-.0317.5848.4289,1.17.4289.585-.0937,1.17-.0937.585-.4616,1.17-.4616.585.0126,1.17.0126.5852.3311,1.17.3311.5854-.0334,1.1708-.0334.5852-.0366,1.17-.0366.5855-.0717,1.1711-.0717.734.3973,1.1976.04c.4476-.3454-.0025-.6091.1254-1.16s.3313-.503.4592-1.0533-.0545-.5929.0734-1.1434-.0337-.5881.0942-1.1386.5915-.4428.72-.9933.2778-.5158.4058-1.0665-.4615-.6873-.3336-1.2377.5566-.4512.6846-1.0021-.4035-.6747-.2755-1.2259.6-.4433.7218-.9958c.0664-.3539.0878-.7182.1563-1.0675.0692-.3533.014-.729.0853-1.0776.0721-.3527.1863-.6944.2605-1.0422.0751-.3521.2093-.6887.2866-1.0358.0782-.3516-.057-.75.0234-1.0964.0813-.3508.5767-.6008.66-.9465.0844-.35.2317-.679.3183-1.0236.0878-.3494.1862-.69.2761-1.0342.091-.3482-.508-.878-.4148-1.2206.0945-.3473.5551-.5926.6517-.9342.0531-.2333.37-.4089.4343-.6422.1062-.37-.147-.84-.0387-1.2037.11-.3691.0566-.7867.1686-1.1489.1137-.3679.3011-.7122.4169-1.0731.1176-.3667.7406-.5644.86-.9239.1215-.3654.1821-.7448.3055-1.1029.1255-.3642.1739-.75.3012-1.1062.13-.3629.1316-.7673.2629-1.1225.1337-.3616.5755-.6011.7108-.9547.1378-.36-.2959-.9382-.1565-1.29.142-.3587.43-.6566.5733-1.0067.1463-.357.4267-.6542.5743-1.0023.15-.3553.5675-.5888.7191-.9349.155-.3536-.02-.8474.1362-1.1915.1594-.3519.5589-.5867.7192-.9287.164-.35.0728-.815.2374-1.1548.1685-.3479.6973-.5106.8662-.8479.1732-.346.1666-.7739.34-1.1088.178-.3439.0158-.8614.1937-1.1936.1828-.3416.6493-.5234.8316-.8528.1878-.3392.1313-.81.3181-1.136.1929-.3368.5492-.5725.7407-.8958.198-.3342.5361-.5744.7322-.8942.2034-.3318.0175-.899.2184-1.2155.2087-.3289.8371-.378,1.0426-.6905.2144-.3261-.0664-.9751.1439-1.2836.22-.3233.9422-.2885,1.1574-.5928.2263-.32-.0006-.9546.2191-1.2537.2327-.3169.5433-.5667.7677-.86.2586-.34.7337-.5385.8277-.9041a3.445,3.445,0,0,0,.2224-1.2745,3.5762,3.5762,0,0,0-.5645-1.1671,3.373,3.373,0,0,0-.9189-.86c-.3217-.2224-.8165-.0219-1.22-.0971C247.2434,58.2061,246.88,57.9181,246.4622,58.0091Z" fill="url(#linear-gradient-3)"/><path d="M235.65,91.4761c-.0638.2334-.1381.4779-.1912.7115l.1593-.7011Z" fill="#b8ccbc"/><path d="M165.93,113.6337H154.929" fill="none"/><path d="M40.8566,30.7823c0,.4072-.4945.8174-.6138,1.1848-.1236.3808-.6635.4972-.8942.8142-.2329.32-.3137.6836-.6338.9166-.317.2307-.4143,1.0327-.7951,1.1563-.3674.1193-.9157-.2125-1.3229-.2125a3.8148,3.8148,0,0,1-1.1552-.3045,3.6106,3.6106,0,0,1-.9859-.6078,3.4841,3.4841,0,0,1-.733-.8593,3.4108,3.4108,0,0,1-.5762-.9667c-.1193-.3674-.8225-.7139-.8225-1.1211s.6785-.7617.7978-1.1292c.1237-.3808-.2335-1.0812-.0029-1.3981a4.8691,4.8691,0,0,1,1.0891-.76,4.7007,4.7007,0,0,1,1.07-.7727c.3674-.1193.912.0973,1.3192.0973a4.7233,4.7233,0,0,1,1.294-.0195c.3808.1237.5688.7517.8858.9823.32.233.8667.2974,1.1.6175.2306.317-.1324.9392-.0087,1.32C39.9869,30.0869,40.8566,30.3751,40.8566,30.7823Z" fill="#2e293a"/><path d="M29.3286,39.841c.3165.2345.8367.485.9944.8454a3.4,3.4,0,0,1,.47,1.3629c-.007.0639-.2.5239-.3576,1.1242-.0795.3016-1.0959.367-1.2389.7507a8.5432,8.5432,0,0,1-.2285,1.0479,9.2213,9.2213,0,0,1-.3461,1.035,9.4749,9.4749,0,0,1-.5136.9716c-.2179.276-.3134.7067-.5772.9722-.2483.25-1.154-.25-1.4467-.017-.2754.2192-.3171.69-.6349.8873-.2986.1858-.2172,1.1157-.5556,1.2771-.3169.1511-1.0618-.6984-1.4158-.573-.3307.1172-.5768.4168-.9416.508-.1848.046-.2924.6429-.4738.6429-.34,0-.3832-.9481-.6812-1.0894-.3006-.1426-.9431.3262-1.1566.0662a2.45,2.45,0,0,1-.3944-.9494c-.1-.4.3687-.691.475-1.061a1.506,1.506,0,0,1,.4831-.8175c.2765-.2678.3321-.7538.7322-.8539a5.6466,5.6466,0,0,0,.9583-.5059c.35-.1565,1.1323.37,1.4093.1724.3112-.2222-.2583-1.4306-.0282-1.6822.26-.2842,1.3866.1025,1.5593-.1862.2061-.3445-.3984-1.07-.29-1.3663a1.8627,1.8627,0,0,0,.0161-1.016c.054-.4059.6335-.7809.8659-1.0865.2395-.315.5181-.8129.8809-.9684" fill="#fff" opacity="0.5"/><g opacity="0.33"><path d="M46.28,39.4427a3.8853,3.8853,0,0,1-.2875,1.0144c-.0946.354.3577.9645.1784,1.2744a5.0043,5.0043,0,0,1-.7855.8894,4.8415,4.8415,0,0,1-.9762.6352,4.7255,4.7255,0,0,1-1.1146.2443,4.2666,4.2666,0,0,1-1.0873.0645,4.0672,4.0672,0,0,1-1.06-.1665,4.2084,4.2084,0,0,1-1.0383-.3214c-.3144-.1819-.3357-.69-.5909-.9452s-.6718-.3294-.8537-.6437a3.9933,3.9933,0,0,1-.3469-1.003,3.932,3.932,0,0,1-.1606-1.0424c0-.3709.43-.6038.5218-.9459a3.2785,3.2785,0,0,1,.3178-.9074c.1819-.3143.1706-.6768.4257-.9319a4.4628,4.4628,0,0,1,2.7851-1.22c.3709,0,.8712-.6153,1.2132-.5238.354.0946.4766.8857.7865,1.065.3144.1819.37.5847.6246.84s1.1467.0273,1.3286.3416a4.9731,4.9731,0,0,1,.3732,1.1236C46.6249,38.6257,46.28,39.0718,46.28,39.4427Z" fill="#ff5f2e"/></g><circle cx="50.4169" cy="54.8566" r="2.5685" fill="#fff" opacity="0.5"/><circle cx="61.0768" cy="54.8566" r="2.5685" fill="#fff" opacity="0.5"/><circle cx="55.982" cy="62.5621" r="2.5685" fill="#fff" opacity="0.5"/><ellipse cx="217.0783" cy="94.8606" rx="2.5708" ry="2.5647" transform="translate(-10.0721 27.5981) rotate(-7.11)" fill="#fff" opacity="0.5"/><ellipse cx="227.779" cy="97.9431" rx="2.5708" ry="2.5647" transform="translate(-10.3713 28.9463) rotate(-7.11)" fill="#fff" opacity="0.5"/><ellipse cx="220.2854" cy="103.7943" rx="2.5708" ry="2.5647" transform="translate(-11.1532 28.0638) rotate(-7.11)" fill="#fff" opacity="0.5"/><circle cx="41.4693" cy="92.5282" r="2.5685" fill="#fff" opacity="0.5"/><circle cx="52.5996" cy="92.5282" r="2.5685" fill="#fff" opacity="0.5"/><circle cx="47.0345" cy="100.2337" r="2.5685" fill="#fff" opacity="0.5"/><ellipse cx="158.5916" cy="92.8803" rx="2.5673" ry="2.5796" transform="translate(1.7716 188.7216) rotate(-61.7871)" fill="#fff" opacity="0.5"/><ellipse cx="165.2598" cy="101.8401" rx="2.5673" ry="2.5796" transform="translate(-2.6079 199.3216) rotate(-61.7871)" fill="#fff" opacity="0.5"/><ellipse cx="155.7247" cy="101.9398" rx="2.5673" ry="2.5796" transform="translate(-7.7231 190.9719) rotate(-61.7871)" fill="#fff" opacity="0.5"/><circle cx="106.8641" cy="80.7316" r="2.5685" fill="#fff" opacity="0.5"/><circle cx="117.4529" cy="77.3022" r="2.5685" fill="#fff" opacity="0.5"/><circle cx="114.5327" cy="86.3475" r="2.5685" fill="#fff" opacity="0.5"/><path d="M152.5347,118.8428c-.0451,0-.0928-.0145-.138-.0153-.3847-.0021-.7864.002-1.17-.0177s-.6986-.9388-1.081-.976-.7538.0078-1.1344-.0468-.8854.6474-1.2634.5756-.8324.1153-1.2071.0266c-.3729-.0883-.5507-.9729-.9213-1.078-.3685-.1045-.7485-.1559-1.1145-.2769-.3634-.12-.8957.214-1.2565.0776-.3579-.1354-.7-.352-1.0555-.5032-.3518-.15-.7737-.1859-1.1226-.3513-.3454-.1637-.4711-.791-.8134-.97-.3387-.1769-.645-.4112-.98-.6028-.3317-.1894-.5825-.5062-.9109-.71-.3245-.2013-.7042-.3088-1.0254-.524-.3172-.2126-1.089.2093-1.4028-.0168-.31-.2231-.4376-.721-.7438-.9573-.3023-.2332-.6527-.4283-.9514-.6742-.2948-.2427-.3493-.24-.64-.4945-.2893.2445-.4739.0506-.7662.2828-.2966.2355-.46.654-.76.8768-.3038.2261-.9173.0239-1.2241.2369-.311.2159-.7787.1761-1.0925.3786-.318.2052-.09,1.2916-.4106,1.4831-.3249.1939-.7326.2784-1.06.4582-.3316.1821-.7375.2516-1.0715.4192-.3381.17-1.0531-.4618-1.3934-.3071-.3442.1565-.56.5685-.9064.71-.35.1428-.6778.3149-1.03.4421-.3552.1285-.7025.2519-1.0595.3646-.36.1136-.6424.4816-1.004.5792-.3643.0983-.6264.6662-.9921.7482-.3679.0824-.8029-.07-1.172-.004-.3709.0663-.8895-.8619-1.2614-.8123s-.7153.1207-1.0892.1536-.713.2761-1.0883.2923-.734.1235-1.11.1228-.7673.6025-1.143.5848-.7012-.73-1.076-.7644-.7353-.0433-1.1084-.0946-.7253-.1236-1.096-.1914c-.3687-.0674-.7731.0842-1.1407,0-.3652-.0834-.8855.4134-1.2493.3137-.3612-.0989-.39-1.3111-.7492-1.4261-.3565-.114-.8328.1742-1.1875.0444-.3513-.1285-.68-.2924-1.0291-.4363-.3457-.1425-.7067-.2312-1.05-.3889-.34-.1559-1.0246.3833-1.3621.2126-.3333-.1687-.5438-.6083-.8747-.7914-.3269-.1809-.285-.9995-.6092-1.1944-.32-.1925-1.0219.2264-1.3393.02-.3131-.2035-.1607-1.0943-.471-1.3112-.306-.2138-1.0479.18-1.351-.0471-.2989-.2238-.274-.8678-.57-1.1042-.2917-.2331-.779.1928-1.0676-.0526-.2892.2461-.6008.0432-.8935.2774-.2964.2372-.8966.0636-1.1965.2885-.3037.2277-.5495.5038-.8565.7187-.3109.2177-.0942,1.2135-.4084,1.418-.318.2071-.5662.559-.8875.7525-.325.1958-1.2251-.6015-1.5532-.42-.3317.1838-.4933.6594-.8281.829-.3381.1713-.857-.0679-1.1981.0887-.3443.1581-.5993.4689-.9464.612-.35.1443-.4656.88-.8184,1.0086-.3555.13-.9748-.5367-1.3328-.4224-.36.115-.6111.5341-.9739.6331-.3648.1-.5359.9986-.9029,1.0819s-.8977-.5805-1.2681-.5133-.7446.0623-1.1179.113-.6893.6273-1.0648.6612-.79-.5024-1.1671-.4854-.7412-.21-1.1188-.21c-.0075,0-.0154.9016-.0238.9016-.3781,0-.7319-.9119-1.1089-.9293s-.8143.863-1.19.8286-.6437-.995-1.0182-1.0463-.6955-.2624-1.0675-.33-.8437.4409-1.2127.3567c-.3673-.0839-.6468-.4779-1.012-.5781-.3632-.1-.8747.3149-1.2355.1992-.3585-.115-.87.1657-1.226.0351-.3531-.13-.4194-1.0176-.77-1.1627-.3474-.1438-1.0383.4744-1.3829.3155-.3413-.1574-.5312-.6691-.87-.8412-.3349-.17-.4273-.799-.7592-.9835-.3282-.1826-1.0741.3405-1.3992.144-.3214-.1943-.0672-1.3091-.3853-1.5169-.3144-.2054-.6321-.3792-.9431-.5977-.3072-.2158-.8276-.1254-1.1314-.354-.3-.2257-.6439-.3948-.94-.6329-.2927-.235-.6074-.7893-.8966-1.0363-.2895.2475-.5094.92-.8024,1.1556-.2969.2386-.5519.5349-.8522.7611-.3042.2292-1.0889-.2178-1.3965-.0015-.3114.2191-.2185,1.0131-.5332,1.219-.3186.2085-.4175.7808-.7393.9757-.3256.1971-1.0221-.2378-1.3509-.0546-.3324.1852-.3691.9289-.7046,1.1-.3388.1726-1.0079-.3353-1.35-.1774-.3451.1594-.7311.1823-1.0791.3266-.351.1455-.3585,1.1664-.7122,1.2965-.3564.1311-1.0637-.7673-1.4226-.652-.3614.1161-.684.2745-1.0477.3746-.3658.1-.5161,1.0355-.8841,1.12-.37.0845-.76.1355-1.1313.2035s-.8784-.7347-1.2529-.6834-.6745.6494-1.0512.684-.75.1477-1.1279.1652-.76-.588-1.1389-.5876c-.0084,0-.017-.0419-.0262-.0419-.3744,0-.7345.2617-1.1077.245s-.8163.8887-1.1887.8554-.7011-.6011-1.0719-.651-.6063-.8734-.9748-.94-.9593.996-1.3248.9138c-.3639-.0819-.6019-.7124-.9636-.81-.36-.0974-.9428.5161-1.3.4029-.3552-.1124-.4128-1.1325-.7655-1.26-.35-.1268-.7516-.1037-1.0991-.2458-.3446-.1408-.9815.3657-1.3233.21-.3386-.1542-.1208-1.4733-.4566-1.6419-.3323-.1669-.7835-.0706-1.1129-.2516-.3259-.179-.5706-.4723-.8933-.6651-.3192-.1906-.8062-.0929-1.1221-.2968-.3123-.2015-.8443-.0806-1.1533-.295-.3052-.2119-.8475-.1214-1.15-.3458-.2982-.2216-.57-.5118-.8649-.7456-.2911-.2308.16-1.3714-.1278-1.6141-.2839-.24-.9944.0207-1.2749-.23-.2768-.2478-.1121-.9677-.3854-1.2265-.27-.2555-1.1639.1325-1.43-.1337a3.9744,3.9744,0,0,1-.68-.91c-.1594-.3128.4054-.8534.3519-1.1931-.054-.343-.7175-.6772-.6635-1.02.0535-.34.738-.4772.8974-.79.1539-.3019-.2154-1.0123.0371-1.2648s.8944-.0179,1.1963-.1718c.3129-.1594.4973-.8474.837-.9008.343-.0541.73.5473,1.0735.6013a2.9145,2.9145,0,0,1,.8921.3771c.3019.1539.3073.5176.56.77.273.2729,1.2819-.2186,1.5587.04.2819.2636.3087.7887.5943,1.0374.2911.2535.6763.378.971.616.3.2425.8349.1471,1.1387.3734.3095.2306.2963.879.6093,1.0926.3188.2176.244,1.0518.566,1.2516.3277.2034.97-.1056,1.3007.0792.3366.1881.7648.1868,1.1043.3556.3451.1716.3339,1.13.6817,1.2815.3531.1538,1.2206-.9716,1.5762-.8386.36.1348.66.3292,1.023.4424.367.1146.64.4543,1.0093.5467.3725.0932.5428,1.143.9169,1.2134.377.071.8085.0151,1.1867.0627.38.0478.7955.044,1.1764.068s.7939-.9091,1.1761-.9091c.0067,0,.0126.5307.0193.5307.3837,0,.7912.2969,1.1744.2722s.7631-.2559,1.1446-.3045c.38-.0483.7-.4777,1.0779-.55.3755-.0713.8517.2956,1.2256.2012.37-.0934.75-.2166,1.1177-.3324.3638-.1144.8707.1042,1.2323-.0319.3566-.1343.7155-.3532,1.07-.5084.3488-.1528.6651-.4408,1.0112-.6138.34-.17.5888-.5536.9263-.7431.3317-.1864.6616-.4.99-.6054.3227-.2012.8138-.1782,1.1332-.3972.3136-.2151.7452-.3118,1.0553-.5439.3045-.2278.5024-.6334.8033-.8775.2953-.24-.0821-1.2792.2095-1.5343.2863-.25,1.2568.2524,1.5393-.0129.2772-.26.2709-.8292.5444-1.1039.2473-.2483.4419-.6144.75-.7639.311-.1507.7852.361,1.1273.3108s.5808-.2267.9225-.1767.7985-.3024,1.11-.1517c.3085.1494.3762.6507.6235.8991.2732.2739.4289.6776.7058.9373.2822.2646.6431.454.9289.7037.2913.2545.4494.6841.7443.923.3006.2435.8827.1373,1.1868.3645.31.2316.9844-.0708,1.2977.1438.3191.2185.4573.6737.78.8744.3281.2043.4808.6895.812.8753.3371.189.5565.6142.8965.7839.3456.1725.8027.1259,1.151.2783.3536.1547.65.4692,1.0065.603.361.1357.7643.1818,1.1275.2958.3676.1154.808-.0194,1.1775.0737.3732.094.6969.4254,1.0717.4964.3776.0716.867-.6456,1.2459-.5975.3808.0484.6769.8442,1.0585.8687s.777-.2536,1.16-.2532c.0059,0,.0116-.5393.0174-.5393.3824,0,.7261.03,1.1079.0065s.8462.9154,1.2263.8676c.3783-.0476.8307.1686,1.2077.0977.3742-.07.4613-1.4559.8339-1.5491.3689-.0924.7849.0889,1.1519-.0257.3627-.1133,1.0168.6069,1.3773.4721.3555-.1329.696-.3743,1.0491-.5281.3479-.1515.2932-1.1659.6384-1.3374.34-.1688.9755.2392,1.3121.0511.3309-.1848.3567-.8787.6845-1.0821.322-.2.5766-.4687.8953-.6861.3129-.2135,1.2741.4756,1.5836.2451.3039-.2262-.06-1.3208.24-1.5632.2947-.2379,1.1047.14,1.3958-.1136.2858-.2487.8089-.2639,1.091-.5275.2769-.2588-.3388-1.4456-.0657-1.7186a4.5583,4.5583,0,0,1,1.0952-.5488,4.83,4.83,0,0,1,1.084-.5922c.3429-.0539.7893.6834,1.1323.7375.34.0535.4449.5637.7578.7231a2.4661,2.4661,0,0,1,.7885.43c.2731.2731,1.0269.046,1.3028.3043.2818.2639.001,1.1511.2856,1.4.2908.254,1.0584-.0537,1.3519.1842.3.2432.8656.1137,1.1681.34.3091.2313.3437.811.6553,1.0248.3183.2184.8144.131,1.1351.3311.3273.2042.693.2851,1.0227.47.3361.189.6326.3818.971.551.3448.1724.5737.5261.9205.678.3528.1545.6.5266.9542.66.36.1353.5921.6491.9538.7626.3668.115.9876-.72,1.3557-.6276.3724.0936.6326.5533,1.006.6239.3768.0712.7789-.2068,1.1564-.159.38.048.6907.5595,1.071.5838s.7533.51,1.135.51.79.0878,1.1713.0645.7673-.2191,1.1472-.2661c.3777-.0467.7-.487,1.0773-.5572.3735-.07.7357-.1652,1.1081-.2578.3684-.0916.5768-.68.9438-.7944.3621-.1125.6817-.2447,1.0421-.3791.3549-.1324.8684.1807,1.2215.0271.347-.151.8-.077,1.1446-.2486.3387-.1683.703-.3061,1.04-.4942.33-.1845.2667-1.02.5944-1.2241.3211-.1993.61-.4038.929-.6214.312-.2131.6994-.2876,1.0088-.5182.303-.2258,1.2915.42,1.5918.1777.2939-.2373.0254-1.163.3166-1.4164.2851-.2481,1.0465.0207,1.3289-.2428.2763-.2578-.1613-1.2594.1122-1.532.31-.3093.9813-.3727,1.3785-.5368a3.8907,3.8907,0,0,1,1.3552-.3482c.0084,0,.011.9035.0194.9044.4423.0029.8792-.4907,1.2782-.3206s.6239.555.9324.8718c.2585.2653.46.5936.7224.846.2667.257.7569.2756,1.027.5192.275.2481.5229.5217.8012.7558.2834.2383.7238.2711,1.01.4948.292.2279.7917.1463,1.0869.3589.3.2165.3867.7073.69.9079.3089.2041.3216.8744.6335,1.0619.3171.1906.8967-.08,1.2166.0933.3253.1763.754.1091,1.0819.2674.333.1607.4774.7011.8128.8432.34.1441.8354-.1488,1.1779-.024.347.1264.6851.1856,1.034.2921.3528.1076.6571.2811,1.0117.3682.3578.0878.5566.8832.9159.95.3618.0673.7455.087,1.1086.1327.3647.0459.7209.4352,1.0865.4593s.7715-.4952,1.1384-.4932c.0326.0008.0664.1411.0991.1411.3842,0,.7279-.851,1.1115-.8753s.8068.5854,1.1888.5372c.38-.048.7659-.0775,1.1448-.1491.3759-.071.7955.0131,1.17-.081.3706-.0932.5753-.7648.944-.88.3643-.1142.6615-.3553,1.0236-.4914.3571-.1341.7013-.2379,1.0559-.3931.3493-.1528,1.146.6368,1.4925.4637.3409-.17.2756-1.1281.6136-1.3178.3321-.1864.527-.5739.856-.779.3231-.2014.6945-.2977,1.0143-.517.314-.2153,1.2512.4245,1.5618.1922.3048-.2281.2767-.9132.578-1.1576.2955-.24.2188-.9164.5108-1.1718.2865-.2507.5021-.5582.785-.8239.2775-.2606.6191-.4368.8928-.7118a3.9153,3.9153,0,0,1,1.0253-.5516c.311-.1507.6927-.5414,1.0348-.5916a4.7337,4.7337,0,0,1,1.1695.1812,4.1531,4.1531,0,0,1,1.0787.3744c.3085.1494.53.5687.777.8171.2731.2739.2342.87.511,1.13.2822.2646.7212.3626,1.007.6123.2913.2545.6528.4238.9477.6627.3.2435.2991.8863.6031,1.1136.31.2315,1.018-.0862,1.3313.1284.3191.2185.6813.35,1.0036.55.3281.2043.3391.9455.67,1.1313.337.189,1.1546-.5485,1.4946-.3788.3455.1725.3985.9263.7467,1.0786.3536.1547.9241-.2714,1.28-.1376.361.1356.3954,1.1961.7586,1.31.3676.1154.9167-.4025,1.2863-.3094.3731.094.7352.1619,1.11.2329.3776.0716.7051.4076,1.084.4557.3808.0484.7344.54,1.1161.5641s.7965-.8517,1.1795-.8513c.0059,0,.0113.7439.0171.7439.3824,0,.7468-.6275,1.1286-.6516s.8117.4776,1.1918.43c.3783-.0476.639-.8133,1.0161-.8843.3742-.07.8181.241,1.1907.1477.369-.0924.77-.0808,1.1365-.1954.3627-.1132.649-.4484,1.01-.5832.3555-.133,1.041.5055,1.3941.3517.3479-.1515.4187-.9455.7639-1.1171.34-.1688.4559-.7438.7926-.9319.3309-.1848,1.24.5949,1.5676.3916.322-.2-.0939-1.54.2248-1.7571.3129-.2135.6354-.3739.945-.6043.3039-.2262.7526-.24,1.053-.483.2947-.2379.3869-.6942.678-.9476.2858-.2487.9923-.02,1.2744-.2831.2769-.2587.2152-.8615.4883-1.1344.2526-.2523.911-.044,1.2129-.1977.3128-.1593.5791-.5261.9186-.5795.343-.0539.8064-.4,1.1494-.3458.3394.0536.4954.8753.8082,1.0348.3018.1537.4384.4144.6911.6667.2652.2652.7093.35.9771.6013.2736.2567.7627.2665,1.0388.5087.282.2473.609.42.8936.6528.2905.2371.01,1.2051.3026,1.4265.2992.226,1.0258-.1258,1.3274.0839.3078.214.2871.9322.5973,1.1291.3165.2009,1.1181-.4033,1.4368-.22.3249.1866.3988.8126.7257.9807.3332.1713.6217.4459.9567.598.3409.1547.9727-.4058,1.3153-.271.348.137.3353,1.2583.6848,1.3747.3544.1181.706.3487,1.0618.4457.36.0982.9472-.7057,1.3084-.6291.3646.0774.7189.1056,1.0844.1609.3681.0557.6873.4341,1.0559.4675.37.0336.7382.1838,1.1087.1948s.7292-.7011,1.1-.7126.7885.8576,1.1586.8236c.3686-.0338.6179-.99.9859-1.0466.3654-.0557.8915.7986,1.256.7209.361-.077.5894-.7225.9493-.821.3556-.0973.5558-.6291.91-.7475.3494-.1168.6931-.1581,1.0409-.2953.3423-.1351,1.1394.7951,1.48.64.3349-.1523.2671-1.1546.6-1.326.3268-.1684.8917.1033,1.2165-.0835.3184-.1832.24-1.01.556-1.2114.31-.197.7731-.1371,1.0808-.3512.3015-.21.754-.207,1.0531-.4332.293-.2215.7851-.2039,1.0756-.4412.2844-.2322.1094-1.01.3913-1.2572.2761-.2423.7934-.2132,1.0669-.47.2679-.2515.1108-.9315.376-1.1968.2525-.2525,1.0715.1577,1.3734.0038a3.15,3.15,0,0,1,.9145-.4158,3.2724,3.2724,0,0,1,1.0246-.0511c.34.0535.4846.5213.7974.6807.3019.1538.39.37.6427.622s.584.2818.7378.5837a2.7106,2.7106,0,0,1,.2467.9066c.054.3431.7285.6956.6744,1.0386a4.1164,4.1164,0,0,1-.2917,1.1211c-.1539.3019-.694.4311-.9465.6837-.2674.2674-.4349.6386-.7056.8948-.2746.26-.6871.37-.965.6185-.2819.252-.8664.1408-1.1515.3809-.2892.2435-.5264.5259-.8187.7571-.2965.2347-.0838,1.1311-.3833,1.3531-.3038.2251-.6.4821-.9068.6942-.3108.215-1.2511-.5237-1.5648-.3221-.3179.2043-.0342,1.3715-.3547,1.5621-.3248.193-1.0063-.2347-1.3336-.0558-.3314.1812-.3977.87-.7315,1.0369-.3378.1687-.74.2238-1.08.3776-.344.1556-.7058.2868-1.0518.4273-.35.1419-.786.0633-1.1375.19-.3549.1276-.7323.1763-1.089.2881-.36.1128-.7277.1745-1.0889.2713-.3639.0975-.7906-.1189-1.1558-.0376-.3675.0817-.7442-.0049-1.1128.06-.37.0656-.71.1563-1.0814.2052-.3728.0492-.6471.9375-1.02.97s-.7859-.5212-1.1606-.5056-.7407.9973-1.116.996-.7629-.3878-1.138-.4061-.7711.0447-1.1453.01-.7073-.485-1.08-.5367c-.3709-.0515-.861.5407-1.231.4726-.3681-.0678-.5526-1.0677-.92-1.1519-.3645-.0836-.8759.4076-1.2391.3077-.36-.0991-.5487-.7835-.9075-.8986-.3558-.1142-.7907.0165-1.1447-.1134-.3507-.1286-.5362-.6594-.8849-.8035-.3451-.1425-.6194-.4015-.9624-.5592-.339-.1559-1.07.505-1.4066.3343-.3327-.1686-.4345-.7843-.7648-.9674-.3262-.1808-.6374-.38-.961-.5749-.3195-.1924-.4873-.6111-.804-.8172-.3126-.2033-1.1757.4021-1.4854.1854-.3055-.2136-.3071-.8666-.61-1.0932-.2984-.2235-.4258-.6658-.7212-.9019-.2911-.2328-.7439.2909-1.032.0458-.2891.2461-.8549-.4131-1.1475-.1789-.2964.2372-.46.6246-.76.8495-.3037.2277-.3261.84-.6332,1.0551-.3109.2177-.9452-.05-1.2594.1545-.318.2071-.4174.7511-.7386.9446-.325.1958-.878-.0178-1.2062.1641-.3317.1838-.6677.3239-1.0025.4934-.3381.1713-.5162.6494-.8573.806-.3443.1581-.729.2084-1.0761.3514-.35.1444-.7139.228-1.0667.3569-.3556.13-.55.73-.9084.8439-.3605.1151-.6881.3923-1.0509.4913-.3648.1-.76.1516-1.1268.2349-.3685.0836-.79-.0263-1.16.0408s-.78-.0654-1.1532-.0147-.7622-.0456-1.1377-.0116-.722.6041-1.0989.6211-.7728-.7767-1.15-.7767c-.0083,0-.0158.2716-.0241.2716-.3782,0-.7468-.1046-1.1237-.122s-.7716.2429-1.1476.2086-.6715-.69-1.0459-.7413-.7576.0793-1.13.0114-.6565-.446-1.0254-.53-.7408-.0435-1.1059-.1437c-.3631-.1-.7-.213-1.0608-.3288-.3584-.1149-.8148.0969-1.1707-.0338-.3531-.13-.5508-.62-.9013-.7646-.3474-.1438-.8143.0207-1.1588-.1382-.3414-.1574-.9183.1637-1.2567-.0084-.3348-.17-.2319-1.1556-.5637-1.34-.3282-.1826-.7991-.0911-1.1241-.2877-.3213-.1942-1.1437.3927-1.4617.1849-.3144-.2054-.2623-.9741-.5733-1.1926-.3071-.2158-.3957-.7249-.6994-.9534-.3-.2257-.644-.3812-.94-.6193-.2927-.235-.7686.1049-1.0578-.1421-.29.248-.9391-.3039-1.2325-.068-.2972.239-.5024.5664-.8031.793-.3045.2295-.5361.534-.844.7507-.3118.2193-.4285.7128-.7436.919-.319.2086-.6923.3246-1.0146.52-.326.1974-.8522.025-1.1814.2083-.3329.1854-.3505.9449-.6864,1.1159-.3394.1727-.48.7884-.8218.9463-.3456.16-1.1933-.8292-1.5417-.6849-.3516.1456-.68.2792-1.0347.4093-.3569.1311-.5.8445-.86.96-.3619.1161-.7208.2468-1.0851.3467-.3663.1-.8942-.4983-1.2628-.4143s-.5728.927-.9449.9947-.7436.2008-1.1186.2519-.7742-.0436-1.1514-.0094-.7481.2911-1.1267.3083S152.914,118.8428,152.5347,118.8428Z" fill="#7fa597"/><path d="M115.5188,141.257c.3166-2.6371,1.5559-5.4393-1.8453-6.4812a.386.386,0,0,1-.2392-.1961c-.0407.0251-.0832.0536-.12.0724a3.7485,3.7485,0,0,0-.8993.4506c-.2241.2241.2815,1.1985.0542,1.411-.2318.2165-.6613.2289-.8959.4332-.2391.2081-.904-.1022-1.1459.0932-.2466.199.0519,1.0977-.1977,1.2835-.254.1892-1.0431-.3767-1.3-.2013-.2616.1784-.4707.3993-.7351.5633-.2692.167-.29.7369-.562.8884-.2765.1546-.7984-.18-1.0773-.0419-.2834.1409-.2385.9738-.5242,1.0981-.29.1263-.5694.3245-.8613.4336-.2961.1106-.8331-.4807-1.1308-.3877-.3014.0942-.643-.0547-.9459.0212-.3059.0766-.3774,1.214-.6845,1.2719-.3095.0583-.6812-.1193-.9917-.08-.3121.0391-.6939-.7322-1.0068-.7124s-.5958-.0054-.91-.0054c-.0048,0-.0094.4428-.0142.4428-.3145,0-.6385.2281-.9524.2079s-.5564-.6735-.8691-.7132c-.3111-.04-.713.5494-1.0231.4907-.3077-.0584-.5733-.33-.88-.4077-.3033-.0764-.6649.0342-.9668-.0606-.2983-.0934-.6294-.1313-.9257-.2427-.2924-.11-.5362-.3681-.8264-.4951-.2861-.1251-.6613-.0868-.9452-.2286-.279-.1393-.4592-.4885-.736-.6436-.2719-.1526-.3973-.5509-.6667-.7186-.2646-.1648-.3781-.5386-.64-.7178-.2572-.1762-.811.0719-1.0654-.1181-.25-.1866-.7276-.0994-.9746-.2993-.2421-.1962-.3718-.549-.611-.7579-.2347-.2051-.5312-.3606-.7627-.5779-.2273-.2131-.3552-.5444-.5795-.7695-.203-.2039-.2586-.6156-.5119-.7383-.2554-.1235-.63.1658-.9111.1247s-.4767.1038-.7573.1451-.67-.3788-.9255-.2552c-.2534.1227-.4131.4232-.6162.6272-.2245.2256-.2193.6926-.447.9063-.2319.2179-1.0287-.1951-1.2638.0106-.2394.21.07,1.063-.172,1.26-.247.2-.41.5336-.66.7206-.2548.1906-.6092.27-.8666.4464-.2622.18-.6655.1609-.93.3263-.27.1682-.5406.344-.813.4969-.277.1558-.4811.4705-.76.61-.2841.1421-.5438.3785-.83.504-.2906.1274-.5853.3072-.8782.4175-.2968.1116-.7132-.0678-1.0118.0261-.3023.095-.6138.1962-.9177.273-.3069.0773-.698-.2237-1.0063-.1652-.3105.0589-.5733.4115-.885.4512-.3133.04-.6258.23-.94.25s-.6493-.2237-.9644-.2235c-.0054,0-.01-.4356-.0156-.4356-.3139,0-.6523.7661-.9658.7463s-.6539-.0167-.9658-.056-.6649.0069-.9744-.0513c-.3071-.0579-.447-.92-.7527-.9962-.303-.076-.5276-.3548-.8288-.449-.2977-.093-.5439-.2526-.84-.3632-.2919-.1093-1.0043.8148-1.2941.6885-.2857-.1245-.2765-.9112-.56-1.0522-.2788-.1387-.63-.1375-.9066-.2918-.2719-.152-.7991.1018-1.0681-.0652-.2644-.1639-.203-.8489-.4646-1.0277-.257-.1752-.2462-.7076-.5-.897-.25-.1858-.6884-.1075-.9349-.3065-.242-.1954-.5583-.2977-.7972-.5057-.2346-.2043-.2566-.6355-.4881-.8518-.2272-.2124-1.0556.1911-1.28-.033-.2073-.2075-.2117-.5062-.46-.6325a2.3861,2.3861,0,0,0-.7324-.3095c-.2816-.0445-.6-.5382-.8814-.4939-.279.0441-.43.609-.6871.74-.248.1263-.775-.0662-.9823.1411s.0959.7906-.03,1.0386c-.1309.2567-.693.37-.7369.6486-.0445.2817.5.5561.5448.8377.0437.2788-.42.7226-.289.98a3.26,3.26,0,0,0,.558.7469c.2185.2187.9526-.1,1.1741.11.2245.2125.0892.8037.3165,1.0069.23.2061.8136-.0076,1.0468.1892.2361.1993-.1341,1.1356.105,1.3252.2419.1919.4652.43.71.6122.248.1842.6932.11.9437.2839.2538.1759.6906.0767.947.2421.2593.1674.6592.0872.9212.2437.265.1584.4659.3991.7335.5461.27.1487.641.07.9139.2066.2756.1384.0968,1.2216.3748,1.3481.2806.1277.8036-.2881,1.0865-.1724.2854.1165.6149.0976.9024.2019.29.1048.3369.9425.6286,1.0347.2935.093.7721-.4109,1.0676-.3308.2971.08.4923.598.7912.6651s.786-.8042,1.0876-.75.4966.7307.8.7716.5744.5069.88.5344.6693-.716.976-.7022.6022-.2012.9095-.2012c.0076,0,.0146.0344.0216.0344.3109,0,.625.4968.9349.4823s.617-.1072.9263-.1355.5551-.5194.863-.5617.7228.617,1.0287.5611.6254-.0976.9289-.167.4256-.8369.7258-.9194c.2987-.0822.5635-.2123.86-.3075.2948-.0948.8755.6428,1.1682.5354.29-.1071.2965-.9452.5847-1.0646.2857-.1185.6026-.1373.886-.2682.2807-.13.83.2872,1.1083.1457.2754-.14.3055-.7509.5785-.903.27-.15.8417.2066,1.1089.0447.2644-.16.3456-.63.6072-.801.2584-.169.1822-.8211.4378-1.0009.2526-.1776.8968.1894,1.1466.0014.2465-.1858.456-.4292.7-.625.2406-.1934.421-.7457.6587-.9489.2376.2028.4959.6578.7363.8509.2435.1954.5258.3343.7721.52.2494.1877.6768.1135.9289.2907.2554.1792.5162.3219.7744.4907.2612.1706.0525,1.0859.3163,1.2454.267.1614.8794-.2682,1.149-.1183.2724.1516.3482.6678.6232.8077.2778.1411.4338.5612.714.6905.283.13.85-.377,1.1356-.259.2876.1191.3419.8482.632.9546.2922.1072.7122-.1233,1.0064-.0289.2963.095.7165-.2453,1.0145-.1635.3.0823.5294.4059.8309.4746.3031.0692.6912-.3484.9959-.2928s.5694.2293.8763.2712.5272.8309.8361.8591.6673-.6947.9772-.68.6.7627.9107.7629c.0068,0,.0134-.74.0194-.74.31,0,.61.1867.9185.1728s.65.4264.9583.3985.5673-.5011.8744-.5428.6128-.0375.9177-.0928.7387.49,1.0413.4215.4418-.8066.7413-.8884c.2979-.0813.5035-.4253.8-.52.2941-.094.8024.4534,1.0943.3468.29-.1059.3844-.71.6719-.8281.285-.1177.4943-.3729.7771-.5026.28-.1286.706.0678.9837-.0727.2748-.1393.4075-.53.68-.6807.2694-.1494,1.0085.5051,1.2753.3445.2638-.1589.4674-.448.7286-.618.258-.1677.08-.9854.3354-1.1642.2521-.1764.4538-.4031.7032-.59.2461-.1844.739-.0421.9824-.2368.24-.1922.4961-.0258.7336-.2277.21.1782.5467-.0735.7874-.0016C115.51,141.3813,115.5112,141.3209,115.5188,141.257Z" fill="#b4d1c4"/><path d="M211.5188,151.257c.3166-2.6371,1.5559-5.4393-1.8453-6.4812a.386.386,0,0,1-.2392-.1961c-.0407.0251-.0832.0536-.12.0724a3.7485,3.7485,0,0,0-.8993.4506c-.2241.2241.2815,1.1985.0542,1.411-.2318.2165-.6613.2289-.8959.4332-.2391.2081-.904-.1022-1.1459.0932-.2466.199.0519,1.0977-.1977,1.2835-.254.1892-1.0431-.3767-1.3-.2013-.2616.1784-.4707.3993-.7351.5633-.2692.167-.29.7369-.562.8884-.2765.1546-.7984-.18-1.0773-.0419-.2834.1409-.2385.9738-.5242,1.0981-.29.1263-.5694.3245-.8613.4336-.2961.1106-.8331-.4807-1.1308-.3877-.3014.0942-.643-.0547-.9459.0212-.3059.0766-.3774,1.214-.6845,1.2719-.3095.0583-.6812-.1193-.9917-.08-.3121.0391-.6939-.7322-1.0068-.7124s-.5958-.0054-.91-.0054c-.0048,0-.0094.4428-.0142.4428-.3145,0-.6385.2281-.9524.2079s-.5564-.6735-.8691-.7132c-.3111-.04-.713.5494-1.0231.4907-.3077-.0584-.5733-.33-.88-.4077-.3033-.0764-.6649.0342-.9668-.0606-.2983-.0934-.6294-.1313-.9257-.2427-.2924-.11-.5362-.3681-.8264-.4951-.2861-.1251-.6613-.0868-.9452-.2286-.279-.1393-.4592-.4885-.736-.6436-.2719-.1526-.3973-.5509-.6667-.7186-.2646-.1648-.3781-.5386-.64-.7178-.2572-.1762-.811.0719-1.0654-.1181-.25-.1866-.7276-.0994-.9746-.2993-.2421-.1962-.3718-.549-.611-.7579-.2347-.2051-.5312-.3606-.7627-.5779-.2273-.2131-.3552-.5444-.5795-.7695-.203-.2039-.2586-.6156-.5119-.7383-.2554-.1235-.63.1658-.9111.1247s-.4767.1038-.7573.1451-.67-.3788-.9255-.2552c-.2534.1227-.4131.4232-.6162.6272-.2245.2256-.2193.6926-.447.9063-.2319.2179-1.0287-.1951-1.2638.0106-.2394.21.07,1.063-.172,1.26-.247.2-.41.5336-.66.7206-.2548.1906-.6092.27-.8666.4464-.2622.18-.6655.1609-.93.3263-.27.1682-.5406.344-.813.4969-.277.1558-.4811.4705-.7605.61-.2841.1421-.5438.3785-.83.504-.2906.1274-.5853.3072-.8782.4175-.2968.1116-.7132-.0678-1.0118.0261-.3023.095-.6138.1962-.9177.273-.3069.0773-.698-.2237-1.0063-.1652-.31.0589-.5733.4115-.885.4512-.3133.04-.6258.23-.94.25s-.6493-.2237-.9644-.2235c-.0054,0-.01-.4356-.0156-.4356-.3139,0-.6523.7661-.9658.7463s-.6539-.0167-.9658-.056-.6649.0069-.9744-.0513c-.3071-.0579-.447-.92-.7527-.9962-.303-.076-.5276-.3548-.8288-.449-.2977-.093-.5439-.2526-.84-.3632-.2919-.1093-1.0043.8148-1.2941.6885-.2857-.1245-.2765-.9112-.56-1.0522-.2788-.1387-.63-.1375-.9066-.2918-.2719-.152-.7991.1018-1.0681-.0652-.2644-.1639-.203-.8489-.4646-1.0277-.257-.1752-.2462-.7076-.5-.897-.25-.1858-.6884-.1075-.9349-.3065-.242-.1954-.5583-.2977-.7972-.5057-.2346-.2043-.2566-.6355-.4881-.8518-.2272-.2124-1.0556.1911-1.28-.033-.2073-.2075-.2117-.5062-.46-.6325a2.3861,2.3861,0,0,0-.7324-.3095c-.2816-.0445-.6-.5382-.8814-.4939-.279.0441-.43.609-.6871.74-.248.1263-.775-.0662-.9823.1411s.0959.7906-.03,1.0386c-.1309.2567-.693.37-.7369.6486-.0445.2817.5.5561.5448.8377.0437.2788-.42.7226-.289.98a3.26,3.26,0,0,0,.558.7469c.2185.2187.9526-.1,1.1741.11.2245.2125.0892.8037.3165,1.0069.23.2061.8136-.0076,1.0468.1892.2361.1993-.1341,1.1356.105,1.3252.2419.1919.4652.43.71.6122.248.1842.6932.11.9437.2839.2538.1759.6906.0767.947.2421.2593.1674.6592.0872.9212.2437.265.1584.4659.3991.7335.5461.27.1487.641.07.9139.2066.2756.1384.0968,1.2216.3748,1.3481.2806.1277.8036-.2881,1.0865-.1724.2854.1165.6149.0976.9024.2019.29.1048.3369.9425.6286,1.0347.2935.093.7721-.4109,1.0676-.3308.2971.08.4923.598.7912.6651s.786-.8042,1.0876-.75.4966.7307.8.7716.5744.5069.88.5344.6693-.716.976-.7022.6022-.2012.9095-.2012c.0076,0,.0146.0344.0216.0344.3109,0,.625.4968.9349.4823s.617-.1072.9263-.1355.5551-.5194.863-.5617.7228.617,1.0287.5611.6254-.0976.9289-.167.4256-.8369.7258-.9194.5635-.2123.86-.3075c.2948-.0948.8755.6428,1.1682.5354.29-.1071.2965-.9452.5847-1.0646.2857-.1185.6026-.1373.886-.2682.2807-.13.83.2872,1.1083.1457.2754-.14.3055-.7509.5785-.903.27-.15.8417.2066,1.1089.0447.2644-.16.3456-.63.6072-.801.2584-.169.1822-.8211.4378-1.0009.2526-.1776.8968.1894,1.1466.0014.2465-.1858.456-.4292.7-.625.2406-.1934.421-.7457.6587-.9489.2376.2028.4959.6578.7363.8509.2435.1954.5258.3343.7721.52.2494.1877.6768.1135.9289.2907.2554.1792.5162.3219.7744.4907.2612.1706.0525,1.0859.3163,1.2454.267.1614.8794-.2682,1.149-.1183.2724.1516.3482.6678.6232.8077.2778.1411.4338.5612.714.6905.283.13.85-.377,1.1356-.259.2876.1191.3419.8482.632.9546.2922.1072.7122-.1233,1.0064-.0289.2963.095.7165-.2453,1.0145-.1635.3.0823.5294.4059.8309.4746.3031.0692.6912-.3484.9959-.2928s.5694.2293.8763.2712.5272.8309.8361.8591.6673-.6947.9772-.68.6.7627.9107.7629c.0068,0,.0134-.74.0194-.74.31,0,.61.1867.9185.1728s.65.4264.9583.3985.5673-.5011.8744-.5428.6128-.0375.9177-.0928.7387.49,1.0413.4215.4418-.8066.7413-.8884c.2979-.0813.5035-.4253.8-.52.2941-.094.8024.4534,1.0943.3468.29-.1059.3844-.71.6719-.8281.285-.1177.4943-.3729.7771-.5026.28-.1286.706.0678.9837-.0727.2748-.1393.4075-.53.68-.6807.2694-.1494,1.0085.5051,1.2753.3445.2638-.1589.4674-.448.7286-.618.258-.1677.08-.9854.3354-1.1642.2521-.1764.4538-.4031.7032-.59.2461-.1844.739-.0421.9824-.2368.24-.1922.4961-.0258.7336-.2277.21.1782.5467-.0735.7874-.0016C211.51,151.3813,211.5112,151.3209,211.5188,151.257Z" fill="#b4d1c4"/></svg>